<svg xmlns="http://www.w3.org/2000/svg" width="544.296" height="1071" viewBox="0 0 544.296 1071"><defs><style>.a,.b{fill:#f0f4ff;}.b{opacity:0.7;}.c{fill:#d9e2ff;}</style></defs><g transform="translate(-1518.282 -1371)"><path class="a" d="M321.329,0c5.365,0,5.365,382,0,382H118.671a15,15,0,0,1-13-7.514l-101.361-176a15,15,0,0,1,0-14.972l101.361-176a15,15,0,0,1,13-7.514Z" transform="translate(1696 1371)"/><path class="b" d="M359.582,0c5.363,0,13,418.49,13,418.49a15,15,0,0,1-13,7.51H131.418a15,15,0,0,1-13-7.51L4.316,220.49a15,15,0,0,1,0-14.979l114.106-198a15,15,0,0,1,13-7.51Z" transform="translate(1690 2016)"/><path class="a" d="M127.322,0a12,12,0,0,1,10.392,6l37.821,65.5a12,12,0,0,1,0,12L137.714,149a12,12,0,0,1-10.392,6H51.678a12,12,0,0,1-10.392-6L3.465,83.5a12,12,0,0,1,0-12L41.286,6A12,12,0,0,1,51.678,0Z" transform="translate(1536 2240)"/><path class="c" d="M276.582,282.091h-3.29V278.8a3.29,3.29,0,1,0-6.58,0v3.29h-3.29a3.29,3.29,0,0,0,0,6.58h3.29v3.29a3.29,3.29,0,1,0,6.58,0v-3.29h3.29a3.29,3.29,0,0,0,0-6.58Z" transform="translate(1403.151 1240.947)"/><path class="c" d="M276.582,282.091h-3.29V278.8a3.29,3.29,0,1,0-6.58,0v3.29h-3.29a3.29,3.29,0,0,0,0,6.58h3.29v3.29a3.29,3.29,0,1,0,6.58,0v-3.29h3.29a3.29,3.29,0,0,0,0-6.58Z" transform="translate(1258.151 1976.947)"/><path class="c" d="M276.582,282.091h-3.29V278.8a3.29,3.29,0,1,0-6.58,0v3.29h-3.29a3.29,3.29,0,0,0,0,6.58h3.29v3.29a3.29,3.29,0,1,0,6.58,0v-3.29h3.29a3.29,3.29,0,0,0,0-6.58Z" transform="translate(1458.151 2080.947)"/></g></svg>