<?xml version="1.0" encoding="utf-8"?>
<!-- Generator: Adobe Illustrator 22.1.0, SVG Export Plug-In . SVG Version: 6.00 Build 0)  -->
<svg version="1.1" xmlns="http://www.w3.org/2000/svg" xmlns:xlink="http://www.w3.org/1999/xlink" x="0px" y="0px"
	 viewBox="0 0 1507.2 515.9" style="enable-background:new 0 0 1507.2 515.9;" xml:space="preserve">
<g id="Layer_2">
	<path style="fill:#F7F9FF;" d="M0.5,369.4c0,0,595.6-87.7,738.5-96.4l29.1,1.2l262.8,29.7l476.1,65v147.5H0.5L0.5,369.4L0.5,369.4z
		"/>
</g>
<g id="Layer_1">
	<path style="opacity:0.6;fill:#DFE4F2;" d="M958.3,69c-11.7,0.1-23.6,2.1-35.3,3.2c-12.1,1.2-24.2,2.2-36.3,3
		c-11.8,0.8-23.6,1.6-35.3,2.6c-10.3,0.8-21,0.9-31.3,2.3c0.1-0.1,0.1-0.3-0.1-0.3c-8.2,0-16.3,1.6-24.4,1.7
		c-3.9,0-7.9,0.1-11.8,0.3c-1.9,0.1-4,0.4-5.9,0.2c-2.9-0.3-2.6-1-2.8-3.7c-0.1-0.7-1-0.9-1.2-0.2c-0.4,1.2-0.8,2.5-0.9,3.8
		c0.3-7.1,1.1-14.1,0.3-21.3c-0.1-0.7-0.2-1.5-0.4-2.2c1.3-1,1.1-3.2,0.5-4.5c-0.7-1.4-1.7-2.6-3.4-2.7c-0.6,0-1,0.3-1.3,0.8
		c-1-0.6-2.3-0.7-3.7-0.3c-0.3,0.1-0.4,0.4-0.2,0.6l0.3,0.3c-0.1,0.2-0.2,0.3-0.2,0.6c0,2.4,0.8,4.5,1.3,6.8
		c0.1,0.5,0.2,1.1,0.4,1.7c-0.2,0.1-0.3,0.3-0.4,0.6c-0.5,2.5-0.1,4.8,0.4,7.2c0.3,1.5,0.5,3.2,1.2,4.7c0.3,3.8,1.5,7.3,1.6,11.2
		c0.2,4.6-0.2,9.2,0.1,13.8c0.5,8.6,1.1,17,1.3,25.6c0.2,8.6,0.2,17.1,1.6,25.7c0.1,0.4,0.6,0.2,0.6-0.1c0.8-7.1,0.7-14.2,0.5-21.4
		c1.2,1,3.3,0.8,4.7,0.8c3.3,0,6.6-0.1,9.8-0.4c13.1-0.9,26.2-1.8,39.3-2.6c4.3-0.2,8.7-0.5,13-0.8c0,0.1,0,0.2,0.1,0.3
		c1.8,1.1,4.1,1,6.1,1c1.9,0,3.6-0.3,5.4-0.7c6.4,0.7,13.1,0.2,19.3-0.6c5-0.7,10-1.3,15.1-1.6c4.5-0.3,9.3,0,13.7-1.1
		c0.1,0,0.2-0.1,0.3-0.2c5.6,0.8,11.9,0.3,16.8,0.2c11.5-0.2,23.1-0.7,34.6-1.3c0.1,0,0.1-0.2,0-0.2c-10.6-0.2-21.2-0.1-31.9-0.2
		c-4.9-0.1-9.6-0.5-14.4-1.2c-4.8-0.6-10-2.2-14.8-1.9c-0.3,0-0.5,0.4-0.2,0.6c0.8,0.7,1.7,1.3,2.6,1.8c-6.5,0-13.1,0.8-19.3,1.2
		c-11.2,0.7-22.4,1.7-33.6,2.4c-10.8,0.7-21.6,1.2-32.4,1.4c-5.2,0.1-10.5,0.2-15.7,0.1c-2.9,0-5.9-0.1-8.8-0.1
		c-1.8,0-7.6,0.9-6.8-1.8c0.3-1.2-1.2-2-2-1.2c-0.4,0.3-0.7,0.7-1,1.2c0-1.1-0.1-2.2-0.1-3.3c-0.4-10.2,0.3-20.3-0.3-30.5
		c-0.1-2.4-0.1-4.8,0-7.2c0,0.3,0,0.6,0.1,1c0.1,0.5,0.5,0.8,0.9,0.9c2.9,1.1,6.9,0.5,9.9,0.4c3.8-0.1,7.5-0.4,11.2-0.9
		c6.9-1,14.4-1.4,21.3-3c0,0.4,0.2,0.9,0.7,0.9c11.6,0.5,23.8-1.2,35.4-2c12.1-0.8,24.2-1.9,36.3-3.2c11.8-1.2,23.5-2.4,35.3-3.6
		c11.4-1.1,23.1-1.7,34.3-4C958.6,69.3,958.6,69,958.3,69L958.3,69z"/>
	<path style="opacity:0.6;fill:#DFE4F2;" d="M769.1,220.5c2.2-3.1,2.5-6.7,0.8-10.1c-0.1-1.2-0.2-2.3-0.3-3.4
		c-0.3-3.7-0.2-8.2-2.3-11.4c-0.1-0.2-0.4-0.2-0.5,0.1c-1.4,3.7-0.6,8.3-0.7,12.2c0,1.7-0.2,3.4-0.3,5c-0.2,0.1-0.3,0.3-0.5,0.5
		c-4.2,6.3-18.5,4.7-21.9-2.1c-1.5-3-1.3-6.5-1.4-9.7c-0.1-4-0.2-7.9-0.3-11.9c-0.4-14.9-0.3-29.8-0.4-44.7
		c-0.1-14.8-1-29.7-0.8-44.5c0.1-7.2,0-14.4-0.7-21.6c-0.1-1.2-0.5-3.4-0.9-6c0.3-1.6,0.4-3.2,0.6-4.9c0.2-1.2,0.4-2.5,0.7-3.7
		c0.4-1.8,0.9-3.8,1.8-5.4c0.6-1,1.4-1.8,2.3-2.5c-1.5,5.8-1.4,13.2,0.2,18.4c0.1,0.5,0.9,0.5,1,0c0.4-2.1,0.6-4.3,0.7-6.5
		c0.2,0,0.4-0.1,0.5-0.3c1.9-2.5,1.8-6.8,2.3-9.8c0.3-1.8,1.6-5.2,0.1-6.7c-0.1-0.1-0.4-0.2-0.5-0.1c-0.4-0.6-1.3-0.8-1.8-0.2
		c-0.2,0.3-0.4,0.6-0.5,0.9l-0.3-0.3c-0.7-0.4-1.3-0.4-1.9-0.2c-0.1-0.3-0.3-0.5-0.6-0.5c-6.5-1-9.9,4.7-9.9,10.5
		c0.1,8,0.9,16.3,1.6,24.4c-1.2,3.4-1.2,7-1.2,10.7c-0.1,4.9-0.2,9.8-0.1,14.7c0.1,3.9,0.1,7.8,0.1,11.7c-0.1,0-0.2-0.1-0.3-0.1
		c-12.1-2-24.6-2.8-36.9-3.5c-12.7-0.7-25.6-1.5-38.4-1.1c-0.6,0-1.2,0-1.8,0.1c-4.4-2.2-10.9-1.7-15.6-1.9c-4.8-0.2-10-0.9-14.9,0
		c-1.3-0.2-2.5-0.4-3.8-0.5c-4.4-0.5-8.9-0.6-13.4-0.6c0-0.2-0.1-0.4-0.3-0.4c-7.7-1.2-16-2-23.8-2.3c-1.1,0-1.2,1.5-0.2,1.8
		c2.3,0.8,4.8,1.3,7.4,1.7c1.4,0.4,2.9,0.7,4.3,0.9c2.4,0.4,5,0.6,7.4,0.6c4.7,0.2,9.5,0.2,14.2,0.6c12.7,1,24.8,3.5,37.6,3.2
		c26-0.6,51.8,3.1,77.7,4.5c0.3,0,0.5-0.1,0.8-0.2c0.1,4.5,0.3,9,0.8,13.5c-0.4,2.5-0.4,5.2-0.4,7.7c-0.1,5,0,10,0,14.9
		c0,4,0,7.9,0.2,11.8c-0.9,5-0.7,10.5-0.9,15.3c-0.2,3.2-0.4,6.5-0.5,9.7c-0.6,3.6-0.5,7.6,0.4,11c-0.1,2.4,0.3,5,0.9,6.5
		c0,0.1,0.1,0.2,0.1,0.4c0.3,2.2,1,3.9,2.4,5.2c-0.1,1.7,0.1,3.4,0.4,5.2c0.2,1,0.3,2.1,0.5,3.1c0,2.1,0.2,4.3,0.3,6.3
		c-0.1,1.9-0.1,3.8,0,5.7c0,1.9,0,3.7,0.1,5.6c0,1.5,0,3-0.1,4.4c-0.2,4.1-1,8.8,0,12.9c-0.2,0.8-0.2,1.8-0.3,2.6
		c-0.2,1.4-0.6,3.2,0.1,4.4c-0.1,0.4,0.1,0.8,0.5,0.8c0.3,0,0.5-0.1,0.8-0.1c1.4,0.4,2.9,0.3,4.4,0.2h0.2c2.1-0.1,4.2-0.3,6.3-0.5
		c1.8,0.7,4,0.7,5.7,0.7c1,0,2-0.1,3-0.2c1.2,0.5,2.6,0.3,3.8,0.4c0.8,0,1.8,0.1,2.6-0.1h0.5c0.1,0,0.1,0,0.2-0.1l0.1,0.1
		c0.1,0.1,0.2,0.2,0.3,0.2c0.6,0.3,1.5,0.1,1.7-0.7c0.2-0.9-0.4-1.9-0.6-2.8c-0.1-0.4-0.2-0.8-0.4-1.1c0-0.1,0-0.2,0.1-0.3
		c0.2,0,0.4-0.1,0.4-0.4c1.4-3.4,0.3-7.5,0-11c0-0.7-0.1-1.3-0.1-2c0.2-1.6,0.1-3.3,0.1-4.9c0.1-3.3,0.1-6.8-0.5-10.1
		c0.2-4.9,0.3-9.9,0.9-14.7c0.2-1.4-1.3-2.1-2.5-1.8C766.9,223.2,768.2,221.9,769.1,220.5L769.1,220.5z M745.6,225.2
		C745.6,225.1,745.5,225.1,745.6,225.2c-0.1-0.4-0.3-0.6-0.4-0.8c0.3,0,0.6,0,0.9,0.1C745.8,224.6,745.7,224.8,745.6,225.2z
		 M750,224.6c-0.4,0.1-0.8,0.1-1.2,0.2c-0.1-0.2-0.3-0.3-0.4-0.4c0.6,0,1.2,0,1.8-0.1C750.1,224.4,750,224.5,750,224.6L750,224.6z"
		/>
	<path style="opacity:0.6;fill:#DFE4F2;" d="M779.9,170.4c-0.7-0.7-1.6-1-2.5-1.4s-1.8-0.8-2.7-1.1c-1.2-0.4-1.8,1.3-0.8,2
		c0.8,0.5,1.6,1,2.4,1.4s1.6,0.9,2.5,1.1C779.8,172.5,780.8,171.2,779.9,170.4z"/>
	<path style="opacity:0.6;fill:#DFE4F2;" d="M934.5,214.9c-5.7-1.2-11.7-1.1-17.5-0.7c-1,0.1-1.9,0.1-2.9,0.3
		c-0.1-0.2-0.2-0.3-0.4-0.3c-0.5,0-1.1,0-1.6,0.2c-2.4-1-5.3-1-7.8-1c-1.5,0-3.2-0.1-4.7,0.2c-5.1-1-11.1-1.1-15.9-0.2
		c-0.1,0-0.1,0-0.1,0.1c-3.2-0.3-6.4-0.6-9.5-0.2h-3.8c-0.7-0.2-1.5-0.3-2.2-0.3c-0.8-0.1-1.7-0.2-2.5,0c-6.9-2.3-15-0.9-22.3-0.4
		c-4.2-1.6-10-0.6-14.5-0.9c-4.2-0.2-9.2-1.2-13.3,0c-0.1,0-0.1,0.1,0,0.1c-5.1-0.3-10.1-0.5-15.2-0.7c-8.5-0.4-17.2-1.4-25.7-1.1
		c-0.6,0-0.7,0.9-0.1,1c7.7,1.7,16,1.6,23.9,2.2c8.9,0.6,17.7,1.4,26.6,1.8h0.3c5.1,0.6,10.3,0.7,15.3,0.5h0.8
		c1.3,0,2.5-0.1,3.7-0.2c1.8,0,3.6,0,5.4-0.1c5.1-0.1,10.3,0.1,15.5-0.3c0.6,0.2,1.3,0.2,1.8,0.3c0.6,0.1,1.2,0.2,1.8,0.2
		c0.1,0.2,0.3,0.4,0.5,0.4c7.1-0.2,14,0.1,21,0.8c4.5,0.4,10.2,1.2,15.1,0.6c-0.3,0.2-0.5,0.5-0.7,0.8c-0.1,0.2,0,0.5,0.2,0.6
		c1.4,0.2,2.7-0.7,3.9-1.2h0.1c3.2-0.7,6.3-1.3,9.8-1.4c5-0.2,10.1,0.1,15.1-0.4C934.7,215.3,934.8,214.9,934.5,214.9L934.5,214.9z"
		/>
	<path style="opacity:0.6;fill:#DFE4F2;" d="M942.6,164.7c-7.8,0.5-15.5,0-23.2,0c-7.8,0-15.5,0.7-23.3,1.1
		c-15.3,0.7-30.6,0.9-45.9,2.1c-0.5,0-0.5,0.7,0,0.8c15.3,1,30.6,0.8,45.9,0.6c7.7-0.1,15.6,0,23.3-1S934.8,165.6,942.6,164.7
		C942.7,164.8,942.7,164.7,942.6,164.7L942.6,164.7z"/>
	<path style="opacity:0.6;fill:#DFE4F2;" d="M578.4,114.3c-1,0.3-2.1,0.2-3-0.3c0,0-0.1,0,0,0C576.3,114.6,577.4,114.7,578.4,114.3
		C578.5,114.3,578.5,114.2,578.4,114.3z"/>
	<path style="opacity:0.6;fill:#DFE4F2;" d="M582.7,114.3h-1.1c-0.1,0-0.1,0.1,0,0.1L582.7,114.3
		C582.8,114.4,582.8,114.3,582.7,114.3z"/>
	<path style="opacity:0.6;fill:#DFE4F2;" d="M583.8,114.3C583.7,114.3,583.7,114.4,583.8,114.3C583.9,114.4,583.9,114.3,583.8,114.3
		z"/>
	<path style="opacity:0.6;fill:#DFE4F2;" d="M732.1,210c-21.8,0.5-43.6,0.8-65.4,1.5c-18.4,0.6-37.2,0.3-55.6,2.5
		c-3.5-0.2-8.1-0.6-11.2,1c-0.1,0,0,0.1,0,0.1c0.4,0.2,0.8,0.3,1.3,0.4c-3.1,1.1-5.9,2.8-8.4,5.1c-0.5,0.5,0.1,1.2,0.7,0.9
		c3.4-1.6,6.5-3.5,9.5-5.7c1.6,0.1,3.2-0.1,4.8-0.4c19.8,1.5,40,0,59.7-0.5c21.5-0.6,43-1.5,64.5-2.3
		C733.7,212.4,733.7,210,732.1,210L732.1,210z"/>
	<path style="opacity:0.6;fill:#DFE4F2;" d="M732.3,168.1c-5.5,0.3-10.9,0.5-16.4,0.6c0-0.2-0.1-0.3-0.3-0.4c-2.6-1.4-5.2-1-8.1-0.9
		c-3.6,0.1-7.2,0.1-10.7,0.1c-6.7,0-13.9-0.7-20.5,0.5c-0.1,0-0.2,0.1-0.2,0.2c-11.3-0.7-22.7-1.8-33.9-1.2v0.1
		c14,3.8,29.6,3.7,44,4.2c15.4,0.5,30.7,0.3,46.1-0.3C734.2,170.9,734.2,168,732.3,168.1L732.3,168.1z"/>
	<path style="opacity:0.6;fill:#DFE4F2;" d="M732.7,82c0.2-1,0.3-1.9,0.7-2.9s-0.7-2-1.7-1.8V77c0,0-0.1-0.1-0.1,0
		c-5.2,4.6-14.7,3.2-21.3,3.6c-6.9,0.3-13.8,0-20.7,0.6c-0.4,0-0.6,0.7-0.1,0.8c5.7,1.1,11.8,1.3,17.8,1c3.3,1.8,7.8,1.4,11.4,1.3
		c0.8,0,1.6,0,2.5,0.1c1.1,0.1,2.3,0.3,3.4,0.2c0.1,0.1,0.3,0.2,0.5,0.2c2.3,0.6,4.8,0.6,7.2,0.7c0.5,0,1.1-0.3,1.4-0.8l0.1-0.2
		C734.3,83.3,733.6,82.3,732.7,82L732.7,82z"/>
	<path style="opacity:0.6;fill:#B1B6C7;" d="M667.4,220.7c3.1-1.5,6-3.1,8.9-5c0.3-0.2,0-0.7-0.3-0.5c-3.1,1.5-6.1,3.1-9,4.9
		C666.7,220.3,667,220.9,667.4,220.7L667.4,220.7z"/>
	<path style="opacity:0.6;fill:#B1B6C7;" d="M672.4,219.9c2.1,0.1,4.2-0.6,6.2-1.1s4.1-1.1,6-2c0.3-0.1,0.2-0.6-0.2-0.6
		c-2.1,0.2-4.2,0.7-6.2,1.3s-4.2,1-5.9,2.1C672.1,219.7,672.2,219.9,672.4,219.9L672.4,219.9z"/>
	<path style="opacity:0.6;fill:#B1B6C7;" d="M574,175.4c2.8-0.4,5.5-1.4,8.1-2.3c2.4-0.8,4.8-1.5,7-2.8c0.5-0.3,0.1-1-0.4-0.9
		c-2.8,0.4-5.5,1.5-8.1,2.5c-2.3,0.9-4.7,1.7-6.9,3C573.4,175,573.7,175.5,574,175.4L574,175.4z"/>
	<path style="opacity:0.6;fill:#B1B6C7;" d="M585.9,175.6c2.7-0.9,5.5-1.7,8-3c0.4-0.2,0.1-0.7-0.3-0.6c-2.7,0.6-5.3,1.9-7.9,2.9
		C585.2,175,585.4,175.8,585.9,175.6L585.9,175.6z"/>
	<path style="opacity:0.6;fill:#B1B6C7;" d="M645.4,125c5.5,0,12.1-1,17.3-2.8c0.5-0.2,0.4-0.9-0.1-0.9c-5.5,0-12.1,1.1-17.3,2.8
		C644.9,124.3,644.9,125,645.4,125z"/>
	<path style="opacity:0.6;fill:#B1B6C7;" d="M516.7,118.4c2.9,1.6,7.8-0.5,9.9-2.7c0.2-0.2,0-0.7-0.3-0.6c-1.6,0.6-3.3,1.4-5,1.8
		c-1.5,0.4-3.2,0.4-4.6,1C516.5,118,516.6,118.3,516.7,118.4L516.7,118.4z"/>
	<path style="opacity:0.6;fill:#B1B6C7;" d="M525.8,119.4c2.2-1.4,4.7-2.6,6.5-4.5c0.1-0.1,0-0.4-0.2-0.4c-2.4,0.9-4.5,2.8-6.6,4.3
		C525.2,119,525.5,119.6,525.8,119.4z"/>
	<path style="opacity:0.6;fill:#B1B6C7;" d="M561.9,112.8c0.7,0.3,1.2,0.8,1.6,1.5c0.3,0.6,0.6,1.5,0.5,2.2
		c-0.1,0.3,0.3,0.5,0.5,0.2c0.6-1,0.6-1.9,0.1-2.9c-0.5-0.9-1.4-1.5-2.5-1.5C561.8,112.3,561.6,112.7,561.9,112.8L561.9,112.8z"/>
	<path style="opacity:0.6;fill:#B1B6C7;" d="M567.7,112.1c-0.3,0.9-0.3,1.8-0.3,2.7c0,0.8-0.1,1.7,0.4,2.5c0.1,0.2,0.6,0.3,0.7,0
		c0.4-0.9,0.2-1.7,0.1-2.6s-0.1-1.8-0.6-2.5C567.9,111.9,567.7,111.9,567.7,112.1L567.7,112.1z"/>
	<path style="opacity:0.6;fill:#B1B6C7;" d="M692.8,128.4c2,0.3,4-0.8,4.4-2.8c0.1-0.3-0.3-0.5-0.5-0.3c-1,1.2-2.4,2.3-3.9,2.8
		C692.6,128.1,692.6,128.3,692.8,128.4z"/>
	<path style="opacity:0.6;fill:#B1B6C7;" d="M516.6,217.6c0.5,0.7,0.9,1.6,1.1,2.5c0.1,0.8,0.3,2.1,0,2.9c-0.1,0.3,0.4,0.5,0.6,0.2
		c0.3-0.6,0.7-0.9,0.8-1.5c0.1-0.5,0.2-1.1,0.1-1.7c-0.2-1.2-0.7-2.3-1.6-3.1C517.1,216.4,516.2,217,516.6,217.6L516.6,217.6z"/>
	<path style="opacity:0.6;fill:#B1B6C7;" d="M522.7,216.4c-0.3,0.8-0.4,1.6-0.5,2.4s-0.3,1.6,0,2.4c0.1,0.4,0.7,0.5,1,0.1
		c0.4-0.7,0.5-1.5,0.6-2.3s0.2-1.7,0.1-2.5C523.7,216.1,522.9,216,522.7,216.4L522.7,216.4z"/>
	<path style="opacity:0.6;fill:#B1B6C7;" d="M594.1,214.6c-1.3,0.4-2.4,1.6-3.4,2.5c-1.3,1.2-2.5,2.3-3.6,3.7
		c-0.3,0.3,0.1,1,0.5,0.7c1.4-1,2.6-2,3.9-3.2c1-1,2.4-2,2.9-3.4C594.3,214.7,594.2,214.6,594.1,214.6L594.1,214.6z"/>
	<path style="opacity:0.6;fill:#B1B6C7;" d="M601,214.4c-1.4,0.4-2.7,1.4-3.9,2.3c-1.1,0.8-2.4,1.6-3.1,2.8
		c-0.2,0.4,0.1,0.8,0.5,0.7c1.4-0.3,2.5-1.4,3.6-2.3c1.2-0.9,2.4-1.9,3.2-3.1C601.5,214.6,601.3,214.3,601,214.4z"/>
	<path style="opacity:0.6;fill:#B1B6C7;" d="M621.3,76.4c1.9-0.6,3.6-1.4,5.3-2.5c0.4-0.2,0.1-0.9-0.3-0.8c-1.9,0.6-3.6,1.4-5.3,2.5
		C620.6,75.9,620.9,76.6,621.3,76.4z"/>
	<path style="opacity:0.6;fill:#B1B6C7;" d="M553.6,60.4c1.3,1.3,3.2,1.8,4.7,2.8c1.7,1.2,3.2,2.8,4.7,4.2c0.3,0.2,0.8,0,0.7-0.4
		c-0.8-2.1-2.3-3.7-4.1-4.9c-1.6-1.1-3.9-2.6-5.9-2.1C553.5,60,553.4,60.2,553.6,60.4L553.6,60.4z"/>
	<path style="opacity:0.6;fill:#B1B6C7;" d="M560.8,61.3c1.1,0.7,2.4,1,3.5,1.8c1.2,0.9,2.3,2,3.1,3.3c0.2,0.3,0.8,0.1,0.7-0.3
		c-0.9-2.8-4.1-5.9-7.3-5.3C560.7,60.9,560.6,61.2,560.8,61.3z"/>
	<path style="opacity:0.6;fill:#B1B6C7;" d="M475.2,61.8c5.6,0.4,13-2.2,17-6.2c0.3-0.3,0-1-0.5-0.8c-2.8,1.1-5.3,2.7-8,3.8
		c-2.8,1.1-5.7,1.7-8.5,2.7C474.8,61.3,474.9,61.7,475.2,61.8z"/>
	<path style="opacity:0.6;fill:#B1B6C7;" d="M485.8,63.3c5.6-0.6,11.1-4,15-7.8c0.5-0.5-0.1-1.3-0.7-0.9c-4.7,2.9-9.7,5-14.5,7.8
		C485.1,62.6,485.3,63.3,485.8,63.3z"/>
	<path style="opacity:0.6;fill:#B1B6C7;" d="M461.7,56.6c2.6-1,4.9-2.4,7-4.1c0.4-0.3,0-1-0.5-0.8c-2.5,1.1-4.9,2.5-7,4.3
		C461,56.1,461.4,56.7,461.7,56.6z"/>
	<path style="opacity:0.6;fill:#B1B6C7;" d="M508.2,56.6c0.5,2.2,1.8,4.6,3.1,6.4c0.2,0.3,0.8,0.1,0.7-0.3c-0.8-2.2-1.9-4.6-3.5-6.3
		C508.4,56.2,508.2,56.4,508.2,56.6z"/>
	<path style="opacity:0.6;fill:#B1B6C7;" d="M978.4,221.9c0.4,2.5,3,5,5.5,5.4c0.4,0.1,0.6-0.4,0.3-0.6c-1-0.7-2-1.4-2.9-2.2
		c-0.9-0.9-1.5-1.9-2.2-2.9C978.8,221.2,978.3,221.4,978.4,221.9L978.4,221.9z"/>
	<path style="opacity:0.6;fill:#B1B6C7;" d="M970.5,220.8c1.8,4.3,7.3,7.7,11.8,7.8c0.4,0,0.6-0.6,0.2-0.8c-2.1-1.1-4.3-1.9-6.3-3.1
		C974.3,223.5,972.6,221.9,970.5,220.8C970.6,220.7,970.5,220.7,970.5,220.8z"/>
	<path style="opacity:0.6;fill:#B1B6C7;" d="M909.1,214.4c-1.4,1.1-2.8,2.4-3.6,4c-0.1,0.3,0.2,0.7,0.5,0.5c1.5-1,2.6-2.6,3.6-4.1
		C909.7,214.4,909.3,214.2,909.1,214.4z"/>
	<path style="opacity:0.6;fill:#B1B6C7;" d="M871.7,213.1c-1.5,0.8-3.1,1.6-4.3,2.9c-0.4,0.4,0.1,1,0.6,0.7c1.6-0.7,2.9-1.9,4.1-3.1
		C872.4,213.4,872,213,871.7,213.1L871.7,213.1z"/>
	<path style="opacity:0.6;fill:#B1B6C7;" d="M989.4,167.8c4.1,5,14.1,8.1,20.4,8.3c0.7,0,0.7-0.9,0.1-1.1c-3.4-1.2-7-2-10.4-3.2
		C996.1,170.5,992.9,168.4,989.4,167.8C989.4,167.7,989.3,167.7,989.4,167.8z"/>
	<path style="opacity:0.6;fill:#B1B6C7;" d="M974.9,168c9.5,5.1,20.7,7.8,31.4,8.4c0.3,0,0.3-0.4,0.1-0.5
		C995.7,173.7,985.4,170.8,974.9,168z"/>
	<path style="opacity:0.6;fill:#B1B6C7;" d="M1031.2,170.2c5.6,3.8,12.1,6.3,18.9,6.3c0.6,0,0.7-0.9,0.1-1
		c-6.6-1.3-12.7-2.9-18.6-6.1C1031.2,169.1,1030.7,169.9,1031.2,170.2z"/>
	<path style="opacity:0.6;fill:#B1B6C7;" d="M1085.1,160.8c-5.8,1.2-11.4,3.4-16.5,6.4c-0.4,0.3-0.1,0.9,0.4,0.7
		c5.3-2.4,10.7-4.4,16.3-6.3C1085.9,161.5,1085.7,160.7,1085.1,160.8L1085.1,160.8z"/>
	<path style="opacity:0.6;fill:#B1B6C7;" d="M1104.4,101.1c-3,0.1-5.9,1.5-8.6,2.5c-2.9,1.1-5.7,2.1-8.5,3.5c-0.5,0.3-0.2,1,0.4,0.9
		c3.3-0.8,6.5-2.1,9.7-3.3c2.4-0.9,5.1-1.7,7.1-3.4C1104.5,101.2,1104.4,101.1,1104.4,101.1z"/>
	<path style="opacity:0.6;fill:#B1B6C7;" d="M1088.8,104.1c-6.2,1.9-12.8,4.8-18.3,8.2c-0.4,0.3-0.1,1,0.3,0.8
		c6.2-2,12.6-5.2,18.1-8.6C1089.2,104.4,1089,104,1088.8,104.1z"/>
	<path style="opacity:0.6;fill:#B1B6C7;" d="M982.4,113.4c4.1,2,8.5,4.4,13,5.6c0.5,0.1,0.7-0.5,0.3-0.7c-3.9-2.5-8.6-4-12.9-5.7
		C982.2,112.4,981.9,113.2,982.4,113.4L982.4,113.4z"/>
	<path style="opacity:0.6;fill:#B1B6C7;" d="M972.5,112.7c4.6,3.9,11.2,6.2,17.1,6.5c0.6,0,0.7-0.9,0.1-1c-5.8-1.7-11.3-3.7-17-5.9
		C972.5,112.1,972.3,112.5,972.5,112.7L972.5,112.7z"/>
	<path style="opacity:0.6;fill:#B1B6C7;" d="M910.1,113.1c-1.9,1.1-3.6,2.5-5,4.1c-0.3,0.3,0.1,0.7,0.4,0.5c1.9-1,3.7-2.4,5.1-4
		C910.9,113.4,910.6,112.8,910.1,113.1z"/>
	<path style="opacity:0.6;fill:#B1B6C7;" d="M890.2,119c2.7,2,6.2,3.3,9.5,3.8c0.5,0.1,0.6-0.6,0.2-0.8
		C897.1,120.3,893.5,119.1,890.2,119C890.2,118.8,890.1,118.9,890.2,119z"/>
	<path style="opacity:0.6;fill:#B1B6C7;" d="M857.4,166.1c-2.5,0.8-4.7,3-6.6,4.7c-0.3,0.2,0.1,0.7,0.4,0.5c2.2-1.3,5-2.7,6.6-4.8
		C857.9,166.3,857.7,166.1,857.4,166.1z"/>
	<path style="opacity:0.6;fill:#B1B6C7;" d="M852.8,166.6c-3.8,0.4-7.5,2.7-9.8,5.6c-0.2,0.2,0,0.5,0.3,0.4c3.1-2.2,6.3-3.9,9.6-5.7
		C853,166.8,852.9,166.6,852.8,166.6z"/>
	<path style="opacity:0.6;fill:#B1B6C7;" d="M890.2,169.6c3.6,4.7,12,7.4,17.7,6.5c0.4-0.1,0.4-0.7,0-0.8c-3-0.8-6.1-1.1-9.1-2.1
		s-5.6-2.7-8.5-3.8C890.2,169.4,890.1,169.5,890.2,169.6L890.2,169.6z"/>
	<path style="opacity:0.6;fill:#B1B6C7;" d="M772.9,167.7c2.2,1.6,5.1,2.6,7.8,3.1c0.4,0.1,0.7-0.5,0.3-0.7
		c-2.4-1.4-5.2-2.6-7.9-2.9C772.7,167.2,772.7,167.6,772.9,167.7L772.9,167.7z"/>
	<path style="opacity:0.6;fill:#B1B6C7;" d="M726.2,126.1c1.4-0.2,2.7-0.7,3.9-1.3c1-0.5,2.5-0.9,2.8-2.1c0.1-0.3-0.1-0.5-0.3-0.6
		c-1.1-0.4-2.4,0.7-3.3,1.2c-1.2,0.7-2.3,1.5-3.3,2.5C725.9,125.9,726.1,126.1,726.2,126.1L726.2,126.1z"/>
	<path style="opacity:0.6;fill:#B1B6C7;" d="M775.5,78.1c6.7,0.6,13.8,1.1,20.6,0.2c0.4-0.1,0.6-0.7,0.1-0.8
		c-6.8-1-13.9-0.7-20.7-0.3C774.9,77.2,774.9,78,775.5,78.1L775.5,78.1z"/>
	<path style="opacity:0.6;fill:#B1B6C7;" d="M800.2,82.4c4.8,0.8,10.7-0.6,14.5-3.8c0.2-0.2,0-0.6-0.3-0.5c-2.3,0.9-4.6,2-7,2.7
		C805.1,81.6,802.7,81.9,800.2,82.4z"/>
	<path style="opacity:0.6;fill:#B1B6C7;" d="M809.2,82.3c5,0,10.3-0.8,14.5-3.8c0.3-0.2,0.1-0.8-0.3-0.7c-4.8,1.4-9.3,3.2-14.3,3.9
		C808.8,81.7,808.9,82.3,809.2,82.3z"/>
	<path style="opacity:0.6;fill:#B1B6C7;" d="M933.2,62.5c3,1.6,6.6,1.9,9.9,2.4c3.4,0.6,6.8,1.2,10.3,1.3c0.6,0,0.6-0.8,0.1-1
		c-3.7-1.1-7.6-1.6-11.5-2.3c-2.9-0.5-5.8-1.2-8.7-0.7C933.2,62.4,933.2,62.5,933.2,62.5z"/>
	<path style="opacity:0.6;fill:#B1B6C7;" d="M939.4,62.8c8.6,0.1,16.4,2,24.6,4.1c0.5,0.1,0.8-0.6,0.3-0.8
		c-7.5-4.1-16.5-5.1-24.9-4.1C938.9,62,938.9,62.7,939.4,62.8L939.4,62.8z"/>
	<path style="opacity:0.6;fill:#B1B6C7;" d="M967.7,61.3c1.6,0.6,3.2,1.2,4.8,1.5c0.3,0.1,0.6-0.4,0.3-0.6c-1.6-0.7-3.2-1.1-4.9-1.5
		C967.5,60.6,967.4,61.1,967.7,61.3L967.7,61.3z"/>
	<g>
		<path style="opacity:0.6;fill:#B1B6C7;" d="M1423.3,85C1423.4,85,1423.3,84.9,1423.3,85L1423.3,85z"/>
		<polygon style="opacity:0.6;fill:#B1B6C7;" points="1423.3,85 1423.3,85 1423.3,85 		"/>
		<path style="opacity:0.6;fill:#B1B6C7;" d="M1412,93.2c0.2,0.6,0.1,2.2,1.1,1.9c0.5-0.2,0.6-0.7,0.6-1.2s-0.2-1-0.6-1.3
			C1412.6,92.2,1411.8,92.6,1412,93.2z"/>
		<path style="opacity:0.6;fill:#B1B6C7;" d="M1412.5,164c0.1,0.1,0.3,0.2,0.5,0.1c0.7-0.2,0.8-1,0.7-1.5c-0.1-0.3-0.6-0.4-0.9-0.2
			C1412.3,162.8,1412.1,163.5,1412.5,164z"/>
		<polygon style="opacity:0.6;fill:#B1B6C7;" points="1365,165.8 1365,165.8 1365,165.8 		"/>
		<path style="opacity:0.6;fill:#B1B6C7;" d="M1310.6,169.7c-0.4-0.6-0.6-1.4-0.6-2.1c0-0.3-0.4-0.3-0.5-0.1h0
			c-0.2,0.9-0.2,1.7,0.3,2.6c0.4,0.7,1.1,1.6,1.9,1.7c0.3,0.1,0.7-0.3,0.4-0.6C1311.6,170.7,1311,170.4,1310.6,169.7z"/>
		<path style="opacity:0.6;fill:#B1B6C7;" d="M1408.3,243.2c-0.3,1.6-0.1,3.7,1.3,4.7c0.3,0.2,0.7-0.1,0.6-0.5
			c-0.2-0.7-0.5-1.2-0.7-1.9s-0.3-1.5-0.4-2.2C1409.1,242.9,1408.4,242.7,1408.3,243.2z"/>
		<path style="opacity:0.6;fill:#B1B6C7;" d="M1460.3,240.2c1.3,0,1.3-2,0-2S1459,240.2,1460.3,240.2z"/>
		<path style="opacity:0.6;fill:#B1B6C7;" d="M767.7,53.2L767.7,53.2c-0.3,1.8,0.2,3.5,0.4,5.3c0.2,2.1,0.2,4.1,0.4,6.2
			c0,0.1,0.2,0.1,0.2,0c0.3-2.1,0.3-4.2,0.2-6.2C768.8,56.7,768.7,54.7,767.7,53.2z"/>
		<path style="opacity:0.6;fill:#B1B6C7;" d="M747.3,64.4L747.3,64.4c-1,2.9-1.1,6.5-0.7,9.5c0,0.3,0.4,0.4,0.5,0.1
			c0.6-3,1-6.4,0.6-9.5C747.7,64.2,747.4,64.1,747.3,64.4z"/>
		<polygon style="opacity:0.6;fill:#B1B6C7;" points="742.9,198 742.9,198 742.9,198 		"/>
		<path style="opacity:0.6;fill:#B1B6C7;" d="M744,212.6c-0.3-2.6-0.8-5.2-0.9-7.8c-0.1-2.2,0.2-4.6-0.2-6.8
			c-1.8,4.2-1,10.5,0.5,14.7C743.5,213,744,213,744,212.6z"/>
		<path style="opacity:0.6;fill:#B1B6C7;" d="M1506.5,96.3c-24.2,0.8-48.4,1.9-72.6,2.9c-2.8-0.9-5.2-2.7-7-5.2c-1.4-2-4-6.3-3.6-9
			c-2.4,2.4,0.8,7.6,2.2,9.8c1.2,1.8,2.7,3.4,4.6,4.6c-6.3,0.3-12.6,0.6-18.9,0.8l-104.9,4.6c-1.4-0.8-2.4-2.1-2.6-3.9
			c-0.3-2.2,0.7-4.1,1-6.2c0.1-0.6-0.5-0.9-0.8-0.4c-1.9,2.5-2.6,8-0.3,10.6l-1.8,0.1c-0.9-0.6-1.7-1.4-2.2-2.3
			c-0.5-0.9-0.7-1.9-1.1-2.9c-0.1-0.1-0.2-0.1-0.3,0c-0.9,1.8,0.3,4,1.9,5.3l-53.6,2.3c-63.2,2.8-126.4,5.6-189.7,8.5
			c-56.7,2.6-113.5,5.1-170.2,7.8c-35.4,1.7-70.9,3.1-106.3,5.1c-2.2,0.1-4.3,0.3-6.4,0.4c0-1.8,0-3.6,0-5.3
			c31.9-2.3,63.9-4.3,95.8-6.5c54.9-3.7,109.7-7.5,164.6-10.8c62.9-3.7,125.7-8.7,188.5-11.9c18.4-0.9,36.8-2.1,55.1-3.3
			c-0.2,0.6-0.2,1.2,0.2,1.8c0.2,0.3,0.6,0.2,0.7-0.1c0.2-0.5,0.3-1.1,0.5-1.7c0,0,0-0.1,0-0.1c21-1.4,42.1-2.9,63.1-4.5
			c-0.7,0.8-1.3,1.6-1.9,2.4c-1.3,1.8-2.9,3.8-3.4,6c-0.1,0.4,0.4,0.8,0.8,0.4c1.5-1.7,2.5-3.8,3.7-5.6c0.8-1.1,1.7-2.2,2.6-3.3
			c16.1-1.2,32.1-2.4,48.1-3.5c35.8-2.5,71.7-4.3,107.4-8c2.3-0.2,4.5-0.5,6.8-0.8c0.9-0.2,1-1.6,0-1.5l0,0
			c-32.3,1.5-64.5,4.2-96.7,6.4c-54.9,3.7-109.9,7.2-164.8,10.9c-62.9,4.2-125.7,8.8-188.5,13.2c-56.5,3.9-112.9,7.7-169.4,11.4
			c-35.7,2.3-71.4,4.4-107.1,7.1c-2,0.2-4,0.3-6.1,0.5c0-9.1-0.1-18.2,0.1-27.4c0-3,0.1-6,0.1-9c33.7-1.7,67.3-4.6,101-7.2
			c54-4.3,108-9,162-13.7c61.1-5.3,122.1-10.5,183.2-16c55-4.9,109.9-10,164.8-15.3c35.6-3.4,71.3-6.5,106.8-11.1
			c2.4-0.3,4.9-0.7,7.3-1c1.6-0.2,1.6-2.7,0-2.5c-29.7,3.7-59.7,6.3-89.7,9.2c-2.5-2-3.7-4.6-3.4-7.9c0-0.2-0.3-0.3-0.4-0.1
			c-1.3,2.7-0.3,6.3,2,8.1c-2,0.2-4,0.4-5.9,0.6c-4.4,0.4-8.9,0.9-13.3,1.3c-0.3-0.1-0.7-0.3-1-0.5c-1.8-1.1-2.7-2.7-4.2-4.1
			c-0.3-0.2-0.7-0.1-0.7,0.2h0c0,1.8,1.2,3.5,2.9,4.7c-0.3,0-0.6,0.1-0.8,0.1c-4.1-0.9-7.4-3.5-8.4-7.8c-0.1,3.3,2,6.7,5,8.1
			c-18.6,1.8-37.1,3.6-55.7,5.3c1.5-0.6,3-1.2,4.5-2c0.3-0.2,0.1-0.7-0.3-0.6c-2.3,0.7-4.3,1.8-6.5,2.8c-3.5,0.3-7.1,0.7-10.6,1
			c5.1-1.5,10-3.7,14-6.4c0.4-0.2,0.2-0.9-0.3-0.7c-4.7,1.6-9.1,3.7-13.8,5.3c-3.4,1.1-6.9,1.9-10.3,2.8
			c-20.1,1.9-40.3,3.8-60.4,5.7c-61,5.7-122,11.5-183.1,16.9c-55.5,4.9-111.1,9.6-166.6,14.3c-36.8,3.1-73.6,6.1-110.4,8.7
			c-2.5,0.2-5.1,0.4-7.6,0.5c0-2.2,0-4.4,0-6.5c33.6-2.7,67.1-6.1,100.6-9.4C928,63.7,981.2,58.4,1034.3,53
			c59.9-6.1,119.9-12,179.8-18.1c54.7-5.5,109.4-11.4,164-17.9c23.7-2.8,47.4-5.4,71.1-8.4c-1.4,2.5-2.1,5.1-2.2,8.1
			c0,0.3,0.4,0.3,0.5,0c0.3-2.9,1.4-5.7,2.9-8.2c1.1-0.1,2.2-0.3,3.4-0.4c-1.9,2.4-2.9,5.5-1.9,8.5c0.1,0.3,0.5,0.3,0.6,0
			c0.6-3.2,1.1-6,2.9-8.7c10.9-1.4,21.8-2.9,32.6-4.5c2.7-0.4,5.4-0.9,8.2-1.3c1.4-0.2,0.8-2.3-0.6-2.1
			c-33.9,5.1-68.2,8.6-102.3,12.4c-52.9,5.8-105.9,11.4-158.8,17.2c-59.9,6.6-119.9,12.9-179.8,19.3
			c-54.4,5.8-108.9,11.1-163.3,16.5c-36.5,3.6-73,7-109.6,10.7c-2.5,0.3-5,0.5-7.5,0.7c0-0.5,0-1,0-1.5c0-5.3,0.6-10.9,0-16.2
			c0-0.4-0.1-0.9-0.1-1.3c-0.2-1.8-0.3-4.2-1.4-5.7c-0.9-1.2-2.3-1.3-3.7-1.3c-0.8,0-1.6,0-2.5,0.1c-4.6-0.3-9.1-0.5-13.7-0.5
			c-3.7,0-8-0.6-11.8,0.3c-8.4-1.5-9,10.2-8.3,17.7c-0.2,2.8-0.3,5.6-0.3,8.5c-33.3-3.3-66.7-6.4-100-9.8
			C579.6,61.9,526.8,56.6,474,51.2C414.1,45.1,354.1,38.6,294.2,32C239.6,26,185,20.1,130.5,14.2C93.6,10.2,56.8,6,20.1,1.1
			c-2.8-0.4-5.6-0.7-8.4-1.1c-1.4-0.2-1.9,1.9-0.6,2.1C40.2,6.5,69.4,10,98.7,13.5c0,2.1-0.2,3.8-0.8,5.5c-0.1,0.4,0.1,0.9,0.5,1.1
			c0.1,0.1,0.3,0.1,0.4,0.1c0.4,0,0.7-0.2,0.8-0.5c1.1-1.8,1.6-3.9,1.4-5.9c3.7,0.4,7.4,0.9,11.2,1.3
			c53.1,6.3,106.3,12.3,159.5,17.7c59.9,6.1,119.8,12.3,179.8,18.1c54.7,5.3,109.3,11,164,16.3c36.7,3.6,73.3,7.4,110,10.4l6.9,0.5
			c0,2.2,0,4.3,0,6.5c-33.5-2.1-66.9-5-100.3-7.7c-54-4.5-108-9-162-13.8C409,57.7,348,52,286.9,46.3c-48.3-4.6-96.6-9.1-144.9-13.7
			c-0.1-3.5-1.3-7.4-3.6-11.6c-0.1-0.3-0.5-0.5-0.9-0.3c-0.3,0.2-0.5,0.5-0.4,0.9c0.7,2.5,1.2,5,1.7,7.5c0.2,1.1,0.4,2.2,0.6,3.3
			c-5.8-0.6-11.5-1.1-17.3-1.7c-17.9-1.8-35.8-3.5-53.7-5.4c2.1-2.5,3.1-5.9,2.8-9.9c-0.1-0.4-0.4-0.8-0.9-0.8
			c-0.4,0-0.9,0.3-0.9,0.8c-0.3,3.5-1.7,6.5-3.3,9.7C65.4,25,64.7,25,64,24.9c0.6-0.6,1.2-1.2,1.8-1.9c1.6-2.3,2.2-5.1,1.8-7.6
			c-0.1-0.5-0.5-0.8-1-0.8s-0.9,0.3-1,0.8c-0.7,3.8-2.4,6.8-5.3,9.1c-15-1.5-30-3.1-45-4.6c-2.4-0.2-4.9-0.5-7.3-0.8
			c-1.6-0.2-1.6,2.3,0,2.5c32.4,4,64.9,7.3,97.4,10.5c11.6,1.1,23.2,2.2,34.8,3.4c0.1,0.3,0.4,0.4,0.7,0.4c0.3,0,0.5-0.1,0.7-0.3
			c41.2,4,82.5,7.8,123.8,11.5c61,5.5,122,10.7,183.1,16C504,68,559.5,72.9,615,77.4c36.8,2.9,73.6,6.1,110.4,8.2
			c2.3,0.1,4.7,0.3,7,0.4c0.1,5.5,0.2,11.1,0.2,16.5c-0.1,6.6-0.2,13.1-0.2,19.7c-31.6-2.3-63.3-4.3-94.9-6.4
			c-54.9-3.6-109.8-7-164.6-11c-62.8-4.5-125.8-7.9-188.5-13.1c-56.4-4.7-113-7.6-169.5-11.4C79,78,43.3,75,7.4,73.1
			C5.2,73,3,73,0.7,72.9c-1-0.1-0.9,1.3,0,1.5h0c25.3,3,50.8,4.6,76.2,6.2c-1.8,4.8-4.4,9.2-7.8,13.2c-0.3,0.4-0.3,1,0.1,1.3
			c0.2,0.2,0.4,0.3,0.6,0.3c0.2,0,0.5-0.1,0.6-0.4c4.3-4,7.2-8.6,8.8-14.2c6.1,0.4,12.2,0.8,18.2,1.2c54.9,3.9,109.8,7.7,164.8,11.4
			c62.8,4.2,125.7,7.9,188.5,11.8c56.5,3.5,112.9,7.2,169.4,11c35.7,2.4,71.4,5,107.1,7.2c1.7,0.1,3.4,0.2,5.2,0.3
			c0,1.8,0,3.7,0,5.5c-31.3-1.7-62.8-3.2-94.2-4.6c-54.9-2.6-109.8-5.1-164.7-7.6c-63.2-2.9-126.4-5.7-189.7-8.5
			c-51.4-2.3-102.9-4.6-154.3-6.8c-0.7-3.1-2.1-6.1-3.5-9l-0.6-1.2l-0.3-0.6c-0.6-1.4-1.6-3.6-3.5-3.1c-0.2,0.1-0.3,0.2-0.4,0.4
			l-0.1,0.4l0.2,0.2c1,1.3,1.6,3,2.2,4.7c0.3,0.7,0.5,1.4,0.8,2.1l0.4,1c0.7,1.6,1.4,3.4,2.3,5c-4.5-0.2-8.9-0.4-13.4-0.6
			c-35.4-1.5-70.9-3.2-106.3-4.4c-2.2-0.1-4.4-0.1-6.5-0.2c-0.8-0.1-0.8,1.1,0,1.1c31.7,2.2,63.5,3.5,95.3,5.1
			c54.9,2.6,109.8,5,164.7,7.5c63.2,2.8,126.4,5.5,189.7,8.3c56.7,2.5,113.5,4.9,170.2,7.4c35.4,1.5,70.9,3.2,106.3,4.7
			c1.8,0.1,3.6,0.2,5.4,0.2c0,3.5,0,7.1,0,10.7c0,8.8,0,17.6,0.1,26.5c-31-0.5-62.1-1.7-93.1-2.4c-54.5-1.1-108.9-2.5-163.4-3.7
			c-62.4-1.4-124.9-3-187.3-4.3c-56.1-1.2-112.1-2.4-168.2-3.5c-35.2-0.7-70.4-1.4-105.6-1.8c-2.2,0-4.4,0-6.6-0.1
			c-1.4,0-1.4,1.8-0.1,1.9c31.6,0.8,63.3,1.6,94.9,2.3c6.7,0.1,13.3,0.3,20,0.4c0.2,0.3,0.5,0.5,0.8,0.6c2.6,0.4,3.2,6,3.3,7.7
			c0.2,2.2,0,4.2-0.3,6.4v0.1c-0.1,0.4,0.2,0.9,0.7,1h0.3c0.4,0,0.7-0.2,0.8-0.6c1.4-3.3,1.6-7.1,0.6-10.9c-0.3-1.1-0.8-2.8-1.8-4.2
			c46.3,1,92.6,2,139,3c62.4,1.3,124.9,2.4,187.3,3.7c56.1,1.2,112.1,2.2,168.2,3.3c21.1,0.4,42.2,0.9,63.4,1.3
			c14.1,0.3,28.2,1,42.3,0.7c1.6,0,3.2-0.2,4.8-0.2c0,2,0,3.9,0.1,5.9c-31.3,0.1-62.7,0-94,0.1c-54.1,0.2-108.1,0.3-162.2,0.5
			c-61.8,0.2-123.6,0.1-185.5,0.3c-55.6,0.2-111.2,0.4-166.8,0.7c-15.8,0-31.6,0-47.4,0c5.2-3.8,9.4-9.1,13.1-14.1
			c0.3-0.4,0.2-0.9-0.2-1.2c-0.4-0.4-1-0.4-1.3,0c-2.3,2.5-5,4.9-7.6,7.2c-2.9,2.5-5.8,5.2-8.4,8.1C54,176.1,36,176.3,18,177
			c-2.2,0.1-4.4,0.3-6.6,0.4c-1-0.1-1,1.4,0,1.5c31.8,1.4,63.7,0.5,95.5,0.4c54.1-0.2,108.1-0.5,162.2-0.7
			c61.8-0.3,123.6-0.7,185.5-1.2c55.6-0.4,111.2-0.6,166.8-0.9c35.3-0.2,70.6-0.4,105.9-0.7h5.2c0.1,7.1,0.2,14.3,0.4,21.4
			c-0.1,2.7-0.1,5.5-0.2,8.2c0,1-0.1,2.1-0.2,3.1c-33.1,1.2-66.3,2.1-99.4,3.1c-53.1,1.6-106.2,3.3-159.3,4.7
			c-60.1,1.7-120.3,3.1-180.5,4.8c-54.7,1.5-109.3,2.8-164,4.5c-36.6,1.1-73.3,1.7-109.8,4c-2.7,0.2-5.3,0.3-8,0.5
			c-1.2,0.1-1.3,2,0,2v0c7.6-0.1,15.2-0.2,22.8-0.4c0.5,1.1,1.1,2.1,1.7,3.1c0.6,1,1.2,2.1,1.7,3.2c0.7,1.4,1.4,2.9,2,4.4
			c0.7,1.6,1.4,3.2,2.2,4.8c0.1,0.3,0.4,0.5,0.7,0.5h0.4c0.4-0.1,0.7-0.6,0.6-1c-1.1-5.4-3.6-11-6.7-15c20.8-0.4,41.6-1.1,62.5-1.7
			c0.2,0.9,0.4,1.7,0.6,2.5c0.3,1.2,0.6,2.4,0.7,3.7c0.1,2.1-0.1,4-0.3,6.1c-0.1,0.6-0.1,1.3-0.2,1.9c0,0.4,0.2,0.8,0.6,0.9h0.3v0
			c0.4,0,0.6-0.2,0.7-0.5c2.2-3.9,2.5-10.5,0.2-14.7c3.4-0.1,6.7-0.2,10.1-0.3c53.1-1.6,106.2-3.2,159.3-5.1
			c60.1-2,120.3-3.9,180.5-5.8c54.7-1.7,109.3-3.3,164-4.9c36.6-1.1,73.2-1.8,109.8-3.5c2.3-0.1,4.5-0.2,6.8-0.3
			c-0.1,1.9-0.2,3.9-0.1,5.8c-33.5,1.8-67,3.4-100.5,5.3c-53.4,3-106.8,5.9-160.2,8.8c-60.3,3.3-120.6,6.3-180.8,9.6
			c-47.5,2.6-95,5.3-142.5,7.8c1.1-1.1,1.9-2.5,2.6-3.8c1.5-2.9,2.1-5.8,1.7-8.5c0-0.4-0.4-0.7-0.9-0.7s-0.8,0.3-0.9,0.7
			c-0.4,2.9-0.9,5.4-2.1,7.8c-0.5,1.1-1.4,2-2.2,2.9c-0.5,0.5-1,1.1-1.5,1.7c-1,0.1-2.1,0.1-3.1,0.2c2.5-1.3,4.1-4.7,4.2-7.6
			c0-0.5-0.3-0.8-0.8-0.9c-0.5-0.1-1,0.2-1.1,0.6c-0.5,1.3-0.9,2.7-1.7,4c-0.3,0.6-0.7,1.1-1.1,1.6l-1.2,1.8c-0.1,0.2-0.1,0.4,0,0.6
			c-4.6,0.2-9.2,0.5-13.7,0.7c-17.4,0.9-34.8,1.6-52.2,2.5c1.7-2,3.3-4.3,4.6-6.8c0.2-0.4,0.1-0.9-0.3-1.2c-0.4-0.3-0.9-0.2-1.2,0.1
			c-1.2,1.3-2.3,2.7-3.4,4c-0.5,0.6-1,1.2-1.5,1.8c-0.5,0.6-1.1,1.2-1.6,1.8c-0.1,0.2-0.3,0.3-0.4,0.5c-1.4,0.1-2.9,0.2-4.3,0.2
			c3.2-2.4,5.7-5.7,7.4-9.5c0.2-0.4,0-0.9-0.4-1.1c-0.4-0.2-0.8-0.1-1.1,0.3c-2.8,4.1-6.3,7.6-10.5,10.6
			c-15.1,0.8-30.3,1.8-45.4,3.1c-2.7,0.2-5.3,0.5-8,0.8c-0.9-0.2-1,1.2,0,1.2c19.9-0.1,39.8-1.1,59.6-2.3c0,0.3,0.1,0.6,0.3,0.8
			c0.2,0.2,0.5,0.3,0.7,0.3s0.3,0,0.5-0.1c0.5-0.3,1-0.7,1.5-1.1c12.8-0.8,25.5-1.6,38.3-2.4c53.4-3.2,106.8-6,160.2-8.9
			c60.3-3.3,120.6-6.9,180.8-10.1c54.8-3,109.5-6,164.3-8.9c36.8-2,73.6-3.6,110.3-6c2.6-0.2,5.1-0.5,7.8-0.6
			c0.1,0.9,0.3,1.8,0.6,2.6c0.7,2,2,3.4,3.6,4.3c-0.8,3.5-0.4,7.2-0.4,10.8c0,4.2,0.1,8.4,0.1,12.5c0.1,8.5-0.2,17.1,0.7,25.6
			c-86.6,7-173.1,18-259.4,28.5c-86.4,10.6-172.8,21.9-259,34.1c-48.7,6.9-160.8,24.1-209.3,32.5c-0.4,0.1-0.3,0.8,0.1,0.7
			c42.7-5.4,148.5-22.6,191.1-28.6c43.8-6.1,87.6-12,131.4-17.7c86.6-11.3,173.2-21.8,260-31.6c48.5-5.5,97.1-10.3,145.6-16.3
			c4.8,0.3,10-0.3,14.5-0.3c4,0,8,0.2,12,0.2c0.1,0,0.1,0,0.2,0.1c94.4,11.6,189,21.3,283.4,32.7c99.5,12,198.9,24.8,298.2,38.4
			c51.1,7,102.1,14.7,153.2,21.3c0.5-0.1,0.6-0.7,0.2-0.8c-45.5-7.8-91.3-14-137-20.4c-48.5-6.8-97.1-13.4-145.6-19.8
			c-98.9-13-198-25.3-297.1-36.7c-50.2-5.7-100.5-11.6-150.9-15.9c1.2-8,0.6-16.5,0.6-24.5c0-7.9,0.5-16.4-0.5-24.2
			c1.4-0.6,2.6-1.5,3.6-2.8c0.9-1.3,1.4-3,1.6-4.8c0.3-0.2,0.7-0.3,1-0.5c0.1,0.2,0.3,0.3,0.6,0.4c33.7,1.8,67.3,3.9,101,5.7
			c53.2,2.9,106.5,5.8,159.7,8.7c60.3,3.3,120.5,6.9,180.8,10.2c54.7,3,109.5,5.8,164.2,9.1c36.6,2.2,73.3,4.9,109.9,5.7
			c2.7,0.1,5.3,0.1,8,0.1c1,0,0.9-1.4,0-1.5c-27.5-2.8-55.3-4-83-5.3c-1.1-2-2.5-3.5-3-6c-0.5-2.2,0.4-4.3,0-6.4
			c-0.1-0.1-0.1-0.1-0.2-0.1h0c-1.9,1.3-1.8,4.9-1.4,6.9c0.4,1.9,1.2,4.1,2.7,5.5c-5.4-0.3-10.8-0.5-16.1-0.8
			c-15-0.8-29.9-1.5-44.9-2.3c-2.5-1.4-5-2.9-7.2-4.8c-2.7-2.3-4.6-5.1-6.8-7.8c-0.1-0.2-0.3,0-0.3,0.2v0c1.5,5,5.7,9.5,10.5,12.2
			c-2.1-0.1-4.2-0.2-6.3-0.3c0.2-0.1,0.2-0.3,0.1-0.5c-0.9-1.5-2.5-2.8-3.8-3.9c-1.3-1.2-2.7-2.5-4.3-3.3c-0.2-0.1-0.3,0-0.2,0.1
			l0,0c0.9,1.6,2.3,2.8,3.5,4.1c1.3,1.3,2.5,2.7,4,3.5c-17-0.9-34-1.8-51-2.8c-3-3.3-5.4-7-6.4-11.3c-0.1-0.3-0.7-0.3-0.6,0.1
			c0.3,4.2,2,8.3,5,11.1c-17-0.9-34-1.9-51-2.8c-60.3-3.3-120.6-6.3-180.8-9.6c-54.7-3-109.5-6-164.2-9c-36.6-2-73.3-4.4-109.9-6
			c-2-0.1-3.9-0.1-5.8-0.1c0.1,0,0.1,0,0.1-0.1c1.4-0.4,2.9-0.8,4.3-1.2c0.2-0.1,0.2-0.4,0-0.5c-2.6-0.5-5.7,0.2-8,1.7
			c0.1-1.7,0-3.4-0.1-5c0-0.2,0-0.4,0.1-0.6c33.4,1.2,66.8,2.4,100.2,3.4c53.1,1.6,106.2,3.1,159.3,4.7
			c60.2,1.9,120.3,3.9,180.5,5.7c33.8,1,67.5,2.1,101.2,3.2c-0.3,0.3-0.6,0.7-0.9,1c-0.7,0.9-1.1,1.7-1.3,2.8
			c-0.1,0.3,0.4,0.7,0.6,0.4c0.6-0.8,1.2-1.5,1.7-2.3c0.3-0.4,0.5-0.8,0.8-1.1c0.2-0.3,0.3-0.5,0.4-0.8c1.6,0.1,3.3,0.1,4.9,0.2
			c-3.8,3.5-7.1,8.5-8.2,13c-0.2,0.7,0.7,1,1.1,0.4c1.7-2.5,3-5.3,4.8-7.8c1.4-2,3-3.7,4.5-5.5c18.1,0.6,36.2,1.2,54.4,1.7
			c6.9,0.2,13.7,0.4,20.6,0.7c-3.1,3.1-2.7,10.5-1.8,13.9c0.1,0.5,0.8,0.4,0.9-0.1c0.2-2.8-0.2-5.7,0.3-8.6c0.3-1.8,1.3-3.4,1.9-5.2
			c9.4,0.3,18.9,0.6,28.3,0.9c-0.5,0.8-0.8,1.7-0.8,2.7c0,0.4,0.6,0.6,0.8,0.2c0.6-0.9,0.9-1.9,1.2-2.8c1.1,0,2.2,0.1,3.3,0.1
			c-2.9,2.6-3.9,7.6-3.8,11.2c0,0.5,0.7,0.6,0.9,0.1c0.7-2.3,0.9-4.8,1.9-7.1c0.5-1.5,1.4-2.9,2.4-4.2c17.9,0.5,35.8,1,53.7,1.2
			c2.7,0,5.3,0.1,8,0.1c1.3,0.1,1.2-1.8,0-1.9c-33.4-2.1-67-3-100.5-4c-53.1-1.6-106.2-3.1-159.3-4.4c-60.2-1.5-120.3-3.1-180.5-4.8
			c-54.7-1.5-109.3-3.1-164-4.8c-36.6-1.1-73.2-2.6-109.8-3.4c-2.6-0.1-5-0.1-7.6-0.2c0.6-10.9,0.1-21.9-0.1-32.7
			c31.6,0.1,63.2,0.5,94.8,0.7c54.1,0.3,108.1,0.6,162.2,0.9c61.8,0.3,123.6,0.9,185.5,1.2c55.6,0.2,111.2,0.5,166.8,0.7
			c35.3,0.2,70.7,1.1,105.9,0c2.2-0.1,4.4-0.2,6.6-0.3c1-0.2,1-1.7,0-1.7h0c-31.8-1.6-63.7-1-95.5-1.2c-9.8,0-19.6-0.1-29.4-0.1
			c-0.7-1.6-2.5-2.7-3.4-4.2c-1.1-1.7-2.1-4-2.5-6c-0.2,2.4,0,4.3,1.1,6.5c0.5,1.1,1.4,2.7,2.5,3.7c-8.7,0-17.5-0.1-26.2-0.1
			c-2.7-1.8-5.7-3.1-8.4-4.8c-3.6-2.3-5.9-5.2-8.4-8.7c0.7,6.3,7.6,11,13.8,13.5c-1.6,0-3.3,0-4.9,0c-2.9-1.8-6-3.4-9-4.7
			c-0.1-0.1-0.3,0.1-0.2,0.2c2,1.6,4.1,3.1,6.4,4.4c-31.2-0.1-62.4-0.2-93.6-0.3c-61.8-0.2-123.6-0.3-185.5-0.4
			c-55.6-0.1-111.2-0.3-166.8-0.5c-35.3-0.1-70.6-0.2-105.9-0.1H774c0-2,0-3.9,0-5.9c31.3-0.5,62.7-0.8,93.9-1.4
			c54.5-1.1,108.9-2.1,163.4-3.2c62.4-1.3,124.9-2.3,187.3-3.6c47.6-1,95.1-2,142.6-3.1c-1.5,2.4-1.9,5.9-1.5,8.3
			c0.1,0.5,0.8,0.3,0.8-0.1c0.2-1.9,0.4-3.8,1-5.7c0.3-0.8,0.7-1.7,1.1-2.5c8.1-0.2,16.1-0.3,24.2-0.5c12.3-0.3,24.6-0.6,37-0.8
			c-1.3,1.3-2.1,3.2-2.8,4.7c-1.4,3.1-2.6,6.7-2.6,10.2c0,0.6,0.8,0.7,1,0.1c1.8-5.4,2.8-10.5,6.1-15.1c1.6,0,3.1-0.1,4.7-0.1
			c-3,2.6-5.3,6.2-6.6,9.7c-0.2,0.4,0.5,0.6,0.7,0.3c1.5-2.4,3.1-4.7,4.9-6.8c1-1.1,2.2-2.2,3.3-3.3c20-0.5,39.9-0.9,59.9-1.4
			c2.2-0.1,4.4-0.1,6.6-0.2c1.3-0.2,1.3-2,0.1-2c-31.6,0.3-63.3,0.9-94.9,1.5c-54.5,1.1-108.9,2.2-163.4,3.4
			c-62.4,1.3-124.9,2.9-187.3,4.3c-56.1,1.2-112.1,2.6-168.2,3.8c-21.1,0.4-42.2,0.9-63.4,1.3c-14.1,0.3-28.2,0.2-42.3,1
			c-1.9,0.1-3.8,0.3-5.7,0.4c-0.1-11-0.1-22.1,0-33.2c0-1.3,0-2.6,0-3.9c31.7-1.7,63.4-2.9,95.2-4.3l164.7-7.2
			c63.2-2.8,126.4-5.5,189.7-8.3c56.7-2.5,113.5-5,170.2-7.7c35.4-1.7,70.9-3.2,106.3-5.4c2.2-0.1,4.4-0.3,6.5-0.4
			C1507.2,97.5,1507.3,96.3,1506.5,96.3z M767.6,273.4c-4.9-0.7-10-0.5-14.8-0.5c-4.6,0-10.2-0.5-15.2,0.1
			c0.7-8.4,0.6-17.1,0.7-25.5c0-4.2,0.1-8.4,0.1-12.5c0-3.3,0.4-6.8-0.2-10.1c1.9,0.7,4,0.8,6.1,0.7c3.1,0.6,6.5,0.3,9.7,0.3
			c3.4,0,7,0.3,10.4-0.4c1,0,2.1-0.1,3.1-0.3c-0.9,7.8-0.4,16.1-0.4,23.7C767,257,766.5,265.5,767.6,273.4
			C767.6,273.4,767.6,273.4,767.6,273.4z M772.2,74.2c0,6.6,0.1,13.2,0.2,19.8c0.2,13.5,0.1,27.1,0.1,40.6c0.1,13.2,0,26.4-0.1,39.6
			c-0.1,11.7-0.8,23.8,0,35.6c-0.4,2.5-0.4,5.1-0.6,7.8c-0.4,5.6-4.4,6.1-8.8,6.6c-0.9-0.1-1.8-0.2-2.7-0.2c6.9-6.8,7.9-20.3,7-29.2
			c0-0.2-0.3-0.2-0.3,0c-0.8,5.3-0.6,10.8-1.7,16.1c-1,4.8-3.1,8.8-5.4,13.1c-1.9,0-3.9,0.1-5.8,0.1c-2.8,0-5.8-0.2-8.7,0.1
			c-2.4,0-4.8-0.2-6.8-1.2c-3.2-1.7-4.1-4.3-4.4-7.2c1.1-24.7,1.2-49.7,1.2-74.4c0-12.6-0.3-25.2-0.3-37.9
			c-0.1-13,0.9-26.5-0.6-39.5c0.1-1.2,0.1-2.4,0.3-3.6c0.2-2.6,0.1-5.7,2.7-7.3c1.4-0.8,3.4-0.7,5.1-0.9c0,0,0,0,0,0
			c-2.6,4.5-2.7,10.8-3,15.8c-0.5,6.9-1.1,14.1-0.4,20.9c0,0.3,0.4,0.4,0.5,0.1c0.8-5.7,0.5-11.7,0.7-17.4c0.1-3.2,0.1-6.4,0.5-9.6
			c0.4-3.4,1.5-6.5,2.1-9.8c1.1,0.1,2.2,0.2,3.3,0.2c-2,2.4-2.3,5.4-2.7,8.4c-0.6,4.5-1,9.2-0.5,13.7c0,0.1,0.2,0.2,0.3,0
			c0.6-3.4,0.7-6.8,1.1-10.3c0.4-4,1.5-7.9,2-11.8c2.2,0,4.4-0.2,6.4-0.2c3.5,0,6.9-0.1,10.4-0.3c0.6,0.1,1.2,0.1,1.8,0.2
			c-0.5,4,0.3,8.2,0.4,12.1c0.2,4.9,0.4,9.7,0.6,14.6c0,0.1,0.2,0.1,0.2,0c0.8-8.1,1.6-18.9-1.1-26.7c2.8,0,5.7-0.4,7,2.4
			c0.2,0.5,0.4,1.1,0.5,1.7C771.4,62.1,772.1,68.3,772.2,74.2z"/>
		<path style="opacity:0.6;fill:#B1B6C7;" d="M768,209.5c0,4.9-0.8,8.6-3.1,12.9c3.2-3.1,4.9-8.5,3.5-12.9
			C768.3,209.3,768,209.3,768,209.5z"/>
		<path style="opacity:0.6;fill:#B1B6C7;" d="M759.7,213.2c-0.5,2.7-1.2,5.3-1.8,7.9c0,0.1,0.1,0.2,0.2,0.1h0
			c1.8-2.1,2.5-5.2,2.2-7.9C760.3,213,759.8,212.9,759.7,213.2z"/>
		<path style="opacity:0.6;fill:#B1B6C7;" d="M739.8,209.6c-0.7-4.7-0.2-9.4-0.8-14.1c-1.7,8.9-1,20.4,4.8,27.7
			c0.1,0.2,0.4,0,0.3-0.2C741.9,218.7,740.5,214.4,739.8,209.6z"/>
		<path style="opacity:0.6;fill:#B1B6C7;" d="M106.6,240.8c0.3,0,0.6-0.2,0.7-0.5c1-1.9,1.6-4.8,0.6-7.1c-0.1-0.4-0.5-0.6-0.9-0.5
			c-0.4,0.1-0.6,0.3-0.7,0.7c-0.1,0.6-0.1,1.1-0.1,1.7v1.1c-0.1,0.8-0.2,1.6-0.4,2.4c-0.1,0.3-0.1,0.6-0.2,0.9
			c-0.1,0.5,0.2,1,0.7,1.2C106.4,240.8,106.5,240.8,106.6,240.8z"/>
		<path style="opacity:0.6;fill:#B1B6C7;" d="M32.9,242.9c0.1,0.2,0.2,0.5,0.3,0.8c0.4,0.9,0.7,1.9,1.6,2.5c0.2,0.1,0.3,0.1,0.5,0.1
			h0.2c0.3-0.1,0.5-0.3,0.6-0.6c0.5-1.2-0.3-2.5-0.8-3.5l-0.2-0.3c-0.7-1.3-1.6-2.4-2.7-3.3c-0.2-0.2-0.6-0.2-0.8,0
			c-0.2,0.1-0.3,0.4-0.2,0.7c0.4,1.1,0.8,2.1,1.3,3.1L32.9,242.9z"/>
		<path style="opacity:0.6;fill:#B1B6C7;" d="M28.4,245.2c0.4,0,0.7-0.2,0.8-0.5c0.4-0.5,0.4-1.2,0-1.7c-0.3-0.4-0.8-0.5-1.3-0.3
			c-0.6,0.2-1,0.7-1,1.2s0.4,1,1,1.2C28.1,245.2,28.3,245.2,28.4,245.2z"/>
		<path style="opacity:0.6;fill:#B1B6C7;" d="M70.8,167.6c0.1-0.4-0.1-0.7-0.4-0.9c-0.3-0.1-0.8,0-1,0.3l-0.6,0.9
			c-0.4,0.6-0.8,1.2-1.2,1.7l-0.2,0.3c-0.5,0.6-1,1.3-1.5,1.9c-0.2,0.2-0.2,0.6,0,0.8c0.2,0.2,0.4,0.3,0.6,0.3c0.1,0,0.2,0,0.1-0.2
			C68.6,171.9,70.2,169.8,70.8,167.6z"/>
		<path style="opacity:0.6;fill:#B1B6C7;" d="M88.7,169.8c-0.4,0.4-0.7,0.8-1,1.3l-1.2,2c-0.4,0.6-0.2,1.3,0.4,1.6
			c0.2,0.1,0.4,0.2,0.6,0.2c0.4,0,0.7-0.2,1-0.6l0.4-0.6c0.3-0.5,0.6-1,0.9-1.5l0.6-1.5c0.1-0.2,0.2-0.5,0.3-0.7
			c0.2-0.4,0.1-0.8-0.3-1c-0.5-0.3-1-0.2-1.3,0.2C89,169.4,88.8,169.6,88.7,169.8z"/>
		<path style="opacity:0.6;fill:#B1B6C7;" d="M98.1,174.7c0.8-0.1,1.4-0.4,1.7-1.2c0.5-0.7,0.5-1.4,0.2-2.1
			c-0.2-0.3-0.5-0.5-0.8-0.5c-0.4,0-0.7,0.2-0.9,0.5c-0.1,0.2-0.1,0.3-0.2,0.5c0,0.2-0.1,0.4-0.2,0.5c-0.2,0.2-0.4,0.5-0.6,0.8
			c-0.2,0.3-0.2,0.7,0,1C97.5,174.5,97.8,174.7,98.1,174.7z"/>
		<path style="opacity:0.6;fill:#B1B6C7;" d="M132.8,164.2c0.1,0.9,0.3,2,0.9,2.8c0.2,0.2,0.6,0.4,0.9,0.4h0.2
			c0.3-0.1,0.6-0.3,0.7-0.7c0.2-1,0-1.9-0.2-2.8c0-0.2-0.1-0.3-0.1-0.5l-0.1-0.7c-0.2-1-0.5-2.1-0.8-3.1c-0.2-0.5-0.7-0.8-1.3-0.7
			c-0.5,0.1-0.8,0.6-0.8,1.1c0,1.1,0.2,2.1,0.4,3.1l0.1,0.4C132.7,163.7,132.8,164,132.8,164.2z"/>
		<path style="opacity:0.6;fill:#B1B6C7;" d="M141.9,165.4c0.1,0,0.3-0.1,0.4-0.3c0.5-0.2,0.8-0.7,0.8-1.2v-0.2c0-0.5-0.4-1-1-1
			h-0.2c-0.5,0-1,0.3-1.2,0.8c-0.2,0.6-0.1,1.1,0.3,1.5C141.2,165.3,141.6,165.4,141.9,165.4z"/>
		<path style="opacity:0.6;fill:#B1B6C7;" d="M123.1,100h0.5c0.4-0.3,0.5-0.7,0.3-1.1c-0.6-1.3-1.4-2.5-2.2-3.7l-1.5-2.4l-0.3-0.4
			l-0.8,0.4l0.4,1.1c0.8,2,1.6,4,2.9,5.8C122.6,99.9,122.8,100,123.1,100z"/>
		<path style="opacity:0.6;fill:#B1B6C7;" d="M115.4,96.7h0.3h0.4c0.4-0.1,0.8-0.5,0.9-1c0.1-0.4,0.1-0.8,0.1-1.2s-0.2-0.9-0.6-1.1
			c-0.5-0.3-1.1-0.3-1.5,0c-0.4,0.2-0.6,0.6-0.6,1.1c0,0.4,0,0.8,0.1,1.2C114.5,96.2,115,96.6,115.4,96.7z"/>
		<path style="opacity:0.6;fill:#B1B6C7;" d="M65.3,92.5c1.4-0.6,2.3-1.9,3.1-3.3c0.6-1.1,1.5-2.7,1.4-4.3c0-0.4-0.2-0.8-0.6-0.9
			c-0.4-0.1-0.8,0.1-1.1,0.4c-0.5,0.7-0.8,1.4-1.2,2.1c-0.3,0.5-0.5,1-0.8,1.4c-0.3,0.4-0.6,0.8-0.9,1.2c-0.5,0.7-1.1,1.3-1.4,2.1
			c-0.2,0.4-0.1,0.9,0.2,1.2c0.2,0.2,0.5,0.3,0.8,0.3C64.9,92.7,65.1,92.7,65.3,92.5z"/>
		<path style="opacity:0.6;fill:#B1B6C7;" d="M59,88.3c0-0.8-0.5-1.4-1.3-1.4c-0.4,0-0.8,0.1-1,0.4c-0.2,0.2-0.3,0.6-0.3,0.9
			c0,0.8,0.5,1.4,1.3,1.4S59,89,59,88.3z"/>
		<path style="opacity:0.6;fill:#B1B6C7;" d="M130.4,26.1c0.1,0.4,0.2,1,0.5,1.4c0.3,0.3,0.6,0.5,1,0.5h0.3c0.4-0.1,0.7-0.4,0.8-0.8
			c0.2-1-0.2-1.9-0.7-2.8c-0.2-0.3-0.4-0.8-0.9-1c-0.4-0.1-0.9-0.2-1.1,0.2c-0.4,0.6-0.3,1.2-0.1,1.7c0,0.1,0.1,0.2,0.1,0.3
			C130.3,25.8,130.4,25.9,130.4,26.1z"/>
		<path style="opacity:0.6;fill:#B1B6C7;" d="M74.2,21.1c-0.6,0-1.1,0.4-1.2,0.9v0.2c-0.1,0.6,0.1,1,0.5,1.3
			c0.2,0.1,0.5,0.2,0.7,0.2c0.3,0,0.5-0.1,0.7-0.3c0.4-0.2,0.6-0.7,0.5-1.3V22C75.3,21.5,74.8,21.1,74.2,21.1z M74.9,22.3
			C74.9,22.2,74.9,22.2,74.9,22.3L74.9,22.3L74.9,22.3z"/>
		<path style="opacity:0.6;fill:#B1B6C7;" d="M107.3,20.2c0.6-0.2,1.1-0.9,1.1-1.5c0-0.5-0.3-1-0.8-1.2c-0.6-0.3-1.1-0.3-1.6,0.1
			c-0.4,0.3-0.6,0.7-0.6,1.1c-0.1,0.5,0.1,0.9,0.4,1.2c0.3,0.3,0.6,0.5,1,0.5C107,20.4,107.2,20.3,107.3,20.2z"/>
	</g>
</g>
</svg>
