<?xml version="1.0" encoding="utf-8"?>
<!-- Generator: Adobe Illustrator 23.0.3, SVG Export Plug-In . SVG Version: 6.00 Build 0)  -->
<svg version="1.1" id="Camada_1" xmlns="http://www.w3.org/2000/svg" xmlns:xlink="http://www.w3.org/1999/xlink" x="0px" y="0px"
	 width="490.7px" height="441.5px" viewBox="0 0 490.7 441.5" enable-background="new 0 0 490.7 441.5" xml:space="preserve">
<path fill="#F0F4FF" d="M483.1,248.2l-83.8,145.9c-5.1,9.1-16.6,12.2-25.5,7.2l0,0c-9.1-5.1-12.4-16.6-7.3-25.9l0,0l0,0l84.6-146.4
	c3.5-5.9,3.5-13.2,0-18.9L356.6,46.3c-3.4-5.5-9.3-8.8-15.8-9H151.1c-6.7,0-13,3.6-16.3,9.3l-94.5,164c-3.2,6-3.2,13.1,0,18.9
	l94.5,164c3.4,6.1,9.5,9.9,16.3,10.2h167.6c10.3,0,18.8,8.5,18.9,18.8l0,0c0,10.5-8.5,18.9-18.9,18.9l0,0H151.1
	c-20.4-0.3-39-11.2-49.1-28.9L7.6,248.2c-10.1-17.6-10.1-39.2,0-56.8L102,27.7C112.2,10.3,131-0.2,151,0h189.4
	c19.9,0.1,38.1,10.6,48.2,27.7l94.5,163.6C493.2,209,493.2,230.5,483.1,248.2z"/>
<path fill="#F0F4FF" d="M371.2,212.9l-36.6-58.2c-1.9-3-5.9-3.9-8.8-2c-1,0.6-1.7,1.5-2.2,2.4L313,175c-1.9,3.5-1.7,7.7,0.4,11.1
	l22.9,36.4l-34.2,56.7c-4.9,8.2-2.3,18.7,5.7,23.8c2.7,1.5,5.7,2.3,8.8,2.3c6.1-0.1,11.7-3.2,14.9-8.5l39.5-65.9
	C374.7,225.5,374.7,218.4,371.2,212.9z"/>
<path fill="#F0F4FF" d="M201.8,322.9c-2.7,0-5.5-0.6-7.9-1.9c-8.3-4.1-11.7-14.3-7.5-22.5c0-0.1,0.1-0.2,0.1-0.3L274.2,131
	c4.4-8.3,14.8-11.6,23.3-7.3c8.3,4.1,11.7,14.3,7.5,22.5c0,0.1-0.1,0.2-0.1,0.3l-87.8,167.1C214.2,319.4,208.2,322.9,201.8,322.9z"
	/>
<path fill="#F0F4FF" d="M119.5,231.7l36.6,58.2c1.9,3,5.9,3.9,8.8,2c1-0.6,1.7-1.5,2.2-2.4l10.6-19.9c1.9-3.5,1.7-7.7-0.4-11.1
	l-22.9-36.4l34.1-56.7c4.9-8.2,2.3-18.7-5.7-23.8c-2.7-1.5-5.7-2.3-8.8-2.3c-6.1,0.1-11.7,3.2-14.9,8.5l-39.5,65.9
	C116,219.2,116,226.3,119.5,231.7z"/>
</svg>
