<svg xmlns="http://www.w3.org/2000/svg" width="447.78" height="204.48"><path d="M378.95 60.01l43.67-18c4.32-1.87 18.94-7.87 18.94-7.87s6.75-2.62 6.18 3.75c-.18 2.62-1.68 11.81-3.18 21.75l-4.69 29.43s-.37 4.3-3.57 5.06-8.43-2.63-9.37-3.38c-.75-.56-14.06-9-18.93-13.12-1.31-1.12-2.81-3.37.19-6a713.73 713.73 0 0019.68-18.74c2.25-2.25 4.5-7.5-4.88-1.13l-26.43 17.81s-3 1.88-8.62.2-12.19-3.94-12.19-3.94-4.5-2.82 3.2-5.82z" fill="#d9e2ff"/><path d="M172.84 2.62s8.63 169.09-107.52 196.01-69.91-119.38 128-60 204.14-56.85 204.14-56.85" fill="none" stroke="#d9e2ff" stroke-linecap="round" stroke-linejoin="round" stroke-width="5" stroke-dasharray="5 15"/></svg>