<svg id="img-u-academy" xmlns="http://www.w3.org/2000/svg" viewBox="0 0 130 130"><path d="M97.3 104.6c-1.3-1.8-3.7-2.9-6.2-1.1-15.2 10.7-37 10.4-51.8-.8-.9-.7-2.1-.9-3.3-.7-1.5.3-2.8 1.2-3.5 2.4-1.6 2.6-.3 5.3 1.7 6.7 8.9 6.7 20.2 10 31.5 10 10.8 0 21.7-3.1 30.5-9.2 2.7-1.9 2.6-5.2 1.1-7.3z" fill="#f26b7a"/><path d="M125.9 34.8c-17.8-8.7-36.2-16.4-54.2-24.6-.4-.2-.7-.3-1.1-.5-.4-.3-1-.6-1.7-.7-3.7-.8-6.8 1.1-10.1 2.6-4.7 2.1-9.5 4.2-14.2 6.3-10.8 4.8-21.6 9.7-32.4 14.5-2.2 1-4.9 1.8-6.9 3.3-3.2 2.6-3.2 7.3-.5 10-.1.4-.2.8-.2 1.3v22.2c-.7.8-1.3 1.7-1.7 2.8-.1.3-.2.6-.2 1 0 .2-.1.4-.1.6-.1 1.5.5 3 1.4 4.1-.2.3-.4.7-.5 1.1C2.4 83 1.3 87.2.1 91.4-.6 94.2 1.5 97 4.4 97h8.3c.7 0 1.3-.1 1.8-.4 2.1-.6 3.7-2.6 3-5.3-1.1-4.2-2.2-8.4-3.4-12.6-.1-.4-.3-.7-.5-1 .8-1.1 1.2-2.3 1.3-3.7.1-1.7-.5-3.4-1.7-4.6V50.1c6.1 2.7 12.3 5.5 18.4 8.2v14.9c0 2-.1 4.1 0 6.2.6 7 6.2 11.2 11.8 14.5 11.2 6.4 25 7.8 37.1 3.1 5.7-2.2 13.2-5.7 16-11.4 1.4-2.9 1.5-5.8 1.5-8.9V59.6c6.3-2.8 12.6-5.7 18.8-8.5 3-1.3 6-2.5 8.9-4 5.7-2.8 5.3-9.8.2-12.3zM89.5 78.9c-.1 3.9-3.7 5.7-6.8 7.5-9.8 5.5-21.8 6.1-32 1.1-3.6-1.7-9.7-4.5-10-9.1-.1-1.8 0-3.6 0-5.3v-11c7.4 3.3 14.8 6.6 22.3 9.9 2.3 1 4.5 1.3 6.9.2l2.1-.9 12-5.4c1.8-.8 3.7-1.6 5.5-2.5v8.4c0 2.4.1 4.8 0 7.1zm28.4-37.8c-9.7 4.4-19.4 8.7-29 13.1-5.5 2.4-10.9 4.8-16.3 7.3-1.7.8-3.4 1.5-5.2 2.3-.2.1-.5.2-.7.3-.1 0-.2-.1-.3-.1-1.4-.6-2.8-1.2-4.1-1.8-4.6-2-9.2-4.1-13.7-6.1L17.7 42.3c-1-.5-2.1-.9-3.1-1.4.2-.1.3-.2.5-.2C25 36.3 34.8 32 44.6 27.6c5.4-2.4 10.8-4.8 16.2-7.3 1.8-.8 3.5-1.6 5.3-2.4.2-.1.5-.2.7-.3 16.1 7.4 32.2 14.7 48.3 22 1 .5 2.1.9 3.1 1.4-.1 0-.2.1-.3.1z" fill="#557cf2"/></svg>