<svg xmlns="http://www.w3.org/2000/svg" width="36.999" height="36.999" viewBox="0 0 36.999 36.999"><defs><style>.a{fill:#557cf2;}</style></defs><g transform="translate(-280.614 -403.891)"><g transform="translate(287.879 415.236)"><path class="a" d="M302.006,430.725c2.211-1.759,2.8-5.208,2.12-8.769-1.007-5.241-3.179-7.64-6-7.64s-4.975,2.378-6,7.64c-.68,3.582-.077,7.016,2.156,8.769a6.866,6.866,0,0,0,3.821,1.306A6.2,6.2,0,0,0,302.006,430.725Z" transform="translate(-286.888 -414.316)"/><circle class="a" cx="1.951" cy="1.951" r="1.951" transform="translate(0 3.228)"/><circle class="a" cx="1.951" cy="1.951" r="1.951" transform="translate(18.566 3.228)"/></g><g transform="translate(280.614 403.891)"><g transform="translate(0)"><path class="a" d="M299.114,440.89a18.5,18.5,0,1,1,18.5-18.5A18.52,18.52,0,0,1,299.114,440.89Zm0-33.735a15.235,15.235,0,1,0,15.235,15.235A15.252,15.252,0,0,0,299.114,407.156Z" transform="translate(-280.614 -403.891)"/></g></g></g></svg>