<svg xmlns="http://www.w3.org/2000/svg" xmlns:xlink="http://www.w3.org/1999/xlink" width="286.835" height="285.828" viewBox="0 0 286.835 285.828"><defs><style>.a{fill:none;}.b{clip-path:url(#a);}.c{fill:#3d63d4;}.d{fill:#a2b8fa;}.e{fill:#d9e2ff;}.f{fill:#7997f2;}.g{fill:#e8fce8;}.h{fill:#f0f4ff;}.i{fill:#4e5159;}.j{fill:#557cf2;}.k{fill:#fff;}.l{opacity:0.6;}.m{clip-path:url(#e);}</style><clipPath id="a"><rect class="a" width="286.835" height="285.828"/></clipPath><clipPath id="e"><rect class="a" width="20.938" height="16.776"/></clipPath></defs><g transform="translate(-317.94 -620.779)"><g class="b" transform="translate(317.94 620.779)"><g class="b"><path class="c" d="M139.3,285.41l133.214-15.538-12.847-15.366h-66Z"/><path class="d" d="M449.284,416.021a2.16,2.16,0,0,1-1.218,3.564l-13.932,2.532-.023-.135L396.225,382.3l11.116-13Z" transform="translate(-164.178 -152.823)"/><path class="e" d="M198.037,164.238l-.011-.012c12.351-10.288,26.933-21.191,41.551-28.383,10.887-5.352,22.371-9.83,34.413-11.3s24.744.24,35.1,6.554c15.164,9.232,23.426,27.316,24.246,45.054s-4.89,35.195-12.526,51.227a216.4,216.4,0,0,1-47.631,64.938q-5.684,5.32-11.749,10.205c-1.194.973-2.4,1.923-3.613,2.861q-6.9,5.328-14.208,10.077c-17.7,11.483-37.85,20.516-58.951,20.528s-43.121-10.622-52.034-29.761c-8.539-18.33-3.8-40.072,3.854-58.783a213.56,213.56,0,0,1,61.557-83.2m67.672,99.089c45.956-48.548,64.045-106.076,40.4-128.5s-80.063-1.254-126.018,47.288-64.041,106.076-40.4,128.5,80.064,1.249,126.02-47.293" transform="translate(-53.069 -51.332)"/><path class="f" d="M431.828,431.161l.023.135-.053.012a2.195,2.195,0,0,1-1.271-.152l-8.509-3.839a2.238,2.238,0,0,1-.668-.475c-3.092-3.247-30.108-31.584-30.635-31.584l3.227-3.775Z" transform="translate(-161.895 -162.001)"/><path class="g" d="M306.973,136.124c23.648,22.422,5.558,79.95-40.4,128.5S164.2,334.337,140.556,311.915s-5.558-79.956,40.4-128.5S283.331,113.7,306.973,136.124M258.382,256.1c38.858-41.045,54-89.839,33.809-108.983s-68.046-1.389-106.909,39.655-54,89.839-33.809,108.983,68.051,1.389,106.91-39.655" transform="translate(-53.936 -52.627)"/><path class="h" d="M300.935,155.762c20.188,19.145,5.048,67.939-33.809,108.983s-86.722,58.8-106.91,39.655-5.048-67.939,33.809-108.983,86.722-58.8,106.909-39.656M258.313,256.615c31.718-33.506,44.169-73.249,27.806-88.765s-55.331-.933-87.056,32.574-44.17,73.244-27.806,88.76,55.332.938,87.056-32.568" transform="translate(-62.681 -61.268)"/><path class="d" d="M377.951,422.692a2.16,2.16,0,0,1-1.218,3.564L362.8,428.788l-.023-.135-6.8-7.1-.193-.24q6.054-4.88,11.749-10.205l.281.3Z" transform="translate(-147.421 -170.121)"/><path class="g" d="M295.16,177.442c16.364,15.516,3.912,55.26-27.806,88.766s-70.7,48.085-87.057,32.568-3.912-55.254,27.807-88.76,70.7-48.091,87.056-32.574M258.71,257.937C283.266,232,292.888,201.23,280.2,189.207s-42.863-.756-67.413,25.177S178.617,271.091,191.3,283.12s42.863.75,67.413-25.182" transform="translate(-71.722 -70.86)"/><path class="f" d="M360.221,435.857l.023.135-.059.012a2.2,2.2,0,0,1-1.27-.152l-8.5-3.84a2.166,2.166,0,0,1-.668-.475l-.129-.164c1.218-.938,2.419-1.888,3.613-2.861l.193.24Z" transform="translate(-144.865 -177.325)"/><path class="h" d="M289.127,198.491c12.685,12.023,3.063,42.8-21.493,68.73S212.9,304.426,200.221,292.4s-3.057-42.8,21.493-68.736,54.734-37.205,67.414-25.177m-29.9,59.8c17.095-18.06,24.111-39.181,15.672-47.182s-29.136.147-46.225,18.2-24.111,39.175-15.672,47.182,29.13-.147,46.225-18.2" transform="translate(-80.646 -80.145)"/><path class="g" d="M285.373,221.239c8.439,8,1.423,29.122-15.672,47.182s-37.792,26.2-46.225,18.2-1.423-29.128,15.672-47.182,37.785-26.208,46.225-18.2M261.3,260.654c9.048-9.555,12.7-20.792,8.158-25.095s-15.549-.053-24.6,9.5-12.7,20.792-8.158,25.095,15.555.053,24.6-9.5" transform="translate(-91.117 -90.278)"/><path class="h" d="M279.971,246.655c4.539,4.3.891,15.54-8.157,25.095s-20.058,13.81-24.6,9.5-.884-15.54,8.157-25.095,20.058-13.811,24.6-9.5m-12.9,20.622c4.094-4.32,5.716-9.437,3.625-11.419s-7.1-.087-11.2,4.238-5.715,9.438-3.625,11.419,7.1.087,11.2-4.239" transform="translate(-101.627 -101.374)"/><path class="g" d="M277.552,262.987c2.091,1.982.469,7.1-3.625,11.419s-9.107,6.219-11.2,4.238-.469-7.1,3.625-11.419,9.107-6.219,11.2-4.239" transform="translate(-108.485 -108.503)"/><path class="i" d="M184.561,336.008a64.867,64.867,0,0,1-30.569-7.706c-9.814-5.352-17.241-12.994-21.481-22.1-3.929-8.433-5.325-18.287-4.15-29.288.957-8.962,3.649-18.906,8-29.554a213.109,213.109,0,0,1,61.541-83.2.075.075,0,0,1,.025-.042C213.6,151.065,227.2,141.778,239.5,135.728c13.115-6.447,24.057-10.04,34.435-11.308,13.09-1.606,25.57.726,35.15,6.564A48.312,48.312,0,0,1,326.61,150.35a62.949,62.949,0,0,1,6.753,25.747c.707,15.3-3.393,32.071-12.533,51.261a214.755,214.755,0,0,1-20.777,34.719,218.008,218.008,0,0,1-26.871,30.241c-3.755,3.515-7.709,6.949-11.752,10.209-1.171.954-2.387,1.917-3.615,2.862-4.615,3.566-9.4,6.957-14.212,10.08a145.3,145.3,0,0,1-28.216,14.573,88.274,88.274,0,0,1-30.775,5.967ZM198.13,164.144a.072.072,0,0,1-.028.044l-.03.026a.52.52,0,0,1-.04.033A212.947,212.947,0,0,0,136.5,247.419c-9.68,23.679-10.976,43.436-3.855,58.724,8.28,17.78,29.139,29.718,51.914,29.718h.054c18.373-.011,37.643-6.721,58.911-20.516,4.812-3.12,9.591-6.51,14.2-10.073,1.226-.944,2.442-1.907,3.612-2.86,4.041-3.257,7.992-6.69,11.745-10.2A217.819,217.819,0,0,0,320.7,227.3c9.131-19.168,13.226-35.913,12.52-51.192-.888-19.2-10.164-36.443-24.211-44.994-9.552-5.821-22-8.145-35.056-6.544-10.362,1.266-21.289,4.855-34.39,11.295-12.257,6.031-25.809,15.283-41.43,28.285" transform="translate(-53.02 -51.282)"/><path class="i" d="M166.1,320.884c-.809,0-1.606-.018-2.4-.052-9.634-.423-17.457-3.423-23.249-8.916s-9.206-13.152-10.147-22.759c-.908-9.272.514-19.962,4.227-31.772,7.633-24.28,24.081-50.588,46.315-74.076s47.592-41.34,71.4-50.275c11.582-4.346,22.163-6.34,31.469-5.934,9.635.424,17.457,3.424,23.25,8.919s9.208,13.149,10.149,22.756c.908,9.271-.514,19.96-4.227,31.771-7.633,24.279-24.082,50.586-46.317,74.074s-47.592,41.34-71.4,50.276c-10.6,3.977-20.365,5.988-29.072,5.988M281.365,127.166c-8.584,0-18.379,2-29.062,6-23.791,8.928-49.13,26.77-71.349,50.239s-38.656,49.759-46.282,74.019c-7.621,24.242-5.533,43.555,5.881,54.382s30.792,11.871,54.566,2.949c23.792-8.929,49.132-26.771,71.35-50.24l.053.05-.053-.05c22.22-23.473,38.657-49.759,46.284-74.018,7.621-24.242,5.532-43.553-5.883-54.376-6.285-5.962-14.985-8.959-25.5-8.959" transform="translate(-53.882 -52.574)"/><path class="i" d="M182.188,312.129q-1.151,0-2.272-.055c-8.193-.4-14.855-2.98-19.8-7.673s-7.882-11.212-8.721-19.379c-.809-7.881.356-16.957,3.464-26.975,6.39-20.594,20.262-42.874,39.064-62.733s40.285-34.923,60.485-42.417c9.828-3.645,18.819-5.3,26.725-4.913,8.192.4,14.854,2.98,19.8,7.672s7.882,11.213,8.721,19.379c.811,7.881-.355,16.957-3.463,26.975-6.389,20.6-20.263,42.874-39.064,62.733s-40.281,34.924-60.484,42.418c-8.9,3.3-17.113,4.968-24.454,4.968M278.9,148.053c-7.24,0-15.477,1.655-24.445,4.983-20.18,7.486-41.642,22.536-60.43,42.38s-32.647,42.1-39.029,62.675c-6.378,20.557-4.525,36.965,5.218,46.2s26.212,10.208,46.377,2.728c20.182-7.486,41.642-22.537,60.428-42.381l.053.05-.053-.05c18.786-19.844,32.647-42.1,39.029-62.675,6.378-20.556,4.525-36.965-5.217-46.2-5.408-5.13-12.892-7.71-21.93-7.71" transform="translate(-62.627 -61.216)"/><path class="i" d="M197.992,305q-.865,0-1.71-.039c-6.664-.3-12.077-2.383-16.088-6.188s-6.382-9.1-7.042-15.749c-.636-6.411.338-13.8,2.895-21.96,5.255-16.774,16.6-34.942,31.95-51.155s32.866-28.532,49.318-34.689c8-2.995,15.318-4.366,21.753-4.076,6.664.3,12.077,2.383,16.088,6.188s6.382,9.1,7.042,15.749c.636,6.412-.338,13.8-2.895,21.962-5.255,16.777-16.6,34.945-31.95,51.159s-32.865,28.53-49.318,34.685A57.974,57.974,0,0,1,197.992,305m79.4-133.767a58.085,58.085,0,0,0-20.027,4.124c-16.433,6.149-33.928,18.455-49.263,34.652s-26.669,34.345-31.917,51.1c-5.244,16.736-3.785,30.075,4.108,37.559s21.274,8.225,37.689,2.084c16.433-6.147,33.928-18.453,49.263-34.649s26.668-34.346,31.917-51.1c5.243-16.737,3.784-30.078-4.108-37.562-4.353-4.128-10.378-6.205-17.663-6.205M267.3,266.156h0Z" transform="translate(-71.668 -70.808)"/><path class="i" d="M213.9,297.244c-5.685,0-10.391-1.622-13.794-4.849-6.154-5.838-7.3-16.218-3.234-29.229,4.063-12.993,12.843-27.061,24.724-39.611s25.443-22.082,38.186-26.842c12.76-4.766,23.177-4.175,29.331,1.663s7.306,16.213,3.239,29.224c-4.063,12.993-12.846,27.06-24.729,39.61l-.053-.05.053.05c-11.88,12.55-25.442,22.082-38.186,26.843a45.106,45.106,0,0,1-15.537,3.191M275.318,193.67a44.948,44.948,0,0,0-15.482,3.181c-12.723,4.752-26.264,14.271-38.131,26.805-24.484,25.862-34.127,56.651-21.5,68.633s42.826.682,67.31-25.18c11.869-12.534,20.639-26.581,24.7-39.553,4.051-12.954,2.914-23.279-3.2-29.074-3.376-3.2-8.049-4.813-13.7-4.813" transform="translate(-80.585 -80.083)"/><path class="i" d="M232.239,289.722a12.472,12.472,0,0,1-8.872-3.106c-4.1-3.893-4.728-10.96-1.759-19.9,2.963-8.921,9.152-18.647,17.428-27.386s17.643-15.449,26.383-18.892c8.759-3.449,15.843-3.205,19.946.688s4.728,10.956,1.759,19.9c-2.963,8.921-9.152,18.648-17.428,27.391S252.05,283.86,243.308,287.3a30.818,30.818,0,0,1-11.069,2.42m44.248-71.557a30.662,30.662,0,0,0-11.015,2.411c-8.72,3.434-18.071,10.13-26.329,18.856-17.038,17.994-24.07,39.113-15.675,47.078,4.057,3.849,11.084,4.082,19.787.656,8.722-3.434,18.074-10.13,26.335-18.854s14.439-18.435,17.395-27.336c2.951-8.882,2.339-15.894-1.72-19.743a12.335,12.335,0,0,0-8.777-3.069m-6.845,50.2h0Z" transform="translate(-91.059 -90.22)"/><path class="i" d="M251.973,282.956a6.835,6.835,0,0,1-4.863-1.707c-2.217-2.1-2.583-5.885-1.032-10.653a44.469,44.469,0,0,1,23.2-24.512c4.673-1.806,8.467-1.642,10.684.463s2.585,5.885,1.035,10.653A44.5,44.5,0,0,1,257.8,281.712a16.449,16.449,0,0,1-5.823,1.244m23.13-37.971a16.305,16.305,0,0,0-5.769,1.234,44.334,44.334,0,0,0-23.118,24.421c-1.532,4.712-1.179,8.442.994,10.5s5.914,2.216,10.533.432a44.35,44.35,0,0,0,23.118-24.42c1.531-4.712,1.177-8.441-1-10.5a6.7,6.7,0,0,0-4.762-1.667" transform="translate(-101.572 -101.318)"/><path class="i" d="M264.915,279.451a3.226,3.226,0,0,1-2.289-.8c-1.032-.979-1.22-2.722-.526-4.908a17.993,17.993,0,0,1,4.148-6.614c4.112-4.346,9.182-6.249,11.3-4.241,1.033.979,1.22,2.722.526,4.908a18,18,0,0,1-4.149,6.615c-3,3.171-6.51,5.041-9.011,5.041m10.333-17.224c-2.451,0-5.919,1.86-8.894,5a17.846,17.846,0,0,0-4.115,6.558c-.676,2.129-.5,3.819.487,4.757,2.059,1.953,7.037.052,11.094-4.235a17.859,17.859,0,0,0,4.115-6.559c.675-2.129.5-3.818-.487-4.756a3.1,3.1,0,0,0-2.2-.768" transform="translate(-108.431 -108.456)"/><path class="i" d="M431.355,422.183a2.252,2.252,0,0,1-.914-.193l-8.51-3.84a2.327,2.327,0,0,1-.69-.491c-8.269-8.685-29.886-31.284-30.6-31.564a.062.062,0,0,1-.059-.042.073.073,0,0,1,.019-.077l3.226-3.775,11.116-13a.053.053,0,0,1,.056-.026.072.072,0,0,1,.054.024L447,415.919a2.233,2.233,0,0,1-1.259,3.685l-13.982,2.543a2.286,2.286,0,0,1-.4.036m-40.591-36.168c1.93,1.47,27.586,28.4,30.583,31.544a2.178,2.178,0,0,0,.645.459l8.509,3.839a2.123,2.123,0,0,0,1.228.147l.049-.011,13.935-2.533a2.086,2.086,0,0,0,1.177-3.443L405,369.36Z" transform="translate(-161.839 -152.77)"/><path class="i" d="M434,431.12a.075.075,0,0,1-.053-.023L395.98,391.33a.073.073,0,0,1,.108-.1l.081.088L434.054,431a.074.074,0,0,1-.053.124" transform="translate(-164.068 -161.887)"/><path class="i" d="M359.837,429.066a2.255,2.255,0,0,1-.914-.193l-8.5-3.84a2.235,2.235,0,0,1-.69-.491.073.073,0,1,1,.107-.1,2.1,2.1,0,0,0,.645.458l8.5,3.839a2.115,2.115,0,0,0,1.228.147l.057-.011,13.934-2.533a2.086,2.086,0,0,0,1.177-3.443l-10.138-11.29a.074.074,0,0,1,0-.1.073.073,0,0,1,.1.006l10.138,11.29a2.233,2.233,0,0,1-1.26,3.685l-13.99,2.544a2.332,2.332,0,0,1-.4.036" transform="translate(-144.904 -170.279)"/><path class="i" d="M362.862,436.048a.072.072,0,0,1-.053-.023l-6.8-7.1a.073.073,0,0,1,.1-.1l6.8,7.105a.073.073,0,0,1,0,.1.075.075,0,0,1-.051.021" transform="translate(-147.506 -177.443)"/><path class="j" d="M183.807,336.334c-23.255,0-44.573-12.23-53.057-30.442-7.274-15.617-5.985-35.71,3.833-59.722a214.212,214.212,0,0,1,61.743-83.538,1.165,1.165,0,0,1,.136-.132c15.74-13.111,29.407-22.443,41.783-28.531,13.213-6.5,24.266-10.128,34.785-11.417,13.332-1.632,26.066.752,35.859,6.717,14.393,8.763,23.9,26.391,24.8,46,.716,15.482-3.417,32.421-12.635,51.785a216.387,216.387,0,0,1-77.625,88.558c-21.469,13.93-40.959,20.708-59.582,20.72Zm14.385-172.225a1.167,1.167,0,0,1-.158.155,211.794,211.794,0,0,0-61.283,82.792c-9.559,23.384-10.864,42.844-3.878,57.844,8.106,17.4,28.572,29.088,50.934,29.089h.043c18.157-.012,37.23-6.666,58.309-20.344a214.037,214.037,0,0,0,76.785-87.6c9.048-19.007,13.107-35.58,12.41-50.667-.871-18.843-9.944-35.744-23.679-44.108-9.346-5.691-21.549-7.962-34.357-6.392-10.251,1.256-21.066,4.813-34.037,11.193-12.147,5.976-25.589,15.148-41.087,28.037" transform="translate(-52.256 -50.506)"/><path class="j" d="M181.561,312.372c-9.287,0-16.993-2.667-22.584-7.969-10.017-9.5-11.961-26.257-5.47-47.178,6.425-20.71,20.364-43.1,39.248-63.05s40.473-35.083,60.789-42.619c20.522-7.613,37.342-6.573,47.362,2.929s11.961,26.257,5.47,47.178c-6.425,20.71-20.364,43.1-39.248,63.05s-40.473,35.083-60.789,42.619c-9.072,3.365-17.421,5.039-24.778,5.039m96.722-164.1c-23.387,0-56.2,17.475-84.252,47.111-38.463,40.628-53.646,88.961-33.844,107.742s67.2,1.006,105.666-39.623l.638.6-.638-.6c38.463-40.628,53.646-88.961,33.844-107.742-5.357-5.082-12.738-7.487-21.414-7.487" transform="translate(-62.046 -60.631)"/><path class="j" d="M197.376,305.249c-7.534,0-13.783-2.162-18.318-6.464-8.17-7.749-9.718-21.434-4.359-38.538,5.292-16.89,16.7-35.169,32.136-51.469s33.053-28.69,49.618-34.888c16.773-6.276,30.512-5.466,38.68,2.283s9.718,21.434,4.36,38.537c-5.292,16.89-16.706,35.169-32.136,51.469s-33.053,28.69-49.618,34.888a59.008,59.008,0,0,1-20.362,4.181m79.436-133.786a57.3,57.3,0,0,0-19.745,4.075c-16.32,6.106-33.707,18.341-48.958,34.451-31.336,33.1-43.826,72.361-27.843,87.52,4.288,4.067,10.2,5.993,17.155,5.993,18.971,0,45.731-14.312,68.659-38.531,15.251-16.11,26.522-34.146,31.734-50.786,5.147-16.427,3.766-29.473-3.89-36.734-4.2-3.984-10.039-5.987-17.112-5.987" transform="translate(-71.088 -70.228)"/><path class="j" d="M213.337,297.48c-5.9,0-10.794-1.7-14.351-5.071-6.39-6.06-7.616-16.733-3.451-30.053,4.1-13.108,12.945-27.286,24.909-39.924s25.634-22.242,38.49-27.044C272,190.51,282.712,191.16,289.1,197.22s7.615,16.733,3.45,30.053c-4.1,13.108-12.944,27.286-24.909,39.924l-.638-.6.638.6c-11.964,12.638-25.633,22.242-38.489,27.044a45.882,45.882,0,0,1-15.817,3.239M274.7,193.889c-14.625,0-35.278,11.054-52.98,29.752-11.784,12.448-20.487,26.383-24.508,39.24-3.954,12.645-2.894,22.678,2.982,28.252s15.944,6.093,28.346,1.46c12.61-4.709,26.044-14.158,37.827-26.605,24.179-25.54,33.836-55.817,21.525-67.492-3.3-3.127-7.842-4.607-13.193-4.607" transform="translate(-80.016 -79.514)"/><path class="j" d="M231.671,289.957a13.251,13.251,0,0,1-9.427-3.325c-4.343-4.119-5.041-11.483-1.968-20.737,3-9.031,9.252-18.864,17.605-27.688s17.828-15.6,26.676-19.086c9.065-3.57,16.451-3.268,20.793.851s5.041,11.483,1.968,20.737c-3,9.031-9.252,18.865-17.606,27.688s-17.827,15.6-26.675,19.086a31.587,31.587,0,0,1-11.366,2.474m44.186-71.585c-9.861,0-24.236,7.879-36.7,21.046-16.732,17.674-23.777,38.282-15.7,45.938,3.819,3.623,10.546,3.8,18.941.491,8.614-3.392,17.863-10.018,26.043-18.659,16.732-17.674,23.778-38.282,15.705-45.939a11.659,11.659,0,0,0-8.284-2.878" transform="translate(-90.49 -89.652)"/><path class="j" d="M251.422,283.2a7.656,7.656,0,0,1-5.44-1.93c-4.967-4.711-1.4-16.28,8.125-26.339s20.874-14.247,25.839-9.538,1.4,16.28-8.125,26.339c-6.878,7.265-14.708,11.468-20.4,11.468m23.133-37.965c-5.143,0-12.76,4.132-19.172,10.905-8.55,9.032-12.3,19.955-8.193,23.853s14.805-.438,23.356-9.471,12.3-19.955,8.191-23.853a5.89,5.89,0,0,0-4.183-1.434m-3.371,25.892h0Z" transform="translate(-100.997 -100.747)"/><path class="j" d="M264.364,279.7a4.008,4.008,0,0,1-2.85-1.029c-2.481-2.353-.9-7.915,3.591-12.663s9.959-6.624,12.44-4.271.9,7.916-3.591,12.665a18.82,18.82,0,0,1-6.677,4.7,8.341,8.341,0,0,1-2.914.6M274.7,262.478c-2.07,0-5.318,1.57-8.317,4.739-4.011,4.237-5.147,8.765-3.657,10.177.742.7,2.176.727,3.933.063a17.032,17.032,0,0,0,6.023-4.266c4.012-4.237,5.147-8.765,3.657-10.177a2.322,2.322,0,0,0-1.639-.535M273.317,273.8h0Z" transform="translate(-107.874 -107.891)"/><path class="j" d="M430.579,422.507a3.308,3.308,0,0,1-1.363-.294l-8.506-3.84a3.3,3.3,0,0,1-1.037-.734c-14.125-14.823-28.892-30.167-30.362-31.368a1.173,1.173,0,0,1-.314-1.783l14.343-16.78a1.169,1.169,0,0,1,.876-.41,1.19,1.19,0,0,1,.885.389l41.943,46.724a3.328,3.328,0,0,1-1.878,5.5l-13.989,2.546a3.371,3.371,0,0,1-.6.054M391.52,385.141c1.623,1.5,5.154,5.127,13.564,13.868,7.2,7.479,14.827,15.483,16.283,17.012a.974.974,0,0,0,.306.215l8.505,3.84a.978.978,0,0,0,.579.071l13.989-2.546a.983.983,0,0,0,.555-1.624l-41.05-45.729Zm-1.636,1.281h0Zm0,0h0Zm0,0h0Zm0,0h0Zm0,0h0Zm0,0h0Zm0,0h0Z" transform="translate(-161.066 -151.993)"/><path class="j" d="M433.225,431.443a1.169,1.169,0,0,1-.847-.362l-37.97-39.765a1.172,1.172,0,1,1,1.694-1.62l37.97,39.765a1.172,1.172,0,0,1-.847,1.982" transform="translate(-163.29 -161.112)"/><path class="j" d="M359.06,429.393a3.307,3.307,0,0,1-1.363-.294l-8.507-3.84a3.294,3.294,0,0,1-1.038-.736,1.172,1.172,0,1,1,1.7-1.614.963.963,0,0,0,.3.213l8.507,3.84a.975.975,0,0,0,.58.071l13.989-2.546a.983.983,0,0,0,.555-1.623l-10.135-11.29a1.172,1.172,0,1,1,1.742-1.568L375.524,421.3a3.327,3.327,0,0,1-1.878,5.5l-13.989,2.546a3.374,3.374,0,0,1-.6.054" transform="translate(-144.125 -169.505)"/><path class="j" d="M362.086,436.37a1.166,1.166,0,0,1-.846-.362l-6.8-7.106a1.172,1.172,0,1,1,1.692-1.621l6.8,7.106a1.172,1.172,0,0,1-.846,1.983" transform="translate(-146.729 -176.666)"/><path class="j" d="M165.465,321.126c-10.767,0-19.689-3.083-26.154-9.215-11.692-11.089-13.87-30.748-6.133-55.356,7.67-24.395,24.184-50.812,46.5-74.384s47.782-41.5,71.708-50.478c24.133-9.057,43.863-7.938,55.555,3.151s13.87,30.748,6.133,55.356c-7.67,24.4-24.184,50.812-46.5,74.384s-47.782,41.5-71.706,50.478c-10.788,4.049-20.7,6.063-29.4,6.063M280.783,127.382c-8.484,0-18.185,1.98-28.782,5.957-23.679,8.887-48.911,26.658-71.048,50.041s-38.509,49.557-46.1,73.7c-7.524,23.932-5.512,42.95,5.666,53.552s30.261,11.589,53.731,2.781c23.679-8.887,48.911-26.659,71.048-50.041s38.509-49.558,46.1-73.7c7.525-23.932,5.513-42.951-5.664-53.552-6.132-5.816-14.641-8.738-24.949-8.738" transform="translate(-53.296 -51.987)"/></g><g class="b"><path class="k" d="M256.194,258.934a.866.866,0,0,1,.059,1.058c-.006.011-.016.021-.022.032a1.006,1.006,0,0,1-1.471.287l-24.41-22.019-.159-.2a22.825,22.825,0,0,0,3.171-3.264l.775.271c8.413,9.16,13.645,14.673,22.058,23.832" transform="translate(-95.38 -97.177)"/><path class="e" d="M191.436,177.227c8.094,4.758,26.3,18.511,19.853,29.887a28.174,28.174,0,0,1-2.533,3.753,22.762,22.762,0,0,1-3.171,3.264,15.152,15.152,0,0,1-7.718,3.588,17.7,17.7,0,0,1-2.661-.2c-10.235-1.557-19.035-11.86-24.092-20.376a2.155,2.155,0,0,1,.1-2.371,1.714,1.714,0,0,1,.632-.495c6.873-3.131,14.069-9.867,16.746-16.326a1.586,1.586,0,0,1,.881-.866,2.245,2.245,0,0,1,1.96.144" transform="translate(-70.776 -73.213)"/><path class="e" d="M181.354,168.4l.106.213a1.585,1.585,0,0,0-.882.866c-2.678,6.459-9.874,13.2-16.747,16.326a1.712,1.712,0,0,0-.631.495l-.388-.287c-3.8-4.285-7.584-8.756-11.35-13.333l.095-.08a17.837,17.837,0,0,0,16.652-16.033l.106-.117c4.307,3.875,8.652,7.841,13.039,11.951" transform="translate(-62.759 -64.741)"/><path class="h" d="M144.505,130.549l-.107.117a17.834,17.834,0,0,1-16.65,16.033l-.1.08C116.408,133.1,105.287,118.455,94,105.026l.435-.366c.483-1.27.972-2.536,1.455-3.807l.261-.351a4.243,4.243,0,0,1-1.881-4.381q1.218.957,2.449,1.914.406-2.081.823-4.173c.52.994,1.041,1.988,1.556,2.977a6.591,6.591,0,0,1,4.392-2.424l.143-.159c13.777,12.557,27.177,23.986,40.87,36.293" transform="translate(-38.95 -38.842)"/><path class="e" d="M25.641,17.341a1.286,1.286,0,0,0,.1.6,5.679,5.679,0,0,0-.1-.6m-8.748,14.4a21.822,21.822,0,0,1,2.619-4.97l-.457-.271A14.527,14.527,0,0,1,16.4,20.414c.675.409,1.349.813,2.019,1.222A3.638,3.638,0,0,1,18.4,18c.536-1.154,1.359-2.169,1.8-3.365a3.163,3.163,0,0,0-.6-3.524,8.147,8.147,0,0,1,6.039,6.225,1.51,1.51,0,0,1,.977-1.324c.2.818.4,1.632.6,2.45l.282.686a15.268,15.268,0,0,1,5.237-2.727l-.074-.261c.542-2.073,1.051-3.87,1.588-5.943.627-2.4,1.349-4.949,3.24-6.544a9.6,9.6,0,0,1,5.875-1.845,18.53,18.53,0,0,1,10.484,2.6,13.868,13.868,0,0,1,6.289,8.633,12.8,12.8,0,0,1-2.156,9.176l-.2.452A18.951,18.951,0,0,0,62.012,24a.613.613,0,0,1,.377.978l-.9,1.159A13.718,13.718,0,0,1,64.7,32.853a1.127,1.127,0,0,1-1.774,1.1l-.143-.106c1.009,4.3.606,8.134-2.544,11.223,0,0-1.275,1.265-3.282,3.232.106.1.446.441.446.441q4.048,3.789,8.036,7.422l-.143.159A6.591,6.591,0,0,0,60.9,58.748c-.515-.988-1.036-1.983-1.556-2.977q-.415,2.089-.823,4.173-1.227-.958-2.449-1.914a4.243,4.243,0,0,0,1.881,4.381l-.261.351c-.483,1.271-.972,2.536-1.455,3.807l-.435.367q-3.682-4.386-7.383-8.57l-.579-.654-.165.053c-2.109,1.861-3.458,3.046-3.458,3.046-3.3,2.919-7.154,3.052-11.361,1.739l.1.154a1.123,1.123,0,0,1-1.221,1.685,13.715,13.715,0,0,1-6.47-3.674l-1.216.813a.61.61,0,0,1-.945-.452,19.278,19.278,0,0,0-.871-3.917l-.229.08c-2.65,2.519-5.986,2.7-9.528,1.8a13.86,13.86,0,0,1-8.392-6.6A18.615,18.615,0,0,1,1.873,41.854a9.57,9.57,0,0,1,2.06-5.8c1.657-1.839,4.239-2.467,6.655-3,2.082-.462,3.9-.9,5.985-1.366Zm35.74-13.827a6.252,6.252,0,0,0,.616-5.321A8.426,8.426,0,0,0,49.9,8.309a8.616,8.616,0,0,0-5.455-1.552,6.576,6.576,0,0,0-4.891,2.711,5.343,5.343,0,0,0-.346,5.481A14.064,14.064,0,0,1,52.579,17.9ZM47.857,40.833a8.6,8.6,0,0,0-2.22-8.123,15.263,15.263,0,0,0-8.476-4.636,9.271,9.271,0,0,0-6.437.632,5.724,5.724,0,0,0-.563.383,5.213,5.213,0,0,0-1.876,3.334c-.791,5,1.387,9.441,5.3,13,2.215,2.021,4.8,2.43,7.75,1.957a7.967,7.967,0,0,0,5.178-3.424,8.575,8.575,0,0,0,1.349-3.126M12,52.087a5.608,5.608,0,0,0,6.108-.781A15.588,15.588,0,0,1,14.816,38.09a5.516,5.516,0,0,0-6.076,2.1,6.72,6.72,0,0,0-1.078,2.456,8.749,8.749,0,0,0,.207,4.237A8.2,8.2,0,0,0,12,52.087" transform="translate(-0.752 -0.75)"/><path class="h" d="M79.278,16.067a6.254,6.254,0,0,1-.616,5.321l-.053-.016a14.063,14.063,0,0,0-13.374-2.95,5.346,5.346,0,0,1,.346-5.481,6.578,6.578,0,0,1,4.892-2.711,8.614,8.614,0,0,1,5.454,1.552,8.428,8.428,0,0,1,3.352,4.285" transform="translate(-26.782 -4.224)"/><path class="d" d="M64.251,51.049A9.036,9.036,0,0,1,65.122,62.3a7.963,7.963,0,0,1-5.178,3.423c-2.953.473-5.535.064-7.75-1.956-3.909-3.562-6.086-8-5.3-13a5.215,5.215,0,0,1,1.875-3.333,5.794,5.794,0,0,1,.563-.383,9.265,9.265,0,0,1,6.437-.632,15.259,15.259,0,0,1,8.477,4.636" transform="translate(-19.366 -19.09)"/><path class="h" d="M22.119,76.758a5.608,5.608,0,0,1-6.108.781,8.2,8.2,0,0,1-4.126-5.2,8.749,8.749,0,0,1-.207-4.237,6.7,6.7,0,0,1,1.078-2.456,5.514,5.514,0,0,1,6.076-2.1,15.586,15.586,0,0,0,3.288,13.216" transform="translate(-4.768 -26.202)"/><path class="i" d="M197.671,217.8a17.94,17.94,0,0,1-2.691-.2c-12.35-1.879-21.706-16.169-24.28-20.5a2.423,2.423,0,0,1,.119-2.669,1.989,1.989,0,0,1,.731-.573c7.075-3.223,14.061-10.03,16.612-16.186a1.855,1.855,0,0,1,1.025-1.011,2.5,2.5,0,0,1,2.195.159c9.622,5.657,26.175,19.257,19.951,30.248a28.427,28.427,0,0,1-2.558,3.788,23.073,23.073,0,0,1-3.209,3.3,15.349,15.349,0,0,1-7.852,3.647ZM190.106,177a1.821,1.821,0,0,0-.713.139,1.317,1.317,0,0,0-.739.722c-2.6,6.27-9.7,13.194-16.883,16.467a1.444,1.444,0,0,0-.534.418,1.878,1.878,0,0,0-.081,2.07c2.543,4.284,11.784,18.406,23.9,20.25a17.566,17.566,0,0,0,2.621.2,14.827,14.827,0,0,0,7.547-3.526h0a22.559,22.559,0,0,0,3.133-3.226,27.925,27.925,0,0,0,2.509-3.718c6.02-10.63-10.291-23.963-19.757-29.527a2.02,2.02,0,0,0-1.008-.267" transform="translate(-70.588 -73.025)"/><path class="i" d="M255.25,260.792a1.089,1.089,0,0,1-.747-.282L230.1,238.493a.266.266,0,0,1,.356-.4l24.41,22.019a.584.584,0,0,0,.47.138.856.856,0,0,0,.6-.375.615.615,0,0,0-.012-.762c-4.2-4.576-7.669-8.3-11.021-11.908s-6.826-7.341-11.036-11.924a.266.266,0,0,1,.391-.36c4.209,4.582,7.679,8.313,11.034,11.922s6.82,7.333,11.024,11.91a1.133,1.133,0,0,1,.086,1.382,1.4,1.4,0,0,1-1.008.643,1.287,1.287,0,0,1-.142.008" transform="translate(-95.305 -97.18)"/><path class="i" d="M25.723,51.648a.262.262,0,0,1-.052-.005.265.265,0,0,1-.208-.312A21.774,21.774,0,0,1,26.44,47.9a22.059,22.059,0,0,1,2.651-5.03A20.8,20.8,0,0,1,30.4,41.182a.266.266,0,1,1,.4.347,20.18,20.18,0,0,0-1.28,1.648,21.869,21.869,0,0,0-3.543,8.257.264.264,0,0,1-.259.214" transform="translate(-10.548 -17.004)"/><path class="i" d="M43.887,28.564a.264.264,0,0,1-.258-.2l-.1-.406c-.142-.575-.283-1.147-.422-1.722a1.3,1.3,0,0,0-.532.954.271.271,0,0,1-.282.249.267.267,0,0,1-.248-.283A1.781,1.781,0,0,1,43.2,25.6a.266.266,0,0,1,.213.02.263.263,0,0,1,.129.171c.164.682.331,1.362.5,2.043l.1.406a.266.266,0,0,1-.194.322.3.3,0,0,1-.063.007" transform="translate(-17.421 -10.586)"/><path class="i" d="M42.4,28.981a.266.266,0,0,1-.245-.164,1.555,1.555,0,0,1-.115-.723.266.266,0,0,1,.247-.244.262.262,0,0,1,.277.209,6.06,6.06,0,0,1,.1.629.266.266,0,0,1-.2.285.274.274,0,0,1-.065.008" transform="translate(-17.419 -11.524)"/><path class="i" d="M42.31,28.374a.263.263,0,0,1-.265-.263v-.005a.265.265,0,1,1,.265.268" transform="translate(-17.422 -11.521)"/><path class="i" d="M29.188,33.142a.266.266,0,0,1-.215-.11,14.88,14.88,0,0,1-2.7-6.212.266.266,0,0,1,.4-.258l.755.457.491.3a4.4,4.4,0,0,1,.372-3.052A15.624,15.624,0,0,1,29.1,22.8a11.144,11.144,0,0,0,.982-1.885,2.9,2.9,0,0,0-.518-3.226.266.266,0,0,1,.226-.466,8.44,8.44,0,0,1,6.241,6.433.265.265,0,1,1-.52.1,7.942,7.942,0,0,0-5.025-5.783,3.881,3.881,0,0,1,.1,3.122,11.8,11.8,0,0,1-1.025,1.975,15.056,15.056,0,0,0-.784,1.41c-.227.487-.9,2.169-.007,3.365a.265.265,0,0,1-.351.386c-.419-.256-.84-.51-1.262-.765l-.268-.162A15.149,15.149,0,0,0,29.4,32.72a.266.266,0,0,1-.059.371.262.262,0,0,1-.156.051" transform="translate(-10.886 -7.126)"/><path class="i" d="M15.868,80.692a14.871,14.871,0,0,1-3.648-.5,14.046,14.046,0,0,1-8.557-6.728A18.977,18.977,0,0,1,1.42,62.729a9.63,9.63,0,0,1,2.129-5.964c1.64-1.821,4.047-2.474,6.793-3.085,1.024-.227,1.983-.449,2.942-.671.991-.23,1.984-.46,3.045-.695a.266.266,0,0,1,.114.519c-1.059.234-2.049.464-3.04.693-.96.222-1.92.445-2.945.672-2.656.59-4.98,1.218-6.515,2.922a9.136,9.136,0,0,0-1.994,5.647A18.444,18.444,0,0,0,4.124,73.2a13.515,13.515,0,0,0,8.227,6.477c3.959,1,6.994.435,9.28-1.737a.266.266,0,0,1,.366.385,8.52,8.52,0,0,1-6.129,2.366" transform="translate(-0.564 -21.646)"/><path class="i" d="M79.617,22.314a.256.256,0,0,1-.151-.047A.265.265,0,0,1,79.4,21.9a12.507,12.507,0,0,0,2.115-8.969,13.523,13.523,0,0,0-6.17-8.463A18.135,18.135,0,0,0,65.011,1.906,9.183,9.183,0,0,0,59.3,3.688c-1.753,1.48-2.466,3.777-3.154,6.408-.283,1.1-.559,2.114-.836,3.137-.248.913-.5,1.829-.751,2.807a.266.266,0,1,1-.514-.135c.256-.979.5-1.9.752-2.811.277-1.022.553-2.038.836-3.131.711-2.72,1.452-5.1,3.326-6.681A9.678,9.678,0,0,1,64.99,1.374a18.627,18.627,0,0,1,10.636,2.64,14.056,14.056,0,0,1,6.408,8.8c.7,3.277-.6,7.074-2.2,9.383a.265.265,0,0,1-.218.114" transform="translate(-22.389 -0.562)"/><path class="i" d="M133.181,161.56a.267.267,0,0,1-.2-.089c-3.512-3.957-7.226-8.321-11.356-13.341-4.939-6.01-9.935-12.308-14.768-18.4-6.172-7.779-12.554-15.823-18.882-23.353-2.576-3.069-4.989-5.869-7.379-8.565l-.579-.654a.266.266,0,0,1,.4-.353l.579.654c2.392,2.7,4.809,5.5,7.387,8.575,6.333,7.535,12.717,15.583,18.892,23.365,4.831,6.088,9.826,12.384,14.762,18.39,4.126,5.015,7.837,9.373,11.343,13.325a.266.266,0,0,1-.2.443" transform="translate(-33.128 -40.024)"/><path class="i" d="M44.015,29.973a.266.266,0,0,1-.183-.459c.278-.262.572-.519.877-.764a15.642,15.642,0,0,1,5.328-2.775,14.653,14.653,0,0,1,2.022-.454.269.269,0,0,1,.3.223.266.266,0,0,1-.223.3,14.107,14.107,0,0,0-1.949.438,15.1,15.1,0,0,0-5.148,2.681c-.293.235-.576.483-.843.735a.266.266,0,0,1-.183.073" transform="translate(-18.128 -10.56)"/><path class="i" d="M158.172,137.306a.265.265,0,0,1-.182-.072c-3.981-3.729-8.245-7.637-13.034-11.946-6-5.392-12.042-10.7-17.886-15.839-7.494-6.588-15.244-13.4-22.987-20.455-2.651-2.416-5.355-4.913-8.038-7.424-.007-.007-.342-.343-.447-.442a.266.266,0,0,1,.365-.387c.108.1.451.447.451.447,2.675,2.5,5.378,5,8.027,7.413,7.739,7.053,15.487,13.863,22.979,20.448,5.845,5.137,11.889,10.45,17.889,15.843,4.794,4.313,9.059,8.222,13.044,11.954a.266.266,0,0,1,.012.376.263.263,0,0,1-.193.084" transform="translate(-39.577 -33.382)"/><path class="i" d="M94.255,62.018a.266.266,0,0,1-.186-.456c2.006-1.966,3.281-3.231,3.281-3.231,2.8-2.747,3.587-6.233,2.473-10.972a.266.266,0,0,1,.416-.275l.143.106a.861.861,0,0,0,1.354-.842,13.536,13.536,0,0,0-3.144-6.583.266.266,0,0,1-.011-.339l.9-1.159a.33.33,0,0,0,.053-.328.355.355,0,0,0-.269-.226,19.142,19.142,0,0,1-4.286-1.331,25.808,25.808,0,0,1-3.014-1.573.266.266,0,0,1,.273-.455,25.261,25.261,0,0,0,2.954,1.542,18.6,18.6,0,0,0,4.17,1.3.882.882,0,0,1,.669.563.859.859,0,0,1-.133.841l-.761.984a13.9,13.9,0,0,1,3.126,6.679,1.4,1.4,0,0,1-1.791,1.566c.943,4.586.042,8.152-2.745,10.885,0,0-1.275,1.266-3.283,3.233a.265.265,0,0,1-.186.076" transform="translate(-38.051 -14.2)"/><path class="i" d="M45.224,101.111a1.427,1.427,0,0,1-.348-.043,14.084,14.084,0,0,1-6.439-3.589l-1.034.692a.876.876,0,0,1-1.358-.646,18.872,18.872,0,0,0-.859-3.862,25.969,25.969,0,0,0-1.466-3.45.266.266,0,0,1,.474-.24,26.578,26.578,0,0,1,1.5,3.522,19.365,19.365,0,0,1,.883,3.974.347.347,0,0,0,.2.285.334.334,0,0,0,.336-.025l1.216-.813a.266.266,0,0,1,.337.035,13.53,13.53,0,0,0,6.344,3.6.839.839,0,0,0,.9-.325.848.848,0,0,0,.037-.961l-.1-.155a.266.266,0,0,1,.3-.394c4.638,1.448,8.168.913,11.107-1.684,0,0,1.349-1.186,3.457-3.046a.266.266,0,0,1,.351.4c-2.109,1.861-3.458,3.047-3.458,3.047-2.926,2.584-6.542,3.229-11.041,1.963a1.373,1.373,0,0,1-.232,1.145,1.358,1.358,0,0,1-1.106.572" transform="translate(-13.96 -37.172)"/><path class="i" d="M57.662,65.977a8.244,8.244,0,0,1-5.835-2.2c-4.273-3.893-6.133-8.472-5.379-13.241a5.463,5.463,0,0,1,1.975-3.5,6.167,6.167,0,0,1,.59-.4,9.372,9.372,0,0,1,6.626-.664,15.546,15.546,0,0,1,8.623,4.72,9.3,9.3,0,0,1,.89,11.575A8.24,8.24,0,0,1,59.8,65.8a13.55,13.55,0,0,1-2.136.181M52.954,46.208a7.263,7.263,0,0,0-3.673.88,5.474,5.474,0,0,0-.533.363,4.931,4.931,0,0,0-1.775,3.164c-.725,4.583,1.078,9,5.212,12.764,1.97,1.8,4.363,2.4,7.529,1.891a7.707,7.707,0,0,0,5-3.312,8.772,8.772,0,0,0-.852-10.922,15.018,15.018,0,0,0-8.33-4.551,13.111,13.111,0,0,0-2.58-.278m11.98,15.9h0Z" transform="translate(-19.178 -18.902)"/><path class="i" d="M18.344,78.179a6.179,6.179,0,0,1-2.634-.589,8.4,8.4,0,0,1-4.268-5.365,9.02,9.02,0,0,1-.211-4.368A6.989,6.989,0,0,1,12.352,65.3h0A5.78,5.78,0,0,1,18.72,63.1a.267.267,0,0,1,.183.312A15.361,15.361,0,0,0,22.134,76.4a.267.267,0,0,1-.02.366,5.48,5.48,0,0,1-3.77,1.417m-5.56-12.567a6.454,6.454,0,0,0-1.035,2.358,8.489,8.489,0,0,0,.2,4.107,7.863,7.863,0,0,0,3.985,5.032,5.429,5.429,0,0,0,5.626-.568,15.928,15.928,0,0,1-3.23-13,5.292,5.292,0,0,0-4.511.974,5.36,5.36,0,0,0-1.038,1.1" transform="translate(-4.58 -26.013)"/><path class="i" d="M78.475,21.467a.482.482,0,0,1-.232-.085,13.756,13.756,0,0,0-13.116-2.893.267.267,0,0,1-.311-.124,5.61,5.61,0,0,1,.357-5.76,6.807,6.807,0,0,1,5.09-2.827,8.868,8.868,0,0,1,5.625,1.6A8.694,8.694,0,0,1,79.344,15.8a6.477,6.477,0,0,1-.647,5.55.266.266,0,0,1-.221.119m-9.42-4.1A14.336,14.336,0,0,1,78.4,20.813a6,6,0,0,0,.435-4.851,8.152,8.152,0,0,0-3.248-4.147,8.293,8.293,0,0,0-5.284-1.507,6.273,6.273,0,0,0-4.694,2.6,5.1,5.1,0,0,0-.432,5.012,13.761,13.761,0,0,1,3.875-.55" transform="translate(-26.595 -4.036)"/><path class="i" d="M96.1,100.58a.267.267,0,0,1-.139-.039,4.527,4.527,0,0,1-2-4.662.265.265,0,0,1,.423-.154q1.05.824,2.107,1.647.366-1.87.741-3.749a.265.265,0,0,1,.495-.072q.69,1.315,1.374,2.627a6.823,6.823,0,0,1,4.311-2.215.266.266,0,1,1,.057.528,6.283,6.283,0,0,0-4.213,2.325.266.266,0,0,1-.444-.042q-.6-1.151-1.207-2.31-.34,1.719-.676,3.433a.266.266,0,0,1-.424.159q-1.047-.816-2.09-1.632a4,4,0,0,0,1.824,3.662.266.266,0,0,1-.139.492" transform="translate(-38.895 -38.654)"/><path class="i" d="M94.556,109.673a.266.266,0,0,1-.248-.361l1.456-3.806a.265.265,0,1,1,.5.189L94.8,109.5a.266.266,0,0,1-.248.171" transform="translate(-39.07 -43.589)"/><path class="i" d="M151.437,172.759a.266.266,0,0,1-.02-.531,17.569,17.569,0,0,0,16.407-15.8.265.265,0,1,1,.528.059,18.1,18.1,0,0,1-16.894,16.269h-.021" transform="translate(-62.639 -64.636)"/><path class="d" d="M211.918,210.25c-3.534,6.955-9.655,17.558-18.963,14.332-3.9-1.353-7.16-4.806-9.991-7.681a68.039,68.039,0,0,1-8.721-10.954c-1.478-2.293-5.157-.164-3.669,2.146a73.149,73.149,0,0,0,10.354,12.778c3.482,3.4,7.556,7.283,12.508,8.223,8.762,1.661,14.9-4.6,19.214-11.483a25.283,25.283,0,0,0-.732-7.361" transform="translate(-70.534 -84.817)"/><path class="h" d="M222.334,194.526a27.582,27.582,0,0,1-1.911-4.236L204.37,176.614c-2.071-1.764-5.09,1.23-3,3.007l19.151,16.318a2.134,2.134,0,0,0,2.489.245,16.224,16.224,0,0,0-.672-1.657" transform="translate(-83.145 -72.863)"/><path class="h" d="M59.968,49.211c-.794-2.746-4.447-5.382-7.175-3.616a3.042,3.042,0,0,0-.327.257,2.094,2.094,0,0,0-2.5,2.026,6.37,6.37,0,0,0,4.707,6.305c3.066.692,6.254-1.648,5.292-4.973" transform="translate(-20.704 -18.631)"/><g class="l" transform="translate(26.579 29.285)"><g class="m"><path class="j" d="M66.156,62.691a11.591,11.591,0,0,0-.1-4.13,8.388,8.388,0,0,1-11.574,3.985c-4.637-2.469-6.419-7.925-7.96-12.589-1.25,1.778-1.317,4.151-.932,6.532C47.61,61,50.54,65.1,55.569,66.376A11.408,11.408,0,0,0,65.4,64.339a6.094,6.094,0,0,0,.758-1.648" transform="translate(-45.384 -49.958)"/></g></g><path class="d" d="M180.573,174.365a1.089,1.089,0,0,0-1.307.743,30.656,30.656,0,0,1-6.755,10.058,6.444,6.444,0,0,1-9.473-.433l-4.646-5.524a26.6,26.6,0,0,1-4.806,1.347q4.776,5.75,9.828,11.264a1.135,1.135,0,0,0,1.578,1.272,1.059,1.059,0,0,0,.658-.266,1.192,1.192,0,0,0,.287-.216,33.49,33.49,0,0,0,15.378-16.937,1.07,1.07,0,0,0-.742-1.308" transform="translate(-63.639 -72.138)"/><path class="e" d="M133.42,150.259l-19.008-22.6L99.978,110.5l-3.194-3.8c-.281.75-.54,1.512-.8,2.267q-.361,1.045-.706,2.1,2.287,3.17,4.389,6.47a1.041,1.041,0,0,0,1.536.281l19.534,23.321a.841.841,0,0,0,.137.662q3.751,4.949,7.7,9.74a28.16,28.16,0,0,0,4.847-1.278" transform="translate(-39.478 -44.153)"/><path class="d" d="M56.148,97.438q.325-.935.662-1.866c.086-.239.176-.476.269-.712-.033.083-.013.03.013-.038L53.91,91.037c-1.15-1.368-2.244-2.831-3.492-4.11A4.2,4.2,0,0,0,46.556,85.5,6.59,6.59,0,0,0,43.1,88.035,15.488,15.488,0,0,1,40.008,91.2a10.386,10.386,0,0,1-8.713,1.406c-1.056-.312-1.677.981-1.066,1.785l-.06.1a6.4,6.4,0,0,1-3.936-3.467.978.978,0,0,0-1.5-.293l-2.787-5.242c-.642-1.207-2.473-.138-1.837,1.069-.053.234-.087.385-.14.62a1.428,1.428,0,0,0-.432.385c-1.942,2.562-5.716,2.529-8.351,1.215-3.326-1.659-5.49-4.784-7.542-7.764-.771-1.12-2.613-.058-1.834,1.073,2.427,3.527,5.041,7.19,9.124,8.9,3.578,1.5,7.868.9,10.341-2.233L23.6,93.134a1.008,1.008,0,0,0,1.557.26,8.479,8.479,0,0,0,6.852,3.492,1.08,1.08,0,0,0,.906-1.624l.108-.169a12.412,12.412,0,0,0,2.534-.041.931.931,0,0,0,.686.617,9.472,9.472,0,0,0,7.737-2.2A9.783,9.783,0,0,0,46.356,90.2a2.725,2.725,0,0,1,.316-.53,1.159,1.159,0,0,0,.2.132l.2.1,0,0a2.271,2.271,0,0,0,1.754.777c.023,0,.045-.011.067-.016q3.52,4.052,6.7,8.374.271-.805.55-1.608" transform="translate(-0.671 -33.327)"/><path class="j" d="M49.141,83.079a1.063,1.063,0,0,1-.009-2.127A20.8,20.8,0,0,0,59.791,77.9,1.063,1.063,0,0,1,60.9,79.717,22.923,22.923,0,0,1,49.15,83.079Z" transform="translate(-19.922 -32.172)"/><path class="j" d="M80.066,59.655a1.062,1.062,0,0,1-.942-1.551,16.13,16.13,0,0,0,1.566-10,1.063,1.063,0,1,1,2.081-.431,18.383,18.383,0,0,1-1.76,11.405,1.061,1.061,0,0,1-.945.575" transform="translate(-32.736 -19.378)"/><path class="j" d="M81.9,48.887a1.063,1.063,0,0,1-.846-1.705A3.576,3.576,0,0,1,83.938,45.8a1.064,1.064,0,0,1,1.031,1.094,1.079,1.079,0,0,1-1.093,1.031,1.413,1.413,0,0,0-1.129.54,1.06,1.06,0,0,1-.847.421" transform="translate(-33.495 -18.952)"/><path class="j" d="M47.944,85.759a1.063,1.063,0,0,1-.985-.664,3.685,3.685,0,0,1,1.01-4.1,1.063,1.063,0,1,1,1.372,1.624,1.545,1.545,0,0,0-.413,1.675,1.064,1.064,0,0,1-.984,1.464" transform="translate(-19.354 -33.413)"/><path class="j" d="M254.684,261.028a1.875,1.875,0,0,1-1.288-.5L229,238.523a1.062,1.062,0,1,1,1.421-1.579l23.364,21.074c-3.741-4.063-6.9-7.466-9.972-10.765-3.374-3.628-6.863-7.38-11.1-11.989a1.063,1.063,0,0,1,1.564-1.44c4.232,4.605,7.718,8.354,11.09,11.98,3.337,3.589,6.788,7.3,10.972,11.852a1.927,1.927,0,0,1,.166,2.352l-.032.05a2.174,2.174,0,0,1-1.558.955,2.047,2.047,0,0,1-.231.013m.019-2.107.887.545-.868-.614,0,.008.108.1a.243.243,0,0,0-.121-.056.088.088,0,0,0,0,.018m.13.044h0Z" transform="translate(-94.741 -96.618)"/><path class="j" d="M204.393,207.232a1.063,1.063,0,0,1-.726-1.839A84.3,84.3,0,0,0,214.8,192.618a1.062,1.062,0,1,1,1.734,1.228,86.318,86.318,0,0,1-11.42,13.1,1.057,1.057,0,0,1-.726.288" transform="translate(-84.251 -79.522)"/><path class="j" d="M187.456,227.955a1.064,1.064,0,0,1-.572-1.96l3.079-1.963a1.063,1.063,0,1,1,1.141,1.793l-3.078,1.963a1.059,1.059,0,0,1-.57.166" transform="translate(-77.232 -92.639)"/><path class="j" d="M192.47,220.954a1.063,1.063,0,0,1-.564-1.965,75.378,75.378,0,0,0,19.965-18.321,1.063,1.063,0,1,1,1.695,1.282,77.523,77.523,0,0,1-20.534,18.842,1.055,1.055,0,0,1-.562.162" transform="translate(-79.31 -82.865)"/><path class="j" d="M201.8,223.141a1.064,1.064,0,0,1-.568-1.963,56.292,56.292,0,0,0,17.4-17.434,1.063,1.063,0,1,1,1.8,1.127,58.458,58.458,0,0,1-18.067,18.107,1.059,1.059,0,0,1-.565.164" transform="translate(-83.175 -84.105)"/><path class="j" d="M25.156,51.883a1.059,1.059,0,0,1-1.042-1.271A23.121,23.121,0,0,1,29.232,40.1a1.063,1.063,0,1,1,1.612,1.385A21.013,21.013,0,0,0,26.2,51.028a1.062,1.062,0,0,1-1.04.854" transform="translate(-9.983 -16.441)"/><path class="j" d="M28.625,33.377a1.061,1.061,0,0,1-.861-.44,15.522,15.522,0,0,1-2.842-6.588,1.062,1.062,0,0,1,1.541-1.069,6.114,6.114,0,0,1,.549-1.917,16.508,16.508,0,0,1,.85-1.538,10.61,10.61,0,0,0,.915-1.749,2.193,2.193,0,0,0-.273-2.332,1.063,1.063,0,0,1,.9-1.863,9.238,9.238,0,0,1,6.179,5.041,2.376,2.376,0,0,1,.275-.11,1.062,1.062,0,0,1,1.362.756l.6,2.448a1.062,1.062,0,0,1-2.009.67,1.048,1.048,0,0,1-.234.092,1.062,1.062,0,0,1-1.248-.617,2.372,2.372,0,0,1-.182-.929,7.117,7.117,0,0,0-3.054-4.359,5.318,5.318,0,0,1-.324,1.939,12.409,12.409,0,0,1-1.088,2.11,14.5,14.5,0,0,0-.744,1.337,2.671,2.671,0,0,0-.092,2.548,1.063,1.063,0,0,1-1.151,1.658,16.266,16.266,0,0,0,1.79,3.223,1.063,1.063,0,0,1-.859,1.687" transform="translate(-10.323 -6.562)"/><path class="j" d="M15.322,80.93a15.766,15.766,0,0,1-3.863-.526A14.833,14.833,0,0,1,2.411,73.3,19.5,19.5,0,0,1,.063,62.105a10.41,10.41,0,0,1,2.331-6.44c1.95-2.156,4.99-2.831,7.21-3.324,1.035-.23,2-.455,2.971-.68.984-.228,1.968-.456,3.02-.69a1.063,1.063,0,0,1,.46,2.076c-1.045.232-2.023.458-3,.686s-1.948.452-2.991.683c-2.516.559-4.712,1.146-6.1,2.675a8.416,8.416,0,0,0-1.787,5.171,17.618,17.618,0,0,0,2.072,9.976,12.7,12.7,0,0,0,7.727,6.1c3.723.945,6.436.454,8.536-1.545a1.063,1.063,0,0,1,1.464,1.541,9.258,9.258,0,0,1-6.659,2.592" transform="translate(0 -21.082)"/><path class="j" d="M79.053,22.551a1.063,1.063,0,0,1-.873-1.668,11.718,11.718,0,0,0,1.989-8.347A12.708,12.708,0,0,0,74.36,4.581a17.6,17.6,0,0,0-9.885-2.44,8.4,8.4,0,0,0-5.227,1.6c-1.579,1.327-2.245,3.5-2.9,6-.271,1.039-.534,2.009-.8,2.981s-.522,1.929-.792,2.961a1.062,1.062,0,1,1-2.055-.537c.271-1.039.534-2.009.8-2.981s.522-1.929.792-2.961c.574-2.2,1.36-5.219,3.585-7.09A10.388,10.388,0,0,1,64.4.016a19.488,19.488,0,0,1,11.087,2.76,14.841,14.841,0,0,1,6.761,9.313c.751,3.5-.623,7.549-2.319,10a1.061,1.061,0,0,1-.875.458" transform="translate(-21.826 0)"/><path class="j" d="M132.616,161.793a1.058,1.058,0,0,1-.794-.357c-8.841-9.959-17.681-21.1-26.23-31.874C97.06,118.81,88.238,107.693,79.437,97.778l-.579-.652a1.062,1.062,0,1,1,1.588-1.412l.579.652c8.84,9.959,17.681,21.1,26.229,31.874,8.532,10.751,17.353,21.869,26.154,31.784a1.063,1.063,0,0,1-.793,1.77" transform="translate(-32.564 -39.46)"/><path class="j" d="M43.449,30.21a1.063,1.063,0,0,1-.726-1.839,16.366,16.366,0,0,1,8.651-4.2,1.063,1.063,0,0,1,.319,2.1,14.221,14.221,0,0,0-7.518,3.65,1.061,1.061,0,0,1-.726.287" transform="translate(-17.563 -9.997)"/><path class="j" d="M157.608,137.542a1.056,1.056,0,0,1-.726-.287c-10.5-9.839-20.895-18.974-30.946-27.809s-20.471-17.992-31-27.854c-.029-.028-.348-.349-.446-.442A1.063,1.063,0,0,1,95.947,79.6c.111.1.473.467.473.467,10.473,9.813,20.867,18.948,30.918,27.783s20.471,17.992,31,27.854a1.063,1.063,0,0,1-.726,1.839" transform="translate(-39.015 -32.82)"/><path class="j" d="M93.692,62.253a1.063,1.063,0,0,1-.744-1.822c2.005-1.968,3.278-3.23,3.279-3.231,2.584-2.537,3.3-5.784,2.254-10.222a1.063,1.063,0,0,1,1.659-1.1l.146.107a.051.051,0,0,0,.07,0c.035-.022.032-.037.028-.06a12.729,12.729,0,0,0-2.952-6.193,1.064,1.064,0,0,1-.043-1.357l.451-.583a22.753,22.753,0,0,1-6.856-2.862A1.063,1.063,0,0,1,92.078,33.1a20.219,20.219,0,0,0,6.86,2.74,1.677,1.677,0,0,1,1.025,2.677L99.59,39a14.718,14.718,0,0,1,2.888,6.559,2.177,2.177,0,0,1-1,2.227,2.213,2.213,0,0,1-.622.266c.693,4.416-.341,7.915-3.139,10.662,0,0-1.277,1.266-3.283,3.235a1.062,1.062,0,0,1-.744.3m4.861-24.32h0Z" transform="translate(-37.486 -13.635)"/><path class="j" d="M44.648,101.345a2.2,2.2,0,0,1-.528-.064,14.692,14.692,0,0,1-6.33-3.35l-.506.338a1.676,1.676,0,0,1-2.595-1.215,20.24,20.24,0,0,0-2.242-7.042,1.062,1.062,0,1,1,1.894-.963A22.809,22.809,0,0,1,36.707,96.1l.613-.41a1.062,1.062,0,0,1,1.349.14,12.7,12.7,0,0,0,5.961,3.388.048.048,0,0,0,.062-.023c.025-.035.016-.051,0-.07l-.1-.155a1.063,1.063,0,0,1,1.219-1.576c4.347,1.359,7.634.876,10.343-1.52,0,0,1.353-1.185,3.457-3.047a1.063,1.063,0,0,1,1.407,1.593c-2.11,1.866-3.461,3.05-3.461,3.05-2.934,2.6-6.493,3.378-10.845,2.372a2.2,2.2,0,0,1-.309.6,2.174,2.174,0,0,1-1.763.9" transform="translate(-13.397 -36.609)"/><path class="j" d="M57.126,66.207a9.119,9.119,0,0,1-6.4-2.406C46.244,59.719,44.3,54.893,45.1,49.844a6.257,6.257,0,0,1,2.269-4,5.989,5.989,0,0,1,.689-.464,10.137,10.137,0,0,1,7.179-.754,16.341,16.341,0,0,1,9.059,4.973,10.091,10.091,0,0,1,.952,12.555,9.017,9.017,0,0,1-5.882,3.869,14.084,14.084,0,0,1-2.237.189M52.392,46.443a6.494,6.494,0,0,0-3.278.776,3.972,3.972,0,0,0-.443.3,4.151,4.151,0,0,0-1.476,2.66c-.861,5.442,2.222,9.557,4.96,12.051,1.8,1.645,3.924,2.164,6.87,1.69A6.886,6.886,0,0,0,63.5,60.942h0A7.967,7.967,0,0,0,62.7,51a14.217,14.217,0,0,0-7.886-4.295,12.3,12.3,0,0,0-2.422-.263" transform="translate(-18.614 -18.339)"/><path class="j" d="M66.849,39.167a1.062,1.062,0,0,1-1.051-.916,4.829,4.829,0,0,1,3.731-5.384,1.063,1.063,0,0,1,.461,2.076A2.7,2.7,0,0,0,67.9,37.956a1.063,1.063,0,0,1-.9,1.2,1.077,1.077,0,0,1-.149.011" transform="translate(-27.245 -13.59)"/><path class="j" d="M34.181,69.764a1.064,1.064,0,0,1-1.048-1.244,4.607,4.607,0,0,1,4.952-3.806,1.064,1.064,0,0,1-.191,2.118,2.482,2.482,0,0,0-2.668,2.05,1.063,1.063,0,0,1-1.045.882" transform="translate(-13.722 -26.772)"/><path class="j" d="M17.77,78.41a6.968,6.968,0,0,1-2.963-.658,9.165,9.165,0,0,1-4.692-5.869,9.766,9.766,0,0,1-.226-4.76,7.748,7.748,0,0,1,1.251-2.845,6.766,6.766,0,0,1,1.291-1.362,6.639,6.639,0,0,1,5.958-1.144,1.064,1.064,0,0,1,.731,1.247,14.531,14.531,0,0,0,3.058,12.3,1.065,1.065,0,0,1-.079,1.463A6.3,6.3,0,0,1,17.77,78.41M16.546,63.631a4.548,4.548,0,0,0-2.8.95,4.62,4.62,0,0,0-.883.936h0a5.585,5.585,0,0,0-.9,2.058,7.631,7.631,0,0,0,.191,3.716,7.14,7.14,0,0,0,3.557,4.535,4.763,4.763,0,0,0,4.136-.035,16.8,16.8,0,0,1-3-12.15c-.1-.006-.2-.011-.3-.011M12,64.9h0Z" transform="translate(-4.016 -25.451)"/><path class="j" d="M77.911,21.7a1.216,1.216,0,0,1-.764-.291A12.955,12.955,0,0,0,64.8,18.687a1.062,1.062,0,0,1-1.243-.5,6.413,6.413,0,0,1,.4-6.6,7.61,7.61,0,0,1,5.681-3.172,9.673,9.673,0,0,1,6.135,1.731,9.513,9.513,0,0,1,3.767,4.837,7.3,7.3,0,0,1-.743,6.239,1.062,1.062,0,0,1-.887.475m-9.422-5.692a15.236,15.236,0,0,1,9.049,2.973,5.471,5.471,0,0,0-.019-3.338,7.375,7.375,0,0,0-2.939-3.733,7.552,7.552,0,0,0-4.775-1.372,5.546,5.546,0,0,0-4.095,2.254A4.358,4.358,0,0,0,65.1,16.4a14.642,14.642,0,0,1,3.389-.393" transform="translate(-26.032 -3.473)"/><path class="j" d="M95.53,100.817a1.058,1.058,0,0,1-.556-.158,5.283,5.283,0,0,1-2.362-5.507,1.06,1.06,0,0,1,1.693-.618l1.088.851.491-2.48a1.062,1.062,0,0,1,1.984-.285l.881,1.688a7.61,7.61,0,0,1,4.012-1.7,1.063,1.063,0,0,1,.229,2.114,5.546,5.546,0,0,0-3.676,2.029,1.061,1.061,0,0,1-1.773-.169l-.16-.3-.241,1.216a1.061,1.061,0,0,1-1.7.63l-.308-.241a2.976,2.976,0,0,0,.952.964,1.063,1.063,0,0,1-.557,1.969" transform="translate(-38.33 -38.092)"/><path class="j" d="M93.988,109.907a1.052,1.052,0,0,1-.38-.071A1.063,1.063,0,0,1,93,108.463l1.458-3.8a1.062,1.062,0,1,1,1.984.762l-1.459,3.8a1.062,1.062,0,0,1-.991.683" transform="translate(-38.504 -43.027)"/><path class="j" d="M150.873,172.993a1.063,1.063,0,0,1-.081-2.123,16.765,16.765,0,0,0,15.678-15.09,1.062,1.062,0,1,1,2.111.237,18.89,18.89,0,0,1-17.624,16.972l-.084,0" transform="translate(-62.075 -64.073)"/><path class="j" d="M197.093,218.03a18.574,18.574,0,0,1-2.792-.213c-12.7-1.931-22.228-16.472-24.847-20.882a3.3,3.3,0,0,1-.31-2.633,2.8,2.8,0,0,1,1.516-1.746c6.907-3.147,13.722-9.778,16.2-15.767a2.688,2.688,0,0,1,1.663-1.521,3.32,3.32,0,0,1,2.7.288c1.164.685,28.409,16.914,20.242,31.33-3.606,6.361-8.782,10.419-14.205,11.133a1.3,1.3,0,0,1-.165.009m-7.549-40.8a1.11,1.11,0,0,0-.343.053.579.579,0,0,0-.375.318c-2.667,6.438-9.937,13.54-17.286,16.888a.7.7,0,0,0-.368.447,1.158,1.158,0,0,0,.109.91c2.5,4.208,11.565,18.075,23.34,19.866a16.451,16.451,0,0,0,2.429.189c4.733-.652,9.309-4.317,12.566-10.065,5.719-10.093-10.234-23.021-19.468-28.446a1.209,1.209,0,0,0-.6-.159" transform="translate(-70.026 -72.462)"/></g></g><g transform="translate(498 650)"><g transform="translate(7.946 13.846)"><path class="d" d="M274.04,174.472a.5.5,0,0,0,.04-.2.374.374,0,0,0-.04-.2Z" transform="translate(-274.04 -174.08)"/></g><path class="d" d="M271.019,157.569a.879.879,0,0,1,.89.868V159.7a5.938,5.938,0,0,1,4.453,2.631.863.863,0,0,1-.324,1.231l-1.307.7a.907.907,0,0,1-.427.107.886.886,0,0,1-.727-.371,3.067,3.067,0,0,0-1.689-1.179V166.5c3.542,1.067,5.216,2.406,5.216,4.854,0,2.7-1.91,4.667-5.194,4.98v1.14a.891.891,0,0,1-1.781,0v-1.14a6.658,6.658,0,0,1-5.2-2.937.86.86,0,0,1,.35-1.225l1.419-.721a.9.9,0,0,1,1.147.284,3.655,3.655,0,0,0,2.322,1.5v-3.83a8.629,8.629,0,0,1-3.735-1.862,3.976,3.976,0,0,1-1.266-2.993,4.28,4.28,0,0,1,1.417-3.265,5.99,5.99,0,0,1,3.541-1.59v-1.266a.88.88,0,0,1,.891-.868m-.848,8.412v-3.244a1.661,1.661,0,0,0-1.567,1.612c0,.69.515,1.234,1.567,1.632m1.717,7.282c1.052-.231,1.76-.837,1.76-1.653,0-.733-.45-1.151-1.76-1.654v3.306" transform="translate(-264.802 -157.569)"/></g><g transform="translate(467 686)"><g transform="translate(6.008 11.18)"><path class="d" d="M274.04,174.4a.432.432,0,0,0,.03-.159.32.32,0,0,0-.03-.158Z" transform="translate(-274.04 -174.08)"/></g><path class="d" d="M269.5,157.569a.687.687,0,0,1,.673.7v1.022a4.452,4.452,0,0,1,3.367,2.125.722.722,0,0,1-.245.994l-.988.564a.651.651,0,0,1-.873-.213,2.326,2.326,0,0,0-1.277-.952v2.974c2.678.861,3.944,1.943,3.944,3.92,0,2.18-1.445,3.768-3.928,4.021v.921a.674.674,0,1,1-1.347,0v-.921a4.979,4.979,0,0,1-3.928-2.372.719.719,0,0,1,.265-.989l1.073-.582a.644.644,0,0,1,.309-.079.667.667,0,0,1,.558.309,2.757,2.757,0,0,0,1.756,1.213v-3.092a6.387,6.387,0,0,1-2.824-1.5,3.319,3.319,0,0,1-.957-2.417,3.569,3.569,0,0,1,1.071-2.636,4.4,4.4,0,0,1,2.678-1.284V158.27a.688.688,0,0,1,.674-.7m-.641,6.792v-2.619a1.308,1.308,0,0,0-1.185,1.3c0,.557.39,1,1.185,1.318m1.3,5.88c.8-.186,1.331-.676,1.331-1.335,0-.592-.34-.93-1.331-1.335v2.67" transform="translate(-264.802 -157.569)"/></g><g transform="translate(594 677)"><g transform="translate(6.008 11.18)"><path class="e" d="M274.04,174.4a.432.432,0,0,0,.03-.159.32.32,0,0,0-.03-.158Z" transform="translate(-274.04 -174.08)"/></g><path class="e" d="M269.5,157.569a.687.687,0,0,1,.673.7v1.022a4.452,4.452,0,0,1,3.367,2.125.722.722,0,0,1-.245.994l-.988.564a.651.651,0,0,1-.873-.213,2.326,2.326,0,0,0-1.277-.952v2.974c2.678.861,3.944,1.943,3.944,3.92,0,2.18-1.445,3.768-3.928,4.021v.921a.674.674,0,1,1-1.347,0v-.921a4.979,4.979,0,0,1-3.928-2.372.719.719,0,0,1,.265-.989l1.073-.582a.644.644,0,0,1,.309-.079.667.667,0,0,1,.558.309,2.757,2.757,0,0,0,1.756,1.213v-3.092a6.387,6.387,0,0,1-2.824-1.5,3.319,3.319,0,0,1-.957-2.417,3.569,3.569,0,0,1,1.071-2.636,4.4,4.4,0,0,1,2.678-1.284V158.27a.688.688,0,0,1,.674-.7m-.641,6.792v-2.619a1.308,1.308,0,0,0-1.185,1.3c0,.557.39,1,1.185,1.318m1.3,5.88c.8-.186,1.331-.676,1.331-1.335,0-.592-.34-.93-1.331-1.335v2.67" transform="translate(-264.802 -157.569)"/></g><g transform="translate(352 775)"><g transform="translate(7.946 13.846)"><path class="d" d="M274.04,174.472a.5.5,0,0,0,.04-.2.374.374,0,0,0-.04-.2Z" transform="translate(-274.04 -174.08)"/></g><path class="d" d="M271.019,157.569a.879.879,0,0,1,.89.868V159.7a5.938,5.938,0,0,1,4.453,2.631.863.863,0,0,1-.324,1.231l-1.307.7a.907.907,0,0,1-.427.107.886.886,0,0,1-.727-.371,3.067,3.067,0,0,0-1.689-1.179V166.5c3.542,1.067,5.216,2.406,5.216,4.854,0,2.7-1.91,4.667-5.194,4.98v1.14a.891.891,0,0,1-1.781,0v-1.14a6.658,6.658,0,0,1-5.2-2.937.86.86,0,0,1,.35-1.225l1.419-.721a.9.9,0,0,1,1.147.284,3.655,3.655,0,0,0,2.322,1.5v-3.83a8.629,8.629,0,0,1-3.735-1.862,3.976,3.976,0,0,1-1.266-2.993,4.28,4.28,0,0,1,1.417-3.265,5.99,5.99,0,0,1,3.541-1.59v-1.266a.88.88,0,0,1,.891-.868m-.848,8.412v-3.244a1.661,1.661,0,0,0-1.567,1.612c0,.69.515,1.234,1.567,1.632m1.717,7.282c1.052-.231,1.76-.837,1.76-1.653,0-.733-.45-1.151-1.76-1.654v3.306" transform="translate(-264.802 -157.569)"/></g><g transform="translate(532 668)"><path class="e" d="M306.481,139.248h-2v-2a1.25,1.25,0,0,0-1.25-1.25h0a1.25,1.25,0,0,0-1.25,1.25v2h-2a1.25,1.25,0,1,0,0,2.5h2v2a1.25,1.25,0,0,0,1.25,1.25h0a1.25,1.25,0,0,0,1.25-1.25v-2h2a1.25,1.25,0,1,0,0-2.5Z" transform="translate(-298.731 -135.998)"/></g><g transform="translate(452 677)"><path class="e" d="M306.481,139.248h-2v-2a1.25,1.25,0,0,0-1.25-1.25h0a1.25,1.25,0,0,0-1.25,1.25v2h-2a1.25,1.25,0,1,0,0,2.5h2v2a1.25,1.25,0,0,0,1.25,1.25h0a1.25,1.25,0,0,0,1.25-1.25v-2h2a1.25,1.25,0,1,0,0-2.5Z" transform="translate(-298.731 -135.998)"/></g><g transform="translate(328 806)"><path class="e" d="M306.481,139.248h-2v-2a1.25,1.25,0,0,0-1.25-1.25h0a1.25,1.25,0,0,0-1.25,1.25v2h-2a1.25,1.25,0,1,0,0,2.5h2v2a1.25,1.25,0,0,0,1.25,1.25h0a1.25,1.25,0,0,0,1.25-1.25v-2h2a1.25,1.25,0,1,0,0-2.5Z" transform="translate(-298.731 -135.998)"/></g><g transform="translate(373 785)"><path class="d" d="M306.481,139.248h-2v-2a1.25,1.25,0,0,0-1.25-1.25h0a1.25,1.25,0,0,0-1.25,1.25v2h-2a1.25,1.25,0,1,0,0,2.5h2v2a1.25,1.25,0,0,0,1.25,1.25h0a1.25,1.25,0,0,0,1.25-1.25v-2h2a1.25,1.25,0,1,0,0-2.5Z" transform="translate(-298.731 -135.998)"/></g><g transform="translate(515 683)"><path class="d" d="M303.9,138.165h-1.333v-1.333a.833.833,0,0,0-.833-.833h0a.833.833,0,0,0-.833.833v1.333h-1.333a.833.833,0,1,0,0,1.667H300.9v1.333a.833.833,0,0,0,.833.833h0a.833.833,0,0,0,.833-.833v-1.333H303.9a.833.833,0,1,0,0-1.667Z" transform="translate(-298.731 -135.998)"/></g><g transform="translate(578 671)"><path class="e" d="M303.9,138.165h-1.333v-1.333a.833.833,0,0,0-.833-.833h0a.833.833,0,0,0-.833.833v1.333h-1.333a.833.833,0,1,0,0,1.667H300.9v1.333a.833.833,0,0,0,.833.833h0a.833.833,0,0,0,.833-.833v-1.333H303.9a.833.833,0,1,0,0-1.667Z" transform="translate(-298.731 -135.998)"/></g><g transform="translate(450 703)"><path class="e" d="M303.9,138.165h-1.333v-1.333a.833.833,0,0,0-.833-.833h0a.833.833,0,0,0-.833.833v1.333h-1.333a.833.833,0,1,0,0,1.667H300.9v1.333a.833.833,0,0,0,.833.833h0a.833.833,0,0,0,.833-.833v-1.333H303.9a.833.833,0,1,0,0-1.667Z" transform="translate(-298.731 -135.998)"/></g><g transform="translate(461 709)"><path class="d" d="M303.9,138.165h-1.333v-1.333a.833.833,0,0,0-.833-.833h0a.833.833,0,0,0-.833.833v1.333h-1.333a.833.833,0,1,0,0,1.667H300.9v1.333a.833.833,0,0,0,.833.833h0a.833.833,0,0,0,.833-.833v-1.333H303.9a.833.833,0,1,0,0-1.667Z" transform="translate(-298.731 -135.998)"/></g><g transform="translate(390 754)"><path class="d" d="M303.9,138.165h-1.333v-1.333a.833.833,0,0,0-.833-.833h0a.833.833,0,0,0-.833.833v1.333h-1.333a.833.833,0,1,0,0,1.667H300.9v1.333a.833.833,0,0,0,.833.833h0a.833.833,0,0,0,.833-.833v-1.333H303.9a.833.833,0,1,0,0-1.667Z" transform="translate(-298.731 -135.998)"/></g><g transform="translate(364 799)"><path class="e" d="M303.9,138.165h-1.333v-1.333a.833.833,0,0,0-.833-.833h0a.833.833,0,0,0-.833.833v1.333h-1.333a.833.833,0,1,0,0,1.667H300.9v1.333a.833.833,0,0,0,.833.833h0a.833.833,0,0,0,.833-.833v-1.333H303.9a.833.833,0,1,0,0-1.667Z" transform="translate(-298.731 -135.998)"/></g><g transform="translate(382 809)"><path class="d" d="M303.9,138.165h-1.333v-1.333a.833.833,0,0,0-.833-.833h0a.833.833,0,0,0-.833.833v1.333h-1.333a.833.833,0,1,0,0,1.667H300.9v1.333a.833.833,0,0,0,.833.833h0a.833.833,0,0,0,.833-.833v-1.333H303.9a.833.833,0,1,0,0-1.667Z" transform="translate(-298.731 -135.998)"/></g></g></svg>