<svg xmlns="http://www.w3.org/2000/svg" xmlns:xlink="http://www.w3.org/1999/xlink" width="239.348" height="240.258" viewBox="0 0 239.348 240.258"><defs><style>.a{fill:none;stroke:#3b59b2;stroke-linecap:round;stroke-miterlimit:10;stroke-width:31px;}.b{fill:url(#a);}.c{fill:#fff;}.d{filter:url(#b);}</style><linearGradient id="a" x1="0.1" y1="0.862" x2="0.714" y2="0.107" gradientUnits="objectBoundingBox"><stop offset="0" stop-color="#557cf2"/><stop offset="1" stop-color="#30aef2"/></linearGradient><filter id="b" x="39.732" y="36.458" width="170" height="170" filterUnits="userSpaceOnUse"><feOffset dx="2" dy="4" input="SourceAlpha"/><feGaussianBlur stdDeviation="7" result="c"/><feFlood flood-color="#081e60" flood-opacity="0.431"/><feComposite operator="in" in2="c"/><feComposite in="SourceGraphic"/></filter></defs><g transform="translate(-290.268 -2509.542)"><path class="a" d="M111.147,0A71.292,71.292,0,1,1,0,59.114" transform="matrix(0.629, 0.777, -0.777, 0.629, 413.41, 2535.131)"/><g class="d" transform="matrix(1, 0, 0, 1, 290.27, 2509.54)"><circle class="b" cx="64" cy="64" r="64" transform="translate(58.73 53.46)"/></g><g transform="translate(378 2597)"><path class="c" d="M36.95,61.573H4.567A3.233,3.233,0,0,1,1.6,59.654,3.166,3.166,0,0,1,2.2,56.2l7.468-7.945a26.146,26.146,0,0,1-5.1-15.468C4.567,16.913,19.094,4,36.95,4S69.332,16.913,69.332,32.786,54.806,61.573,36.95,61.573Zm-24.958-6.4H36.95c14.283,0,25.907-10.044,25.907-22.389S51.235,10.4,36.95,10.4,11.042,20.444,11.042,32.786a20.288,20.288,0,0,0,5.316,13.537,3.172,3.172,0,0,1-.068,4.28l-4.3,4.575Z" transform="translate(-1.332 -4)"/><path class="c" d="M24.569,36.254S39.142,25.347,39.142,17.591c0-7.367-11.335-10.562-14.572-.892C21.332,7.034,10,10.229,10,17.591,10,25.347,24.569,36.254,24.569,36.254Z" transform="translate(11.049 5.325)"/></g></g></svg>