<svg id="icons" enable-background="new 0 0 64 64" height="512" viewBox="0 0 64 64" width="512" xmlns="http://www.w3.org/2000/svg"><path d="m14.994 7h34v44h-34z" fill="#5d9cec"/><path d="m14.994 7h1.994v44h-1.994z" fill="#656d78"/><path d="m46.996 7h1.996v44h-1.996z" fill="#656d78"/><path d="m28.02 21c0-.55-.451-1-1-1h-22.026c-.551 0-1 .45-1 1v21c0 .55.449 1 1 1h10 8l5 3v-3.875c.006-.043.026-.081.026-.125z" fill="#ffce54"/><path d="m35.98 13c0-.55.451-1 1-1h22.025c.551 0 1 .45 1 1v15.998c0 .549-.449.999-1 .999h-10-8l-5 2.999v-3.874c-.005-.043-.025-.081-.025-.124z" fill="#ffce54"/><path d="m48.994 53v4c0 3.3-2.701 6-6 6h-22c-3.301 0-6-2.7-6-6v-4c0 3.3 2.699 6 6 6h11 11c3.299 0 6-2.7 6-6z" fill="#545c66"/><path d="m31.994 53c1.1 0 2 .9 2 2 0 1.11-.9 2-2 2s-2-.89-2-2c0-1.1.901-2 2-2z" fill="#aab2bd"/><path d="m31.994 59h-11c-3.301 0-6-2.7-6-6v-2h17v2c-1.1 0-2 .9-2 2 0 1.11.9 2 2 2z" fill="#656d78"/><path d="m48.994 51v2c0 3.3-2.701 6-6 6h-11v-2c1.1 0 2-.89 2-2 0-1.1-.9-2-2-2v-2z" fill="#656d78"/><path d="m48.994 7h-34v-1c0-2.76 2.24-5 5-5h24c2.76 0 5 2.24 5 5z" fill="#656d78"/><path d="m29.023 5c-.553 0-1.004-.447-1.004-1s.441-1 .994-1h.01c.553 0 1 .447 1 1s-.447 1-1 1z" fill="#5d9cec"/><path d="m34.994 5h-3c-.553 0-1-.447-1-1s.447-1 1-1h3c.553 0 1 .447 1 1s-.447 1-1 1z" fill="#545c66"/><path d="m54.994 17.999h-14c-.553 0-1-.448-1-1s.447-1 1-1h14c.553 0 1 .448 1 1s-.447 1-1 1z" fill="#f6bb42"/><path d="m54.994 21.999h-14c-.553 0-1-.448-1-1s.447-1 1-1h14c.553 0 1 .448 1 1s-.447 1-1 1z" fill="#f6bb42"/><path d="m47.994 25.999h-7c-.553 0-1-.448-1-1s.447-1 1-1h7c.553 0 1 .448 1 1s-.447 1-1 1z" fill="#f6bb42"/><g fill="#545c66"><path d="m12.502 39.002c-.553 0-1-.447-1-1v-8c0-.553.447-1 1-1s1 .447 1 1v8c0 .553-.447 1-1 1z"/><path d="m10.002 30c-.553 0-1-.447-1-1v-4.002c0-.553.447-1 1-1s1 .447 1 1v4.002c0 .553-.447 1-1 1z"/><path d="m15.002 30c-.553 0-1-.447-1-1v-4.002c0-.553.447-1 1-1s1 .447 1 1v4.002c0 .553-.447 1-1 1z"/><path d="m18.002 39.002c-.553 0-1-.447-1-1v-13.006c0-.553.447-1 1-1s1 .447 1 1v13.006c0 .553-.447 1-1 1z"/></g><path d="m17.996 23.996c-.553 0-1 .447-1 1v7h.006c0 .553.447 1 1 1h3c.553 0 1-.447 1-1v-3.994c0-2.209-1.797-4.006-4.006-4.006z" fill="#656d78"/><path d="m12.5 27.996c-.553 0-1-.447-1-1v-1.998c0-.553.447-1 1-1s1 .447 1 1v1.998c0 .553-.447 1-1 1z" fill="#545c66"/><path d="m15.002 26.998h-5c-.553 0-1 .447-1 1v1c0 .002-.002.002-.002.004 0 1.102.896 1.998 1.998 1.998h2.992c.004 0 .008.002.01.002 1.104 0 2.002-.898 2.002-2.002v-1.002c0-.553-.447-1-1-1z" fill="#656d78"/></svg>