<?xml version="1.0" encoding="utf-8"?>
<!-- Generator: Adobe Illustrator 22.1.0, SVG Export Plug-In . SVG Version: 6.00 Build 0)  -->
<svg version="1.1" id="Layer_1" xmlns="http://www.w3.org/2000/svg" xmlns:xlink="http://www.w3.org/1999/xlink" x="0px" y="0px"
	 viewBox="0 0 1355 575" style="enable-background:new 0 0 1355 575;" xml:space="preserve">
<polygon style="fill:#F7F9FF;" points="0,332 175.9,294.5 1172.3,293.7 1369,334 1369,575 2,575 "/>
<g>
	<linearGradient id="SVGID_1_" gradientUnits="userSpaceOnUse" x1="679.8813" y1="549.6089" x2="679.8813" y2="294.1968">
		<stop  offset="0.3243" style="stop-color:#F7F9FF"/>
		<stop  offset="0.8378" style="stop-color:#DFE4F2"/>
	</linearGradient>
	<path style="fill:url(#SVGID_1_);" d="M1353.6,385.3c-14.8,0-29.6,0-44.4,0c-2.5-0.8-5.1-1.6-7.6-2.4
		c-22.8-7.2-45.7-14.2-68.5-21.3c-9.7-3-19.4-6-29.1-9.1c32.7,0,65.4,0,98.1,0c16.1,4.4,32.3,8.7,48.3,13.6c2.4,0.7,3.4-3.2,1-3.7
		c-12.8-3-25.5-6.4-38.2-9.8c13.2,0,26.4,0,39.6,0c0.9,0,0.9-1.4,0-1.4c-14.9,0-29.7,0-44.6,0c-1.7-0.5-3.5-0.9-5.2-1.4
		c-16.7-4.4-33.5-8.9-50.2-13.4c-8.3-2.2-16.6-4.5-25-6.7c27.4,0,54.9,0,82.3,0c9.6,0,19.2,0,28.8,0c2.7,0.6,5.5,1.1,8.2,1.7
		c2.3,0.5,3.3-3.1,1-3.6c-45.8-8.7-91.7-17.3-137.5-26.2c-12.2-2.4-24.3-4.6-36.5-6.8c-0.1-0.3-0.3-0.6-0.8-0.6
		c-64.4,0-128.8,0-193.2,0c-65.1,0-130.3,0-195.4,0c-65.1,0-130.1,0-195.2,0c-65.2,0-130.4,0-195.5,0c-64.5,0-129,0-193.4,0.1
		c-7.9,0-15.8,0-23.7,0.1c-0.2,0-0.4,0.1-0.5,0.3c-8.7,1.6-17.4,3.3-26.1,4.9c-0.4,0-0.9,0-1.3,0c-0.3,0-0.4,0.1-0.5,0.3
		c-32.4,6.2-64.8,12.4-97.3,18.4c-11.8,2.2-23.6,4.5-35.5,6.7c-2.3,0.4-1.4,4.1,1,3.6c20.8-4.3,41.6-8.7,62.4-13
		c31.7,0,63.5,0,95.2,0c-16.1,4.2-32.3,8.5-48.4,12.7c-23.3,0-46.6,0-69.9,0c-10.6,0-21.3,0-31.9,0.1c-0.7,0-0.7,1,0,1
		c32.3,0.1,64.7,0.1,97,0.1c-18.4,4.8-36.9,9.6-55.3,14.4c-9.1,2.4-18.2,4.8-27.3,7.2c-10.6,0-21.3,0-31.9,0.1c-0.7,0-0.7,1,0,1
		c9.1,0,18.3,0,27.4,0.1c-7.2,1.9-14.5,3.7-21.7,5.4c-2.4,0.6-1.4,4.5,1,3.7c10.6-3.3,21.4-6.2,32.1-9c33.8,0.1,67.6,0.1,101.4,0.2
		c-21.9,6.8-43.7,13.6-65.6,20.4c-11.9,3.7-23.8,7.4-35.7,11.2c-1.3,0.4-2.6,0.8-4,1.3c-11.7,0-23.3,0.1-35,0.2
		c-1.3,0-1.3,2.1,0,2.1c9.2,0.1,18.4,0.1,27.6,0.1c-7.1,2.3-14.2,4.6-21.4,6.4c-3,0.8-1.6,5.6,1.3,4.6c9.3-3.5,19-6.3,28.5-9.3
		c1.7-0.5,3.3-1.1,5-1.6c42.8,0.2,85.7,0.3,128.5,0.3c-27,10.7-54.1,21.3-81.1,31.9c-17.3,6.8-34.7,13.5-52.1,20.1
		c-12.1,0.1-24.2,0.2-36.3,0.3c-2.2,0-2.2,3.4,0,3.4c8.6,0.1,17.2,0.2,25.7,0.2c-6.7,2.5-13.4,5-20,7.5c-2.9,1.1-1.7,5.8,1.3,4.7
		c10.6-4,21.2-8,31.8-12.1c43.8,0.4,87.6,0.5,131.5,0.5c-0.9,0.4-1.7,0.8-2.6,1.3c-23.9,11.7-48,23.3-72.1,34.6
		c-26.5,12.5-53.2,24.8-80.3,35.9c-2.9,1.2-5.7,2.3-8.6,3.5c-2.9,1.2-1.6,5.9,1.3,4.8c26.4-10.5,52.4-22.3,78.2-34.3
		c25.4-11.8,50.5-24,75.6-36.5c6.1-3,12.3-6.1,18.4-9.2c46,0,92-0.1,138-0.2c-23.4,15.3-46.9,30.6-70.4,45.7
		c-26.8,17.2-53.7,34.3-80.9,50.9c-2.7,1.6-0.2,5.9,2.5,4.3c43.7-26.8,86.5-54.9,129.2-83.3c8.8-5.9,17.6-11.7,26.4-17.6
		c62.8-0.2,125.6-0.3,188.3-0.3c-9.8,14.1-19.6,28.1-29.4,42.2c-12.3,17.8-24.7,35.5-37.1,53.3c-1.8,2.5,2.4,5,4.1,2.4
		c22.1-32.6,44.1-65.3,66.2-97.9c3,0,6.1,0,9.1,0c46.4,0,92.7,0.1,139.1,0.1c-0.1,15.9-0.3,31.9-0.4,47.8
		c-0.2,18.4,0.1,36.8-0.7,55.1c-0.1,2.9,4.7,2.9,4.5,0c-0.7-16.3-0.5-32.7-0.7-49c-0.1-16.5-0.3-33.1-0.4-49.6c0-1.4,0-2.9,0-4.3
		c51.1,0,102.1,0,153.2,0c10,14.7,19.9,29.4,29.9,44.1c12.2,17.9,24.3,35.8,36.4,53.7c1.7,2.5,5.9,0.1,4.1-2.4
		c-22.2-31.8-44.4-63.6-66.6-95.4c62.7,0,125.4,0,188,0c25,16.8,50.1,33.4,75.3,49.9c26.7,17.4,53.5,34.5,80.7,51.2
		c2.7,1.7,5.2-2.6,2.5-4.3c-43.8-26.6-86.7-54.6-129.6-82.6c-7.3-4.8-14.6-9.5-21.9-14.3c10,0,20,0,30.1,0c35.8,0,71.6,0,107.4,0
		c6.3,3.2,12.6,6.3,18.8,9.5c25.2,12.7,50.5,25.3,75.9,37.4c26.2,12.5,52.5,24.9,79.4,36c2.8,1.2,5.6,2.3,8.4,3.4
		c2.9,1.2,4.2-3.6,1.3-4.8c-26.2-10.4-51.7-22.3-77.2-34.3c-26.3-12.4-52.4-25.2-78.4-38c-6.2-3.1-12.4-6.1-18.6-9.2
		c43.7,0,87.4,0,131,0c14.6,5.8,29.3,11.5,44,17.1c3,1.1,4.2-3.6,1.3-4.7c-10.8-4-21.7-8.1-32.4-12.3c11.4,0,22.9,0,34.3,0
		c2.9,0,2.9-4.5,0-4.5c-15.3,0-30.6,0-46,0c-29.7-11.6-59.2-23.6-88.8-35.4c-14-5.6-28.1-11.1-42.1-16.6c43.1,0,86.3,0,129.4,0
		c14.5,4.7,28.9,9.5,43.2,14.8c2.8,1.1,4.3-3.8,1.3-4.6c-6.7-1.8-13.3-4.4-19.8-6.7c-3.6-1.3-7.3-2.4-10.9-3.6c11.9,0,23.8,0,35.7,0
		C1355.4,388,1355.4,385.3,1353.6,385.3z M1295.7,350.8c0.5,0.1,1,0.3,1.5,0.4c-32.5,0-65,0-97.5,0c-23-7.1-45.9-14.3-68.8-21.5
		c29.9,0,59.7,0,89.6,0C1245.5,336.7,1270.6,343.7,1295.7,350.8z M328,295.8c-4,1.3-8,2.5-12,3.8c-25.4,0-50.8,0-76.2,0
		c4.7-1.3,9.4-2.5,14.1-3.8C278.6,295.8,303.3,295.8,328,295.8z M312.1,300.8c-5,1.6-10,3.1-15,4.7c-26.5,0-52.9,0-79.4,0
		c5.8-1.6,11.6-3.1,17.5-4.7C260.8,300.8,286.5,300.8,312.1,300.8z M411.3,295.8c22.5,0,45,0,67.6,0c-2.5,1.3-5,2.5-7.6,3.8
		c-22.8,0-45.5,0-68.3,0c2.6-1.1,5.3-2.1,7.9-3.2C411.2,296.3,411.3,296.1,411.3,295.8z M624.4,295.8c16,0,32,0,48.1,0
		c0,1.2-0.1,2.5-0.1,3.7c-16.8,0-33.6,0-50.4,0c0.8-1.1,1.5-2.3,2.3-3.4C624.4,296.1,624.4,296,624.4,295.8z M726.8,296.2
		c0.8,1.1,1.5,2.3,2.3,3.4c-18.5,0-37,0-55.5,0c0-1.2-0.1-2.5-0.1-3.7c17.7,0,35.5,0,53.2,0C726.7,296,726.7,296.1,726.8,296.2z
		 M940.2,296.4c2.6,1.1,5.2,2.1,7.9,3.2c-22.8,0-45.5,0-68.3,0c-2.5-1.2-5-2.5-7.4-3.7c22.5,0,45,0,67.5,0
		C939.8,296.1,939.9,296.3,940.2,296.4z M1097.6,295.9c4.5,1.2,9,2.4,13.5,3.7c-25.4,0-50.8,0-76.2,0c-3.9-1.2-7.8-2.4-11.7-3.7
		C1048.1,295.9,1072.8,295.9,1097.6,295.9z M1116.1,300.9c5.7,1.5,11.3,3.1,17,4.6c-26.4,0-52.8,0-79.2,0c-4.9-1.5-9.8-3.1-14.7-4.6
		C1064.8,300.9,1090.4,300.9,1116.1,300.9z M1264.9,314.4c-31.2,0-62.5,0-93.7,0c-6.5-1.8-13-3.5-19.5-5.3c-2.9-0.8-5.8-1.6-8.8-2.3
		c20.1,0,40.1,0,60.2,0c8.3,0,16.5,0,24.8,0C1240.2,309.4,1252.6,311.9,1264.9,314.4z M1165.6,314.4c-27.8,0-55.5,0-83.3,0
		c-8.1-2.5-16.1-5.1-24.2-7.6c26.6,0,53.3,0,79.9,0C1147.2,309.4,1156.4,311.9,1165.6,314.4z M985,314.5c-25.1,0-50.1,0-75.2,0
		c-5.1-2.5-10.3-5.1-15.4-7.6c23.9,0,47.8,0,71.7,0C972.4,309.4,978.7,311.9,985,314.5z M969.4,306.8c6.1,0,12.2,0,18.3,0
		c22,0,44.1,0,66.1,0c7.9,2.5,15.8,5.1,23.7,7.6c-11.9,0-23.8,0-35.7,0c-17.7,0-35.5,0-53.2,0C982.1,311.9,975.7,309.4,969.4,306.8z
		 M906.8,314.5c-26.6,0-53.2,0-79.9,0c-3.9-2.5-7.8-5.1-11.6-7.6c25.4,0,50.9,0,76.3,0C896.7,309.4,901.8,311.9,906.8,314.5z
		 M824.6,314.5c-6.2,0-12.4,0-18.6,0c-21.8,0-43.5,0-65.3,0c-1.8-2.5-3.5-5.1-5.3-7.6c11.6,0,23.1,0,34.7,0c14.3,0,28.6,0,42.9,0
		C817,309.4,820.8,311.9,824.6,314.5z M610.9,315.8c20.4,0,40.8,0,61.1,0c0,4.2-0.1,8.4-0.1,12.6c-23.2,0-46.4,0-69.6,0
		C605.2,324.2,608.1,320,610.9,315.8z M600.7,328.4c-10.7,0-21.4,0-32.1,0c-21,0-42,0-63.1,0c6.3-4.2,12.7-8.4,19-12.6
		c5.1,0,10.3,0,15.4,0c23.2,0,46.3,0,69.5,0C606.5,320,603.6,324.2,600.7,328.4z M673.8,315.8c22.1,0,44.3,0,66.4,0
		c2.9,4.2,5.7,8.4,8.6,12.6c-25,0-50,0-75,0C673.8,324.2,673.8,320,673.8,315.8z M741.7,315.8c11.9,0,23.8,0,35.7,0
		c16.4,0,32.8,0,49.2,0c6.3,4.2,12.7,8.4,19,12.6c-5.5,0-11.1,0-16.6,0c-26.2,0-52.4,0-78.5,0C747.5,324.2,744.6,320,741.7,315.8z
		 M739.3,314.5c-21.8,0-43.7,0-65.5,0c0-2.5,0-5.1-0.1-7.6c20.1,0,40.2,0,60.4,0C735.8,309.4,737.6,311.9,739.3,314.5z M672.1,314.5
		c-20.1,0-40.2,0-60.3,0c1.7-2.6,3.5-5.1,5.2-7.6c18.4,0,36.8,0,55.2,0C672.1,309.4,672.1,311.9,672.1,314.5z M610.3,314.5
		c-13.9,0-27.8,0-41.7,0c-14,0-28.1,0-42.1,0c3.8-2.6,7.7-5.1,11.5-7.7c4.6,0,9.3,0,13.9,0c21.2,0,42.4,0,63.6,0
		C613.8,309.4,612.1,311.9,610.3,314.5z M524.2,314.5c-26.7,0-53.3,0-80,0c5.1-2.6,10.2-5.1,15.3-7.7c25.5,0,50.9,0,76.4,0
		C532,309.4,528.1,311.9,524.2,314.5z M441.3,314.5c-25,0-50.1,0-75.1,0c6.3-2.6,12.7-5.1,19-7.7c23.8,0,47.7,0,71.5,0
		C451.6,309.4,446.4,311.9,441.3,314.5z M438.7,315.7c-8.5,4.2-17,8.4-25.5,12.6c-27.1,0-54.2,0-81.3,0c10.4-4.2,20.8-8.4,31.2-12.7
		C388.3,315.7,413.5,315.7,438.7,315.7z M441.7,315.7c26.8,0,53.7,0,80.5,0c-6.4,4.2-12.8,8.4-19.3,12.6c-28.8,0-57.6,0-86.4,0
		C425,324.2,433.3,320,441.7,315.7z M501,329.7c-11,7.2-22,14.4-33,21.6c-32.2,0-64.5,0-96.7,0c14.2-7.2,28.5-14.4,42.7-21.6
		C443.1,329.6,472.1,329.6,501,329.7z M503.6,329.7c11.1,0,22.2,0,33.2,0c21,0,41.9,0,62.9,0c-5,7.2-10,14.4-15,21.6
		c-37.9,0-75.7,0-113.6,0C482,344,492.8,336.8,503.6,329.7z M587.8,349.8c4.6-6.7,9.1-13.4,13.7-20.1c23.5,0,47,0,70.5,0
		c0,7.2,0,14.4,0,21.6c-28.4,0-56.8,0-85.2,0C587.1,350.7,587.5,350.3,587.8,349.8z M673.8,350.2c0-6.8,0-13.7,0-20.5
		c25.3,0,50.6,0,75.8,0c4.9,7.2,9.8,14.4,14.6,21.6c-30.2,0-60.3,0-90.5,0C673.8,350.9,673.8,350.5,673.8,350.2z M764.7,349
		c-4.5-6.4-8.9-12.9-13.4-19.3c15.3,0,30.6,0,45.9,0c16.8,0,33.5,0,50.3,0c10.8,7.2,21.6,14.4,32.4,21.5c-18,0-36,0-53.9,0
		c-19.9,0-39.8,0-59.7,0C765.8,350.5,765.2,349.7,764.7,349z M850.2,329.7c29,0,57.9,0,86.9,0c14.2,7.2,28.4,14.4,42.7,21.5
		c-32.2,0-64.4,0-96.6,0C872.1,344,861.1,336.9,850.2,329.7z M848.2,328.4c-6.4-4.2-12.8-8.4-19.2-12.6c26.8,0,53.7,0,80.5,0
		c8.3,4.2,16.7,8.4,25,12.6C905.7,328.4,876.9,328.4,848.2,328.4z M912.4,315.8c25.3,0,50.5,0,75.8,0c10.4,4.2,20.7,8.4,31.1,12.6
		c-27.2,0-54.4,0-81.5,0C929.3,324.2,920.9,320,912.4,315.8z M991.8,315.8c6.8,0,13.7,0,20.5,0c23.1,0,46.1,0,69.2,0
		c13,4.2,26,8.4,39,12.6c-10.9,0-21.9,0-32.8,0c-21.4,0-42.8,0-64.1,0C1013,324.2,1002.4,320,991.8,315.8z M1095.6,318.6
		c-3-1-6.1-1.9-9.1-2.9c28,0,56,0,84,0c15.1,4.2,30.1,8.4,45.2,12.6c-29.7,0-59.3,0-89,0C1116.2,325.1,1105.9,321.9,1095.6,318.6z
		 M1049.6,305.5c-11.4,0-22.9,0-34.3,0c-16.4,0-32.8,0-49.2,0c-3.9-1.5-7.8-3.1-11.7-4.6c4.9,0,9.8,0,14.7,0c22,0,44.1,0,66.1,0
		C1040,302.4,1044.8,304,1049.6,305.5z M962.8,305.5c-23.7,0-47.4,0-71.1,0c-2.1-1.1-4.3-2.1-6.4-3.2c-1-0.5-2-1-2.9-1.5
		c23,0,45.9,0,68.9,0C955.1,302.4,959,304,962.8,305.5z M870.5,296.2c2.2,1.1,4.5,2.3,6.7,3.4c-24.3,0-48.6,0-73,0
		c-1.9-1.2-3.8-2.5-5.7-3.7c23.9,0,47.7,0,71.6,0C870.2,296,870.3,296.1,870.5,296.2z M879.8,300.9c3.1,1.5,6.2,3.1,9.3,4.7
		c-25.2,0-50.5,0-75.7,0c-2.4-1.6-4.7-3.1-7.1-4.7C830.7,300.9,855.3,300.9,879.8,300.9z M811.2,305.5c-4.7,0-9.4,0-14.1,0
		c-20.8,0-41.6,0-62.5,0c-1.1-1.6-2.2-3.1-3.2-4.7c10.7,0,21.4,0,32.1,0c13.5,0,27.1,0,40.6,0C806.5,302.4,808.8,304,811.2,305.5z
		 M733.2,305.5c-19.8,0-39.7,0-59.5,0c0-1.6,0-3.1-0.1-4.7c18.8,0,37.6,0,56.4,0C731.1,302.4,732.1,304,733.2,305.5z M672.3,300.9
		c0,1.6-0.1,3.1-0.1,4.7c-18.1,0-36.2,0-54.3,0c1.1-1.6,2.1-3.1,3.2-4.7C638.2,300.9,655.2,300.9,672.3,300.9z M616.5,305.5
		c-12.6,0-25.1,0-37.7,0c-13,0-25.9,0-38.9,0c2.3-1.6,4.7-3.1,7-4.7c3.5,0,6.9,0,10.4,0c20.8,0,41.6,0,62.3,0
		C618.6,302.4,617.6,304,616.5,305.5z M537.8,305.5c-25.3,0-50.5,0-75.8,0c1.7-0.8,3.3-1.7,5-2.5c1.5-0.7,2.9-1.5,4.4-2.2
		c24.5,0,49.1,0,73.6,0C542.5,302.4,540.2,304,537.8,305.5z M473.9,299.6c2.3-1.1,4.5-2.3,6.8-3.4c0.2-0.1,0.2-0.2,0.3-0.3
		c23.9,0,47.8,0,71.6,0c-1.9,1.2-3.8,2.5-5.7,3.7C522.5,299.6,498.2,299.6,473.9,299.6z M468.8,300.9c-3.2,1.6-6.3,3.1-9.5,4.7
		c-23.7,0-47.3,0-71,0c3.9-1.6,7.8-3.1,11.7-4.7C422.9,300.8,445.8,300.8,468.8,300.9z M385,305.6c-7.9,0-15.7,0-23.6,0
		c-20,0-40.1,0-60.1,0c4.9-1.6,9.8-3.1,14.7-4.7c12,0,24,0,35.9,0c14.9,0,29.9,0,44.8,0C392.9,302.4,389,304,385,305.6z
		 M293.2,306.8c-8.1,2.6-16.3,5.1-24.4,7.7c-28,0-56,0-84,0c5.5-1.5,11.1-3,16.6-4.5c3.9-1.1,7.9-2.1,11.8-3.2
		C239.8,306.8,266.5,306.8,293.2,306.8z M297.5,306.8c12.1,0,24.2,0,36.3,0c16,0,32.1,0,48.1,0c-6.4,2.6-12.9,5.1-19.3,7.7
		c-9.6,0-19.3,0-28.9,0c-20,0-40,0-60.1,0C281.6,311.9,289.5,309.4,297.5,306.8z M304.3,315.7c18.4,0,36.8,0,55.2,0
		c-10.6,4.2-21.2,8.4-31.9,12.7c-6,0-12.1,0-18.1,0c-26.3,0-52.7,0-79,0c10.4-3.4,20.9-6.8,31.3-10.1c2.6-0.9,5.3-1.7,7.9-2.6
		C281.3,315.7,292.8,315.7,304.3,315.7z M278.1,329.6c15.4,0,30.9,0,46.3,0c-18.2,7.2-36.4,14.4-54.7,21.6c-36.5,0-73,0-109.6-0.1
		c22.1-7.2,44.3-14.4,66.4-21.5C243.8,329.7,261,329.6,278.1,329.6z M317.7,334.1c3.7-1.5,7.4-3,11.1-4.5c27.3,0,54.6,0,81.9,0
		c-13.7,6.8-27.4,13.5-41.1,20.3c-0.9,0.4-1.7,0.9-2.6,1.3c-21.7,0-43.3,0-65,0c-8.8,0-17.6,0-26.4,0
		C289.7,345.5,303.7,339.8,317.7,334.1z M364.3,352.6c-22.2,11-44.4,21.9-66.7,32.8c-35.1,0-70.2-0.1-105.2-0.1
		c26.6-10.9,53.2-21.8,79.9-32.7C302.9,352.6,333.6,352.6,364.3,352.6z M356.4,358.8c4.1-2.1,8.3-4.2,12.4-6.3
		c32.5,0,64.9,0,97.4-0.1c-16.8,11-33.6,21.9-50.4,32.9c-37.2,0-74.5,0-111.7,0C321.5,376.5,338.9,367.7,356.4,358.8z M465.2,355.2
		c1.4-0.9,2.7-1.8,4.1-2.7c21.3,0,42.5,0,63.8,0c16.9,0,33.8,0,50.8,0c-7.6,11-15.3,21.9-22.9,32.9c-47,0-93.9,0-140.9,0
		C435.1,375.3,450.1,365.3,465.2,355.2z M585.9,352.5c28.7,0,57.4,0,86.1,0c0,10.9,0.1,21.9,0.1,32.8c-36.2,0-72.3,0-108.5,0
		C571.1,374.4,578.5,363.5,585.9,352.5z M673.8,352.5c30.5,0,60.9,0,91.4,0c7.4,10.9,14.8,21.9,22.2,32.8c-37.8,0-75.7,0-113.5,0
		C673.8,374.4,673.8,363.5,673.8,352.5z M767.2,352.5c38.2,0,76.5,0,114.7,0c16.4,10.9,32.7,21.8,49.1,32.8c-34.8,0-69.6,0-104.4,0
		c-12.2,0-24.4,0-36.6,0C782.4,374.4,774.8,363.5,767.2,352.5z M886.8,353.7c-0.6-0.4-1.2-0.8-1.7-1.1c32.4,0,64.8,0,97.2,0
		c1.6,0.8,3.2,1.6,4.8,2.4c20,10.1,39.9,20.2,59.9,30.4c-37.2,0-74.4,0-111.6,0C919.2,374.8,903,364.2,886.8,353.7z M1002.4,360.3
		c-5.2-2.6-10.5-5.2-15.7-7.8c23.5,0,46.9,0,70.4,0c7.2,0,14.5,0,21.7,0c12.7,5.2,25.4,10.4,38.2,15.6c14,5.7,28,11.4,42,17.2
		c-35.2,0-70.5,0-105.7,0C1036.3,377,1019.4,368.7,1002.4,360.3z M984,351.2c-14.5-7.2-29.1-14.3-43.6-21.5c27.4,0,54.8,0,82.2,0
		c17.7,7.2,35.3,14.3,53,21.5C1045,351.2,1014.5,351.2,984,351.2z M1040.2,334.9c-4.4-1.8-8.8-3.5-13.3-5.3c9.8,0,19.6,0,29.5,0
		c22.8,0,45.5,0,68.3,0c10.2,3.3,20.4,6.6,30.6,9.9c11.9,3.9,23.9,7.7,35.8,11.6c-36.6,0-73.1,0-109.7,0
		C1067.6,345.8,1053.9,340.4,1040.2,334.9z M1332.1,328.3c-36.4,0-72.9,0-109.3,0c-15.5-4.2-31.1-8.4-46.6-12.6
		c22.6,0,45.2,0,67.8,0c9.2,0,18.4,0,27.6,0c12.8,2.6,25.6,5.3,38.4,8C1317.3,325.4,1324.7,326.8,1332.1,328.3z M1221.3,305.5
		c-27.8,0-55.6,0-83.4,0c-5.8-1.5-11.5-3.1-17.3-4.6c17.3,0,34.7,0,52,0c8.4,0,16.7,0,25.1,0c0.2,0,0.3-0.1,0.4-0.1
		C1205.8,302.3,1213.5,303.9,1221.3,305.5z M1173.2,295.9c0.2,0,0.4-0.1,0.5-0.2c6.2,1.3,12.4,2.6,18.6,3.8c-25.6,0-51.1,0-76.7,0
		c-4.6-1.2-9.1-2.4-13.7-3.7c15.9,0,31.7,0,47.6,0C1157.4,295.9,1165.3,295.9,1173.2,295.9z M1019.6,295.9c3.8,1.2,7.6,2.5,11.5,3.7
		c-12.2,0-24.4,0-36.5,0c-14.5,0-29,0-43.4,0c-3.1-1.2-6.2-2.5-9.3-3.7c4.7,0,9.4,0,14.1,0C977.1,295.9,998.4,295.9,1019.6,295.9z
		 M796.6,295.9c1.9,1.2,3.7,2.5,5.6,3.7c-4.3,0-8.7,0-13,0c-19.5,0-39.1,0-58.6,0c-0.9-1.2-1.7-2.5-2.6-3.7c10.8,0,21.6,0,32.4,0
		C772.4,295.9,784.5,295.9,796.6,295.9z M623.2,295.8c-0.9,1.2-1.7,2.5-2.6,3.7c-12.5,0-25.1,0-37.6,0c-11.4,0-22.7,0-34.1,0
		c1.9-1.2,3.8-2.5,5.6-3.7c3.5,0,7,0,10.5,0C584.5,295.8,603.8,295.8,623.2,295.8z M409.4,295.8c-3.2,1.3-6.3,2.5-9.5,3.8
		c-7.5,0-15,0-22.5,0c-19.2,0-38.4,0-57.5,0c3.9-1.3,7.8-2.5,11.8-3.8c12.7,0,25.4,0,38,0C383,295.8,396.2,295.8,409.4,295.8z
		 M176.3,295.6c0.1,0.1,0.2,0.1,0.3,0.1c24.3,0.1,48.6,0.1,72.9,0.1c-4.8,1.3-9.6,2.5-14.4,3.8c-20.4,0-40.9,0-61.3,0
		c-5.5,0-11.1,0-16.6,0C163.7,298.3,170,296.9,176.3,295.6z M151.4,300.8c26.4,0,52.8,0,79.1,0c-5.9,1.6-11.9,3.2-17.8,4.7
		c-22.3,0-44.5,0-66.8,0c-5.9,0-11.7,0-17.6,0c4.4-0.9,8.8-1.8,13.2-2.7C144.9,302.2,148.1,301.5,151.4,300.8z M102.1,314.5
		c-5.8,0-11.6,0-17.3,0c12.5-2.6,25.1-5.2,37.6-7.7c28.6,0,57.1,0,85.7,0c-9.8,2.6-19.5,5.1-29.3,7.7
		C153.2,314.5,127.6,314.5,102.1,314.5z M180.2,315.7c28.2,0,56.4,0,84.6,0c-13.5,4.2-27,8.5-40.5,12.7c-30.3,0-60.6,0-90.9,0
		C149.1,324.2,164.6,320,180.2,315.7z M49.8,351.3c3.6-1,7.1-1.9,10.7-2.9c15.8-4.3,31.5-8.7,47.3-13c7-1.9,14-3.8,21-5.7
		c30.5,0,61,0,91.5,0c-4.5,1.4-8.9,2.8-13.4,4.2c-18.5,5.8-37.1,11.6-55.6,17.3C117.5,351.2,83.7,351.2,49.8,351.3z M55.1,385.4
		c6.3-2,12.5-4,18.8-6.1c20.8-6.7,41.6-13.6,62.4-20.4c6.5-2.1,12.9-4.2,19.4-6.3c36.8,0,73.7,0,110.5,0c-6.9,2.7-13.9,5.5-20.8,8.2
		c-20.7,8.1-41.4,16.3-62.1,24.4C140.6,385.2,97.9,385.2,55.1,385.4z M56,440.1c32.4-12.6,64.6-25.7,96.9-38.8
		c10.8-4.4,21.6-8.8,32.3-13.2c35.6,0,71.2,0,106.8-0.1c-11.2,5.5-22.4,11-33.6,16.5c-23.9,11.7-47.8,23.6-71.7,35.4
		C143.1,439.9,99.6,439.9,56,440.1z M301.8,440.2c-35.2,0-70.3-0.1-105.5-0.2c16.4-8.2,32.7-16.5,49.1-24.8
		c17.7-9,35.5-18.1,53.2-27.1c37.7-0.1,75.4-0.1,113.1-0.2c-6.1,4-12.2,8-18.3,11.9c-20.6,13.4-41.2,26.8-61.8,40.3
		C321.7,440.2,311.8,440.2,301.8,440.2z M338.2,440.2c26-17.4,52-34.8,78-52.2c39.1,0,78.2-0.1,117.3-0.1c8.6,0,17.1,0,25.7,0
		c-12.2,17.4-24.3,34.8-36.5,52.2C461.2,440.2,399.7,440.2,338.2,440.2z M526.5,440.1c11.8-17.4,23.6-34.8,35.4-52.2
		c36.7,0,73.5,0,110.2,0c0,1.9,0,3.8,0,5.7c0,15.5-0.1,31-0.2,46.4C623.4,440.1,575,440.1,526.5,440.1z M674.1,440.1
		c-0.1-17.4-0.2-34.8-0.2-52.2c38.4,0,76.8,0,115.3,0c11.7,17.4,23.5,34.8,35.2,52.1C774.3,440.1,724.2,440.1,674.1,440.1z
		 M828.2,440.1c-12.1-17.4-24.2-34.7-36.3-52.1c47.7,0,95.4,0,143.1,0c7.1,4.8,14.2,9.5,21.4,14.3c18.8,12.6,37.5,25.2,56.3,37.8
		C951.2,440.1,889.7,440.1,828.2,440.1z M1019.5,440c-26.7-17.4-53.4-34.7-80-52.1c37.6,0,75.2,0,112.8,0
		c17.1,8.7,34.2,17.4,51.3,26.1c17.1,8.7,34.1,17.3,51.2,25.9C1109.7,440,1064.6,440,1019.5,440z M1267.4,429.5
		c8.6,3.5,17.2,7,25.8,10.5c-42.9,0-85.9,0-128.8,0c-15-7.5-30.1-14.9-45.1-22.4c-20.1-9.9-40.3-19.8-60.4-29.7
		c35.6,0,71.3,0,106.9,0C1199.6,401.8,1233.5,415.6,1267.4,429.5z M1168,385.3c-27.7-10.9-55.5-21.8-83.2-32.7
		c36.8,0,73.6,0,110.5,0c32.4,10.6,64.8,21.2,97.2,31.6c1.2,0.4,2.3,0.7,3.5,1.1C1253.2,385.3,1210.6,385.3,1168,385.3z"/>
	<g>
		<g>
			<path style="fill:#DFE4F2;" d="M210.4,231.6c-0.2,6.1-0.2,12.1-0.2,18.2c0,6-0.3,12.1,0.3,18.2c0.1,0.7,1,0.7,1,0
				c0.6-6,0.3-12.1,0.3-18.2c0-6.1-0.1-12.1-0.2-18.2C211.6,230.9,210.5,230.9,210.4,231.6L210.4,231.6z"/>
		</g>
		<g>
			<path style="fill:#DFE4F2;" d="M214.9,232.3c27.1,0.6,54.2,0.3,81.3,0.3c27.1,0,54.2,0.1,81.3,0.1c54,0,108,0,162.1,0
				c30.4,0,60.8,0.5,91.2-0.5c0.8,0,0.8-1.1,0-1.2c-27.1-0.9-54.2-0.5-81.3-0.5c-27.1,0-54.2,0-81.3,0c-54,0-108-0.1-162.1,0.1
				c-30.4,0.1-60.8-0.3-91.2,0.4C214,231,214,232.3,214.9,232.3L214.9,232.3z"/>
		</g>
		<g>
			<path style="fill:#DFE4F2;" d="M213.9,273.4c27.4,0.8,54.9,0.3,82.3,0.3c27.1,0,54.2,0,81.2,0c54.5,0,109,0,163.5,0.1
				c30.6,0,61.1,0,91.7,0c1.4,0,1.4-2.1,0-2.1c-54.5,0-109,0.1-163.5,0.1s-109,0-163.5,0c-30.5,0-61.1-0.6-91.7,0.3
				C213.1,272.1,213.1,273.4,213.9,273.4L213.9,273.4z"/>
		</g>
	</g>
	<g>
		<g>
			<path style="fill:#DFE4F2;" d="M1133.9,231.6c-0.2,6.1-0.2,12.1-0.2,18.2c0,6-0.3,12.1,0.3,18.2c0.1,0.7,1,0.7,1,0
				c0.6-6,0.3-12.1,0.3-18.2c0-6.1-0.1-12.1-0.2-18.2C1135.1,230.9,1133.9,230.9,1133.9,231.6L1133.9,231.6z"/>
		</g>
		<g>
			<path style="fill:#DFE4F2;" d="M1130.7,231c-27.1-0.6-54.2-0.3-81.3-0.3c-27.1,0-54.2-0.1-81.3-0.1c-54,0-108,0-162.1,0
				c-30.4,0-60.8-0.5-91.2,0.5c-0.8,0-0.8,1.1,0,1.2c27.1,0.9,54.2,0.5,81.3,0.5c27.1,0,54.2,0,81.3,0c54,0,108,0.1,162.1-0.1
				c30.4-0.1,60.8,0.3,91.2-0.4C1131.6,232.3,1131.6,231,1130.7,231L1130.7,231z"/>
		</g>
		<g>
			<path style="fill:#DFE4F2;" d="M1131.7,272.1c-27.4-0.8-54.9-0.3-82.3-0.3c-27.1,0-54.2,0-81.2,0c-54.5,0-109,0-163.5-0.1
				c-30.6,0-61.1,0-91.7,0c-1.4,0-1.4,2.1,0,2.1c54.5,0,109-0.1,163.5-0.1s109,0,163.5,0c30.5,0,61.1,0.6,91.7-0.3
				C1132.5,273.4,1132.5,272.1,1131.7,272.1L1131.7,272.1z"/>
		</g>
	</g>
	<g>
		<path style="fill:#DFE4F2;" d="M661.5,181.4c-11.6,6.9-22.3,15.9-31.6,25.7c-3.4,3.6-9.4,8.7-8,14.3c1.5,6.3,8.6,6.7,13.8,6.1
			c1.3-0.1,1.4-2.1,0-2.1c-2.8-0.1-6.1-0.2-8.6-1.7c-2.9-1.8-2.9-4.9-1.3-7.6c2.8-4.6,7.2-8.6,10.9-12.5c7.7-8,16.3-14.9,25.1-21.5
			C662.3,181.8,662,181.1,661.5,181.4L661.5,181.4z"/>
	</g>
	<g>
		<path style="fill:#DFE4F2;" d="M633.7,229.6c-0.3,8.3-0.3,16.5-0.4,24.8c0,4.1-0.1,8.3-0.1,12.4c0,1.9,0,3.8,0,5.7
			c0,1.9-0.3,4,0.4,5.8c0.2,0.6,1,0.6,1.2,0c0.6-1.7,0.4-3.5,0.4-5.3c0-2.1,0-4.1,0-6.2c0-4.1-0.1-8.3-0.1-12.4
			c-0.1-8.3-0.1-16.5-0.4-24.8C634.7,229,633.7,229,633.7,229.6L633.7,229.6z"/>
	</g>
	<g>
		<path style="fill:#DFE4F2;" d="M635,278.1c3.6,0.5,7.5,0.4,11.1,0.4c3.7,0,7.5,0.3,11.1-0.4c0.6-0.1,0.6-1.1,0-1.2
			c-3.6-0.7-7.4-0.4-11.1-0.4c-3.7,0-7.5-0.2-11.1,0.4C634.4,277,634.4,278,635,278.1L635,278.1z"/>
	</g>
	<g>
		<path style="fill:#DFE4F2;" d="M682.5,182.6c8.4,6.5,16.3,13.5,23.5,21.4c3.5,3.8,7.6,7.9,9.2,12.8c0.7,2.2,0.7,4.5-0.4,6.6
			c-0.9,1.7-3,2.3-3.8,4c-0.3,0.6-0.2,1.4,0.5,1.7c4.1,2.1,7.1-4.7,7.4-7.7c0.6-5.6-2.9-10.3-6.3-14.3c-8.4-9.9-18.2-18.7-29.3-25.5
			C682.6,181.3,681.9,182.1,682.5,182.6L682.5,182.6z"/>
	</g>
	<g>
		<path style="fill:#DFE4F2;" d="M711.7,232.6c-0.1,7.4-0.4,14.7-0.4,22.1c0,3.6,0,7.2,0,10.8c0,3.4-0.2,7,0.3,10.4
			c0.1,0.5,1,0.5,1.1,0c0.5-3.4,0.3-7,0.3-10.4c0-3.6,0-7.2,0-10.8c0-7.4-0.3-14.7-0.4-22.1C712.8,232,711.7,232,711.7,232.6
			L711.7,232.6z"/>
	</g>
	<g>
		<path style="fill:#DFE4F2;" d="M687.3,277.1c7.8,0,15.9,0.7,23.6-0.2c0.6-0.1,0.6-0.8,0-0.9c-7.7-0.9-15.8-0.2-23.6-0.2
			C686.5,275.9,686.5,277.1,687.3,277.1L687.3,277.1z"/>
	</g>
	<g>
		<path style="fill:#DFE4F2;" d="M660,277.5c0.8-6.1,0.3-12.6,0.4-18.8c0-6.3,0.1-12.5,0.1-18.8c0-0.9-1.4-0.9-1.4,0
			c0,6.3,0,12.5,0,18.8c0,6.2-0.6,12.7,0.2,18.8C659.3,278,660,278,660,277.5L660,277.5z"/>
	</g>
	<g>
		<path style="fill:#DFE4F2;" d="M660.4,240.1c2.7-4.3,7-5.9,12-5.8c2.3,0,4.7,0.3,7,0.6c3.2,0.4,5.8,1.2,6.7,4.6
			c0.2,0.9,1.7,1,1.9,0c1.2-6.8-9.9-7.1-14.1-7.2c-5.6-0.2-12.5,1.5-14.8,7.3C658.7,240.4,659.9,240.8,660.4,240.1L660.4,240.1z"/>
	</g>
	<g>
		<path style="fill:#DFE4F2;" d="M687.5,240.1c-0.6,2.7-0.4,5.6-0.4,8.4c0,3.1,0,6.2,0,9.3c0,6.1-0.5,12.5,0.2,18.6
			c0.1,0.9,1.4,0.9,1.5,0c0.7-6.1,0.2-12.5,0.2-18.6c0-2.9,0-5.9,0-8.8c0-3,0.2-6-0.4-8.9C688.4,239.6,687.6,239.6,687.5,240.1
			L687.5,240.1z"/>
	</g>
	<g>
		<path style="fill:#DFE4F2;" d="M644.5,227c19.9,0.2,39.8,0.7,59.8,0.1c0.6,0,0.6-1,0-1c-19.9-0.6-39.9-0.1-59.8,0.1
			C644,226.3,644,227,644.5,227L644.5,227z"/>
	</g>
	<g>
		<path style="fill:#DFE4F2;" d="M547.2,154.2c-12.7,10.3-23.3,23.9-31.9,37.7c-2.2,3.5-4.2,7.1-6.1,10.7c-1.8,3.5-4,7.2-4.7,11
			c-0.5,2.8,0.1,5.8,2.7,7.5c2.1,1.3,4.9,1.4,6.4-0.8c0.7-1-0.7-2.4-1.7-1.7c-1.3,0.8-2.8,0.7-3.9-0.5c-1.4-1.6-0.7-4.1-0.1-5.9
			c1.1-3.2,2.7-6.4,4.3-9.4c2.9-5.9,6.2-11.7,9.8-17.2c7.4-11.4,16.5-21,26.1-30.5C548.6,154.5,547.8,153.7,547.2,154.2L547.2,154.2
			z"/>
	</g>
	<g>
		<path style="fill:#DFE4F2;" d="M512.3,220.7c-0.2,3.7-0.8,7.8,0,11.5c0.1,0.6,1,0.6,1.1,0c0.8-3.7,0.3-7.7,0-11.5
			C513.5,219.9,512.4,219.9,512.3,220.7L512.3,220.7z"/>
	</g>
	<g>
		<path style="fill:#DFE4F2;" d="M513.5,219.5c11.3,0.6,62.7,0.4,74,0.4c11.3,0,22.7,0.3,34-0.1c1,0,1-1.5,0-1.5
			c-11.3-0.4-22.7-0.1-34-0.1c-11.3,0-62.7-0.2-74,0.4C512.9,218.6,512.9,219.4,513.5,219.5L513.5,219.5z"/>
	</g>
	<g>
		<path style="fill:#DFE4F2;" d="M722.5,219.8c17.1,0.7,34.4,0.2,51.5,0.2c8.5,0,17,0,25.5,0c8.6,0,17.4,0.4,26-0.3
			c0.9-0.1,0.9-1.3,0-1.3c-8.6-0.7-17.4-0.3-26-0.3c-8.5,0-17,0-25.5,0c-17.1,0-34.4-0.5-51.5,0.2
			C721.6,218.3,721.6,219.7,722.5,219.8L722.5,219.8z"/>
	</g>
	<g>
		<path style="fill:#DFE4F2;" d="M831.9,221.3c-0.1,2.4-0.7,5.4,0.1,7.8c0.2,0.6,1,0.6,1.2,0c0.7-2.4,0.1-5.4,0.1-7.8
			C833.1,220.5,831.9,220.5,831.9,221.3L831.9,221.3z"/>
	</g>
	<g>
		<path style="fill:#DFE4F2;" d="M547.5,155.5c10,0.1,20.1,0.2,30.1,0.3c4.8,0,9.7,0.1,14.5,0.1c4.8,0,9.9,0.5,14.7-0.4
			c0.6-0.1,0.6-1.1,0-1.2c-4.7-0.8-9.9-0.4-14.7-0.4c-4.8,0-9.7,0-14.5,0.1c-10,0.1-20.1,0.2-30.1,0.3
			C546.7,154.3,546.7,155.5,547.5,155.5L547.5,155.5z"/>
	</g>
	<g>
		<path style="fill:#DFE4F2;" d="M606.7,143.9c-0.2,6.1-0.3,12.3-0.4,18.4c0,2.9-0.1,5.8-0.1,8.7c0,2.8-0.5,6.2,0.5,8.9
			c0.2,0.6,1,0.6,1.3,0c0.9-2.6,0.5-5.7,0.5-8.4c0-3.1-0.1-6.1-0.1-9.2c-0.1-6.2-0.2-12.3-0.4-18.4
			C607.9,143.2,606.7,143.2,606.7,143.9L606.7,143.9z"/>
	</g>
	<g>
		<path style="fill:#DFE4F2;" d="M608.6,142.9c10.7,0.7,21.5,0.4,32.2,0.4c10.6,0,21.1,0,31.7,0s21.1,0,31.7,0c5.2,0,10.4,0,15.6,0
			c5.5,0,11.2,0.4,16.6-0.2c0.9-0.1,0.9-1.4,0-1.5c-5.5-0.6-11.1-0.2-16.6-0.2c-5.2,0-10.4,0-15.6,0c-10.6,0-21.1,0-31.7,0
			c-10.6,0-21.1,0-31.7,0c-10.7,0-21.5-0.4-32.2,0.4C607.8,141.7,607.8,142.9,608.6,142.9L608.6,142.9z"/>
	</g>
	<g>
		<path style="fill:#DFE4F2;" d="M735.9,142.8c-0.9,5.5-0.4,11.5-0.4,17.1c0,5.9-0.5,12.1,0.3,18c0.1,0.9,1.2,0.9,1.3,0
			c0.8-5.9,0.3-12,0.3-18c0-5.6,0.5-11.6-0.4-17.1C737,142.2,736,142.2,735.9,142.8L735.9,142.8z"/>
	</g>
	<g>
		<path style="fill:#DFE4F2;" d="M609.9,180.1c20,0.4,34.1,0.8,54.1-0.1c0.6,0,0.6-0.9,0-1c-20-0.8-34.1-0.5-54.1-0.1
			C609.2,178.9,609.2,180,609.9,180.1L609.9,180.1z"/>
	</g>
	<g>
		<path style="fill:#DFE4F2;" d="M679.7,179.7c10.9,0.3,19.8,0.3,30.7,0.3c10.9,0,15.8,0.3,26.7-0.3c0.8,0,0.8-1.2,0-1.2
			c-10.9-0.6-15.8-0.3-26.7-0.3c-10.9,0-19.8,0-30.7,0.3c-0.8,0-2.8,1.2-2,1.2H679.7z"/>
	</g>
	<g>
		<path style="fill:#DFE4F2;" d="M665.9,180.4c-2.1-2.3-3.2-5.2-3.1-8.3c-0.5,0.3-0.9,0.5-1.4,0.8c1.9,0.9,3.8,1.8,5.7,2.8
			c0.6,0.3,1.5-0.1,1.5-0.8c-0.1-2.3-0.1-4.5-0.2-6.8c-0.6,0.2-1.3,0.3-1.9,0.5c0.8,1.5,1.7,2.9,2.5,4.4c0.4,0.7,1.8,0.7,1.9-0.2
			c0.5-3.6,1-7.1,1.5-10.7c-0.7-0.1-1.4-0.2-2-0.3c0.6,4.6,1.2,9.2,1.8,13.8c0.1,1.1,1.3,1.4,2,0.5c1.9-2.5,3.8-5,5.7-7.6
			c-0.7-0.2-1.3-0.4-2-0.5c-0.2,2-0.5,4-0.7,6c-0.1,1.3,1.7,1.3,2,0.3c0.2-1.5,0.9-1.7,2.2-0.6c-0.1,0.2-0.3,0.5-0.4,0.7
			c-0.2,0.8-1.4,2-1.9,2.7c-1.1,1.5-2.2,2.9-2.9,4.6c-0.4,1,1,1.5,1.6,0.9c1.9-1.7,3.2-4.2,4.6-6.3c1-1.4,2.3-3.3,1.3-5.1
			c-0.7-1.2-2-1.6-3.3-1.2c-1.7,0.5-2.5,2.2-3.1,3.7c0.7,0.1,1.4,0.2,2,0.3c0.2-2,0.5-4,0.7-6c0.1-1.2-1.4-1.2-2-0.5
			c-1.9,2.5-3.8,5-5.7,7.6c0.7,0.2,1.3,0.4,2,0.5c-0.6-4.6-1.2-9.2-1.8-13.8c-0.1-1-1.9-1.6-2-0.3c-0.5,3.6-1,7.1-1.5,10.7
			c0.6-0.1,1.3-0.2,1.9-0.2c-0.9-1.5-1.7-2.9-2.6-4.4c-0.5-0.9-2-0.5-1.9,0.5c0.1,2.3,0.2,4.5,0.3,6.8c0.5-0.3,1-0.6,1.5-0.8
			c-1.9-0.9-3.9-1.8-5.8-2.6c-0.6-0.3-1.3,0-1.4,0.8c-0.1,3.7,1.2,6.8,4.1,9.1C665.6,181.7,666.4,181,665.9,180.4L665.9,180.4z"/>
	</g>
	<g>
		<path style="fill:#DFE4F2;" d="M631.7,103.1c-0.7,6.5-0.2,13.1-0.3,19.6c0,6.5-0.3,13.1,0.2,19.6c0.1,0.8,1.2,0.8,1.2,0
			c0.5-6.5,0.2-13.1,0.2-19.6c0-6.5,0.4-13.1-0.3-19.6C632.7,102.4,631.7,102.4,631.7,103.1L631.7,103.1z"/>
	</g>
	<g>
		<path style="fill:#DFE4F2;" d="M713.2,102c-1,6.4-0.5,13.3-0.5,19.8c0,6.8-0.6,14,0.2,20.8c0.1,0.8,1.1,0.8,1.2,0
			c0.9-6.8,0.2-13.9,0.2-20.8c0-6.5,0.5-13.4-0.5-19.8C713.9,101.6,713.3,101.6,713.2,102L713.2,102z"/>
	</g>
	<g>
		<path style="fill:#DFE4F2;" d="M670.1,51.6c-6.8,4.8-21.5,14.1-28.2,19c-5.6,4.1-11.9,8-16.6,13.2c-4,4.5-7.1,10.7-5.3,16.9
			c1.1,3.9,6.8,11.1,11.5,8c0.6-0.4,0.9-1.4,0.3-2c-1.6-1.4-3.9-1.8-5.6-3.3c-2-1.9-2.9-4.5-3-7.2c-0.1-6.4,4.2-11.5,8.8-15.5
			c9.8-8.5,28.6-20.2,38.7-28.4C671.1,52,670.5,51.2,670.1,51.6L670.1,51.6z"/>
	</g>
	<g>
		<path style="fill:#DFE4F2;" d="M676.1,52c4.6,3.4,16.7,12,21.3,15.5c4.8,3.7,9.4,7.5,13.7,11.7c3.8,3.6,8.6,7.5,10.9,12.3
			c1.2,2.4,1.5,5.2,0.3,7.7c-1.1,2.3-2.8,2.9-5,3.7c-1.1,0.4-1.6,2.2-0.4,2.8c4.9,2.3,9.3-3.3,9.9-7.7c0.8-6.1-4.2-11.1-8.2-15
			c-5.3-5.1-10.9-9.9-16.7-14.4c-5.7-4.4-18.7-14.5-25.1-17.7C676,50.6,675.5,51.6,676.1,52L676.1,52z"/>
	</g>
	<g>
		<path style="fill:#DFE4F2;" d="M641.5,101.6c11.2,0.1,22.5,0.3,33.7,0.4c11.2,0,22.5,0.3,33.7-0.3c0.8,0,0.8-1.2,0-1.2
			c-11.2-0.6-22.5-0.3-33.7-0.3c-11.2,0-22.5,0.3-33.7,0.4C640.8,100.6,640.8,101.6,641.5,101.6L641.5,101.6z"/>
	</g>
	<g>
		<path style="fill:#DFE4F2;" d="M639.3,107.7c-0.1,5.3-0.2,10.6-0.3,16c-0.1,4.9-0.7,10.2,0.2,15.1c0.1,0.7,1.2,0.7,1.3,0
			c0.8-4.9,0.2-10.2,0.2-15.1c-0.1-5.3-0.2-10.6-0.3-16C640.4,107,639.3,107,639.3,107.7L639.3,107.7z"/>
	</g>
	<g>
		<path style="fill:#DFE4F2;" d="M704.7,106.7c-0.2,5.3-0.4,10.6-0.5,15.9c-0.1,5.3-0.6,10.7,0.1,15.9c0.2,1.2,1.7,1.2,1.8,0
			c0.7-5.2,0.2-10.7,0.1-15.9c-0.1-5.3-0.3-10.6-0.5-15.9C705.8,106,704.8,106,704.7,106.7L704.7,106.7z"/>
	</g>
	<g>
		<path style="fill:#DFE4F2;" d="M737.8,156.3c9.4,0.3,18.7,0.2,28.1,0.3c4.5,0,9,0,13.5,0c4.5,0,9.3,0.4,13.7-0.4
			c0.6-0.1,0.6-1,0-1.2c-4.4-0.9-9.2-0.4-13.7-0.4c-4.5,0-9,0-13.5,0c-9.4,0-18.7,0-28.1,0.3C736.9,154.9,736.9,156.3,737.8,156.3
			L737.8,156.3z"/>
	</g>
	<g>
		<path style="fill:#DFE4F2;" d="M796.3,156.1c4.2,4.6,8.7,8.8,12.8,13.4c4.2,4.8,8.2,9.7,11.8,15c3.4,4.9,6.6,10,9.5,15.3
			c2.9,5.1,6.5,12.3,0.7,16.8c0.8-0.1,1.6-0.2,2.4-0.3c-0.7-0.4-1.1-0.6-1.8-0.8c-1-0.3-2.2,0.8-1.8,1.8c0.3,0.7,0.4,1.1,0.9,1.8
			c0.6,0.9,1.8,1.3,2.7,0.7c5.3-3.3,5.1-10.2,2.9-15.3c-2.8-6.5-7.3-12.5-11.4-18.2c-4.1-5.7-8.5-11.2-13.2-16.4
			c-4.6-5.1-9.5-10.3-15-14.5C796.5,154.9,795.9,155.7,796.3,156.1L796.3,156.1z"/>
	</g>
	<g>
		<path style="fill:#DFE4F2;" d="M549.3,99.3c-0.1,0-0.3,0-0.4,0.1c-0.3,0.1-0.3,0.5,0,0.6c0.1,0,0.3,0.1,0.4,0.1
			C549.7,100,549.7,99.3,549.3,99.3L549.3,99.3z"/>
	</g>
</g>
</svg>
