<svg xmlns="http://www.w3.org/2000/svg" xmlns:xlink="http://www.w3.org/1999/xlink" viewBox="0 0 1616.37 1002.91"><defs><linearGradient id="linear-gradient" x1="-124.87" y1="1022.78" x2="-124.66" y2="1022.28" gradientTransform="matrix(1615.72, 0, 0, -1002.91, 202507.46, 1026139.03)" gradientUnits="userSpaceOnUse"><stop offset="0" stop-color="#fff"/><stop offset="1" stop-color="#f0f4ff"/></linearGradient></defs><path id="Path_5753" data-name="Path 5753" d="M1615.72,840.17c0,37.8-202,289.83-553.73,80.61S297.36,1086.88,0,775.45V114.25s1365.76-281.18,1615.57,38.67C1615.57,363.79,1615.72,628.45,1615.72,840.17Z" fill="url(#linear-gradient)"/><path id="Path_5752" data-name="Path 5752" d="M1577,253.87c-70.59-127.36-273.85-149.66-454-49.81S854.1,488.1,924.69,615.45c48.18,86.92,159.83,44.52,251.37,127.2,58.44,52.79,53.33,87.48,130,138s218.09,9.27,293.82-126.4c68.64-123,68.28-244.08,42.39-338.27C1625.17,353.65,1605.94,306,1577,253.87Z" fill="#d9e2ff"/></svg>