<svg xmlns="http://www.w3.org/2000/svg" width="573" height="869" viewBox="0 0 573 869"><defs><style>.a,.b{fill:#f0f4ff;}.b{opacity:0.7;}.c{fill:#d9e2ff;}</style></defs><g transform="translate(173 -1227)"><path class="a" d="M331.763,0a19,19,0,0,1,16.467,9.522l103.314,179.5a19,19,0,0,1,0,18.956l-103.314,179.5A19,19,0,0,1,331.763,397H125.237a19,19,0,0,1-16.467-9.522L5.455,207.978a19,19,0,0,1,0-18.956L108.769,9.522A19,19,0,0,1,125.237,0Z" transform="translate(-173 1362)"/><path class="a" d="M146.572,0a15,15,0,0,1,13,7.523l43.125,75a15,15,0,0,1,0,14.954l-43.125,75a15,15,0,0,1-13,7.523H60.428a15,15,0,0,1-13-7.523L4.3,97.477a15,15,0,0,1,0-14.954l43.125-75A15,15,0,0,1,60.428,0Z" transform="translate(193 1264)"/><path class="b" d="M94.728,0a10,10,0,0,1,8.659,5l27.724,48a10,10,0,0,1,0,10l-27.724,48a10,10,0,0,1-8.659,5H39.272a10,10,0,0,1-8.659-5L2.889,63a10,10,0,0,1,0-10L30.613,5a10,10,0,0,1,8.659-5Z" transform="translate(77 1227)"/><path class="b" d="M258.43,0a20,20,0,0,1,17.337,10.03l78.5,136.5a20,20,0,0,1,0,19.941l-78.5,136.5A20,20,0,0,1,258.43,313H101.57a20,20,0,0,1-17.338-10.03l-78.5-136.5a20,20,0,0,1,0-19.941l78.5-136.5A20,20,0,0,1,101.57,0Z" transform="translate(-105 1783)"/><path class="c" d="M276.582,282.091h-3.29V278.8a3.29,3.29,0,1,0-6.58,0v3.29h-3.29a3.29,3.29,0,0,0,0,6.58h3.29v3.29a3.29,3.29,0,1,0,6.58,0v-3.29h3.29a3.29,3.29,0,0,0,0-6.58Z" transform="translate(7.151 1193.947)"/><path class="c" d="M276.582,282.091h-3.29V278.8a3.29,3.29,0,1,0-6.58,0v3.29h-3.29a3.29,3.29,0,0,0,0,6.58h3.29v3.29a3.29,3.29,0,1,0,6.58,0v-3.29h3.29a3.29,3.29,0,0,0,0-6.58Z" transform="translate(-205.849 1044.947)"/></g></svg>