<?xml version="1.0" encoding="utf-8"?>
<!-- Generator: Adobe Illustrator 24.0.2, SVG Export Plug-In . SVG Version: 6.00 Build 0)  -->
<svg version="1.1" id="Layer_1" xmlns="http://www.w3.org/2000/svg" xmlns:xlink="http://www.w3.org/1999/xlink" x="0px" y="0px"
	 viewBox="0 0 88.8 113.1" style="enable-background:new 0 0 88.8 113.1;" xml:space="preserve">
<style type="text/css">
	.st0{fill:#F2E879;}
	.st1{fill:#F5EE9F;}
	.st2{fill:#D9E2FF;}
	.st3{fill:#FFD82E;}
	.st4{fill:#F9B200;}
	.st5{fill:#805433;}
</style>
<g id="Grupo_1072" transform="translate(64.078 0)">
	<path id="Caminho_1831" class="st0" d="M10.4,4.4H7.5V1.5C7.5,0.7,6.8,0,6,0S4.4,0.7,4.4,1.5l0,0v2.8H1.6C0.7,4.4,0,5.1,0,5.9
		s0.7,1.5,1.5,1.5h2.8v2.8c0,0.9,0.7,1.5,1.5,1.5s1.5-0.7,1.5-1.5V7.5h2.8c0.9,0,1.5-0.7,1.5-1.5S11.2,4.4,10.4,4.4L10.4,4.4z"/>
</g>
<g id="Grupo_1074" transform="translate(72.232 36.472)">
	<circle id="Elipse_102" class="st0" cx="2" cy="1.9" r="1.9"/>
</g>
<g id="Grupo_1080" transform="translate(0 62.873)">
	<path id="Caminho_1831-2" class="st0" d="M16,6.8h-4.4V2.4c0-1.3-1.1-2.4-2.4-2.4C7.9,0,6.8,1.1,6.8,2.4l0,0v4.4H2.4
		C1.1,6.7,0,7.8,0,9.1s1,2.4,2.3,2.4h0.1h4.4v4.4c0,1.3,1.1,2.4,2.4,2.4s2.4-1.1,2.4-2.4v-4.4H16c1.3,0,2.4-1,2.4-2.3
		S17.4,6.8,16,6.8L16,6.8z"/>
</g>
<path id="Caminho_1831-3" class="st0" d="M32.9,32.4H30v-2.8c0-0.9-0.7-1.5-1.5-1.5S27,28.8,27,29.6l0,0v2.8h-2.8
	c-0.9,0-1.5,0.7-1.5,1.5s0.7,1.5,1.5,1.5H27v2.8c0,0.9,0.7,1.6,1.5,1.6s1.5-0.7,1.5-1.6v-2.8h2.8c0.9,0,1.5-0.7,1.5-1.5
	S33.7,32.4,32.9,32.4L32.9,32.4z"/>
<circle id="Elipse_102-2" class="st1" cx="29.2" cy="52.1" r="1.9"/>
<path id="Caminho_1822" class="st2" d="M88.8,104.8c0,4.5-14,8.3-33.7,8.3s-35.6-3.8-35.6-8.3s16-8.3,35.6-8.3
	S88.8,100.3,88.8,104.8z"/>
<g id="Grupo_1067" transform="translate(5.585 0)">
	<path id="Caminho_1823" class="st3" d="M62.1,57.3c-2.9-2.9-6.1-6.2-9.9-9.9c-2.7-1.7-7.4,0-7.4,0c-1.6,2.5-12.2,14.3-23.6,36.8
		s39.6,24.4,51.5,10.2C80.5,85.1,69.1,67.3,62.1,57.3z"/>
	<path id="Caminho_1824" class="st3" d="M44.3,40.8v0.8c0,0,13.1,5,13.5-2.3c0.5-7.3,8.9-13.6,11.1-15.2c2.1-1.6-4-3-9.3-3.8
		S43,20.8,45.9,21.6c4.1,1.7,2.4,3.4-1.6,2.5s-9.5,0.7-9.3,6.2C40.6,33.3,44.3,40.8,44.3,40.8z"/>
</g>
<path id="Caminho_1825" class="st4" d="M88.2,88.8c-0.9-6.2-2.3-12.6-20.5-31.4c7,9.9,16,26.2,8.2,35.5
	c-11.8,14.2-58.8,12.7-47.6-9.8c4.9-10,10.6-19.6,17-28.8C42.1,63.2,35.6,80,31.7,88c4.5-3.7,11.4-20.1,15.8-31.3l-2.3,17.6
	l5.2-22.1c2.6,0.7,5.3,1.1,8,1.1C60.9,61,67,77,71.8,80.1c-2.9-4.4-9.5-21.3-8.1-28.5c0.1-0.3,0.1-0.7,0.1-1.1v-0.1
	c2.1-6,2.7-10.6,0-11.4c-1.7-0.3-3.4-0.4-5-0.3c-2.7-11.4,2.8-17.1,5.4-18c-7.6-0.3-12.5,0.3-11,1.5l1.5,1.2l2.4,15.5
	c-0.9,0-1.7,0.1-2.7,0.1c-0.4-4.5-1.1-9-2-13.4c0.4,4.7-0.1,9.4-1.6,13.8c-0.4,0-0.7,0.1-0.9,0.1c0.3-5.4-2-14.3-2-14.3
	s-4.5-0.5-4.2,2.3c0,0,5.6,5.8,6.1,11.9c-0.2,0-0.5,0-0.7,0.1c0,0-5.2,7.8-2.5,11.3c-0.3,0.5-0.5,1.3-0.8,2
	c-3.6,4.5-9.1,11.5-15.4,19.5c-10.6,13.8-9.5,25.4-5.3,30.1c4.6,5,8.5,7.7,31.7,7.7C80.8,110.1,89.8,100.1,88.2,88.8L88.2,88.8z"/>
<path id="Caminho_1826" class="st3" d="M64.2,41.8c0,0-4.6,6.1-15.1,0c-1.3,1.8-2.1,4-2.3,6.2c-0.3,2.8,11.3,5.8,15.8,2.1
	c1.1-1.1,1.6-2.6,1.5-4.1c0,0-5.2,3.8-13.9,0.8C55.2,46.9,61.9,47.7,64.2,41.8z"/>
<path id="Subtração_5" class="st5" d="M52.7,96.7c-0.2,0-0.5,0-0.7,0s-0.4,0-0.6,0l0.1-1.2c0.1-0.5,0.2-1.1,0.1-1.6
	c-0.1-0.2-0.1-0.2-0.2-0.2c-0.1,0-0.2,0-0.3-0.1l-1.6-0.4c-1-0.4-2-0.9-2.9-1.6c-0.3-0.2-0.4-0.4-0.4-0.5s0.1-0.2,0.3-0.4l0.1-0.1
	c0.2-0.2,0.4-0.5,0.6-0.8c0.1-0.1,0.1-0.2,0.2-0.4c0.2-0.4,0.6-0.6,1.1-0.6c0.7,0.1,1.4,0.4,2,0.8c0.5,0.3,1,0.6,1.6,0.7l0.4-3.4
	c0-0.2,0-0.4,0.1-0.5l0,0c0.1-0.4,0.2-0.9,0-1.2c-0.1-0.2-0.3-0.3-0.5-0.3c-0.1,0-0.2,0-0.3-0.1c-0.7-0.2-1.5-0.5-2.1-0.9
	c-1.2-0.8-2.1-2-2.4-3.4c-0.3-1.4-0.1-2.8,0.6-4.1c0.7-1.2,1.7-2.1,2.9-2.7c0.6-0.2,1.2-0.4,1.9-0.5l0,0c0.3,0,0.6,0,0.9-0.1
	c0.1,0,0.2,0,0.3,0l0,0l0,0l0,0l0,0l0,0c0,0,0-0.1,0-0.2c0.1-0.3,0.2-0.7,0.1-1c0-0.5,0-1,0.5-1.3c0.3-0.2,0.7-0.2,1-0.2
	s0.5,0,0.8,0.1c0.2,0,0.4,0,0.5,0c-0.2,0.8-0.2,1.7-0.3,2.5v0.3l0,0l0,0c0.5,0.1,1,0.2,1.4,0.4c0.9,0.4,1.8,0.8,2.5,1.5
	c0.4,0.4,0.4,0.4,0.3,0.7l0,0c0,0.1-0.1,0.2-0.1,0.3c-0.1,0.1-0.2,0.3-0.3,0.5S60.1,77,60,77.2c-0.3,0.4-0.7,0.6-1.2,0.6
	c-0.6-0.1-1.2-0.2-1.7-0.5c-0.3-0.1-0.5-0.2-0.8-0.3l-0.4,3.6c0,0.2,0,0.3-0.1,0.5l0,0c-0.1,0.3-0.1,0.7-0.1,1
	c0.1,0.2,0.6,0.3,1,0.4c0.2,0,0.4,0.1,0.5,0.1l0,0c0.7,0.3,1.3,0.6,2,0.9c1.1,0.8,1.8,2.1,2,3.5c0.1,1.4-0.2,2.8-1,3.9
	s-1.8,1.9-3,2.5c-0.6,0.2-1.3,0.4-2,0.5l0,0c-0.3,0-0.5,0-0.8,0.1v0.4c0,0.2,0,0.4,0,0.7l0,0c0.1,0.6-0.1,1.2-0.6,1.6
	C53.4,96.7,53.1,96.7,52.7,96.7z M55.4,85.6l-0.5,4.5c1-0.1,1.9-0.8,2.3-1.7c0.3-1.2-0.4-2.4-1.6-2.8H55.4z M53.5,76.5
	c-0.5,0.1-2.1,0.4-2.3,1.7c0,1.1,0.8,2.1,1.9,2.4L53.5,76.5L53.5,76.5z"/>
</svg>
