<svg xmlns="http://www.w3.org/2000/svg" width="341.826" height="861.195" viewBox="0 0 341.826 861.195"><defs><style>.a{fill:#1c2444;}</style></defs><g transform="translate(-1113.261 -536.446)"><path class="a" d="M1333.5,1271.5q3.141-3.3,6.2-6.663.9-.99,1.8-1.988,2.3-2.544,4.546-5.122,1.683-1.928,3.345-3.874,1.375-1.608,2.732-3.231,2.464-2.945,4.883-5.93c.345-.425.687-.852,1.03-1.279a443.01,443.01,0,0,0,40.764-60.38q.445-.8.889-1.6,1.891-3.4,3.722-6.844,1.047-1.968,2.077-3.948,1.179-2.266,2.332-4.549,1.578-3.127,3.113-6.279.573-1.182,1.14-2.369,1.954-4.092,3.835-8.227.159-.351.316-.7,2.108-4.678,4.114-9.412c.17-.4.334-.806.5-1.208.533-1.272,1.066-2.544,1.587-3.819q.93-2.279,1.834-4.569c.055-.137.111-.274.165-.412a440.357,440.357,0,0,0,30.51-150.632v-.021q.062-2.471.094-4.949c0-.261.011-.521.014-.782q.034-2.687.034-5.383c0-.1,0-.194,0-.292s0-.216,0-.323q0-2.68-.034-5.352c0-.27-.011-.54-.015-.809q-.035-2.465-.093-4.921l0-.048a440.34,440.34,0,0,0-30.509-150.607c-.054-.138-.11-.275-.165-.412q-.9-2.291-1.834-4.569c-.521-1.275-1.054-2.547-1.587-3.819-.169-.4-.333-.807-.5-1.208q-2.006-4.742-4.119-9.422-.151-.339-.305-.678-1.879-4.153-3.848-8.257-.558-1.166-1.121-2.327-1.54-3.179-3.135-6.324-1.14-2.256-2.3-4.5-1.043-2.007-2.1-4-1.818-3.411-3.691-6.786-.461-.83-.923-1.657a442.929,442.929,0,0,0-40.715-60.311c-.365-.454-.73-.91-1.1-1.363q-2.382-2.945-4.814-5.846-1.4-1.667-2.809-3.322-1.62-1.9-3.26-3.775-2.3-2.629-4.64-5.229-.848-.941-1.7-1.877-3.123-3.42-6.319-6.786c-.137-.144-.272-.29-.409-.434q-3.653-3.828-7.4-7.581t-7.582-7.4c-.143-.137-.288-.27-.431-.406q-3.365-3.2-6.791-6.324-.931-.849-1.87-1.69-2.6-2.349-5.238-4.649-1.872-1.635-3.764-3.25-1.661-1.421-3.335-2.82-2.9-2.424-5.831-4.8-.69-.558-1.381-1.112a442.808,442.808,0,0,0-60.282-40.7q-.852-.477-1.707-.952-3.35-1.86-6.734-3.662-2.022-1.075-4.054-2.133-2.214-1.151-4.441-2.276-3.179-1.6-6.382-3.164-1.131-.549-2.266-1.091-4.138-1.976-8.32-3.877c-.2-.093-.407-.184-.611-.276q-4.709-2.121-9.474-4.142-2.508-1.061-5.024-2.088c-1.276-.521-2.556-1.031-3.838-1.54-.381-.152-.762-.308-1.144-.459a438.5,438.5,0,0,0-61.867-19.245v1.077c195.071,45.482,340.826,220.8,340.826,429.521s-145.755,384.039-340.826,429.52v1.077a438.519,438.519,0,0,0,61.88-19.25c.228-.09.455-.183.683-.274q2.149-.852,4.29-1.722,2.514-1.028,5.02-2.086,4.755-2.011,9.451-4.132l.663-.3q4.153-1.88,8.256-3.847,1.177-.564,2.353-1.134,3.154-1.528,6.279-3.112,2.3-1.16,4.573-2.344,1.965-1.02,3.916-2.061,3.462-1.844,6.887-3.745.774-.43,1.547-.863a442.858,442.858,0,0,0,60.45-40.815q.591-.476,1.182-.951,3.034-2.453,6.023-4.96,1.577-1.323,3.144-2.659,1.984-1.693,3.95-3.41,2.541-2.225,5.055-4.486,1.026-.925,2.047-1.853,3.335-3.045,6.616-6.16c.2-.191.4-.379.6-.57q3.783-3.612,7.493-7.318l.011-.01q3.717-3.717,7.334-7.51C1333.146,1271.882,1333.324,1271.691,1333.5,1271.5Z"/><path class="a" d="M1113.261,686.386c115.186,41.237,197.826,151.471,197.826,280.658s-82.64,239.421-197.826,280.658v1.125a298.993,298.993,0,0,0,106.068-65.3q2.416-2.305,4.789-4.674.376-.375.752-.751,2.379-2.388,4.7-4.817a297.933,297.933,0,0,0,81.593-182.663c.017-.219.04-.436.056-.655.159-2.1.285-4.2.4-6.313.025-.45.06-.9.083-1.348.1-1.979.165-3.967.226-5.956.017-.562.048-1.121.061-1.684q.094-3.742.095-7.509c0-.038,0-.075,0-.113s0-.092,0-.139q0-3.752-.095-7.483c-.014-.57-.045-1.138-.062-1.708-.061-1.981-.126-3.96-.225-5.931-.023-.458-.059-.913-.084-1.371-.115-2.1-.24-4.2-.4-6.289-.017-.227-.04-.452-.058-.679a297.831,297.831,0,0,0-76.734-177.423c-.167-.183-.339-.363-.507-.545q-2.144-2.348-4.331-4.653-2.5-2.626-5.078-5.2t-5.2-5.079q-2.29-2.182-4.631-4.312c-.19-.174-.377-.353-.567-.526a298.86,298.86,0,0,0-100.848-60.442Z"/><path class="a" d="M1113.261,636.893c141.531,43.027,244.826,174.744,244.826,330.151s-103.3,287.124-244.826,330.151v1.1a345.514,345.514,0,0,0,132.464-75.133l.132-.123q2.973-2.7,5.883-5.477,3.031-2.891,6.006-5.861t5.859-6q2.781-2.917,5.494-5.9l.107-.116a344.647,344.647,0,0,0,88.816-205.387c.019-.241.044-.48.062-.72.184-2.434.33-4.879.464-7.327.028-.514.068-1.027.094-1.541.115-2.29.191-4.59.262-6.891.02-.652.055-1.3.071-1.952q.109-4.341.11-8.706c0-.038,0-.076,0-.114s0-.093,0-.139q0-4.353-.11-8.68c-.016-.661-.052-1.319-.072-1.979-.07-2.292-.146-4.582-.261-6.863-.026-.524-.067-1.046-.1-1.57-.133-2.438-.278-4.873-.462-7.3-.019-.251-.045-.5-.064-.75a344.643,344.643,0,0,0-88.814-205.361c-.035-.039-.072-.077-.107-.116q-2.713-2.982-5.494-5.9-2.889-3.031-5.859-6t-6-5.86q-2.908-2.772-5.88-5.474l-.137-.127a345.514,345.514,0,0,0-132.464-75.133Z"/></g></svg>