<svg xmlns="http://www.w3.org/2000/svg" width="776.139" height="780.255" viewBox="0 0 776.139 780.255"><g transform="translate(-74.138 379.002)"><rect fill="#f0f4ff" width="478.923" height="25.205" rx="12.603" transform="translate(371 -2)"/><rect fill="#f0f4ff" width="478.923" height="25.205" rx="12.603" transform="translate(336.092 52.213)"/><rect fill="#f0f4ff" width="142.83" height="25.205" rx="12.603" transform="translate(707 106.824)"/><rect fill="#f0f4ff" width="478.923" height="25.205" rx="12.603" transform="translate(215.069 106.824)"/><rect fill="#f0f4ff" width="142.83" height="25.205" rx="12.603" transform="translate(672.375 160.436)"/><rect fill="#f0f4ff" width="507.076" height="25.205" rx="12.603" transform="translate(135.893 160.436)"/><rect fill="#f0f4ff" width="142.83" height="25.205" rx="12.603" transform="translate(707 214.048)"/><rect fill="#f0f4ff" width="142.83" height="25.205" rx="12.603" transform="translate(405.398 376.047)"/><rect fill="#f0f4ff" width="142.83" height="25.205" rx="12.603" transform="translate(664.398 322.047)"/><path fill="#f0f4ff" d="M92.583,0H717.409a12.6,12.6,0,0,1,0,25.205H92.583A12.6,12.6,0,0,1,92.583,0Z" transform="translate(-5.001 214.048)"/><rect fill="#f0f4ff" width="310.876" height="25.205" rx="12.603" transform="translate(504.138 268.659)"/><rect fill="#f0f4ff" width="234.876" height="25.205" rx="12.603" transform="translate(400.138 321.659)"/><rect fill="#f0f4ff" width="158.876" height="25.205" rx="12.603" transform="translate(313.138 268.659)"/><rect fill="#f0f4ff" width="158.876" height="25.205" rx="12.603" transform="translate(74.138 -218.341)"/><path fill="#f0f4ff" d="M12.6,0H34.228a12.6,12.6,0,0,1,12.6,12.6v.969A11.633,11.633,0,0,1,35.2,25.205H12.6A12.6,12.6,0,0,1,0,12.6v0A12.6,12.6,0,0,1,12.6,0Z" transform="translate(135.895 106.49)"/><path fill="#f0f4ff" d="M12.6,0H34.228a12.6,12.6,0,0,1,12.6,12.6v.969A11.633,11.633,0,0,1,35.2,25.205H12.6A12.6,12.6,0,0,1,0,12.6v0A12.6,12.6,0,0,1,12.6,0Z" transform="translate(341.895 321.49)"/><path fill="#f0f4ff" d="M12.6,0H34.228a12.6,12.6,0,0,1,12.6,12.6v.969A11.633,11.633,0,0,1,35.2,25.205H12.6A12.6,12.6,0,0,1,0,12.6v0A12.6,12.6,0,0,1,12.6,0Z" transform="translate(76.895 268.49)"/><path fill="#f0f4ff" d="M182.248,0H466.32a12.6,12.6,0,1,1,0,25.205H182.248a12.6,12.6,0,1,1,0-25.205Z" transform="translate(371.355 -324.826)"/><rect fill="#f0f4ff" width="142.83" height="25.205" rx="12.603" transform="translate(234.481 -270.51)"/><path fill="#f0f4ff" d="M126.942,0H466.32a12.6,12.6,0,1,1,0,25.205H126.942a12.6,12.6,0,1,1,0-25.205Z" transform="translate(292.152 -270.51)"/><rect fill="#f0f4ff" width="98.83" height="25.205" rx="12.603" transform="translate(703 -218.002)"/><rect fill="#f0f4ff" width="142.83" height="25.205" rx="12.603" transform="translate(707 -379.002)"/><rect fill="#f0f4ff" width="478.923" height="25.205" rx="12.603" transform="translate(208.13 -218.002)"/><rect fill="#f0f4ff" width="142.83" height="25.205" rx="12.603" transform="translate(632.435 -163.51)"/><rect fill="#f0f4ff" width="478.923" height="25.205" rx="12.603" transform="translate(124.106 -163.51)"/><rect fill="#f0f4ff" width="142.83" height="25.205" rx="12.603" transform="translate(707 -109.509)"/><rect fill="#f0f4ff" width="142.83" height="25.205" rx="12.603" transform="translate(544.458 -109.509)"/><rect fill="#f0f4ff" width="310.876" height="25.205" rx="12.603" transform="translate(460.198 -55.167)"/></g></svg>