<svg xmlns="http://www.w3.org/2000/svg" width="686.663" height="179" viewBox="0 0 686.663 179"><defs><style>.a{fill:#faf1d4;}</style></defs><g transform="translate(-67 -5015)"><path class="a" d="M562.28,110.918l2.822-5.16a.3.3,0,0,1,.41-.11.291.291,0,0,1,.11.11l2.822,5.16,5.16,2.822a.3.3,0,0,1,0,.521l-5.16,2.822-2.822,5.16a.3.3,0,0,1-.52,0l-2.822-5.16-5.16-2.822a.3.3,0,0,1,0-.521Z" transform="translate(15.772 5046.231)"/><path class="a" d="M614.411,99.316l1.96-3.584a.206.206,0,0,1,.28-.081.2.2,0,0,1,.081.081l1.96,3.584,3.584,1.96a.205.205,0,0,1,0,.361l-3.584,1.96-1.96,3.583a.206.206,0,0,1-.361,0l-1.96-3.583-3.584-1.96a.207.207,0,0,1-.081-.28.211.211,0,0,1,.081-.081Z" transform="translate(15.772 5046.231)"/><path class="a" d="M729.919,57.238l1.96-3.584a.206.206,0,0,1,.361,0l1.96,3.584,3.584,1.96a.205.205,0,0,1,0,.361l-3.584,1.96L732.24,65.1a.206.206,0,0,1-.361,0l-1.96-3.583-3.584-1.96a.207.207,0,0,1-.081-.28.21.21,0,0,1,.081-.081Z" transform="translate(15.772 5046.231)"/><path class="a" d="M54.919,109.238l1.96-3.584a.206.206,0,0,1,.361,0l1.96,3.584,3.584,1.96a.205.205,0,0,1,0,.361l-3.584,1.96L57.24,117.1a.206.206,0,0,1-.361,0l-1.96-3.583-3.584-1.96a.207.207,0,0,1-.081-.28.21.21,0,0,1,.081-.081Z" transform="translate(15.772 5046.231)"/><path class="a" d="M594.48,141.955l1.429-2.614a.152.152,0,0,1,.206-.059.15.15,0,0,1,.058.059l1.429,2.614,2.614,1.429a.15.15,0,0,1,.059.205.152.152,0,0,1-.059.059l-2.614,1.429-1.429,2.614a.151.151,0,0,1-.264,0l-1.429-2.614-2.614-1.429a.152.152,0,0,1,0-.264Z" transform="translate(15.772 5046.231)"/><path class="a" d="M547.193,59.721l1.429-2.613a.152.152,0,0,1,.206-.059.15.15,0,0,1,.058.059l1.429,2.613,2.614,1.43a.15.15,0,0,1,.06.2.155.155,0,0,1-.06.059l-2.615,1.428-1.429,2.613a.15.15,0,0,1-.264,0l-1.428-2.613-2.614-1.43a.15.15,0,0,1,0-.263Z" transform="translate(15.772 5046.231)"/><path class="a" d="M360.569,50.723l2.6-4.763a.274.274,0,0,1,.481,0l2.605,4.763,4.763,2.6a.274.274,0,0,1,0,.481l-4.763,2.6-2.605,4.763a.273.273,0,0,1-.371.109.269.269,0,0,1-.11-.109l-2.6-4.763-4.763-2.6a.274.274,0,0,1,0-.481Z" transform="translate(15.772 5046.231)"/><path class="a" d="M265.266-26.325l2.605-4.763a.273.273,0,0,1,.37-.11.265.265,0,0,1,.11.11l2.6,4.763,4.767,2.606a.272.272,0,0,1,.11.37.271.271,0,0,1-.11.11l-4.763,2.6-2.608,4.765a.273.273,0,0,1-.37.11.284.284,0,0,1-.11-.11l-2.605-4.763-4.763-2.6a.273.273,0,0,1-.109-.37.269.269,0,0,1,.109-.11Z" transform="translate(15.772 5046.231)"/><path class="a" d="M242.98,16.633l1.318-2.409a.138.138,0,0,1,.243,0l1.318,2.409,2.408,1.317a.138.138,0,0,1,.054.189.134.134,0,0,1-.054.054l-2.408,1.317-1.318,2.409a.138.138,0,0,1-.187.056.144.144,0,0,1-.056-.056l-1.318-2.4L240.572,18.2a.139.139,0,0,1,0-.243Z" transform="translate(15.772 5046.231)"/><path class="a" d="M379.808,32.774l1.317-2.409a.14.14,0,0,1,.189-.054.134.134,0,0,1,.054.054l1.317,2.409,2.409,1.318a.137.137,0,0,1,.056.187.131.131,0,0,1-.056.056l-2.409,1.318-1.317,2.409a.139.139,0,0,1-.189.054.155.155,0,0,1-.054-.054l-1.317-2.409L377.4,34.335a.138.138,0,0,1-.056-.187.144.144,0,0,1,.056-.056Z" transform="translate(15.772 5046.231)"/></g></svg>