<svg xmlns="http://www.w3.org/2000/svg" width="528.67" height="216.562" viewBox="0 0 528.67 216.562"><defs><style>.a{fill:#faf1d4;}</style></defs><g transform="translate(-1325.268 -5038.402)"><path class="a" d="M1469.842,158.832l3.067-5.608a.324.324,0,0,1,.439-.127.311.311,0,0,1,.127.127l3.067,5.608,5.608,3.067a.323.323,0,0,1,.128.439.332.332,0,0,1-.128.127l-5.608,3.067-3.067,5.608a.322.322,0,0,1-.438.127.319.319,0,0,1-.128-.127l-3.067-5.608-5.607-3.067a.322.322,0,0,1-.129-.437.334.334,0,0,1,.129-.129Z" transform="translate(15.772 5046.231)"/><path class="a" d="M1313.97,31.243l2.376-4.343a.249.249,0,0,1,.438,0l2.375,4.343,4.344,2.376a.25.25,0,0,1,0,.438l-4.344,2.376-2.375,4.343a.249.249,0,0,1-.339.1.253.253,0,0,1-.1-.1l-2.376-4.343-4.343-2.376a.249.249,0,0,1-.1-.338.254.254,0,0,1,.1-.1Z" transform="translate(15.772 5046.231)"/><path class="a" d="M1427.219,201.687l1.732-3.168a.183.183,0,0,1,.249-.071.173.173,0,0,1,.071.071l1.732,3.168,3.168,1.732a.182.182,0,0,1,.071.249.179.179,0,0,1-.071.071L1431,205.471l-1.732,3.168a.183.183,0,0,1-.249.071.194.194,0,0,1-.071-.071l-1.732-3.168-3.168-1.732a.184.184,0,0,1-.071-.249.179.179,0,0,1,.071-.071Z" transform="translate(15.772 5046.231)"/><path class="a" d="M1350.191-4.568l1.732-3.167a.184.184,0,0,1,.249-.071.173.173,0,0,1,.071.071l1.732,3.167,3.168,1.733a.181.181,0,0,1,.072.247.178.178,0,0,1-.072.072l-3.168,1.733-1.732,3.167a.183.183,0,0,1-.249.071.193.193,0,0,1-.071-.071l-1.732-3.167-3.168-1.733a.181.181,0,0,1-.071-.247.176.176,0,0,1,.071-.072Z" transform="translate(15.772 5046.231)"/><path class="a" d="M1337.972,54.652l1.733-3.168a.181.181,0,0,1,.319,0l1.732,3.168,3.168,1.732a.182.182,0,0,1,.071.249.179.179,0,0,1-.071.071l-3.168,1.732-1.732,3.168a.182.182,0,0,1-.247.072.192.192,0,0,1-.072-.072l-1.733-3.168-3.167-1.732a.182.182,0,0,1,0-.32Z" transform="translate(15.772 5046.231)"/><path class="a" d="M1438.218,151.462l1.733-3.168a.183.183,0,0,1,.249-.071.173.173,0,0,1,.071.071l1.732,3.168,3.168,1.733a.182.182,0,0,1,.074.247.185.185,0,0,1-.074.073L1442,155.247l-1.732,3.168a.183.183,0,0,1-.249.071.193.193,0,0,1-.071-.071l-1.733-3.168-3.168-1.732a.184.184,0,0,1-.071-.249.179.179,0,0,1,.071-.071Z" transform="translate(15.772 5046.231)"/><path class="a" d="M1813.569,93.723l2.6-4.763a.274.274,0,0,1,.481,0l2.6,4.763,4.763,2.605a.274.274,0,0,1,0,.481l-4.763,2.6-2.6,4.763a.275.275,0,0,1-.481,0l-2.6-4.763-4.763-2.6a.275.275,0,0,1-.109-.372.272.272,0,0,1,.109-.109Z" transform="translate(15.772 5046.231)"/><path class="a" d="M1587.266,36.675l2.6-4.763a.273.273,0,0,1,.37-.11.265.265,0,0,1,.11.11l2.605,4.763,4.767,2.606a.273.273,0,0,1,0,.48l-4.763,2.6-2.608,4.765a.273.273,0,0,1-.37.11.284.284,0,0,1-.11-.11l-2.6-4.763-4.763-2.6a.273.273,0,0,1-.109-.37.269.269,0,0,1,.109-.11Z" transform="translate(15.772 5046.231)"/><path class="a" d="M1695.98,59.633l1.318-2.409a.138.138,0,0,1,.187-.056.131.131,0,0,1,.056.056l1.318,2.409,2.408,1.317a.138.138,0,0,1,.054.189.134.134,0,0,1-.054.054l-2.408,1.317-1.318,2.409a.138.138,0,0,1-.187.056.144.144,0,0,1-.056-.056l-1.318-2.4-2.408-1.317a.139.139,0,0,1-.054-.189.141.141,0,0,1,.054-.054Z" transform="translate(15.772 5046.231)"/><path class="a" d="M1832.808,75.774l1.317-2.409a.139.139,0,0,1,.189-.054.134.134,0,0,1,.054.054l1.317,2.409,2.409,1.318a.137.137,0,0,1,.056.187.132.132,0,0,1-.056.056l-2.409,1.318-1.317,2.409a.139.139,0,0,1-.189.054.155.155,0,0,1-.054-.054l-1.317-2.409-2.409-1.318a.138.138,0,0,1-.056-.187.143.143,0,0,1,.056-.056Z" transform="translate(15.772 5046.231)"/></g></svg>