<svg xmlns="http://www.w3.org/2000/svg" width="558.006" height="1782.095" viewBox="0 0 558.006 1782.095"><defs><style>.a{fill:#f0f4ff;}</style></defs><path class="a" d="M-381.777-287.8a478.631,478.631,0,0,0-82.39-7.118q-13.316,0-26.454.731C-740.99-280.454-939.783-73.095-939.783,180.7c0,211.039,137.453,389.971,327.715,452.165q4.283,1.4,8.6,2.718A282.4,282.4,0,0,1-493.8,702.922c110.818,109.768,111.669,288.59,1.9,399.408a221.473,221.473,0,0,0-64.246,100.752,224.06,224.06,0,0,0-8.758,44.2,222.725,222.725,0,0,0,114.988,216.14,223.9,223.9,0,0,0,68.142,23.76Z" transform="translate(939.783 294.913)"/></svg>