<?xml version="1.0" encoding="utf-8"?>
<!-- Generator: Adobe Illustrator 22.1.0, SVG Export Plug-In . SVG Version: 6.00 Build 0)  -->
<svg version="1.1" xmlns="http://www.w3.org/2000/svg" xmlns:xlink="http://www.w3.org/1999/xlink" x="0px" y="0px"
	 viewBox="0 0 922 786.1" style="enable-background:new 0 0 922 786.1;" xml:space="preserve">
<g id="sombra">
	<g>
		<image style="overflow:visible;" width="936" height="304" xlink:href="A7565FD4.png"  transform="matrix(1 0 0 1 -13 515.1184)">
		</image>
		<g>
			<polygon points="51.4,577.9 846.4,723.4 832.9,742.9 49,600.5 			"/>
		</g>
	</g>
</g>
<g id="paint_3_">
	<path style="fill:#557CF2;" d="M854.7,104.8l0.1,0.2c0,0.3,0,0.5,0,0.8h-0.3c-4.5,2.8-9.1,5.5-13.7,8.3l-2.8,0.3
		C669.4,90.8,214.8,29.4,49.8,6.4l-0.1-0.5c5.7-1.6,11.3-3.2,17-4.8l0.6,0.2C231.9,23.4,684.8,82.1,854.7,104.8z"/>
	<path style="fill:#557CF2;" d="M854.5,105.7h0.3c-0.1,26.8-0.2,57-0.3,89.4h-0.8c-5.9,3-11.7,6-17.6,9l-0.4-0.8
		c-7.9-29-6.2-60.5,4.9-88.5l-0.6-0.3c-0.6-0.1-1.3-0.2-2-0.3l2.8-0.3C845.4,111.2,850,108.5,854.5,105.7z"/>
	<path style="fill:#7997F2;" d="M853.7,195.1h0.8c-0.3,168,0.1,396.4-0.6,535.3l0.4,1.7c-5.3,3-11.9,6.4-17.2,9.4l-1.7-1.2
		c0.8-165.9-0.5-370,0.3-535.9l-0.1-0.1c0.1-0.1,0.3-0.2,0.5-0.2C841.9,201.1,847.8,198.1,853.7,195.1z"/>
	<path style="fill:#A2B8FA;" d="M45.4,83.3c-6.5-24.7-6.5-53.4,2.9-77l0.4-0.1C49,6.1,49.3,6,49.6,5.9l0.1,0.5
		c165.1,23,619.7,84.4,788.3,107.8c0.7,0.1,1.3,0.2,2,0.3l0.6,0.3c-11.1,27.9-12.8,59.5-4.9,88.5l0.4,0.8c-0.1,0.1-0.3,0.2-0.5,0.2
		l-0.2-0.3c-165.8-25.3-624.1-93.6-789.8-119h-0.4c0-0.6,0-1.1,0-1.7L45.4,83.3z M560.4,95.5c-2.9-5.3-7.3-9.7-12.7-12.4
		c-8.1-4-18.1-3.6-25.9,0.9c-7.8,4.5-13.3,13-14.1,22.1c-0.8,9.1,2.9,18.5,9.8,24.4c2.2,1.9,4.7,3.5,7.4,4.6
		c2.1,0.9,4.3,1.5,6.5,1.9c10.2,1.7,21.2-3,27.2-11.6c6-8.6,6.7-20.7,1.8-30L560.4,95.5z M721.7,113.4l-0.3,0l-0.3-0.4
		c-42.3-6.1-84.6-12.1-127-18.2c-5.7,6.3-9.3,14.6-10,23.1c-0.7,9.4,2.1,19.1,7.9,26.6c42.6,6.1,85.3,12.4,127.9,18.5l0.1-0.1l0.1,0
		C720,149.3,720.8,129,721.7,113.4z M750.4,162.3c0.7,0.8,1.5,1.6,2.3,2.3c2.2,1.9,4.7,3.5,7.4,4.6c2.1,0.9,4.3,1.5,6.5,1.9
		c7.5,1.2,15.4-1,21.5-5.6c2.2-1.7,4.2-3.7,5.8-6c6-8.6,6.7-20.7,1.8-30l0.1-0.1c-2.9-5.3-7.4-9.7-12.7-12.4
		c-8.1-4-18.1-3.6-25.9,0.9c-7.8,4.5-13.3,13-14.1,22.1C742.2,148.1,745,156.4,750.4,162.3z M475.4,95c1.2-4.6-0.1-9.7-3.4-13.1
		c-3.3-3.4-8.4-4.9-13-3.8c-4,0.9-7.4,3.7-9.2,7.3l-0.4-0.2c-0.3-5.2-4.6-9.8-9.7-10.7c-5.1-0.9-10.6,1.6-13.6,5.8s-3.6,10-2,14.9
		c1.4,4.2,4.2,7.8,7,11.2c4.4,5.5,8.8,11,13.2,16.4l0.4-0.1c5.7-4.1,12.6-9.8,18.4-13.9C468.3,105.2,473.7,101.1,475.4,95z"/>
	<path style="fill:#F0F4FF;" d="M837.1,741.5c-0.4,0.2-0.8,0.4-1.1,0.6l-0.8-0.1c-165-28.3-620.7-110.5-786.7-138.9l0.3-1.7
		c0.8-165.4-4.4-350.9-3.7-516.4h0.4c165.8,25.3,624.1,93.6,789.8,119l0.2,0.3l0.1,0.1c-0.8,165.9,0.5,370-0.3,535.9L837.1,741.5z
		 M794.1,675.4c0.6-60.4,1.1-170.2,0.7-197.1c-0.2-15.2-2.9-26.4-14-28.5c-61.8-11.5-142.1-22.5-171-28.4
		c-7.7-1.6-16.1,7.1-16.1,19.7c-0.1,85.3-1.2,152.7-1.2,204c0,12.4,4.5,22,12,23.4c57.1,11.1,117.4,20.7,172.1,30.6
		C793.5,702.2,794,689.1,794.1,675.4z M792.7,395c0.3-59.4,0.1-110.2-0.1-138.6c-0.1-11.3-7.1-21.2-17.2-25.2
		c-2.1-0.8-4.3-1.4-6.6-1.7c-139.1-17.9-441-68.9-583.4-90.9c-3.2-0.5-6.3-1-9.3-1.4c-11.2-1.7-21.3,6.9-21.4,18.3
		c-0.3,70.4,0.7,62.3,0.4,135.7c-0.1,11.1,8.1,20.5,19,22.1c139.8,20.1,453.2,81,595.3,101.6C781.7,416.8,792.6,407.3,792.7,395z
		 M573.2,541c0.3-40.3,0.7-75,0.7-104.4c0-12.4-4.5-22-12-23.5c-57.1-11.1-120.5-22.4-172.1-30.6c-16.9-2.7-17.4,10-17.5,23.8
		c-0.3,26.4-0.5,62.3-0.7,96.6v0.1c-0.3,40.3-0.7,75-0.7,104.4c0,12.4,4.4,22,12,23.5c57.1,11.1,113.8,21.3,172.1,30.6
		c16.9,2.7,17.4-10,17.5-23.8c0.3-26.4,0.5-62.3,0.7-96.6L573.2,541z M350.1,602c0.6-60.4,1.1-170.2,0.7-197.1
		c-0.2-15.2-2.9-26.4-14-28.5l-1-0.3c-17.6-3.6-102.5-17.2-170-28.2l0,0.1c-7.7-1.6-16.1,7-16.1,19.7c-0.1,85.3-1.2,152.7-1.2,204
		c0,12.4,4.4,22,12,23.4c57.1,11.1,114.9,20.3,172.1,30.6C349.5,628.8,350,615.8,350.1,602z M122,202.9c7-10.3,9.5-18.7,6.2-31.7
		c-2.8-10.8-11.6-24.1-37.2-22.5c-9.7,0.1-19.1,5.4-24.6,13.4c-5.1,7.4-7,16.9-5,25.7c1.9,8.8,7.6,16.6,15.3,21.2
		c3.3,2,7.1,3.4,10.9,3.9h0C102.3,216.9,117.9,208.9,122,202.9z"/>
	<path style="fill:#D9E2FF;" d="M795.6,129.5c4.9,9.3,4.2,21.4-1.8,30c-1.6,2.3-3.6,4.3-5.8,6l-0.1-0.1c-0.8-3.1-1.7-6.2-3-9.1
		c-2-4.3-5.3-8.3-9.6-10.3c-5.3-2.5-11.9-1.6-16.7,1.7c-4.8,3.3-7.8,8.9-8.3,14.7c-5.4-5.9-8.2-14.2-7.4-22.2
		c0.8-9.1,6.3-17.6,14.1-22.1c7.8-4.5,17.8-4.8,25.9-0.9c5.4,2.6,9.8,7.1,12.7,12.4L795.6,129.5z M776.2,138.8
		c3.2-2,5.3-5.8,5.1-9.5c-0.2-3.8-2.5-7.4-5.9-9.1c-3.5-1.8-8.2-1.3-11.1,1.5l0.1,0.2c-1,0.8-2,1.7-2.6,2.8c-2.5,4-1.7,9.6,1.7,12.9
		C766.8,140.6,772.3,141.2,776.2,138.8z"/>
	<path style="fill:#FFFFFF;" d="M794.9,478.3c0.4,26.9-0.1,136.7-0.7,197.1c-0.1,13.8-0.7,26.8-17.5,23.8
		c-54.7-9.9-115-19.5-172.1-30.6c-7.5-1.5-12-11.1-12-23.4c0-51.3,1.1-118.7,1.2-204c0-12.7,8.4-21.3,16.1-19.7
		c28.9,5.9,109.2,17,171,28.4C792,451.8,794.6,463,794.9,478.3z"/>
	<path style="fill:#FFFFFF;" d="M792.5,256.4c0.2,28.3,0.4,79.2,0.1,138.6c-0.1,12.3-11,21.8-23.2,20
		c-142.1-20.6-455.6-81.6-595.3-101.6c-11-1.6-19.1-11-19-22.1c0.3-73.4-0.7-65.3-0.4-135.7c0-11.3,10.1-20,21.4-18.3
		c3,0.5,6.1,0.9,9.3,1.4c142.4,22,444.3,73,583.4,90.9c2.3,0.3,4.5,0.9,6.6,1.7C785.5,235.3,792.5,245.1,792.5,256.4z"/>
	<path style="fill:#A2B8FA;" d="M788,165.3l0.1,0.1c-6,4.7-14,6.8-21.5,5.6c-2.2-0.4-4.4-1-6.5-1.9c-2.7-1.2-5.2-2.7-7.4-4.6
		c-0.8-0.7-1.6-1.5-2.3-2.3c0.5-5.8,3.5-11.4,8.3-14.7c4.8-3.3,11.4-4.2,16.7-1.7c4.3,2,7.6,6,9.6,10.3
		C786.3,159.1,787.2,162.2,788,165.3z"/>
	<path style="fill:#A2B8FA;" d="M764.5,121.8l-0.1-0.2c2.9-2.8,7.5-3.2,11.1-1.5c3.4,1.7,5.7,5.3,5.9,9.1c0.1,3.8-1.9,7.6-5.1,9.5
		c-3.9,2.4-9.4,1.8-12.7-1.3c-3.4-3.2-4.1-8.9-1.7-12.9C762.5,123.5,763.4,122.5,764.5,121.8z"/>
	<path style="fill:#A2B8FA;" d="M721.5,113.4l0.3,0c-0.9,15.6-1.7,35.9-1.6,49.4l-0.1,0c-4.9-7.3-7.1-17.2-6.6-26.4
		C713.8,128,716.7,119.8,721.5,113.4z"/>
	<path style="fill:#D9E2FF;" d="M721.2,113l0.3,0.4c-4.8,6.4-7.6,14.6-8,23.1c-0.4,9.2,1.7,19.1,6.6,26.4l-0.1,0.1
		c-42.6-6.1-85.3-12.4-127.9-18.5c-5.8-7.5-8.6-17.2-7.9-26.6c0.7-8.5,4.3-16.8,10-23.1C636.5,100.8,678.9,106.9,721.2,113z"/>
	<path style="fill:#FFFFFF;" d="M573.9,436.6c0,29.4-0.4,64.1-0.7,104.4l0,0.1c-0.2,34.3-0.4,70.1-0.7,96.6
		c-0.1,13.8-0.6,26.5-17.5,23.8c-58.3-9.3-115-19.5-172.1-30.6c-7.5-1.5-12-11.1-12-23.5c0-29.4,0.4-64.1,0.7-104.4v-0.1
		c0.2-34.3,0.4-70.1,0.7-96.6c0.1-13.8,0.6-26.5,17.5-23.8c51.6,8.2,115,19.5,172.1,30.6C569.4,414.6,573.8,424.2,573.9,436.6z"/>
	<path style="fill:#D9E2FF;" d="M521.1,100.6c-0.5,0.2-1,0.6-1.3,1c-0.6,0.8-0.7,2-0.2,3c0.3,0.7,1,1.3,1.7,1.5
		c0.3,0.1,0.5,0.1,0.8,0.1c1-0.1,1.9-0.8,2.3-1.8c0.4-1,0.2-2.2-0.5-3S522.1,100.3,521.1,100.6L521.1,100.6z M547.5,103.1
		c-0.5,0.2-1,0.6-1.3,1c-0.6,0.8-0.7,2-0.2,3c0.3,0.7,1,1.3,1.7,1.5c0.3,0.1,0.5,0.1,0.8,0.1c1-0.1,1.9-0.8,2.3-1.8
		c0.4-1,0.1-2.2-0.5-3C549.5,103,548.4,102.7,547.5,103.1L547.5,103.1z M560.3,95.6c4.9,9.3,4.2,21.3-1.8,30
		c-6,8.6-17,13.3-27.2,11.6c-2.2-0.4-4.4-1-6.5-1.9c-2.7-1.1-5.2-2.7-7.4-4.6c-6.8-5.9-10.6-15.4-9.8-24.4
		c0.8-9.1,6.3-17.6,14.1-22.1c7.8-4.5,17.8-4.9,25.9-0.9c5.4,2.6,9.8,7.1,12.7,12.4L560.3,95.6z M541.8,118.9c1.5-2.3,2-5.1,1.9-7.8
		c-0.1-2.5-0.9-6.5-2-8.6c0,0,0-0.1-0.1-0.1c-0.1-0.1-0.2-0.3-0.2-0.4c-0.4-0.7-1-1.4-1.6-1.9c-1.6-1.4-3.9-2.2-5.9-1.6
		c-2.7,0.8-5.3,3.5-6.4,6.1c-1,2.4-1.5,5.3-1.6,7.9c-0.1,2.6,1,5.6,2.5,7.8c1.5,2.1,4.1,2.9,6.7,2.8
		C537.8,123,540.3,121.2,541.8,118.9z"/>
	<path style="fill:#A2B8FA;" d="M550.2,103.8c0.7,0.8,0.9,2,0.5,3c-0.4,1-1.3,1.7-2.3,1.8c-0.3,0-0.6,0-0.8-0.1
		c-0.7-0.2-1.4-0.8-1.7-1.5c-0.4-0.9-0.3-2.1,0.2-3c0.3-0.5,0.8-0.8,1.3-1v0C548.4,102.7,549.5,103,550.2,103.8z"/>
	<path style="fill:#A2B8FA;" d="M543.7,111.1c0.1,2.7-0.4,5.6-1.9,7.8c-1.5,2.3-4,4-6.7,4.1c-2.6,0-5.2-0.7-6.7-2.8
		c-1.5-2.1-2.6-5.2-2.5-7.8c0.1-2.6,0.6-5.5,1.6-7.9c1.1-2.6,3.7-5.3,6.4-6.1c2.1-0.6,4.3,0.2,5.9,1.6c0.6,0.6,1.2,1.2,1.6,1.9
		c0.1,0.1,0.1,0.2,0.2,0.4c0,0,0,0.1,0.1,0.1C542.7,104.5,543.6,108.6,543.7,111.1z"/>
	<path style="fill:#A2B8FA;" d="M523.9,101.4c0.7,0.8,0.9,2,0.5,3c-0.4,1-1.3,1.7-2.3,1.8c-0.3,0-0.6,0-0.8-0.1
		c-0.7-0.2-1.4-0.8-1.7-1.5c-0.4-0.9-0.3-2.1,0.2-3c0.3-0.5,0.8-0.8,1.3-1v0C522.1,100.3,523.2,100.6,523.9,101.4z"/>
	<path style="fill:#D9E2FF;" d="M449.8,85.4c1.8-3.6,5.3-6.4,9.2-7.3c4.6-1.1,9.7,0.4,13,3.8c3.3,3.4,4.6,8.5,3.4,13.1
		c-1.6,6.1-7.1,10.2-12.2,13.8c-5.7,4.1-12.6,9.8-18.4,13.9l-0.4,0.1c-4.4-5.5-8.8-11-13.2-16.4c-2.8-3.4-5.6-7-7-11.2
		c-1.6-4.9-1-10.7,2-14.9s8.5-6.7,13.6-5.8c5.1,0.9,9.5,5.5,9.7,10.7L449.8,85.4z"/>
	<path style="fill:#FFFFFF;" d="M350.9,404.9c0.4,26.9-0.1,136.7-0.7,197.1c-0.1,13.8-0.7,26.8-17.5,23.8
		c-57.2-10.3-115-19.5-172.1-30.6c-7.5-1.5-12-11.1-12-23.4c0-51.3,1.1-118.7,1.2-204c0-12.7,8.4-21.3,16.1-19.7l0-0.1
		c67.5,11,152.4,24.6,170,28.2l1,0.3C348,378.5,350.6,389.7,350.9,404.9z"/>
	<path style="fill:#FAD7D4;" d="M128.2,171.2c3.3,13,0.8,21.3-6.2,31.7c-4,6-19.7,14-34.5,10c0.6,0.1,1.2,0.1,1.8,0.1
		c7.2,0.2,15.4-2.5,20.9-7.1c8.3-6.9,12.8-17.3,10.8-29.9c-1.9-12.1-9.7-21-19.2-24.9c-3-1.4-6.2-2.2-9.5-2.4c-0.4,0-0.9,0-1.3,0
		C116.6,147.2,125.4,160.5,128.2,171.2z"/>
	<path style="fill:#FFF1F0;" d="M101.8,151.1c9.5,3.9,17.3,12.9,19.2,24.9c2,12.7-2.5,23-10.8,29.9c-5.5,4.6-13.7,7.3-20.9,7.1
		c-0.6,0-1.2-0.1-1.8-0.1h0c-3.9-0.4-7.6-1.9-10.9-3.9c-7.7-4.6-13.4-12.5-15.3-21.2c-1.9-8.8,0-18.3,5-25.7
		c5.5-8,14.9-13.4,24.6-13.4c0.4,0,0.9,0,1.3,0C95.6,148.9,98.8,149.7,101.8,151.1z"/>
</g>
<g id="lines_3_">
	<g id="Layer_18">
		<path style="fill:#6F7380;" d="M795.3,358.7c0-21.4,0-42.7,0-64.1c0-8.5-0.1-17.1-0.1-25.6c0-7.4,0.7-15.3-1.8-22.3
			c-2.9-8-9-14.3-16.8-17.6c0,0,0,0-0.1,0c-0.2-0.1-0.4-0.2-0.6-0.3c-7.6-2.7-16.4-2.9-24.3-3.9c-8.1-1-16.2-2.1-24.2-3.2
			c-17.5-2.4-34.9-4.8-52.4-7.3c-40.2-5.8-80.2-12.2-120.3-18.6c-84.7-13.4-169.4-27.3-254.1-41c-38.2-6.2-76.5-12.4-114.7-18.3
			c-9-1.4-17.7-3.4-25.5,2.6c-7.9,6.1-8.2,14.6-8.2,23.8c0,16.2,0,32.3,0.1,48.5c0.1,12.1,0.3,24.2,0.3,36.2c0,9.1,0,18.2,0,27.4
			c0,9.6-1.7,20.4,3.4,29c7.7,12.9,23.5,12.6,36.7,14.6c13.7,2.1,27.4,4.3,41.1,6.5c32.1,5.3,64.2,10.8,96.3,16.4
			c73.5,12.9,147,26.2,220.5,39.3c64.4,11.5,128.9,23,193.6,33c6.4,1,12.8,2,19.1,2.9c7.2,1.1,13.9,1.8,20.5-2
			c6.6-3.8,10.8-10.7,11.3-18.3C796.1,383.9,795.3,371.1,795.3,358.7z M789.7,399c-2.2,9.5-11.2,14.6-20.4,13.5
			c-5.9-0.7-11.8-1.7-17.7-2.6c-59.7-9.1-119.3-19.7-178.8-30.2c-69.7-12.3-139.3-24.9-209-37.2c-58.4-10.3-116.8-20.6-175.4-29.3
			c-6.2-0.9-13.7-1-19.5-3.7c-9.9-4.6-11.4-14-11.4-23.8c0.1-16.6,0.1-33.2-0.1-49.8c-0.1-11.2-0.3-22.3-0.3-33.5
			c-0.1-7.4-0.1-14.7-0.1-22.1c0-4.6,0-9.3,0-13.9c0-5.6-0.9-12.2,1.5-17.4c5.1-11.1,16.3-9.4,26.2-7.9
			c74.3,11.4,148.4,23.6,222.6,35.5c84.3,13.6,168.6,26.5,253,39.7c20.1,3.1,40.3,6.2,60.5,9.2c8.8,1.3,17.5,2.6,26.3,3.8
			c9,1.3,19,1.5,27.5,4.6c9.2,4.2,15,12.4,15.4,22.6c0.3,6.5,0.1,13.1,0.1,19.6c0.1,18.4,0.2,36.8,0.2,55.2c0,11,0,22,0,33
			c0,5.7,0,11.4,0,17.1C790.2,387,791,393.4,789.7,399z"/>
	</g>
	<g id="Layer_17">
		<path style="fill:#6F7380;" d="M352.9,405.7c-0.1-8.7-0.1-19.1-5.7-26.3c-2.5-3.2-5.8-5.1-9.7-5.9c-0.4-0.1-0.7-0.1-1.1,0
			c0,0,0,0,0,0c-40.9-8.3-82.5-13.9-123.7-20.5c-15.2-2.4-30.4-4.9-45.6-7.3c-0.2-0.1-0.4-0.3-0.7-0.3c-9.1-1.3-15.5,6.6-17.5,14.7
			c-1.7,6.9-0.8,14.5-0.8,21.5c0,8-0.1,15.9-0.1,23.9c-0.2,28.5-0.4,57-0.7,85.5c-0.2,23.3-0.4,46.7-0.5,70c0,10-1,21.6,5.6,30
			c3.3,4.2,7.5,5,12.5,6c8,1.5,16.1,3.1,24.1,4.5c32.2,5.9,64.5,11.4,96.8,17c16,2.8,32,6.4,48.1,8.4c8.4,1,14.8-2.5,16.9-10.9
			c2.3-9,1.3-19.1,1.4-28.3c0.1-10.9,0.2-21.7,0.3-32.6c0.2-23.6,0.3-47.2,0.4-70.8c0.1-19.9,0.1-39.8,0.1-59.8
			C353,418.3,353,412,352.9,405.7z M349,468.8c-0.1,41.4-0.4,82.8-0.7,124.2c-0.1,7.9,1.4,18.4-2.5,25.6c-2.6,4.8-7.8,5-12.6,4.3
			c-7.7-1.2-15.5-2.8-23.2-4.1c-29-5.1-58.1-10-87.2-15.1c-14.8-2.6-29.7-5.3-44.4-8c-3.2-0.6-6.4-1.2-9.6-1.8
			c-3.3-0.6-7.2-0.8-10.2-2.3c-5.5-2.8-7.3-10.3-7.9-15.9c-1-9.4-0.2-19.3-0.2-28.8c0.1-10.6,0.1-21.2,0.2-31.8
			c0.2-27.4,0.5-54.8,0.6-82.2c0.1-15.4,0.2-30.9,0.2-46.3c0-8.1-1.2-17.5,0.7-25.4c1.4-6,6.2-13.4,13.2-12.3c0.4,0.1,0.7,0,1-0.1
			c49.5,8.1,99,16,148.4,24.6c6.8,1.2,13.7,2.3,20.5,3.7c0.2,0.3,0.6,0.5,1,0.6c16.2,3.5,12.6,28.6,12.7,41.4
			C349.1,435.5,349.1,452.2,349,468.8z"/>
	</g>
	<g id="Layer_16">
		<g>
			<path style="fill:#6F7380;" d="M567.6,415.9c-4.7-3.8-12-3.8-17.7-4.9c-8.4-1.6-16.9-3.2-25.3-4.8c-32.5-6.1-65-11.9-97.6-17.4
				c-7.9-1.3-15.8-2.6-23.7-3.9c-6.3-1-13.1-3-19.5-2.4c-9.3,0.8-12.3,8.7-13.1,16.9c-1.4,15.5-0.5,31.5-0.7,47.1
				c-0.1,19.5-0.3,39-0.4,58.5c0,0.2,0,0.5,0.1,0.7c-0.3,30.7-0.6,61.3-0.7,92c0,10.8-1.6,24.8,6.7,33.3c4.2,4.3,10.5,4.5,16.1,5.6
				c8.2,1.6,16.5,3.2,24.7,4.7c33.7,6.4,67.4,12.4,101.1,18.1c8.7,1.5,17.4,2.9,26.1,4.3c6,1,12.7,3,18.8,1.8
				c9-1.7,11.1-10.5,11.6-18.4c1-15.6,0.4-31.5,0.5-47.2c0.1-18.9,0.3-37.8,0.3-56.7c0-0.2,0-0.5-0.1-0.7
				c0.3-31.4,0.6-62.8,0.7-94.3C575.7,437.6,576.9,423.3,567.6,415.9z M572,445.9c-0.1,32.2-0.4,64.3-0.6,96.5
				c-0.1,0.2-0.1,0.4-0.1,0.7c-0.1,29.7-0.3,59.3-0.6,89c-0.1,7.7,2.3,23.3-5.3,28.3c-5,3.2-12.2,0.8-17.6-0.1
				c-8.4-1.4-16.7-2.7-25.1-4.1c-30.6-5.1-61.2-10.5-91.7-16.1c-15.2-2.8-30.5-5.6-45.6-8.7c-13.8-2.8-12.5-19.8-12.5-30.9
				c0.1-31.7,0.4-63.3,0.6-95c0.1-0.2,0.1-0.4,0.1-0.7c0.1-30.2,0.3-60.4,0.6-90.5c0.1-7.8-2.3-24.6,7.5-27.7
				c5.8-1.9,13.2,0.7,19,1.6c7.3,1.2,14.6,2.4,21.9,3.6c29.5,4.9,58.9,10.1,88.3,15.5c15.1,2.8,30.2,5.6,45.3,8.5
				c6.8,1.3,11.2,2.8,13.8,9.7C572.4,432.1,572,439.1,572,445.9z"/>
			<path style="fill:#6F7380;" d="M793.8,460.4c-1.9-4.6-5-7.8-9.5-9.7c-0.2-0.1-0.3-0.2-0.5-0.2c-0.2-0.1-0.3-0.1-0.5-0.1
				c-7.7-2.2-16-2.9-23.8-4.2c-8.4-1.4-16.8-2.7-25.2-4.1c-16.7-2.6-33.3-5.3-50-8c-14.8-2.4-29.6-4.7-44.3-7.1
				c-10.1-1.7-20.4-4.4-30.6-5.4c-13.7-1.4-17.3,15.3-17.3,25.5c-0.1,19.8-0.2,39.6-0.3,59.3c-0.2,33-0.6,66.1-0.8,99.1
				c-0.1,13.4-0.2,26.9-0.2,40.3c0,6.8,0.8,14.2,4.6,20.1c3.7,5.6,8.8,6.4,15,7.6c38.3,7.4,76.7,14.2,115.1,20.9
				c17.4,3,35.1,7,52.7,8.9c11.9,1.3,16.8-6.7,17.7-17.4c1-12.6,0.5-25.6,0.6-38.2c0.1-14.3,0.2-28.6,0.3-42.9
				c0.2-28.1,0.3-56.2,0.3-84.3c0-10,0-20,0-30.1C796.9,480.4,797.7,469.6,793.8,460.4z M792.9,583.2c-0.1,26.5-0.3,53.1-0.5,79.6
				c0,5.7-0.1,11.3-0.2,17c-0.1,5.1,0.1,11.4-2.8,15.8c-4.3,6.4-13.6,3.3-19.8,2.3c-8.4-1.4-16.8-2.8-25.2-4.3
				c-35.5-6-71-12.2-106.5-18.8c-8.9-1.6-17.7-3.3-26.5-5c-3.2-0.6-6.9-0.8-9.7-2.6c-3.3-2.2-5-6.3-6-10c-1.8-6.5-1.2-13.4-1.2-20.1
				c0-6.3,0-12.5,0.1-18.8c0.2-29.3,0.5-58.5,0.7-87.8c0.1-16.9,0.2-33.9,0.3-50.8c0-9.3,0.1-18.6,0.1-27.9c0-8.4-0.9-17.9,5.9-24.2
				c4.5-4.2,9.5-2.5,14.8-1.5c4.9,0.9,9.7,1.7,14.6,2.5c12.7,2.1,25.5,4.1,38.2,6.1c30.7,4.8,61.3,9.5,91.9,15.1
				c7.2,1.3,14.8,2.1,21.8,4.3c11.2,4.3,10.1,20.6,10.2,30.4c0.1,8.2,0.1,16.4,0.1,24.6C793.1,534,793,558.6,792.9,583.2z"/>
		</g>
	</g>
	<g id="Layer_15">
		<path style="fill:#3B59B2;" d="M477,89c-1-6.9-6.6-12.2-13.6-12.8c-4.4-0.4-10.1,1.4-13.2,5c-1.4-4-5.4-7.1-9.4-8.1
			c-6.3-1.6-13.1,1.7-16.4,7.1c-3.9,6.3-2.9,14,0.8,20.1c5.1,8.2,12.3,15.7,18.7,22.9c0.2,0.5,0.8,0.9,1.4,0.5
			c7.6-5.2,15-10.9,22.2-16.5C473.2,102.7,478.1,96.6,477,89z M472.2,98.9c-3.3,5-8.8,8.2-13.5,11.8c-4.8,3.7-9.6,7.5-14.4,11.2
			c-3.3-4.4-6.7-8.7-10.1-13.1c-3.9-5-8.6-10.3-9.4-16.8c-0.8-6.8,2.7-13.9,9.7-15.7c3.6-0.9,7.4,0,10.1,2.7
			c1.9,1.8,2.5,4.1,3.5,6.4c-0.1,0.3-0.1,0.6-0.1,0.8c-0.1,1.3,1.6,1.8,2.4,1c2.2-2,3.5-4.8,6.1-6.3c3.4-2,7.8-1.9,11.3-0.1
			C474.5,84.2,476.2,92.8,472.2,98.9z"/>
	</g>
	<g id="Layer_14">
		<g>
			<path style="fill:#3B59B2;" d="M542.2,102.2c-0.1-0.1-0.2-0.3-0.3-0.4c0,0,0,0,0-0.1c0,0,0,0,0,0c-3.5-5.1-9.4-5.3-13.5-0.4
				c-4.2,5-5,14.3-0.9,19.5c3.5,4.5,10.8,4.1,14.2-0.2c3.6-4.6,3.6-13.2,0.5-18.3C542.2,102.3,542.2,102.3,542.2,102.2z
				 M532.8,121.7c-4.6-1.1-6.1-6.7-5.8-10.9c0.5-6.7,7.8-17.5,14.1-8.3c1,2.5,1.7,5.2,1.9,8C543.2,116.3,539.6,123.4,532.8,121.7z"
				/>
			<path style="fill:#3B59B2;" d="M549.1,102.6c-0.9-0.4-2-0.3-3,0.6c-1.8,1.6-1.4,4.8,0.9,5.8c2.1,0.9,4.4-0.9,4.4-3.1
				C551.5,104.4,550.5,102.9,549.1,102.6z M547.6,107.8c-1.3-0.7-1.6-2.5-0.7-3.6c0.4-0.5,0.9-0.7,1.3-0.8c1.1,0.1,2.1,0.7,2.2,2.1
				C550.6,107.1,549.1,108.6,547.6,107.8z"/>
			<path style="fill:#3B59B2;" d="M522.8,100.1c-0.9-0.4-2-0.3-3,0.6c-1.8,1.6-1.4,4.8,0.9,5.8c2.1,0.9,4.4-0.9,4.4-3.1
				C525.1,102,524.1,100.5,522.8,100.1z M521.2,105.4c-1.3-0.7-1.6-2.5-0.7-3.6c0.4-0.5,0.9-0.7,1.3-0.8c1.1,0.1,2.1,0.7,2.2,2.1
				C524.2,104.6,522.8,106.2,521.2,105.4z"/>
			<path style="fill:#3B59B2;" d="M536,86.2c-9.8,0-18.6,6.2-21.8,15.5c-3.3,9.4,0.3,20,8.1,26c8,6.1,19.6,6,27.5-0.2
				c7.7-6,11.5-18.1,7-27.2C553.1,92,545.3,86.3,536,86.2z M557.4,111.9c-0.7,4.4-2.5,8.7-5.7,11.9c-6.4,6.5-16.8,8.5-25,4.5
				c-8.3-4.1-13.4-13.4-11.9-22.7c1.4-8.8,8.3-16.2,17.1-17.9c9.6-1.8,18.7,3,23.5,11.1C556.9,103.1,558.1,107.4,557.4,111.9z"/>
			<path style="fill:#3B59B2;" d="M561.8,97.2C557,86.6,547,79.2,535,79.4c-12.6,0.2-23.6,8.7-27.4,20.7
				c-3.8,12.1,0.8,25.6,10.8,33.2c10.2,7.8,25.1,7.5,35.1-0.6c5.3-4.3,9.2-10.6,10.4-17.3C564.9,109.5,564.6,102.5,561.8,97.2z
				 M562.4,112.5c-0.9,5.5-3,10.8-6.9,14.8c-7.8,8.2-20.5,11.1-30.8,6.3c-10.7-4.9-17.2-16.5-15.7-28.2c1.3-11,9.7-20.9,20.6-23.4
				c12.3-2.7,24.2,3.5,30.3,13.9C561.7,101.3,563.3,106.7,562.4,112.5z"/>
		</g>
	</g>
	<g id="Layer_13">
		<g>
			<path style="fill:#3B59B2;" d="M797.2,131.1c-4.8-10.6-14.8-18-26.8-17.8c-12.6,0.2-23.7,8.6-27.5,20.6
				c-3.8,12.1,0.8,25.6,10.8,33.2c10.3,7.8,25.2,7.5,35.2-0.6c5.3-4.3,9.2-10.6,10.4-17.4C800.3,143.5,800,136.5,797.2,131.1z
				 M760.1,167.6c-3.4-1.6-6.4-3.9-8.9-6.6c1.9-8.7,8.9-15.7,18.3-15.2c10,0.6,15.1,10.3,17.4,18.9
				C779.2,170.1,768.8,171.6,760.1,167.6z M797.7,146.4c-0.9,5.5-3,10.7-6.9,14.8c-0.8,0.8-1.6,1.5-2.4,2.2
				c-2.6-9.8-7.9-20-19.4-20.2c-9.8-0.2-17.1,7.5-18.9,16.6c-4.5-5.6-6.8-13-5.9-20.4c1.3-11,9.7-20.9,20.6-23.4
				c12.3-2.8,24.2,3.5,30.3,13.9C797.1,135.3,798.7,140.6,797.7,146.4z"/>
			<path style="fill:#3B59B2;" d="M763.8,121.1c-0.1,0.1-0.1,0.1-0.1,0.2c-1,0.7-1.9,1.6-2.6,2.5c-3.3,4.6-2.3,11.6,2.1,15.2
				c4.5,3.6,11.5,3.4,15.6-0.7c4.2-4.2,4.6-10.9,1.1-15.6C776.1,117.6,768.5,116.7,763.8,121.1z M771,139c-6,0.2-10.4-5.3-9.3-11.2
				c0.5-2.7,2.3-4.8,4.7-6.1c2.5-1.3,4.8-1.2,7.4-1c2.3,0.9,4.3,2.6,5.4,5C782.1,131.6,777.5,138.8,771,139z"/>
		</g>
	</g>
	<g id="Layer_12">
		<path style="fill:#3B59B2;" d="M722.3,112.7c0-0.2-0.1-0.3-0.2-0.4c-0.1-0.2-0.3-0.4-0.6-0.4c-21.6-3.6-43.3-6.3-64.9-9.4
			c-10.8-1.6-21.7-3.1-32.5-4.6c-5.3-0.8-10.5-1.5-15.8-2.3c-2.6-0.4-5.3-0.8-7.9-1.1c-1.3-0.2-2.6-0.4-3.9-0.6
			c-0.8-0.1-1.9-0.6-2.7-0.2c-1.3,0.6-2.5,2.8-3.4,4c-1.4,1.9-2.5,3.9-3.5,6c-1.8,3.8-3,7.8-3.5,12c-1.1,8.6,0.7,17.5,5.1,25
			c0.7,1.3,1.8,3.7,3.1,4.5c0.8,0.5,2.2,0.4,3.2,0.5c1.5,0.2,3,0.4,4.4,0.6c5.4,0.8,10.8,1.6,16.2,2.3c10.8,1.6,21.7,3.1,32.5,4.6
			c23.9,3.4,47.8,7.2,71.7,10.3c0.6,0.3,1.4,0.1,1.4-0.8c-0.1-8.1,0.1-16.2,0.3-24.3c0.1-4.4,0.3-8.7,0.5-13.1
			C722.1,121.3,722.6,116.9,722.3,112.7z M720.3,124.6c-0.2,4.5-0.4,9-0.6,13.5c-0.3,7.1-0.4,14.3-0.5,21.4
			c-1.4-2.7-2.6-5.5-3.4-8.6c-1.1-4.2-1.3-8.5-1.2-12.8c0.1-7.8,2.1-15.9,6.2-22.6C720.5,118.5,720.5,121.6,720.3,124.6z
			 M647.4,151.6c-12-1.8-23.9-3.6-35.9-5.3c-3-0.4-5.9-0.9-8.9-1.3c-3-0.4-6.4-0.5-9.3-1.4c-2.1-0.6-3.5-4.3-4.3-6.1
			c-1.2-2.4-2.1-5-2.7-7.6c-3-12,0.3-24.8,8.4-34.1c32.9,4.7,65.8,9.5,98.7,14.2c9,1.3,18,2.7,27,3.8c-5.1,7.1-8,15.3-8.2,24.2
			c-0.1,7.8,1.8,17.2,6.3,23.9C694.8,158.2,671,155.1,647.4,151.6z"/>
	</g>
	<g id="Layer_11">
		<g>
			<path style="fill:#F29C96;" d="M130.4,176.9c-1-8-3.8-15.7-9.9-21.3c-7.5-6.9-17.7-8.9-27.7-8.4c-2.3-0.2-4.6-0.1-7.1,0.4
				c-7,1.4-13.5,5.2-18.3,10.4c-10,10.9-11.5,27.7-4,40.4c5.1,8.6,13.5,14.4,22.8,15.9c0.2,0.1,0.4,0.2,0.7,0.3
				c11.2,2.6,24.8,0.2,33.6-7.8C128.6,199.5,131.7,187.2,130.4,176.9z M63.9,171.1c4.6-14.5,20.2-23.9,34.5-19.9
				c0.1,0.1,0.2,0.2,0.4,0.2c14.5,5.6,24.4,20.7,20.9,36.5c-3.4,15.3-20.1,26.9-35.7,22.4C67.6,205.6,58.8,187,63.9,171.1z
				 M119.4,203.5c-3.8,4-9,6.5-14.6,7.8c10.7-5.3,17.3-15.8,17.8-28.1c0.5-12.9-5.6-25.6-16.6-31.7c4.3,1,8.3,2.7,11.8,5.5
				c5.4,4.3,8.2,10.5,9.7,17.1C129.9,184.3,126.7,195.8,119.4,203.5z"/>
			<path style="fill:#F29C96;" d="M93.1,195.3c0-3.3,0.1-6.7,0.2-10.1c3.7,0.5,7.3,0.8,11,0.9c2.9,0.1,3.6-4.5,0.7-5.2
				c-3.8-0.8-7.7-1.3-11.6-1.8c0-3.6-0.1-7.1-0.4-10.6c-0.3-3.4-4.9-3.4-5.3,0c-0.3,3.3-0.4,6.7-0.3,10c-3.2-0.3-6.4-0.6-9.6-0.9
				c-3.4-0.4-3.3,4.9,0,5.3c3.2,0.4,6.4,0.9,9.7,1.4c0.1,3.6,0.3,7.3,0.3,10.9C87.9,198.7,93.1,198.7,93.1,195.3z"/>
		</g>
	</g>
	<g id="Layer_10">
		<g>
			<path style="fill:#979CAD;" d="M89.1,241.8c-1.4,38.9-0.4,78-0.4,116.9c0.1,39,0,77.9,0.1,116.9c0.1,22-0.1,44,0.3,65.9
				c0.1,4.7,7.3,4.7,7.3,0c1.1-77.9,0-155.9-0.5-233.7c-0.1-22,0.2-44-0.7-65.9C95,237.9,89.2,237.9,89.1,241.8L89.1,241.8z"/>
		</g>
	</g>
	<g id="Layer_9">
		<g style="opacity:0.8;">
			<g>
				<path style="fill:#B1B6C7;" d="M651.1,629.3c26.3,5.7,52.8,10.5,79.2,15.8c3.3,0.7,4.8-4.5,1.4-5.1c-26.5-5-52.9-10.5-79.4-15.1
					C649.5,624.4,648.2,628.7,651.1,629.3L651.1,629.3z"/>
			</g>
			<g>
				<path style="fill:#B1B6C7;" d="M663.7,645.9c14.9,3.5,30.1,6.1,45.1,9.2c3.3,0.7,4.7-4.5,1.4-5.1c-15.1-2.8-30.1-6.1-45.2-8.6
					C662,641,660.7,645.2,663.7,645.9L663.7,645.9z"/>
			</g>
			<g>
				<path style="fill:#B1B6C7;" d="M429.3,594.7c26.3,5.7,52.8,10.5,79.2,15.8c3.3,0.7,4.8-4.5,1.4-5.1c-26.5-5-52.9-10.5-79.4-15.1
					C427.7,589.8,426.4,594,429.3,594.7L429.3,594.7z"/>
			</g>
			<g>
				<path style="fill:#B1B6C7;" d="M441.9,611.3c14.9,3.5,30.1,6.1,45.1,9.2c3.3,0.7,4.7-4.5,1.4-5.1c-15.1-2.8-30.1-6.1-45.2-8.6
					C440.3,606.4,438.9,610.6,441.9,611.3L441.9,611.3z"/>
			</g>
			<g>
				<path style="fill:#B1B6C7;" d="M206,554c26.3,5.7,52.8,10.5,79.2,15.8c3.3,0.7,4.8-4.5,1.4-5.1c-26.5-5-52.9-10.5-79.4-15.1
					C204.4,549.1,203.1,553.4,206,554L206,554z"/>
			</g>
			<g>
				<path style="fill:#B1B6C7;" d="M218.6,570.7c14.9,3.5,30.1,6.1,45.1,9.2c3.3,0.7,4.7-4.5,1.4-5.1c-15.1-2.8-30.1-6.1-45.2-8.6
					C217,565.8,215.7,570,218.6,570.7L218.6,570.7z"/>
			</g>
		</g>
	</g>
	<g id="Layer_8">
		<path style="opacity:0.6;fill:#FCA4AE;" d="M532,552.7c-0.1-0.3-0.2-0.6-0.4-0.9c-10.5-21.1-20.5-42.5-31.7-63.2
			c0-1.3-0.1-2.7,0-4.1c0.1-1.2-1-2.7-2.2-2.9c-14.2-2.4-28.3-4.9-42.4-7.6c-5.6-1.1-11.3-2.2-16.9-3.3c-4.6-0.9-9.4-0.6-11.5,4.4
			c-1.2,2.9-0.6,6.2-0.5,9.3c0.1,4.6,0.3,9.2,0.4,13.8c0.3,8.6,0.5,17.1,0.8,25.7c0,1.3,1,2.9,2.4,3.1c13,2.4,25.9,6.4,39.1,7.8
			c-1.5,2.6-2.9,5.2-4.4,7.8c-1.2,2,0.8,4.7,3.1,4c5.3-1.6,10.7-3.2,16-4.8c2.4-0.7,4.8-1.5,7.1-2.2c1.4-0.4,2.4-0.8,3.3-1
			c0.1,0.6,0.1,1.2,0.2,1.8c0.4,3.9,0.4,7.7,1.5,11.5c0.4,1.4,2.4,1.4,2.8,0c1.2-3.8,1.2-7.6,1.7-11.5c9.3,5.1,18.6,10.1,27.6,15.7
			c1.9,1.2,3.6,0,4.1-1.6C532.2,554,532.3,553.4,532,552.7z M447.2,478.8c5.3,1,10.7,2,16,3c7.4,1.4,14.8,2.6,22.3,3.9
			c-2.5,1.3-5,2.8-7.4,4c-4.8,2.6-9.7,5.2-14.5,7.7c-7.9-7-16.1-14.2-24.8-20.3c0.6,0.1,1.2,0.3,1.6,0.4
			C442.6,478,444.9,478.4,447.2,478.8z M471.1,529c-12.1-3.3-24.8-5.7-37.1-7.9c-0.2-6.3-0.4-12.7-0.6-19c-0.1-3.9-0.3-7.9-0.4-11.8
			c-0.1-3-0.9-7-0.3-9.9c-0.1-0.2-0.1-0.4-0.2-0.6c8.7,8.6,19.2,15.6,28.4,23.7c1.1,1,2.5,1.2,3.8,0.5c5.6-2.8,11.2-5.5,16.8-8.3
			c4.1-2,8.5-3.9,12.4-6.4c0,0.4,0,0.8,0,1.2c-7.3,13-14.6,26-21.9,39C471.7,529.2,471.4,529.1,471.1,529z M501,534
			c0.3-2.1,0.5-4.3,0.6-6.4c0.3-5.5-8.8-5.5-8.6,0c0.1,1.7,0.2,3.3,0.4,4.9c-3.3,0.7-6.9,2.5-9.8,3.5c-3.7,1.2-7.3,2.3-11,3.5
			c8-14.5,16.1-29,24.1-43.4c0.4,0,0.8-0.1,1.2-0.3c8.9,16.8,16.7,34.2,25.9,50.9c-2.8-1.7-5.7-3.3-8.6-4.8
			C510.5,539.2,505.8,536.3,501,534z"/>
	</g>
	<g id="Layer_7">
		<g style="opacity:0.6;">
			<path style="fill:#9CD99C;" d="M738.8,503.8c-8.2-8.6-20.6-11.5-31.1-5.3c-4,2.4-7.2,5.6-9.5,9.4c-8.6-3.4-19.5-1.7-27.4,2.4
				c-10.5,5.5-17.2,16.9-19,28.4c-3.9,23.9,12.6,50.1,38.1,51.2c14.3,0.6,27.9-8,33.9-20.9c0.1-0.1,0.1-0.3,0.2-0.4
				c8.3-8.2,16.5-17.3,20.5-28.4C748.8,527.8,748.1,513.7,738.8,503.8z M707.7,559.2c-0.5,0.1-1.1,0.3-1.6,0.4
				c0.1-0.7,0.1-1.3,0.2-2C706.7,558.1,707.2,558.6,707.7,559.2z M700.3,560.5c-8.2,0.9-16.7,0.2-24.5-2.4c0-0.1,0-0.1,0-0.2
				c-1.3-7.4-1.2-15.1,0.4-22.4c6-1,12.3-1.2,18.2-0.4c1.3,5.5,3.6,10.6,6.7,15.3C701,553.5,700.8,557,700.3,560.5z M677.6,565
				c1.2,0.3,2.4,0.5,3.5,0.8c5.9,1.1,11.9,1.5,17.9,0.9c-1.2,4-3,7.7-5.8,10.6C686,584.7,680.4,573.7,677.6,565z M689.5,513
				c2.6-1,4.1,0.9,5.1,3.1c-1.2,4.2-1.6,8.7-1.2,13.2c-5-0.6-10.3-0.6-15.5,0c0.1-0.2,0.1-0.4,0.2-0.6c1.7-4.5,3.9-8.9,7.3-12.4
				C686.5,515.1,688,513.6,689.5,513z M669,555.2c-1-0.5-1.9-1-2.8-1.6c-3.8-2.4-8.6-6.9-4.5-11.5c1.9-2.2,4.9-3.8,7.8-4.9
				C668.5,543.1,668.4,549.3,669,555.2z M666.3,519.8c4.4-4.5,9.9-7.1,15.8-8.2c-1.7,1.6-3.3,3.5-4.5,5.2c-3,4.1-5.1,8.8-6.6,13.8
				c-1.3,0.4-2.7,0.8-3.9,1.3c-3.7,1.5-7.6,3.9-10.2,6.9C658.2,531.7,661.2,524.9,666.3,519.8z M658.4,558.9
				c-0.5-1.6-0.9-3.2-1.3-4.8c3.2,4,8.1,6.7,13.2,8.7c1.5,6.2,4.3,14.1,8.9,18.9C669.5,577.6,661.7,568.8,658.4,558.9z M694.3,584
				c4.3-2.7,7.4-8.2,9-12.5c0.7-1.8,1.2-3.7,1.7-5.7c2.4-0.5,4.8-1.1,7.1-1.8c1.8,1.9,3.7,3.8,5.5,5.6c0.1,0.3,0.3,0.5,0.4,0.8
				C712.3,578.1,703.7,583.1,694.3,584z M739.9,533.5c-2.3,12.8-11.3,22.2-19.8,31.4c-8.7-10.4-17.2-20.4-19.1-34.5
				c-1.6-12.2,6-28.9,20.7-27.4C736.6,504.5,742.2,520.6,739.9,533.5z"/>
			<path style="fill:#9CD99C;" d="M716.8,519.3c-2.3,1.2-3.9,3.6-3.8,6.4c0,4.8,5,8.2,9.5,6.7c4.5-1.5,6.4-6.8,3.9-10.9
				C724.5,518.4,719.9,517.5,716.8,519.3z M721.8,529.2c-2.5,1.3-5.7-0.4-6.3-3c-0.5-1.8,0.2-3.4,1.3-4.5c2.4-1.2,5.1-1.3,6.7,1.2
				C724.9,525.1,724.2,528,721.8,529.2z"/>
		</g>
	</g>
	<g id="Layer_6">
		<g style="opacity:0.6;">
			<path style="fill:#A2B8FA;" d="M307.9,492.5c-2.5-5.3-5-10.6-7.5-15.8c-1.3-2.6-2.5-5.3-3.8-7.9c-0.9-1.9-1.8-5.3-3.4-6.7
				c-1.3-1.1-3.4-1.1-5-1.5c-2.9-0.6-5.8-1.2-8.7-1.8c-0.3-0.1-0.5-0.1-0.8-0.2c0.3-4,0.3-8,0.4-11.9c0-0.9-0.8-2.2-1.8-2.3
				c-23.2-3.4-46.2-8.6-69.4-11.9c-1.5-0.2-2.9,0.6-3,2.3c-0.4,18.6-0.9,37.1-1.5,55.7c0,1,0.8,2.2,1.8,2.4
				c14.6,2.5,28.9,5.9,43.5,8.3c0.6,0.1,1.1,0,1.6-0.2c1.5,2.8,3.1,5.6,4.6,8.5c2.2,3.9,3.3,3.8,7.8,4.7c4.9,1,9.7,2,14.6,3
				c3.1,0.6,4.5-4.1,1.3-4.8c-3.9-0.8-7.8-1.6-11.7-2.5c-1.6-0.3-4.4-0.4-5.8-1.2c-1.9-1.2-2.6-3.3-3.6-5.2
				c-3.6-6.6-7.2-13.3-10.7-19.9c5-7.6,9.9-15.3,14.9-22.9c4.5,0.9,9,1.8,13.5,2.8c4,0.8,11.7,0.9,14.7,3.7c1.5,1.4,2.5,5.2,3.4,7
				c1.1,2.3,2.3,4.7,3.4,7c2,4.2,4,8.4,6.1,12.5c-4.2,6.1-8.7,12.2-12.4,18.6c-1.2,2.1,1.8,4.7,3.5,2.7c5.1-6.3,9.4-13.2,14.1-19.8
				C308.4,494.3,308.2,493.3,307.9,492.5z M208.4,488.3c0.1-8.3,0.3-16.5,0.5-24.8c13.2,2.7,26.4,5.3,39.7,7.5
				c-2.4,3.7-4.7,7.4-7.1,11c-0.5,0.8-0.4,1.8,0,2.6c1.9,3.6,3.9,7.1,5.8,10.7C234.3,493.2,221.4,490.4,208.4,488.3z M258.2,456.3
				c-2.3,3.5-4.6,7.1-6.9,10.6c-14-2.8-28.2-5.1-42.3-7.4c0.2-7.4,0.4-14.7,0.6-22.1c21.6,3.3,43,8.1,64.7,11.3c-0.1,3-0.1,6-0.1,9
				c-4.3-0.9-8.7-1.8-13-2.7C259.9,454.8,258.8,455.2,258.2,456.3z"/>
			<path style="fill:#A2B8FA;" d="M220.7,449.4c0,0-0.1,0-0.1,0c-1.1-0.5-2.5-0.5-3.3,0.4c-0.9,1-1,2.2-0.4,3.3c0,0,0,0.1,0,0.1
				c0.8,1.6,3.2,1.7,4.4,0.6C222.5,452.6,222.4,450.2,220.7,449.4z"/>
			<path style="fill:#A2B8FA;" d="M230.1,450.9c0,0-0.1,0-0.1,0c-1.1-0.5-2.5-0.5-3.3,0.4c-0.9,1-1,2.2-0.4,3.3c0,0,0,0.1,0,0.1
				c0.8,1.6,3.2,1.7,4.4,0.6C231.8,454.1,231.7,451.7,230.1,450.9z"/>
			<path style="fill:#A2B8FA;" d="M239.5,452.9c0,0-0.1,0-0.1,0c-1.1-0.5-2.5-0.5-3.3,0.4c-0.9,1-1,2.2-0.4,3.3c0,0,0,0.1,0,0.1
				c0.8,1.6,3.2,1.7,4.4,0.6C241.2,456.1,241.1,453.7,239.5,452.9z"/>
		</g>
	</g>
	<g id="Layer_5">
		<path style="fill:#3B59B2;" d="M853.8,104.5c-4.5,2.6-9.1,5.2-13.6,8c-42.2-5.9-84.4-11.6-126.7-17.3
			C658,87.6,602.4,80,546.8,72.4C486.1,64.2,425.5,56,364.9,47.8c-56.6-7.7-113.1-15.3-169.7-23c-44.1-6-88.3-11.9-132.4-17.9
			c-4.2-0.6-8.5-1.2-12.7-1.7c-1.7-0.2-2.4,2.3-0.7,2.6c42.1,6,84.1,11.9,126.2,17.7c55.5,7.6,111,15.3,166.4,22.9
			c60.6,8.3,121.2,16.5,181.8,24.8c56.6,7.8,113.3,15.5,169.9,23.2c44.3,6.1,88.6,12.1,132.9,18.3c3.8,0.5,7.7,1.1,11.5,1.6
			c-10.1,26.6-13.1,58-4.4,85.4c-41.4-6.3-82.8-12.5-124.3-18.7c-55.7-8.4-111.4-16.8-167.2-25.1c-60.4-9-120.8-18.1-181.1-27.1
			c-56.8-8.5-113.6-17-170.4-25.5c-44.1-6.6-88.2-13.1-132.4-19.7c-4.2-0.6-8.4-1.3-12.7-1.9c-1.7-0.3-2.4,2.3-0.7,2.6
			c42.1,6.5,84.1,13.1,126.2,19.5c55.7,8.4,111.4,16.9,167.1,25.3c60.4,9.1,120.7,18.1,181.1,27.2c56.8,8.6,113.5,17.1,170.3,25.6
			c44.1,6.6,88.2,13.2,132.3,20.1c4,0.6,7.9,1.2,11.9,1.9c-0.7,68.7-0.9,137.4-0.8,206.1c0,71.4,0.1,142.8,0,214.2
			c0,38.1,0,76.1-0.4,114.2c0,3.2,4.9,3.2,4.9,0c0-69.2,0.2-138.3,0.1-207.5c-0.2-71.4-0.3-142.8-0.4-214.2
			c0-37.8-0.2-75.5-0.2-113.3c5.7-3.1,11.3-6.1,17-9.2c1.4-0.8,0.2-2.9-1.3-2.2c-5.5,2.6-10.9,5.3-16.4,7.9
			c-2.7-14.3-4.6-28.6-3.8-43.2c0.8-14.9,4-29.5,9.3-43.4c0-0.1,0.1-0.2,0.1-0.3c4.4-2.5,8.7-5.4,13-8.1
			C856.7,106,855.4,103.6,853.8,104.5z"/>
	</g>
	<g id="Layer_4">
		<path style="fill:#4E5159;" d="M856.8,730.4c0-79.1,0.3-158.2,0.2-237.3c-0.1-87.6-0.2-175.3-0.2-262.9c0-41.8-0.2-83.5-0.2-125.3
			c0-0.5-0.2-0.9-0.4-1.2c-0.3-0.5-0.8-0.9-1.6-1C812,97,769.4,91.5,726.8,85.9c-55.5-7.3-111-14.6-166.6-21.8
			C500.1,56.3,440.1,48.5,380,40.7c-56.4-7.4-112.7-14.7-169.1-22c-43.8-5.7-87.5-11.3-131.3-17C75.5,1.1,71.3,0.6,67.2,0
			c-0.2,0-0.4,0-0.6,0.1c-0.1,0-0.2,0-0.3,0c-6,1.6-11.9,3.2-17.9,4.8c0,0-0.1,0-0.1,0c-0.5,0-1.1,0.3-1.3,0.9
			c-9.3,23.6-11.6,53-3.2,77.3c0,0,0,0.1,0,0.1c-0.6,66.9-0.2,133.8,0.6,200.6c0.8,68.5,1.7,137.1,2.2,205.6
			c0.3,37.3,0.5,74.6,0.1,111.8c0,0.2,0,0.4,0.1,0.6c0,0.6,0.2,1.1,1,1.2c41.9,7.3,83.7,14.9,125.6,22.4
			c55.4,9.9,110.8,19.9,166.2,29.9c60.3,10.8,120.5,21.7,180.8,32.5c56.5,10.2,113,20.3,169.5,30.4c44,7.8,88.1,15.6,132.1,23.3
			c4.2,0.7,8.4,1.5,12.6,2.2c0.2,0,0.4,0,0.6,0c0.5,0.3,1.2,0.3,1.8-0.1c6.3-3.9,13.6-6.9,19.4-11.5c0.4-0.3,0.5-0.9,0.3-1.3
			C856.7,730.9,856.8,730.6,856.8,730.4z M710,718.2c-55.4-9.8-110.8-19.8-166.2-29.7c-60.3-10.8-120.6-21.6-180.9-32.4
			c-56.5-10.1-113-20.2-169.5-30.2c-44.1-7.8-88.1-15.5-132.3-23c-3.4-0.6-6.9-1.2-10.3-1.7c0-66.8-0.4-133.5-1.2-200.3
			c-0.9-68.5-1.9-137.1-2.5-205.6c-0.3-37.3-0.6-74.6-0.6-111.8c0-0.4-0.2-0.8-0.4-1c-4.9-25.4-5.9-50.5,3.4-75.1
			C55.1,5.7,60.7,4,66.3,2.4c0.1,0.1,0.3,0.2,0.5,0.2C108.4,8.3,150,14,191.6,19.5c55.3,7.3,110.5,14.6,165.8,21.9
			c60.3,7.9,120.5,15.8,180.8,23.7c56.5,7.4,113.1,14.8,169.6,22.3c44.7,5.9,89.4,11.7,134.1,17.7c3.7,0.5,7.3,1,11,1.5
			c-0.8,78.5-1,157.1-1.1,235.6c-0.1,87.6-0.1,175.3-0.2,262.9c-0.1,41.8-0.1,83.5-0.5,125.3c0,0.5,0.1,1,0.3,1.4
			c-5.4,2.5-10.7,5.6-15.9,8.3C793.6,732.9,751.8,725.6,710,718.2z"/>
	</g>
</g>
</svg>
