<svg xmlns="http://www.w3.org/2000/svg" width="1096.5" height="869"><defs><style>.a{fill:#f5df9f}.b,.r,.z{fill:#fff}.c{fill:#c5d6d5}.d{fill:#b1b6c7}.e{fill:#3b59b2}.f,.u{fill:#6f7380}.g{fill:#979cad}.h,.y{fill:#4e5159}.i{fill:#ebf2ef}.j{fill:#7997f2}.k{fill:#dfe4f2}.l{fill:#dae5e1}.m{fill:#a6bdbb}.n{fill:#557cf2}.o{fill:#fae9d2;opacity:.4}.r,.u{opacity:.7}.w{fill:none;stroke:#979cad;stroke-miterlimit:10;stroke-width:.857px}.x{fill:#31343b}.y,.z{opacity:.3}.aa{fill:#2a3f80}</style></defs><g transform="translate(23.88 -4457)"><path class="a" d="M168.72 4719.74c30.18 19.89 112.3 112.25 12.27 230.25s-146.7 324.87 43 242 149-591 149-591 22.61-132.33 116-57c73 37 71.56 104.2 7 175.75-61.06 63.17-137 428.25 120 481.25 1.31.35-555 77-555 77s12.16-44.84-24-230-35-374 131.73-328.25z"/><path class="b" d="M160.72 4757.74c30.18 19.89 72.7 89.33 0 177.48s-148.4 348.34 41.3 265.47 216.1-567.94 216.1-567.94-21.9-149.26 71.5-73.93c49.6 37.59 49.4 81.74 0 146.77s-148.2 423.38 98.8 485.2c138.01 31.5 205.35-29.94 258.43 43.14s65.1 73.8 225.77 78.35c-115.82 0-1096.5 13.72-1096.5 13.72s99.22-91.02 63.06-276.17 18.84-345.4 121.54-292.1z"/><circle class="a" cx="11.5" cy="11.5" r="11.5" transform="translate(482 4531)"/><circle class="b" cx="35.5" cy="35.5" r="35.5" transform="translate(71 4725)"/><path class="c" d="M484.3 4586.57a29.46 29.46 0 00-8.24-.81v-.09c.23-1.52-.1-2.9-1.6-3.24.87-.01.93-2.1.36-2.78s-2.09-.77-2.97-.83a9.36 9.36 0 00-.56-.02v-.16l-.27-1.11.59-.15c2.87-2.08 4.04.24 6.74-2.81l-.1-.1 2.18-2-.47 3.46c2.2-1.8 5.49-1.53 8.07-.25l.54.28c2.51 1.43 4.46 3.63 6.64 5.54l.37.32c2.33 1.97 5.25 3.63 8.28 3.24l-5.1 1.58c13.41 6.12 21.35 22.27 18 36.6a33.31 33.31 0 01-32.37 24.88l-.11-.07a12.5 12.5 0 001.72-7.4l-.5.03-.86.07-.02-.2a13.14 13.14 0 006.19-12.15h-.78c-5.16-1.52-7.63-7.63-7.36-13s2.5-10.41 3.52-15.69c.86-4.45.65-9.54-1.88-13.14z"/><path class="c" d="M482.77 4650.83l-.36-.38a11.81 11.81 0 001.86-2.4l.1.06a32.47 32.47 0 0020.79-7.16l.94.14c-6.3 7.33-15.78 11.38-25.5 13.2l-.25-1.38a20.29 20.29 0 002.42-2.08z"/><path class="d" d="M500 4560.39a39.73 39.73 0 01-4.8 21.1c-2.17-1.9-4.12-4.1-6.63-5.53l-.55-.29 1.61-.19c6.82-12.24 6.26-27.88-.28-39.87a39.73 39.73 0 0110.65 24.78z"/><path class="e" d="M494.17 4496.35l-.16.41q-9.02 11.45-18.05 22.88l-.14.01a54.93 54.93 0 00-1.57-9.32c-1.44-5.33-4.1-10.5-8.4-14a17.24 17.24 0 00-12.08-3.93l-.52.05-.56.23c-4.54-5.48-12.45-8.23-19.35-6.2a19.5 19.5 0 00-3.14 1.24l-.6-1.2q23.5-11.56 47.29-22.52 7.37-2.87 14.76-5.56c.7 11.23 1.83 26.92 2.52 37.91z"/><path class="f" d="M457.9 4632.79a12.46 12.46 0 01-8.46-8.23 14.72 14.72 0 01.78-10.39l-.29-.13a9.68 9.68 0 01-1.9-7.65 17.83 17.83 0 013.21-7.39l.05-.06a29 29 0 014.28-4.85 31.19 31.19 0 015.39-3.93 32.6 32.6 0 0115.1-4.4 29.46 29.46 0 018.23.82h.02c2.54 3.6 2.74 8.68 1.87 13.13-1.02 5.28-3.25 10.33-3.52 15.7s2.2 11.47 7.36 13l.78-.01a13.14 13.14 0 01-6.19 12.15l.02.2c-6.58.49-14.76.87-21.36 1.37l-.34.03-.05-.71a13.03 13.03 0 01-5-8.56z"/><path class="d" d="M431.1 4542.96a32.4 32.4 0 0023.65 2.94 30.79 30.79 0 0015.48-7.42c3.86-3.48 6.91-8.61 5.98-13.68l-.16-2.4 1.01-.08a35.73 35.73 0 0112.29 13.3c6.54 11.99 7.1 27.63.28 39.87l-1.6.2c-2.59-1.28-5.87-1.55-8.07.25l.46-3.46-2.17 2 .1.1c-2.7 3.04-3.87.72-6.75 2.8l-.59.16-.5-1.98a2.08 2.08 0 00-1.6-1.45 18.43 18.43 0 00-1.92-.23l.01-.22a4.55 4.55 0 00-3.36-1.46 15.46 15.46 0 00-4 .28 9.64 9.64 0 00-3.74 1.13 3.27 3.27 0 00-1.62 3.3l.22.33-.5.35a2.42 2.42 0 00-.92 2.36l.93 5.4-.84.15a68.34 68.34 0 01-12.22-2.64c-4-1.23-7.87-2.64-11.77-4l-.75-1.18.04-.36-.25.05-.16-.26.49-.15-4.77-1.58 4.82-4.88-4.29.52 4.95-2.59-10.63-1.8 3.2-.18a35.92 35.92 0 01-5.43-5.4l-.72-.23a24.45 24.45 0 00.41-11.28l.93-.15c3.91-2.71 7.65-5.34 11.57-8.04l.1.15a26.96 26.96 0 002.41 1.46zM486 4640.64a12.5 12.5 0 01-1.73 7.4 11.82 11.82 0 01-1.86 2.4l-.48.45a12.18 12.18 0 01-20.15-7.94l-.1-.51 1.59-.29v-.02c6.6-.5 14.78-.89 21.36-1.38l.87-.07z"/><path class="g" d="M482.4 4650.45l.37.38a20.29 20.29 0 01-2.42 2.09c-7.1 5.25-19.11 8.05-29.01 7.6a149.8 149.8 0 00-.88-16.33l1.54-.03 9.68-1.72.1.52a12.18 12.18 0 0020.15 7.94l.48-.45z"/><path class="d" d="M476.2 4524.8c.94 5.07-2.11 10.2-5.97 13.68a30.79 30.79 0 01-15.48 7.42 32.4 32.4 0 01-23.65-2.94 12.57 12.57 0 008.34-1.17 13.77 13.77 0 006.94-12.2 14.47 14.47 0 00-6.55-11.98 13.56 13.56 0 00-14.07-.2 10.47 10.47 0 00-1.52 1.18l-.24-.25a26.99 26.99 0 0114.83-22l.01-.2a9.46 9.46 0 014.3 1.39l-.07.11a6.6 6.6 0 001.14 5.57 9.82 9.82 0 006.77 3.5c2.95.34 6.18-.43 8.1-2.68a6.74 6.74 0 00-5.27-11.1l-.04-.53a17.24 17.24 0 0112.09 3.93c4.29 3.5 6.96 8.66 8.4 14a54.94 54.94 0 011.57 9.32c.08.92.16 1.83.22 2.75l.16 2.4z"/><path class="f" d="M474.45 4582.43c1.51.34 1.84 1.72 1.6 3.25v.08a32.6 32.6 0 00-15.1 4.4l-1.02-.98a4.21 4.21 0 01-1.7-4.62 6.4 6.4 0 013.35-3.88 13.18 13.18 0 014.9-1.58 40.87 40.87 0 014.8-.3c.2 0 .39 0 .57.02.88.06 2.4.16 2.96.83s.52 2.77-.36 2.78z"/><path class="d" d="M471.01 4577.53l.29 1.1-.01.17a40.87 40.87 0 00-4.82.3 13.18 13.18 0 00-4.89 1.58 6.4 6.4 0 00-3.34 3.89 4.21 4.21 0 001.7 4.62l1.02.97a31.18 31.18 0 00-5.38 3.93l-.1-.1-1.26-7.4-.21-1.25-.93-5.39a2.42 2.42 0 01.93-2.37c.16-.12.32-.24.49-.34a19.76 19.76 0 0112.49-3.37 18.43 18.43 0 011.92.24 2.08 2.08 0 011.6 1.44z"/><path class="h" d="M467 4573.66l-.01.21a19.76 19.76 0 00-12.5 3.37l-.22-.33a3.27 3.27 0 011.62-3.3 9.64 9.64 0 013.74-1.13 15.46 15.46 0 014-.28 4.55 4.55 0 013.37 1.46z"/><path class="i" d="M338.58 4806.1a35.24 35.24 0 01-14.02-6.14c-8.24-6.09-13.73-15.75-16.14-26a57.24 57.24 0 01-1.56-11.67l-.18-.14a15.15 15.15 0 003.3-11.65l.68-.1a52.87 52.87 0 0014.43-14.6c6.7-10.56 11.15-26.65 11.24-39.15q.02-4.06-.2-8.07l.72-.04c8.47-8.64 22.15-18.17 32.97-22.97l-.2-1.05 1.13-.22-5.34-.55a12.55 12.55 0 0111.62-1.76 19.9 19.9 0 00-6.98-6.04l10.92 4.38q1.93-1.19 3.86-2.22 2.19-1.2 4.35-2.22.79-.38 1.58-.73l.55 3.11a10.23 10.23 0 011.42-3.98c18.96-8.02 36.12-7.16 45.98-1.17a47.48 47.48 0 0114.57 14.4c7.65 11.42 12.07 26.5 12.39 41.5.4 18.5-4.11 36.28-13.87 51.4h-.01a82.1 82.1 0 01-5.66 7.76c-12.2 14.83-27.3 26.18-61.8 36.01l-.2-.37a94.6 94.6 0 01-29.35 4.15 98.62 98.62 0 01-16.25-1.58z"/><path class="c" d="M462.93 4642.15l.34-.03v.03l-1.59.28-9.68 1.72-1.54.03c-2.45-22.83-9.89-47.12-21.29-65.33 3.9 1.36 7.78 2.78 11.78 4a68.34 68.34 0 0012.21 2.64l.84-.15.21 1.26-1.16.2a8.15 8.15 0 00-2.09 11.9l.33.24-.05.06a17.82 17.82 0 00-3.22 7.39 9.68 9.68 0 001.91 7.64l.29.14a14.72 14.72 0 00-.78 10.39 12.46 12.46 0 008.46 8.22l-.02.1a13.03 13.03 0 005 8.56z"/><path class="d" d="M453.8 4492.92a6.74 6.74 0 015.28 11.11c-1.92 2.25-5.16 3.02-8.1 2.69a9.82 9.82 0 01-6.78-3.51 6.6 6.6 0 01-1.13-5.57l.07-.11a7.49 7.49 0 013.31 4.12l-.05.1a6.47 6.47 0 009.55-5.01l-.83-.1a16.52 16.52 0 00-2.44-3.96l.57-.22q.26-.04.51-.05z"/><path class="d" d="M455.13 4496.63l.82.1a6.47 6.47 0 01-9.55 5.02l.06-.1a7.49 7.49 0 00-3.32-4.12 9.14 9.14 0 00-5.34-1.4c-3.68.2-7.04 2.4-9.38 5.23a34.84 34.84 0 00-5.66 9.73c-2.39 6.36-3.72 12.91-5.1 19.56l.17.39a485.16 485.16 0 00-6.8 3.07l-1.01-.5c-1-3.54-1.7-6.5-3.6-9.26l.9-.2a66.16 66.16 0 0111.98-26.63c2.95-3.92 6.53-7.62 10.9-9.79a19.5 19.5 0 013.14-1.25c6.9-2.03 14.8.72 19.34 6.2a16.51 16.51 0 012.44 3.95z"/><path class="f" d="M455.49 4594l.08.1a29 29 0 00-4.28 4.85l-.33-.24a8.15 8.15 0 012.09-11.9l1.16-.2z"/><path class="c" d="M374.77 4608.24c-6.44 1.45-13.55-.43-19.88-2.63-6.61-2.3-13.55-4.96-20.5-4.45l.04.48a18.56 18.56 0 004.71 21.1c5.93 5.3 15.46 6.83 23.06 3.72 7.57-3.1 12.75-10.63 12.57-18.22zm-72.4 14.96a9.72 9.72 0 01-8.17 1.98 18.66 18.66 0 002.45-4.35 15.05 15.05 0 00.52-1.45 19.42 19.42 0 00.9-6.21c4.16-10.86 14.42-19.02 25.47-22.83 10.18 7 25.3 5.39 34.05-3.19l.79.03a26.2 26.2 0 001 3.58 20.5 20.5 0 0011 11.75c5.79 2.35 13.36.71 18.02-3.44s7.06-10.51 7.07-16.75-2.74-12.35-6.06-17.63c-.57-.9-1.18-1.78-1.82-2.64l.08-.1a7.81 7.81 0 013.43 4.13l.3-.1c2.88 4.05 10.04 7.27 14.72 5.58s8.13-6 9.54-10.75l.73.23a35.92 35.92 0 005.43 5.4l-3.2.18 10.63 1.8-4.95 2.59 4.29-.52-4.83 4.88q2.4.78 4.78 1.58l-.5.15c-.03-.07-.08-.13-.12-.2l.12.2-2.71.83 2.86-.57.22.38c-.01.27-.04.54-.07.82a60.05 60.05 0 01-6.93 22.17l.31.17c5.68 7.84 10.53 21.4 12.74 33.19l-.42.16a71.3 71.3 0 003.6 7.62 280.93 280.93 0 0011.14 18.44q1.02 1.6 2.08 3.22l2.54 3.91-.13.08a47.49 47.49 0 00-14.57-14.4c-9.86-5.99-27.02-6.85-45.98 1.17q-.98.41-1.97.87l-.56-3.17-1.02 3.9q-2.16 1.02-4.34 2.21-1.93 1.04-3.87 2.22-5.46-2.2-10.92-4.37a19.9 19.9 0 016.99 6.04 12.55 12.55 0 00-11.62 1.76l5.33.55-1.13.22.2 1.05c-10.81 4.8-24.5 14.33-32.97 22.97l-.71.04c-.96-17.34-5.59-33.92-15.58-49.53l.12-.54a24.21 24.21 0 01-15.84-12.46l-2.11 3.79-.36-6.64zM432.34 4822.2l.2.12c-3.48 5.64-1.64 13.68-4.42 19.97-8.15 18.46-39.97 33.13-68.25 5.3-5.62-5.53-8.9-14.46-9.92-23.03l-.62-.17a114.7 114.7 0 015.43-15.94l.02-.47a94.6 94.6 0 0029.35-4.15l.19.37c34.5-9.83 49.6-21.18 61.81-36.01a82.13 82.13 0 005.66-7.75l.26.17c-.79 22.52-6.86 41.61-19.7 61.59z"/><path class="j" d="M429.06 4578.81a.94.94 0 01.11.04c11.4 18.2 18.84 42.5 21.29 65.33a149.81 149.81 0 01.88 16.33c-.87-.04-1.73-.1-2.56-.2-3.87-6-7.44-11.68-11.13-18.44a71.26 71.26 0 01-3.6-7.62l.42-.16c-2.22-11.79-7.07-25.35-12.74-33.2l-.32-.16a60.05 60.05 0 006.93-22.17l.72.25z"/><path class="d" d="M430.34 4525.44c-2.83 1.3-5.87 2.65-8.92 4a10.5 10.5 0 014.34-12.03 13.56 13.56 0 0114.07.2 14.47 14.47 0 016.55 11.99 13.77 13.77 0 01-6.94 12.19 12.57 12.57 0 01-8.34 1.17 26.9 26.9 0 01-2.42-1.47l-.1-.15c1.64-1.13 3.3-2.28 5.03-3.45l.04-.17a7.33 7.33 0 001.65-10.6c-1.16-1.48-3.27-2.5-4.96-1.65z"/><path class="j" d="M476.89 4464q-23.78 10.97-47.29 22.52-27.27 13.4-54.16 27.6l.18.7a39.32 39.32 0 00-10.58 5.29l.08.89a42.52 42.52 0 00-8.27 1.64v-.01A825.33 825.33 0 01476.89 4464z"/><path class="e" d="M438.84 4496.14v.2a26.99 26.99 0 00-14.84 22l.24.25a10.55 10.55 0 00-2.82 10.84l-3.59 1.6-.17-.37c1.38-6.66 2.71-13.2 5.1-19.57a34.84 34.84 0 015.66-9.73c2.35-2.84 5.7-5.03 9.39-5.22a9.52 9.52 0 011.03 0z"/><path class="g" d="M435.3 4527.12a7.33 7.33 0 01-1.65 10.6l-.04.16-5.03 3.45c-3.92 2.7-7.66 5.34-11.57 8.04l-.93.16a30.98 30.98 0 00-.78-3.41 28.48 28.48 0 00-6.58-11.73l1.3-.79 1.01.5c2.17-1 4.46-2.03 6.8-3.07l3.6-1.6c3.05-1.35 6.09-2.7 8.91-4l.01.02c1.68-.84 3.79.18 4.96 1.67z"/><path class="e" d="M429.6 4486.52l.6 1.2c-4.36 2.17-7.94 5.87-10.9 9.8a66.16 66.16 0 00-11.97 26.63l-.9.19a16.37 16.37 0 00-1.52-1.88 29.08 29.08 0 00-26.64-8.34q-1.34.28-2.64.69l-.19-.7q26.87-14.18 54.16-27.59z"/><path class="j" d="M298.07 4613.17a19.42 19.42 0 01-.9 6.21l-.66-.2c-.95-22.7 4.26-36.65 14.4-50.78a26.14 26.14 0 014.94-17c6.74-9.18 18.52-12.85 29.49-15.98l38.99-11.1 4.81-1.37c7.72 2.49 14.63 6.07 19.58 11.44a28.48 28.48 0 016.58 11.73 30.98 30.98 0 01.78 3.41 24.45 24.45 0 01-.41 11.28c-1.42 4.76-4.87 9.06-9.55 10.75s-11.84-1.53-14.73-5.58l-.28.1a7.81 7.81 0 00-3.44-4.14 11.46 11.46 0 00-9.41-1c-4.9 1.68-8.4 6.02-10.95 10.5s-4.5 9.38-7.69 13.45a23.79 23.79 0 01-2.03 2.26c-8.76 8.58-23.86 10.18-34.05 3.2-11.05 3.8-21.3 11.96-25.47 22.82zm111.76-55.03c2.06-3.94 1.77-9.14-.1-13.59a30.34 30.34 0 00-9.22-11.6 32.35 32.35 0 00-19.05.8c-3.46 1.28-6.96 3.6-7.54 7.5-.53 3.49 1.48 7.1 3.67 10.07a40.13 40.13 0 009.21 9.27 23.42 23.42 0 006.54 3.24c6.29 1.9 13.55 0 16.5-5.69zm-48.1 1.63c.65-4.5.67-9.58-2.32-13.03-3.31-3.83-9.1-4.26-14.13-3.57a46.9 46.9 0 00-23.55 10.45c-2.56 5.61-4.13 11.86-3.36 17.98.76 5.9 3.9 11.66 9.02 14.7 7.38 4.37 17.42 2.1 23.73-3.7a28.9 28.9 0 005.72-7.37 45.16 45.16 0 004.9-15.47z"/><path class="c" d="M410.02 4533.6l-1.3.8c-4.96-5.38-11.86-8.96-19.58-11.45l-4.82 1.37-.23-.8a41.62 41.62 0 00-18.97-2.53l-.08-.89a39.33 39.33 0 0110.58-5.29q1.3-.4 2.65-.69a29.08 29.08 0 0126.63 8.34 16.35 16.35 0 011.52 1.88c1.9 2.76 2.6 5.73 3.6 9.27zM400.54 4551.46a5.3 5.3 0 00-5.02-1.31 6.24 6.24 0 00-4.22 5.13 8.3 8.3 0 002.15 6.6 5.43 5.43 0 003.59 1.94c2.46.11 4.41-2.34 4.77-4.85s-.5-5.04-1.33-7.46zm9.2-6.91c1.85 4.45 2.14 9.64.1 13.59-2.95 5.69-10.2 7.59-16.5 5.68a23.42 23.42 0 01-6.54-3.23 40.13 40.13 0 01-9.2-9.28c-2.2-2.97-4.2-6.58-3.68-10.07.58-3.88 4.08-6.22 7.54-7.49a32.35 32.35 0 0119.05-.81 30.34 30.34 0 019.23 11.6z"/><path class="b" d="M400.48 4551.52c.83 2.41 1.67 4.94 1.33 7.46s-2.3 4.95-4.77 4.84a5.43 5.43 0 01-3.58-1.94 8.3 8.3 0 01-2.16-6.6 6.24 6.24 0 014.22-5.13 5.3 5.3 0 015.02 1.31z"/><path class="f" d="M389.4 4564.69c3.33 5.28 6.1 11.4 6.07 17.63s-2.4 12.6-7.07 16.75-12.23 5.8-18.03 3.45a20.5 20.5 0 01-10.99-11.76 26.17 26.17 0 01-1-3.58l-.79-.03a23.78 23.78 0 002.03-2.26c3.2-4.07 5.13-8.95 7.69-13.44s6.05-8.82 10.94-10.5a11.46 11.46 0 019.42 1l-.07.11c.64.85 1.24 1.73 1.8 2.63z"/><path class="c" d="M392.73 4654.3a10.22 10.22 0 00-1.42 3.97l-.55-3.11q.98-.46 1.97-.87zM390.2 4651.99l.56 3.17q-.8.35-1.59.73l1.03-3.9zM350.07 4522.3l-.2 1.57a2.25 2.25 0 00.2-1.56zm-59.1 83.7c-.9-3.36-.42-7.19.12-10.72.72-4.75 1.3-10.04-1.5-13.95a9.67 9.67 0 00-.97-1.14 4.26 4.26 0 00-2.62-.63 7.86 7.86 0 00-3.7 1.5 16 16 0 00-2.5 24.32 8.75 8.75 0 004.85 2.82c1.88.27 5.38-.46 6.2-2.18zm2.19-46.84l-.2-.6a43.34 43.34 0 011.58-4.25c.27-.63.56-1.25.86-1.87a44.22 44.22 0 019.54-12.99l-.19-.2-14.45 3.64c2.86-.83 5.24-2.78 7.48-4.74s4.5-4 7.3-5.05c2.62-.99 5.86-1.34 7.98.39l.02-.03c-4.45-3.98-6.34-10.74-6.27-16.7 5.92 7 17.15 8.8 24.97 3.98a6.89 6.89 0 01-3.1-4.55l16.3 2.82a8.5 8.5 0 013.8 1.3 3.43 3.43 0 011.29 1.98l.51-3.83a6.04 6.04 0 01.68 6.31 41.04 41.04 0 015.6-2.14 42.53 42.53 0 018.27-1.64 41.62 41.62 0 0118.97 2.52l.23.81-38.99 11.1c-10.96 3.13-22.75 6.8-29.5 15.97a26.14 26.14 0 00-4.93 17.01c-10.13 14.13-15.35 28.07-14.4 50.77l.66.2a15.06 15.06 0 01-.52 1.45l-.5-.2a24.87 24.87 0 01-11.67 3.9 23.58 23.58 0 01-5.44-.06 21.37 21.37 0 01-13.65-7.79l.48 5.55a15.94 15.94 0 01-5.82-11.69l-2.4 5.84a39.86 39.86 0 01-2.27-14.81 42.04 42.04 0 0112.86-29.08c6.94-6.5 15.78-10.33 24.92-13.32z"/><path class="b" d="M374.77 4608.24c.18 7.6-5 15.11-12.56 18.22-7.6 3.1-17.14 1.57-23.06-3.72a18.56 18.56 0 01-4.72-21.1l-.04-.49c6.95-.5 13.89 2.16 20.5 4.46 6.33 2.2 13.44 4.08 19.88 2.63z"/><path class="c" d="M342.62 4582.7a5.73 5.73 0 005.64-2.52 7.32 7.32 0 00.61-6.41l.4-.1a6.78 6.78 0 00-4.16-5.26 3.56 3.56 0 00-.34-.1 5.66 5.66 0 00-5.69 1.82 8.04 8.04 0 00-1.83 5.2 8.28 8.28 0 002.32 5.77 6.03 6.03 0 001.72 1.2 4.76 4.76 0 001.33.4zm16.8-35.97c2.98 3.45 2.96 8.53 2.31 13.03a45.16 45.16 0 01-4.89 15.47 28.91 28.91 0 01-5.73 7.37c-6.3 5.8-16.35 8.07-23.72 3.7-5.13-3.04-8.27-8.8-9.02-14.7-.77-6.12.8-12.37 3.35-17.98a46.9 46.9 0 0123.57-10.46c5.02-.69 10.82-.26 14.13 3.57zM255.22 4839.56l-.31 9.84a22.4 22.4 0 011.55-19.53l-4.2 3.63c5.46-14.99 11.12-35.78 12.89-51.83l-.7-.07a59.85 59.85 0 01-10.65-15.43l.33-1.13c.41.21.83.42 1.26.6a291.13 291.13 0 0039.65 1.65 15.55 15.55 0 001.6-.05h.08a14.94 14.94 0 008.74-3.8 12.8 12.8 0 001.22-1.3l.18.14a57.24 57.24 0 001.56 11.68c2.41 10.25 7.9 19.91 16.14 26a35.24 35.24 0 0014.02 6.14l-.05.29a98.62 98.62 0 0016.24 1.58v.47a114.69 114.69 0 00-5.44 15.95c-4.51 16.38-7.6 34.3-17.1 46.12l.64-6.48c-8.85 14.7-28.03 22.25-44.6 17.88l-.21.84a43.8 43.8 0 01-32.84-43.19z"/><path class="b" d="M348.87 4573.77a7.32 7.32 0 01-.6 6.41 5.73 5.73 0 01-5.66 2.52 12.65 12.65 0 00-3.04-1.6 8.28 8.28 0 01-2.32-5.76 8.04 8.04 0 011.83-5.21 5.66 5.66 0 015.69-1.83 3.6 3.6 0 01.34.11 6.78 6.78 0 014.15 5.27z"/><path class="j" d="M286.93 4629.78l-.42.66a113.72 113.72 0 00-9.65 6.42l-.17-.23a11.09 11.09 0 016.22-11.18 11.06 11.06 0 011.6-.64l-.03-.28a24.87 24.87 0 0011.67-3.9l.5.2a18.66 18.66 0 01-2.45 4.35 9.72 9.72 0 008.16-1.98c.12 2.22.25 4.43.36 6.65l2.11-3.8a24.21 24.21 0 0015.85 12.47l-.13.54c10 15.6 14.62 32.18 15.58 49.52q.23 4.01.2 8.08c-.1 12.49-4.54 28.58-11.24 39.14a52.87 52.87 0 01-14.43 14.6l-.68.1a13.7 13.7 0 00-.39-1.83l-1.95.33-.04-.24-.7-3.24-1.55-.03a21.46 21.46 0 005.66-4.4c4-4.4 5.78-11.05 3.43-16.5l-1.65-.03a25.4 25.4 0 005.56-8.67c1.4-3.71 1.72-8.4-1.1-11.18a7.84 7.84 0 00-3.59-1.94l.18-.67a16.24 16.24 0 00-.33-12.39 15.53 15.53 0 00-2.4-3.71l.95-.37a94.74 94.74 0 00-3.7-24.63c-3.83-12.73-10.42-24.13-21.43-31.21z"/><path class="f" d="M269.88 4688.98a29.66 29.66 0 015.26-4.82 29.18 29.18 0 016.48-3.51q1.17-.46 2.37-.8a29.41 29.41 0 0116.67.19 25.85 25.85 0 012.6.94 16.37 16.37 0 017.85 5.02 15.53 15.53 0 012.4 3.71 16.24 16.24 0 01.32 12.39l-.17.67a7.84 7.84 0 013.58 1.94c2.83 2.78 2.51 7.47 1.1 11.18a25.39 25.39 0 01-5.55 8.67l1.65.02c2.34 5.46.56 12.1-3.43 16.51a21.46 21.46 0 01-5.66 4.4 30.63 30.63 0 01-10.06 3.28c-5.48.85-11.06.51-16.58.1l-1.23-.1-1.35-.44a31.62 31.62 0 00.83-16.16 7.94 7.94 0 011.76 2.1 30.92 30.92 0 011.12 3.67 8.07 8.07 0 00-1.12-3.68c-1.68-4.52-4.31-8.7-6.83-12.85-3.19-5.25-6.33-10.74-7.19-16.82-.71-5.04.47-10.6 3.81-14.3a12.8 12.8 0 011.38-1.3z"/><path class="c" d="M242.92 4749.73a45.16 45.16 0 01-9.4-11.08l-.77.47a17.12 17.12 0 01-4.13-5.33 18.28 18.28 0 01-.66-15.18 9.6 9.6 0 00-3.83 7.29 12.7 12.7 0 013.02-14.8l-5.38 2.2a81.47 81.47 0 0011.99-17.12c2.58-4.7 4.92-9.57 7.33-14.4a191.78 191.78 0 017.67-14.25 109.05 109.05 0 0128.1-30.67 113.73 113.73 0 019.66-6.42l.41-.66c11.02 7.1 17.6 18.5 21.44 31.22a94.74 94.74 0 013.7 24.63l-.95.37a16.37 16.37 0 00-7.84-5.02 25.88 25.88 0 00-2.61-.94l.05-.18c.77-2.53-.61-6.1-3.09-7.04a2.98 2.98 0 002.3-3.98 3.29 3.29 0 00-1.32-1.45l.13-.19c.92-1.87-.24-5.44-2.15-6.31a7.12 7.12 0 00-2.34-.6 2.56 2.56 0 00-1.47-2.03 5.92 5.92 0 00-2.84-.46 42.9 42.9 0 00-8.03 1.25 7.93 7.93 0 00-3.98 1.7 2.82 2.82 0 00-.4 3.66 9.74 9.74 0 00-2.3 2.82c-1.32 2.5-1.36 5.47-1.06 8.27s.93 5.6.8 8.42l.18.24a29.66 29.66 0 00-5.25 4.82 12.79 12.79 0 00-1.38 1.31c-3.34 3.7-4.52 9.26-3.8 14.3.85 6.08 4 11.57 7.18 16.82 2.52 4.15 5.15 8.33 6.83 12.85a7.95 7.95 0 00-1.76-2.09 31.62 31.62 0 01-.83 16.16l1.35.45 1.23.09v.07a17.19 17.19 0 0010.6 2.84l.05.27-9.8 1.63-36.42-2.47c-.11-.47-.2-.95-.26-1.43z"/><path class="d" d="M309.98 4750.5a15.15 15.15 0 01-3.3 11.65 12.78 12.78 0 01-1.22 1.29 14.94 14.94 0 01-8.74 3.8h-.09l-1.6.06a14.26 14.26 0 01-5.23-1.09 15.01 15.01 0 01-8.97-12.44c-.43-.03-.85-.05-1.27-.09l9.8-1.63 18.27-3.05 1.95-.32a13.7 13.7 0 01.4 1.82z"/><path class="k" d="M307.6 4748.76l.04.24-18.27 3.05-.05-.27a17.19 17.19 0 01-10.61-2.84v-.07c5.53.41 11.1.75 16.58-.1a30.63 30.63 0 0010.06-3.28l1.56.03.69 3.24z"/><path class="f" d="M297.62 4672.82c2.48.94 3.86 4.52 3.1 7.04l-.06.18a29.41 29.41 0 00-16.67-.19q-1.2.34-2.37.8l-.07-.16a26.82 26.82 0 01-.94-6.55 7.3 7.3 0 012.32-5.3c1.8-1.52 4.36-1.7 6.71-1.8l4.24-.2a11.37 11.37 0 013.41.19 4.54 4.54 0 011.31.56 3.29 3.29 0 011.32 1.45 2.98 2.98 0 01-2.3 3.98z"/><path class="d" d="M277.51 4664.41a13.9 13.9 0 014.35-2.46 35.36 35.36 0 018.52-1.55 19.51 19.51 0 013.86-.12 7.12 7.12 0 012.34.6c1.9.88 3.07 4.44 2.14 6.32l-.12.19a4.54 4.54 0 00-1.31-.57 11.37 11.37 0 00-3.42-.18l-4.23.2c-2.35.1-4.9.28-6.71 1.8a7.3 7.3 0 00-2.32 5.3 26.82 26.82 0 00.94 6.54l.07.17a29.18 29.18 0 00-6.48 3.5l-.18-.24c.12-2.81-.5-5.6-.8-8.41s-.26-5.78 1.06-8.27a9.74 9.74 0 012.29-2.82z"/><path class="j" d="M295.07 4552.28l.33.16c-.3.62-.6 1.24-.86 1.87a1231.86 1231.86 0 00-179.37 90.35l-.04-.08c-2.04-.96-3.01-.93-5.05-1.9v-.54a1036.19 1036.19 0 01184.99-89.86z"/><path class="h" d="M294.24 4660.28a19.5 19.5 0 00-3.86.12 35.35 35.35 0 00-8.52 1.54 13.9 13.9 0 00-4.35 2.47 2.82 2.82 0 01.4-3.66 7.92 7.92 0 014-1.7 42.89 42.89 0 018.02-1.25 5.92 5.92 0 012.84.45 2.56 2.56 0 011.47 2.03z"/><path class="e" d="M201.15 4647.8l.08.13a6.03 6.03 0 00-1.7 1.47 11.2 11.2 0 00-2.02 7.76l.1.23-20.77 9.53c-5.25-5.87-9.4-12.68-14.8-18.42a31.71 31.71 0 00-9.84-7.47 16.94 16.94 0 00-12.1-1c-5.85 1.93-9.75 7.7-11.14 13.67a38.82 38.82 0 00-.7 11.26l-.35.03a55.4 55.4 0 00-9.5 6.9l-.52-.53a130.08 130.08 0 01-2.84-26.28l-.16-.25.28-.17a1231.86 1231.86 0 01179.37-90.35 43.34 43.34 0 00-1.58 4.26l.2.59c-9.15 3-17.99 6.82-24.93 13.32a42.04 42.04 0 00-12.86 29.09l-1.14-.05a75.6 75.6 0 00-2 7.9 60.58 60.58 0 00-17.34 17.95l-.32-.2-33.42 20.62z"/><path class="i" d="M289.59 4581.33c2.8 3.9 2.22 9.2 1.5 13.95-.54 3.53-1.03 7.36-.12 10.71l-.12.03c-.83 1.72-4.32 2.45-6.2 2.18a8.75 8.75 0 01-4.85-2.82 16 16 0 012.5-24.31 7.86 7.86 0 013.7-1.5 4.26 4.26 0 012.62.62 9.67 9.67 0 01.97 1.14z"/><path class="d" d="M252.41 4764.06a22.31 22.31 0 01-5.75-5.21 18.76 18.76 0 01-3.53-7.64l36.43 2.47 1.27.09a15.01 15.01 0 008.97 12.44 14.26 14.26 0 005.24 1.08 291.14 291.14 0 01-39.65-1.64l-1.26-.6c-.59-.31-1.16-.64-1.72-1z"/><path class="f" d="M252.22 4609.41a75.6 75.6 0 012.02-7.9l1.14.05a39.86 39.86 0 002.27 14.81l2.4-5.83a15.94 15.94 0 005.82 11.68l-.48-5.55a21.37 21.37 0 0013.66 7.8 23.57 23.57 0 005.43.06l.03.28a11.06 11.06 0 00-1.6.64 11.09 11.09 0 00-6.22 11.18l.17.23a108.44 108.44 0 00-13.77 12.11l-.5-.47a28.65 28.65 0 01-11.15-13.37 77.38 77.38 0 01-.48-16.55 74.85 74.85 0 011.26-9.17z"/><path class="f" d="M262.59 4648.5l.5.47a108.79 108.79 0 00-14.33 18.55l-.08-.04a37.9 37.9 0 01-1.23-43.04l-1.02-.64a51.95 51.95 0 014.2-5.25l.33.02a77.37 77.37 0 00.48 16.56 28.65 28.65 0 0011.15 13.37zM243.13 4751.2a18.76 18.76 0 003.53 7.65 22.3 22.3 0 005.75 5.2c-7.4-2.55-14.58-6.27-19.42-12.36-3.94-4.96-5.89-11.8-4.6-17.84l.23-.07a17.12 17.12 0 004.13 5.34l.77-.47a45.16 45.16 0 009.4 11.08l-.04.05c.06.48.15.95.25 1.43z"/><path class="d" d="M252.22 4609.41a74.85 74.85 0 00-1.26 9.17l-.33-.03a51.93 51.93 0 00-4.2 5.26 60.13 60.13 0 00-9.58 23.14l-.16-.03c-2.06 4.29-4.22 10.7-5.86 15.18-2.88 7.92-6.98 15.73-13.64 20.91-9.4 7.31-22.42 6.9-33 1.44q-1.97-1.01-3.8-2.2l9.13-5.7.32.52a20.38 20.38 0 0010.6 1.47c5.98-.6 11.12-4.02 15.12-8.61a39.15 39.15 0 005.73-8.79c4.1-8.52 5.9-17.97 9.77-26.6a58.4 58.4 0 013.84-7.17 60.58 60.58 0 0117.32-17.96z"/><path class="f" d="M248.76 4667.53l-.82 1.35c-2.48 4.17-4.7 8.52-6.86 12.9l-.9-.04a60.5 60.5 0 01-3.96-31q.26-1.9.63-3.79a60.13 60.13 0 019.58-23.14l1.02.63a37.9 37.9 0 001.23 43.04z"/><path class="e" d="M240.19 4681.74l.9.03c-2.4 4.84-4.76 9.71-7.34 14.41l-62.38-2.85-1-.23a22.86 22.86 0 00.66-5.09h.05l9.29-5.76q1.84 1.19 3.8 2.2c10.58 5.47 23.61 5.88 33-1.44 6.67-5.18 10.76-12.99 13.65-20.9 1.63-4.48 3.8-10.9 5.86-15.19l.16.03q-.37 1.88-.63 3.79a60.5 60.5 0 003.98 31z"/><path class="f" d="M234.57 4627.16l.32.2a58.42 58.42 0 00-3.84 7.18c-3.88 8.63-5.67 18.08-9.77 26.6a39.15 39.15 0 01-5.73 8.78l-.4-.33a9 9 0 001.93-4.6c.63-4.7-2.77-11.96-6.49-15.21s-8.49-3.41-11.05-.38a6.03 6.03 0 011.7-1.48l-.1-.13q16.73-10.31 33.43-20.63z"/><path class="f" d="M207.63 4665.27v-.02a7.07 7.07 0 002.27-2.04 6.17 6.17 0 00-.18-6.64 5.62 5.62 0 00-5.37-2.35l.01.07-6.74 3.1-.1-.23a11.2 11.2 0 012.02-7.76c2.57-3.03 7.33-2.86 11.06.39s7.12 10.5 6.49 15.21a9 9 0 01-1.93 4.6 6.42 6.42 0 01-6.31 2.28c-1.52-.3-4.35-2.12-5.75-3.3l-.23-.35 4.76-2.96z"/><path class="e" d="M215.16 4669.6l.4.33c-4 4.6-9.15 8.01-15.13 8.61a20.38 20.38 0 01-10.6-1.47l-.32-.52c4.44-2.77 8.87-5.54 13.36-8.32l.22.36c1.41 1.17 4.23 2.99 5.75 3.29a6.43 6.43 0 006.32-2.29z"/><path class="d" d="M176.84 4666.92l20.78-9.53 6.74-3.1-.01-.07a5.62 5.62 0 015.37 2.35 6.17 6.17 0 01.18 6.64 7.07 7.07 0 01-2.28 2.04l.01.02-4.76 2.96a9328.02 9328.02 0 00-22.5 14.02l-9.28 5.76h-.05a15.56 15.56 0 00-.96-5.81l.11-.05a29.12 29.12 0 00-5.85-9.49l3.63-1.67 8.87-4.07zM175.57 4711.67c14.2 12.42 17.96 34.62 10.11 51.76s-25.95 28.61-44.78 30.22c-13.14 1.12-26.76-2.32-37.32-10.18s-17.83-20.25-18.75-33.37a41.15 41.15 0 019.86-29.59l.9.38a44.93 44.93 0 00-3.68 19.24c.68 13.84 8.58 27.24 20.65 34.1 8.66 4.9 19.06 6.4 28.92 5a49.94 49.94 0 0031.76-17.76 43.68 43.68 0 008.98-34.92 37.3 37.3 0 00-6.78-14.79z"/><path class="d" d="M182.22 4726.55a43.68 43.68 0 01-8.98 34.91 49.94 49.94 0 01-31.77 17.75c-9.86 1.4-20.26-.09-28.91-5-12.08-6.85-19.97-20.25-20.66-34.09a44.93 44.93 0 013.68-19.24 38.08 38.08 0 018.16-12.31l.75-.14c1.8 9.33 8.1 17.9 16.93 21.43 9.96 3.98 21 3.67 30.26-1.72 5.46-3.18 11.19-10.05 12.87-16.12a30.12 30.12 0 00.95-9.29h.21l.3-.37.44.18a46.76 46.76 0 019 9.22 37.3 37.3 0 016.77 14.79zM128.79 4670.76a141.16 141.16 0 01-.53-5.8 38.82 38.82 0 01.7-11.26c1.4-5.97 5.3-11.74 11.14-13.66a16.94 16.94 0 0112.1 1 31.71 31.71 0 019.84 7.46c5.4 5.75 9.55 12.55 14.8 18.43l-8.88 4.07-.13-.3a80.85 80.85 0 01-8.64-11.15c-2.68-4.26-6.03-9.2-11.07-9.31-4.46-.1-8.12 3.96-9.11 8.3a18.47 18.47 0 00-.28 5.98c.1 1.17.3 2.34.52 3.5.25 1.23.54 2.46.83 3.67l-.4.73a8.4 8.4 0 01-7.84 2.5 4.92 4.92 0 01-2.63-1.35 2.76 2.76 0 01-.65-2.78z"/><path class="d" d="M170.08 4682.2a15.56 15.56 0 01.96 5.82 22.86 22.86 0 01-.67 5.08 24.57 24.57 0 01-4.37 9.27l-.29.36-.21.01a35.83 35.83 0 00-2-10.3c-3.02-8.41-5.6-14.36-12.01-20.6a31.02 31.02 0 00-3.8-3.08c4.9-2.5 11.14-.91 15.3 2.65a18.15 18.15 0 011.35 1.26 29.12 29.12 0 015.85 9.49z"/><path class="e" d="M167.97 4671l-3.63 1.66a18.16 18.16 0 00-1.34-1.26c-4.17-3.56-10.41-5.15-15.3-2.65a29.2 29.2 0 00-8.55-4.28l-.42.04a18.47 18.47 0 01.28-5.98c1-4.33 4.65-8.4 9.11-8.3 5.04.12 8.4 5.05 11.07 9.31a80.84 80.84 0 008.64 11.16z"/><path class="d" d="M147.7 4668.75a31.01 31.01 0 013.79 3.08c6.42 6.24 8.99 12.19 12.02 20.6a35.82 35.82 0 012 10.3 30.12 30.12 0 01-.95 9.29c-1.69 6.07-7.42 12.94-12.88 16.12-9.26 5.4-20.3 5.7-30.26 1.72-8.83-3.53-15.13-12.1-16.93-21.43-.1-.52-.2-1.04-.27-1.57-1.38-9.92 1.98-20.18 8.03-28.18.27-.37.54-.71.82-1.06a49.96 49.96 0 015.34-5.73 55.4 55.4 0 019.5-6.9l.35-.03c.05.78.1 1.56.18 2.34a7.61 7.61 0 00-4.12 6.74 9.07 9.07 0 003.76 7.16 11.3 11.3 0 007.98 1.96 10.63 10.63 0 006.38-3 7.91 7.91 0 002.24-6.55 7.2 7.2 0 00-5.3-5.62l-.12.02a36.07 36.07 0 01-.53-3.5l.42-.04a29.2 29.2 0 018.55 4.28z"/><path class="d" d="M144.67 4673.61a7.91 7.91 0 01-2.23 6.55 10.63 10.63 0 01-6.39 3 11.3 11.3 0 01-7.97-1.96 9.07 9.07 0 01-3.77-7.16 7.61 7.61 0 014.12-6.73c.1 1.15.23 2.3.35 3.45l-.22.02a2.76 2.76 0 00.65 2.78 4.92 4.92 0 002.63 1.37 8.4 8.4 0 007.84-2.51l.4-.73a97.51 97.51 0 01-.83-3.67l.12-.03a7.2 7.2 0 015.3 5.62z"/><path class="j" d="M114.9 4644.83l.15.25a130.08 130.08 0 002.84 26.28l.52.54a49.95 49.95 0 00-5.34 5.72l-.08-.07a169.44 169.44 0 01-2.91-34.87c2.04.97 3.02.94 5.05 1.9l.04.07-.27.18z"/><path class="l" d="M381.56 4523.92c-4.77-2.03-10.6-2.17-15.72-1.99a51.66 51.66 0 00-14.59 2.7l-.13.02a7.68 7.68 0 00-.55-.55.96.96 0 00.16-.22.98.98 0 00.12-.26 1.18 1.18 0 00-.52-1.26 12.4 12.4 0 00-4.89-1.64 1.02 1.02 0 00-.86.24c-.9-.35-1.8-.67-2.6-1.02a72.49 72.49 0 00-9.8-3.76 1.17 1.17 0 00-.9 2.12 75.71 75.71 0 0010 4.92c1.8.81 3.77 1.95 5.78 2.64a.81.81 0 00.87.9c2.55-.06 5.36.12 7.82-.65a.68.68 0 00.36-.28c3.23-.31 6.47-.53 9.73-.62 5.09-.15 10.21.68 15.27.38.8-.05 1.34-1.29.45-1.67zM405.65 4524.34c-4.7-5.25-11.37-8.2-18.33-9.19-6.26-.9-14.57-.22-19.7 3.85-.81.64.08 1.83.95 1.63 3.07-.74 5.93-1.97 9.1-2.42a36.23 36.23 0 0127.18 7.18c.64.46 1.28-.51.8-1.05zM308.76 4538.87a1.04 1.04 0 00-1.25-1.62c-6.24 3.87-12.6 11.84-12.03 19.61a1.16 1.16 0 00.1.42 54.41 54.41 0 00-27.97 16.7c-8.33 9.57-14.7 22.37-15.05 35.18a.67.67 0 001.31.18c2.73-12.34 7.3-23.64 16.47-32.63a67.12 67.12 0 0114.04-10.87c5.4-3.03 11.12-4.86 16.95-6.82 1.3-.44 1.2-2.65-.34-2.54-1 .07-1.98.19-2.98.34 1.33-3.03 2.2-6.22 3.84-9.15a39.06 39.06 0 016.91-8.8zM332.02 4520.68c-2.9 3-6.24 4.7-10.57 4.14-4.71-.6-9.08-3.66-13.02-6.14-1.36-.86-2.98 1.17-1.75 2.26 4.57 4.03 9.58 7.98 15.96 8.23 4.57.18 10.63-2.21 11.56-7.22a1.31 1.31 0 00-2.18-1.27zM314.58 4531.88c-5.52-2.92-12.8.99-15.63 5.92-.74 1.3 1.08 2.23 1.93 1.13a13.14 13.14 0 016.31-4.5c2.27-.73 4.52-.52 6.85-.6a1.06 1.06 0 00.54-1.95z"/><path class="e" d="M358.08 4585.8c.75-.83 1.48-1.7 2.14-2.6 1.08-1.46 1.9-3.09 2.85-4.62l-.06-.37c-1.02-7.02.5-14.6 2.52-21.57.39-1.32-1.52-1.82-2.05-.56-1.68 4.08-3.09 10.97-4.83 15.01-1.58 3.68-1.4 6.33-1.28 9.97a22.02 22.02 0 00.71 4.74z"/><path class="h" d="M393.79 4585.12a16.23 16.23 0 01-10.03 12.13c-5.2 1.9-10.5-.46-14.28-4.03-3.52-3.34-5.15-7.89-6.05-12.54a37.9 37.9 0 01-2.46 3.84c-.76 1-1.57 1.94-2.42 2.86a24.22 24.22 0 009.42 12.55c11.96 7.77 26.02-1.39 27.3-14.62.12-1.15-1.32-1.35-1.48-.19z"/><path class="e" d="M353.5 4589.8a12.3 12.3 0 003.5-2.78 12.75 12.75 0 01.98-8.26 1.29 1.29 0 00-2.22-1.3 15.18 15.18 0 00-2.25 12.16v.18z"/><path class="m" d="M378.5 4602.27c-5.3.3-11.15-1.18-15.12-4.84-2.38-2.2-3.62-5.4-5.56-7.92-.14-.32-.27-.66-.39-1a14.66 14.66 0 01-3.8 2.73c.8 4 5.11 7.58 8.2 9.52a21.86 21.86 0 0016.85 2.87.7.7 0 00-.19-1.36zM284.03 4578.58a9.09 9.09 0 00-3.36-2.55v-.02a.75.75 0 00-.75-.75l-.34.02a.78.78 0 00-.56.28 4.79 4.79 0 00-2.17.17 1.3 1.3 0 000 2.48 26.76 26.76 0 012.82 1.08c-2.15 1.4-3.51 3.83-2.33 6.47.46 1.03 1.92.6 2.23-.3.66-1.96 1.47-3.74 3.72-4.1 1.37-.21 1.43-1.93.74-2.78zM428.67 4617.82c-1.68-3.2-2.95-6.6-4.68-9.77a2.19 2.19 0 00-.36-.48l.55-1.08c1.13-2.33-2.25-4.38-3.52-2.05l-.37.69a1.8 1.8 0 00-1.4.5c-4.84 4.36-9.6 8.81-14.36 13.25-1.47 1.37.7 3.47 2.19 2.18l.43-.37a2.17 2.17 0 002.43.4 28.6 28.6 0 006.4-4.05 1.8 1.8 0 002.72-.18l2.34-2.97a47.76 47.76 0 003.13 6.55c1.57 2.8 3.51 6.36 6.64 7.58a1.45 1.45 0 001.83-1.38c-.17-3.15-2.53-6.1-3.97-8.82zM309.82 4685.69a9.73 9.73 0 011.8.14h.09c.16-.97.37-2.64.37-2.78a36.34 36.34 0 00-.37-5.03c-.94-7.18-1.64-14.42-4.45-21.16a2.57 2.57 0 01-.18-1.13 72.41 72.41 0 00-8.24-13.54 65.36 65.36 0 00-6.53-7.62 3.73 3.73 0 00.57-.14c-1.03-1.36-3.02-2.26-4.38-3.07a1.83 1.83 0 00-2.3-.06c-.57.34-1.1.74-1.65 1.1l-1.43.88a2.24 2.24 0 00.42.9c2.96 3.99 6.68 7.32 9.69 11.28a80 80 0 018.02 13.18c4.2 8.57 6.12 17.86 8.32 27.06l.25-.01z"/><path class="n" d="M322.12 4642.1a19.5 19.5 0 00-1.86-2.53c-1.54-1.51-3.8-1.99-5.62-3.07a24.08 24.08 0 01-3.51-2.62 25.52 25.52 0 01-4.61-2.75l.37-.9a2.25 2.25 0 00.1-.36l-.4-.46a8.38 8.38 0 00-1.11-1.3 1.93 1.93 0 00-2.5.13.28.28 0 01-.38-.1 5.05 5.05 0 01-.48-2.18c-.2-1.96-2.21-1.28-3.49-.82l-.58.18-.65.37c-.43.26-.86.56-1.3.8a.85.85 0 00-.65-.4l-1.31-.09.04-.2c.31-.17.62-.34.92-.53a1.42 1.42 0 01-.57-.68c-.39-.95.43-2.23-1.37-2.16a9.23 9.23 0 00-3.15 1.1 20.77 20.77 0 01-2.36.88l-.58.33-.82.49c-2.78-.16-5.92 1.82-7.36 3.86a.7.7 0 00-.13.49l-.97.57a1.93 1.93 0 00-.71 2.7 6.52 6.52 0 00-.51 1.15.76.76 0 00.38.98.91.91 0 001.53.84c.83-.85 1.64-1.7 2.41-2.6a1.94 1.94 0 001.8-.48l.46-.4a2.15 2.15 0 00-.05.31c.9-.56 1.78-1.12 2.65-1.72.94-.64 1.55-.9 2.6-.32 1.6.88 3.88 2 5.04 3.6a9.48 9.48 0 003.07-2.66c.07.14.16.28.25.42a4.32 4.32 0 002.57 1.9 4.6 4.6 0 001.39 1.06 4.92 4.92 0 001.11.38 2.4 2.4 0 002.68-.1c4.53 3.37 10.13 6.15 15.74 6.38a12.03 12.03 0 003.1 2.06c-.36-.55-.82-1.07-1.18-1.55z"/><path class="m" d="M298.32 4592.69a66.6 66.6 0 015.16-14c1.54-3.07 3.59-5.94 5.28-8.94a1.17 1.17 0 001.16-.58c.99-1.84.58-3.66.8-5.66a22.6 22.6 0 012.05-7.11 29.06 29.06 0 018.3-10.46c8.05-6.35 18.48-8.15 28.12-10.79 1.02-.28.57-1.69-.43-1.54-10.67 1.61-22.04 4.39-30.72 11.13a30.73 30.73 0 00-9.46 11.68c-1.13 2.6-2.61 6.93-1.94 10.22-2.81 2.81-4.87 6.65-6.57 10.06a71.19 71.19 0 00-5.48 14.96c-1.79 7.4-2.8 15.95-1.53 23.8-8.86 3.1-21.97 6.3-26.82-4.46a1.16 1.16 0 00-1.06-.76 64.25 64.25 0 00-1.12-4.38c-.38-1.29-2.65-1.54-2.87 0-.19 1.32-.42 2.63-.65 3.94a18.96 18.96 0 01-1.2-3.25c-.3-1-2.06-1.2-2.24 0a9.27 9.27 0 003.28 8.09 1.8 1.8 0 001.9.27l.44 2.54c.36 2.06 3.7 1.64 3.75-.36a17 17 0 008.16 4.63c1.69.43 3.28 1.78 5 1.78 2.3 1.2 5.36.67 8.03.22 1.03-.35 2.04-.75 3.08-1.15a7.3 7.3 0 001.44-1.17c.73-.2 1.45-.42 2.15-.67q.17.54.36 1.07a6.86 6.86 0 00-1.09.09 1.37 1.37 0 011.44 1.2c.1.67-.2.78.34 1.38a1.65 1.65 0 00.41.33l.25-.2a1.35 1.35 0 00.46-1.42.84.84 0 00.41-.8v-.05a2.46 2.46 0 00.26.37 2.39 2.39 0 003.17 1.06 3.88 3.88 0 00.82-.64c.14.3.29.6.45.88l-.25.03c1.66.4 1.11 2.3 1.59 3.55a3.43 3.43 0 011.05-.54l.05-.14.12.1a1.68 1.68 0 011.16.27c.98.58 1.6 1.76 2.39 2.56.85.88 1.71 1.76 2.62 2.6a2.73 2.73 0 001.38-.3l.28.17a1.82 1.82 0 00.25.26 19.18 19.18 0 004.43 2.74l1.35.82c-.73-.14-1.45-.3-2.16-.5a30.48 30.48 0 01-2.97-.99 21.37 21.37 0 002.03 1.38c2.11 1.26 4.63 1.77 6.25 3.75.72.89 1.3 1.88 1.99 2.8a9.15 9.15 0 01.96 1.45 33.23 33.23 0 008.94 2.07c5.44.58 11.05-.35 15.44-3.7a1.67 1.67 0 00-1.29-3.04c-4.52.74-9.11 1.48-13.7 1.16-.5-.03-1-.09-1.5-.16a7.04 7.04 0 002.06-.96 1.48 1.48 0 00.26-.23c.58.16 1.17.31 1.75.45a1.83 1.83 0 002.32-.3 17.2 17.2 0 008.6-2.01 1.64 1.64 0 00-.83-3.04c-4.6.02-9.18.18-13.6-1.3a24.75 24.75 0 01-11.37-7.84 1.98 1.98 0 00-2.96-.06 10.04 10.04 0 01-.2-4.42c.44-2.46-2.85-4.2-4.24-1.79-.95 1.65-1.95 3.24-2.97 4.81a24.67 24.67 0 01.64-17c2.71-6.5 8-10.63 14-13.97 1.52-.85.39-2.8-1.1-2.6-6.1.86-11.6 4.82-15.34 9.81a32.22 32.22 0 00-8.06 7.26 24.63 24.63 0 00-4.45 8.53c-.16-2.59-.3-5.17-.25-7.78a69.87 69.87 0 012.04-15.21zm-1.22 26.98c-.1.2-.18.42-.28.63l-.05-.9a1.99 1.99 0 00.33.27z"/><path class="m" d="M309.4 4632.28l-.34-.32c-.6-.6-1.22-1.18-1.8-1.8.17.31.35.62.54.92a2.97 2.97 0 001.6 1.2z"/><path class="o" d="M263.24 4719.62c-2.29-4.6-5.75-8.34-8.35-12.74-2.48-4.2-.02-7.93 1.95-11.81 2.41-4.75 4.3-10.01 2.65-15.33-1.75-5.65-7.1-9.82-13.15-8.12-2 3.6-3.96 7.2-6.16 10.68a7.47 7.47 0 001.06 1.78 2.87 2.87 0 00.24.26l-.71.86c-2.52 3.02-4.2 6.66-6.07 10.08-3.63 6.64-7.49 13.19-10.94 19.92a5.44 5.44 0 003.3 7.75l-.08.43a5.5 5.5 0 00.85 4.33c.11 1.68 1.3 7.15 2.76 7.87 1.05 2.68 2.2 1.39 4.03 3.62 2.8 4.97 6.84 9.06 12.57 10.8 10.69 3.26 20.7-4.11 20.43-15.32-.13-5.27-2.06-10.38-4.38-15.06zM293.33 4811.76c-.75-16.35-9.31-34.05-24.31-41.86a22.07 22.07 0 00-3.95-3.4 98.97 98.97 0 01-11.18-.91 55.18 55.18 0 015.5 9.49 12.66 12.66 0 015.73 6.28 4.2 4.2 0 00-.06 1.27 60.07 60.07 0 01.29 8.63 4.67 4.67 0 00-1.06 2.02c-1.73 6.21-3.52 12.41-5.11 18.66a4.55 4.55 0 00.04 2.45v.47a3.2 3.2 0 00.18 2.06c-.79 2.29-1.52 4.59-2.27 6.89l-1.35 3.99a4.46 4.46 0 00-1.7.66q-.34 1.45-.55 2.9-.17 1.45-.3 2.9a82.22 82.22 0 00.22 11.36 18.25 18.25 0 0015.54 6.94c18.38-1.7 25.04-25.47 24.34-40.8zM450.38 4779.9c.34-3.16.64-6.32 1.07-9.46a70.3 70.3 0 00-.78-8.85 34.4 34.4 0 01-6.93 8.56c-.65 9.53-1.8 18.92-4.58 28.22-3.57 11.99-9.79 22.7-14.66 34.13l2.37-2.7c2.11-3.13 4.68-6.02 6.78-9.13.92-1.37 1.8-2.76 2.68-4.16a41.06 41.06 0 013.93-7.05c2.16-4.8 4.01-9.73 6.19-14.53 1.2-4.04 2.25-8.1 3.23-12.2.22-.94.45-1.89.7-2.83zM516.52 4614.1a2.74 2.74 0 00-.4.8c-2.32 7.45-6.06 14.34-12.38 19.15a41.26 41.26 0 01-9.94 5.6c-1.96.76-3.94 1.5-5.94 2.16l-1.48.45-.03.14a32.33 32.33 0 01-4.03 9.06 3.43 3.43 0 003.51 1.57 10.83 10.83 0 003.18-.4 30.61 30.61 0 004.2-2.39 27.33 27.33 0 002.5-1.74l.5-.18c1.03-.38 2.04-.81 3.03-1.27a4.36 4.36 0 01.62-.52c2.6-1.78 4.67-4.26 7-6.36a4 4 0 012.02-.98q1.35-1.66 2.6-3.47a26.8 26.8 0 004.91-11.68c.49-3.03 1-6.83.13-9.94z"/><path class="m" d="M441.29 4773.36c-3.13 3.12-6.22 6.29-9.45 9.3-3.53 1.75-6.79 3.94-10.22 5.88a371.35 371.35 0 01-10.86 5.89q-5.67 2.96-11.52 5.53a2.44 2.44 0 00-.82.08c-8.57 2.24-17.07 4.73-25.62 7.08q-1.96.3-3.92.57a2.17 2.17 0 00-.88-.02l-3.22.58a2.16 2.16 0 00-.6.2l-2.45.06a2 2 0 00-2.92-1.01l-2.39 1.38a1.94 1.94 0 00-.94 1.3c-4.8 4.94-6.78 12.58-4.05 19.1a2.44 2.44 0 00.97 1.15q-.2.38-.37.76 1 2.37 1.84 4.8c1.58-2.33 2.76-4.92 4.32-7.26a44.65 44.65 0 017.59-8.58 42.65 42.65 0 0114.11-8.18c4.9-1.22 19.7-4.7 28.73-9.12a83.42 83.42 0 0032.61-29.04c.71-1.06.95-1.34.06-.45z"/><path class="o" d="M271.83 4765.3c-.39-2.1-2.37-3.52-3.37-5.35-1.18-2.14-1.25-4.27-1.9-6.54a1.32 1.32 0 00-2.37-.31l-.07.13a1.38 1.38 0 00-2.01-.49 1.5 1.5 0 00-2 .16 2.36 2.36 0 00-1.38-.7l-2.37-.25a1.71 1.71 0 00-1.3-.14l-1.45-.16a1.76 1.76 0 00-.42-.04l-3.14-.34a1.84 1.84 0 00-1.82-.24l-.27-.2c-1.62-1.26-4.06-.15-3.55 2.06a10.5 10.5 0 001.43 3.27 1.68 1.68 0 00.09.98l.2.5a13.09 13.09 0 009.15 8 1.69 1.69 0 001.82-.56l.35.01a2.12 2.12 0 002.2-.33c.3.37.6.73.91 1.08a1.68 1.68 0 001.82.5 5.01 5.01 0 005.2 1.4 1.31 1.31 0 00.57-.3h.07a1.56 1.56 0 001.09-.59 4.7 4.7 0 001.6.06c.75-.1 1.03-.99.92-1.6zM475.02 4653.65c-8.44.13-18 1.1-25.1 6.04-.7.48-.55 1.87.48 1.77 8.3-.83 16.3-3.61 24.62-4.63 1.98-.24 2.11-3.2 0-3.18z"/><path class="h" d="M274.63 4714.1c-3.6-8.47-5.85-18.72-.17-26.79 1.1-1.56-1.18-2.93-2.46-1.89-7.79 6.35-8.22 17.66-5.1 26.48a121.02 121.02 0 006.91 14.86 57.06 57.06 0 014.3 10.56 2.64 2.64 0 00-.38 1.04c-.37 2.91-1.5 6.48-.6 9.34a1.89 1.89 0 003.4.44 8.95 8.95 0 001.06-2.79 2.56 2.56 0 003.13-2.56c-.24-10.33-6.17-19.48-10.1-28.7zM316.47 4698.78c-1.32-2.18-4.25-1.67-6.49-1.55a58.27 58.27 0 00-8.88 1.1c-5.3 1.12-12.03 2.73-16.24 6.3-1.08.92.11 2.39 1.26 2.17 2.71-.5 5.28-1.8 7.92-2.58a63.06 63.06 0 018.18-1.84 67.04 67.04 0 018.25-.8c2.25-.07 4.57.44 6-1.55a1.2 1.2 0 000-1.25zM316 4725.9c-.53-1.35-2.6-2-3.4-.45-.94 1.84-3.08 2.69-4.92 3.52a71.76 71.76 0 01-7.1 2.44 1.06 1.06 0 00.28 2.09 24.87 24.87 0 0010.67-2.2c2.18-.91 5.68-2.4 4.48-5.4zM489.8 4628.63a1.67 1.67 0 00-.79-.6 10.34 10.34 0 01-6.65-8.83c-.4-4.84 1.8-9.45 3.05-14.02 1.67-6.1 2-14.66-2.7-19.67a20.21 20.21 0 01-3.91.33c.85 2.09 2.05 3.97 2.6 6.2a18.92 18.92 0 01.34 6.92c-.63 5.04-2.77 9.78-3.52 14.8-.87 5.87.76 15.03 7.04 16.9a15.34 15.34 0 01-1.85 6.35c-.43.73-1.3 1.41-1.67 2.2-4.01.67-7.97 2.18-12.06.93a13.8 13.8 0 01-5.14-3.06c-.65-.6-1.19-1.32-1.78-1.98a1.11 1.11 0 00.06-1.91c-4.39-3.21-8.83-5.8-9.98-11.58-1.08-5.44 1.74-11.63 6.23-14.76a.92.92 0 00-.93-1.59 16.98 16.98 0 00-6.38 5.57 17.44 17.44 0 011.45-10.1 20.56 20.56 0 019.37-9.86c1.08-.55.32-2.47-.84-2a25.27 25.27 0 00-6.33 3.7 26.14 26.14 0 00-.38-4.64c-.23-1.62-2.99-1.59-3.25 0l-.11.57a11.71 11.71 0 00-1.6 8.03 1.47 1.47 0 00.8 1.1c-.35.54-.67 1.1-.97 1.68-2 3.94-4.36 12.12-.85 15.8a1.43 1.43 0 00.54.35 15.81 15.81 0 00-.44 6.35c.65 4.98 4.27 11 9.31 12.87a2.39 2.39 0 00-.1.46c-.58 4.53 5.94 6.97 9.45 7.39a32.97 32.97 0 0014.37-1.39 1.64 1.64 0 001.08.4c2.26-.07 3.61-1.8 4.4-4a1.9 1.9 0 001.36-.86 12.95 12.95 0 002.06-6.56 1.47 1.47 0 00-1.28-1.5z"/><path class="n" d="M314.5 4659.96a76.1 76.1 0 00-7.2-16.6c-3-5.05-6.92-11.13-12.2-14.04a2.23 2.23 0 00-3.05 3.03c2.74 4.99 7.08 9.15 10.11 14.01a65.86 65.86 0 017.33 15.92 106.94 106.94 0 013.58 18.58 1.43 1.43 0 00-.1.39c-.27 2.66-.78 5.56-.36 8.23a1.25 1.25 0 001.39 1.05c.31 3.82.61 7.63.99 11.45a.97.97 0 001.94 0c1.42-13.85 1.67-28.58-2.43-42.02zM316.1 4741.01a16.9 16.9 0 01-.16-6.16c.2-1.27-1.68-1.86-2-.54a24.64 24.64 0 00-.65 4.49 1.02 1.02 0 00-.1.08 77.3 77.3 0 00-6.1 6.67 1.84 1.84 0 00.47 2.4.88.88 0 011.7.45 1.53 1.53 0 002.59 1.07 2.25 2.25 0 00.32-.39l.11-.27.02-.01a1.71 1.71 0 00.21-.22 1.3 1.3 0 00.22-.33 1.51 1.51 0 00.69-.43 1.43 1.43 0 00.16-.22 5.16 5.16 0 00.75-.83l.71-1.02a4.66 4.66 0 00.75.68c.59.43 1.26-.16 1.31-.75.16-1.6-.68-3.1-1-4.67zM436.43 4628.53c-1.06-3.72-2.13-7.43-3.17-11.15s-2-7.46-3.08-11.17c-.64-2.2-1.08-5.25-2.47-7.34a30.5 30.5 0 002.02-7.44c.56-3.1 2.02-8.2.28-11a.84.84 0 00-1.3-.17c-1.04 1.29-1.1 2.6-1.38 4.2-.34 2-.74 4-1.25 5.96-.7 2.74-1.81 5.42-2.31 8.19a5.98 5.98 0 00-.2 1.47 13.42 13.42 0 00-.05 1.52 1.04 1.04 0 00.32.72c.4 1.8 1.16 3.61 1.64 5.18 1.12 3.7 2.38 7.36 3.55 11.04s2.32 7.38 3.47 11.07c1 3.15 1.69 7.37 3.9 9.88a1.29 1.29 0 002.15-.56c.47-3.36-1.2-7.18-2.12-10.4z"/><path class="f" d="M476.54 4529.95c-1.84 2.3-3.19 4.88-5.22 7.05a31.62 31.62 0 01-7 5.6 30.15 30.15 0 01-8.28 3.37c-2.08.5-4.57.27-6.68.74a2 2 0 00-1.45-.2 21.17 21.17 0 01-12.75-1.16c-3.16-1.28-6.35-2.63-9.83-1.84a9.28 9.28 0 00-6.46 5.03l-.08.21a3.35 3.35 0 00-1.72 3.32 7.12 7.12 0 00.22 1.49 62.7 62.7 0 00-.04 6.94 2.2 2.2 0 002.68 2.08c.46.7.93 1.39 1.43 2.06l.1.11a3.55 3.55 0 00.16.53 4.48 4.48 0 001.85 1.94 5.6 5.6 0 002.08.54 2.65 2.65 0 002.59 1.34 2.3 2.3 0 00.21.75l-1.43 1.16a1.43 1.43 0 00-.52 1.57l-.41.51a1.94 1.94 0 00.38 2.99 36.57 36.57 0 0013.22 5.26l.02.03a1.2 1.2 0 00.77.7l1.62.52c1.74.67 3.5 1.31 5.27 1.9a1.05 1.05 0 00.96-.09c.19.1.37.22.57.32a2.02 2.02 0 002.14-.19 12.8 12.8 0 002.73 2.2c1.1.66 2.07-.6 1.62-1.62-1.2-2.72-3.06-5.1-4.38-7.78a33.27 33.27 0 01-2.9-8.8 32.47 32.47 0 012.15-18.83l.01-.03a22.85 22.85 0 006.6-1.04 32.69 32.69 0 008.87-3.77c4.93-3.02 10.8-8.37 11.97-14.28.11-.57-.63-1.17-1.07-.63zm-50.6 17c-.32.15-.62.32-.92.5a4.69 4.69 0 00-2.22 1.05 6.71 6.71 0 00-.64.64 5.29 5.29 0 013.78-2.19zM447.87 4504.81a1.84 1.84 0 00-.13.65 1.14 1.14 0 01.18.25 3.23 3.23 0 00.32.52 14.16 14.16 0 003.32.7 10 10 0 003.44-2.63 8.8 8.8 0 002.13-6.6c-.13-1.2-1.88-1.63-2.24-.3a8.45 8.45 0 01-4.02 5.26 1.24 1.24 0 00-.4-.15 7.43 7.43 0 01-1.17-.33 1.51 1.51 0 001.26-1.67c-.4-5.18-4.89-8.61-9.9-9.17-5.53-.6-10.94 2.71-14.54 6.68-8.08 8.9-11.1 22.19-11.57 33.8-.05 1.27 1.88 1.25 1.97 0 .6-9.28 3.52-19.73 8.74-27.52 2.67-4 6.31-7.57 11.28-8.16a11.55 11.55 0 012.37-.04l-.18.07a28.54 28.54 0 00-11.36 10.23c-1.85 2.98-4.08 7.35-2.15 10.48a11.86 11.86 0 00-1.73 1.41c-2.06 2.04-5 6.73-1.6 8.85a6.29 6.29 0 00-.08 1.93c.57-.28 1.22-.47 1.78-.7.83-.33 1.67-.66 2.52-.95a6.2 6.2 0 01.3-1.26 13.05 13.05 0 012.81-4.4 16.93 16.93 0 016.29-4.03 1.33 1.33 0 001.46.07 3.97 3.97 0 00.85-.87l.1-.04a1.02 1.02 0 00.7-1.43c.67-1.7.96-3.76 1.85-5.25a16.21 16.21 0 016.06-5.82 8.17 8.17 0 001.34.42zm-2.37-5.42a1.72 1.72 0 00-2.28-.13 1.85 1.85 0 00-.22.2 1.87 1.87 0 00-1.1-.98 2.24 2.24 0 00-.53-1.86 11.32 11.32 0 015.29 3.98 9.95 9.95 0 01-1.16-1.2z"/><path class="g" d="M435.33 4534.07c-.98 1.44-2.14 2.88-3.15 4.38a2.51 2.51 0 01-.45.2 5.08 5.08 0 01-.89.16 2.19 2.19 0 00-1.26.7 1.15 1.15 0 000 1.61 2.1 2.1 0 00.93.52 1.74 1.74 0 003.19 1.16c1.56-2.17 2.39-5.22 3.47-7.66a1.06 1.06 0 00-1.83-1.07z"/><path d="M466.42 4508.38c-2.82-2.48-8.36-1.03-8.06 3.33.26 3.75 1.08 7.46 1.14 11.23a27.04 27.04 0 002.1 11.14c.72 1.55 2.71 1.66 4.05 1.06 9.9-4.43 7.68-20.7.77-26.76z" opacity=".7" fill="#dfe4f2"/><g opacity=".7"><path class="k" d="M479.95 4547.98l-.21-.08.2.09z"/><path class="k" d="M486.16 4543.78q.3 1.13-.04-.77-.81-1.7-.23-.7a5.06 5.06 0 00-.68-1.43 7.1 7.1 0 00-2.33-2.21 9.13 9.13 0 00-4.53-1.37 7.7 7.7 0 00-4 1.2 3.22 3.22 0 000 5.52c-.76-.4 1.17.9.35.25a16.66 16.66 0 001.47 1.08l.2.12.3.24.31.24.31.27a14.62 14.62 0 001.43 1.13c.12.08.92.47 1.23.63l.83.35q-1.01-.4.57.25c.42.11.85.09 1.24.23a2.3 2.3 0 002.52-1.02 5.9 5.9 0 001.06-1.94 3.92 3.92 0 000-2.07z"/></g><path class="r" d="M171.56 4728.92a10.79 10.79 0 00-1.8-2.67 21.1 21.1 0 00-2.45-1.89l-1.25-.55a3.41 3.41 0 00-2.05-.02 4.67 4.67 0 00-2.89 1.75 7.34 7.34 0 00-1.21 2.66 6.68 6.68 0 00.7 4.54 24.3 24.3 0 001.87 2.61 9.61 9.61 0 002.48 1.8 4.67 4.67 0 006.1-1.15 6.7 6.7 0 00.5-7.08zM160.28 4699.66c-.92-5.28-3.1-12.61-8.04-15.47-3.73-2.15-7.61.68-7.97 4.56-.21 2.26.7 4.64 1.21 6.83a33 33 0 01.97 5.95c.22 4.8-.12 9.85 2.63 13.75a4.52 4.52 0 006.05 1.58c5.97-3.63 6.25-10.94 5.15-17.2z"/><path d="M431.1 4527.17c-3.5 1.41-6.97 2.9-10.36 4.55-2.89 1.4-6.55 2.75-9.11 4.83l.23.39.03.01a10.61 10.61 0 011.62 1.67c2.82-.97 5.62-2.92 8.12-4.29 3.4-1.86 6.7-3.9 9.95-6.02.56-.36.2-1.42-.49-1.14z" opacity=".5" fill="#fff"/><path d="M201.47 4657.73c-5.86 1.7-11.53 4.37-17.15 6.72l-8.02 3.35c-.8.34-1.62.64-2.43.97a.35.35 0 01-.1.1 40.6 40.6 0 01-5.59 2.8 6.58 6.58 0 001.05.96 1.9 1.9 0 001.68 1.58c2.47.22 4.9-1.4 7.07-2.43l8.34-4c5.34-2.56 10.95-4.95 15.97-8.1a1.07 1.07 0 00-.82-1.95z" opacity=".6" fill="#fff"/><path class="u" d="M167.75 4671.16c1.3-.57 2.6-1.15 3.86-1.8a38.6 38.6 0 00-3.67-4.97c-2.1-2.84-4.22-5.69-6.4-8.48-3.26-4.2-7.02-8.8-12.88-8.38-4.85.34-8.77 3.86-10.65 8.17-2 4.6-2.47 12.61.17 17.06.2.34 1.52-.27 1.55-.63.2-2.63-1.47-5.5-1.45-8.15a17.82 17.82 0 011.5-7.4c2.13-4.6 7.62-8.06 12.55-5.26 2.3 1.3 3.57 3.72 5.03 5.8 1.41 2.04 2.91 4 4.38 6s2.96 3.99 4.46 5.96c.51.67 1 1.4 1.55 2.08zM249.75 4611.69c-15.78 13.42-14.6 35.08-21.92 52.79-3.42 8.24-9.28 16.81-18.15 19.75-8.91 2.94-17.85.42-25.1-5.14-1.58-1.2-3.42 1.35-2.09 2.7 10.15 10.26 27.02 8.42 36.98-.94 12.04-11.3 14.19-28.51 18.99-43.46 2.22-6.93 5.06-13.67 9.72-19.18.08.59.9.64 1.23.2a9.63 9.63 0 001.16-2.74c.53-.51 1.08-1.02 1.66-1.5 1.73-1.45-.76-3.94-2.48-2.48z"/><path d="M396.92 4525.42c-4.31-3.71-10.07-2.52-15.1-1.13a587.66 587.66 0 00-21.48 6.44q-10.45 3.32-20.77 6.95c-3.53 1.24-7.05 2.5-10.55 3.82-3.25 1.23-7.23 2.36-10.03 4.44-.56.42-.48 1.57.41 1.5 3.01-.26 6.05-1.59 8.9-2.59l9.56-3.34q9.84-3.42 19.76-6.57 9.67-3.08 19.41-5.91c5.77-1.7 12.71-4.64 18.6-1.93 1.01.47 2.28-.82 1.29-1.68z" fill="#a2b8fa"/><path class="e" d="M416.7 4553.9c-.1-.62-1.02-.43-1.05.15-.3 5.77-2.74 11.24-8.3 13.76-5.58 2.54-10.9.68-15.89-2.07-.49-.27-1.22.31-.83.83 3.85 5.07 11.92 5.8 17.37 3.17 5.7-2.75 9.73-9.5 8.7-15.84zM362.85 4577.3c-4.5 5.64-9.72 10.46-16.66 12.87a32.61 32.61 0 01-11.44 1.71c-.65-.01-1.28-.06-1.91-.13a38.91 38.91 0 01-8.38-2.9.67.67 0 00-.66-.51c-4.72-.04-10.32 3.55-14.02 6.2a42.01 42.01 0 00-8 7.28c.3-3 .79-5.98 1.36-8.95a114.95 114.95 0 014.6-16.72c.38-1.07-1.36-1.82-1.86-.78a80.77 80.77 0 00-6.03 17.13 82.24 82.24 0 00-1.42 8.5c-.23 1.91-.96 4.37-.23 6.2l-.25.47a.93.93 0 00-.46.4 19.5 19.5 0 00-1.23 3.2c-.73 2 2.46 2.84 3.19.87a32.32 32.32 0 001.12-4.03 4.81 4.81 0 001.1-3.25 53.38 53.38 0 019.51-8.8 45.62 45.62 0 015.93-3.42c1.55-.74 3.24-1.24 4.84-1.9a.64.64 0 00.1.13c6.33 5.23 17.2 5 24.58 2.44 7.34-2.55 14.22-7.93 17.31-15.17.27-.64-.55-1.5-1.1-.84z"/><path class="f" d="M170.15 4686.19a53.13 53.13 0 00-3.73 7.78 20.91 20.91 0 00-2.13 6.87 1.12 1.12 0 001.9.79 21.04 21.04 0 003.18-6.42 52.23 52.23 0 002.64-8.24 1.02 1.02 0 00-1.86-.78zM164.97 4704.09c-.35 4.63-1.37 9.7-3.74 13.74-2.57 4.38-6.4 7.48-10.71 10.05-.72.43-.25 1.71.6 1.4 9.97-3.73 18.08-14.62 18.57-25.19.15-3.05-4.5-3-4.72 0zM142.96 4676.46c-2.1 3.56-6.6 5.95-10.66 4.14-3.84-1.72-5.01-6.56-3.63-10.26.5-1.32-1.3-2.33-2.29-1.69a1.32 1.32 0 00-1.63-.4c-7.1 2.97-12.9 10.32-16.5 16.9-3.7 6.73-6.66 16-4.44 23.65a1.05 1.05 0 002.05-.28c.35-3.84.36-7.62 1.35-11.39a38.4 38.4 0 014.55-10.46 43.96 43.96 0 016.57-8.14c2.14-2.1 4.58-3.96 6.74-6.06a10.17 10.17 0 006.24 10.47c5.02 2 11.24-.8 12.74-6.03a.6.6 0 00-1.09-.45zM165.4 4694.8c-.82-6.62-4.22-12.7-8.66-17.6a39.48 39.48 0 00-7.68-6.53c-2.56-1.67-6.04-3.82-9.18-3.88a1.27 1.27 0 00-.64 2.35c2.32 1.69 5.4 2.5 7.88 4.04a37.07 37.07 0 017.21 5.85c4.41 4.59 7.23 10.1 9.47 15.98.3.78 1.72.77 1.6-.21zM104.73 4711.83a1.1 1.1 0 00-1.28-.74 1.12 1.12 0 00-.66 1.52.9.9 0 00.05.08 21.79 21.79 0 00-5.13 5.26 29.64 29.64 0 00-4.33 8.2q-.56 1.58-.97 3.15a23.4 23.4 0 00.98-5.33.95.95 0 00-1.6-.66c-2.82 2.88-3.24 8.57-3.2 12.41a23.45 23.45 0 003.66 13.01.9.9 0 001.63-.68l-.71-2.9a.58.58 0 00.3-.57 34.47 34.47 0 012.96-17.14 40.34 40.34 0 014.31-6.83c1.7-2.2 4.28-3.98 5.68-6.33a1.66 1.66 0 00-1.68-2.45zM186.33 4730.88c-.25-3.5-.54-7.55-2.85-10.34-.72-.88-1.94-.08-2.03.84-.3 3.27.9 6.62 1.08 9.92a44.69 44.69 0 01-.6 10.9c-1.4 7.18-5.11 12.83-9.07 18.82-.63.96.7 1.76 1.48 1.14 5.89-4.74 9.22-12.76 10.9-19.93a38.78 38.78 0 001.09-11.35z"/><path class="h" d="M279.15 4625.06a1.95 1.95 0 00-1.45-1.14l-6.25-1.31a2.38 2.38 0 00-1.92.36l-.1-.03.01-.11c.15-1.88-2.86-2.27-3.28-.45l-.05.23a1.91 1.91 0 00-.34.22c.15-2.36.3-4.72.43-7.08.1-1.8-2.54-1.7-2.75 0-.69 5.57-1.3 11.14-1.98 16.7-.58 4.89-1.76 10.13-1.77 15.1a1.75 1.75 0 00-.41-.4 1.78 1.78 0 00-2.07-2.42c-4.74 1.05-8.6 5.76-10.7 9.88a26.2 26.2 0 00-2.11 5.65c-3.26.78-6.7 3.5-7.19 6.7a1.55 1.55 0 00-.2 1c.36 3 .71 6.03 1.16 9.03a1.6 1.6 0 001.97 1.33 2.27 2.27 0 003.1-.79l.7-1.13a14.74 14.74 0 004.79-7.88c1.44-1.65 3.05-3.34 3.66-5.38a.98.98 0 00-.9-1.26q.96-1.34 1.99-2.64c2.71-2.68 5.43-5.37 8.1-8.1a2.42 2.42 0 00.8-.02l.04-.04.55-.6c1.3-1.86 2.58-3.73 3.98-5.51l.1-.64a2.91 2.91 0 00.57-.2l.4-.5a1.02 1.02 0 011.47-.05 2.65 2.65 0 001.34-.7c1.71-1.63 3.37-3.3 5.14-4.86a2.06 2.06 0 00-.07-3.3 11.5 11.5 0 00.83-2.48 2.42 2.42 0 000-.96 1.83 1.83 0 00.38-1.45l.34-.43a2.4 2.4 0 001.69-4.34zM231.82 4629.66c-2.63 5.98-5.67 11.77-8.26 17.78l-3.68 8.52c-1.11 2.58-3.37 5.81-3.13 8.64a1.82 1.82 0 003.07 1.27c2.05-1.76 2.67-5.34 3.63-7.81l3.54-9.18c2.36-6.1 4.26-12.38 6.57-18.49.38-1-1.3-1.72-1.74-.73zM213.47 4654.7c-1.4-3.23-4.05-6.02-7.65-6.69-3.14-.58-7.08.9-8.12 4.1l-.05.16-.05.16h.02a2.29 2.29 0 00.33 1.5 1.2 1.2 0 00.05.34 5.35 5.35 0 00.36.84 2.12 2.12 0 00.76.81 1.2 1.2 0 001.11.07 1.16 1.16 0 00.4-.28 1.66 1.66 0 001.68-.16c2.93-2.12 6.16-.94 6.98 2.7a7.52 7.52 0 01-3.5 7.86 2.6 2.6 0 00.62 4.67c3.5 1.37 7.26-1.04 8.35-4.47 1.12-3.6.17-8.23-1.3-11.6z"/><path class="w" d="M296.72 4665.8a30.27 30.27 0 00-8.64-.5 10.2 10.2 0 00-7.31 4.15c-1.98 3.08-1.47 7.06-.9 10.67M284.56 4755.33a11.73 11.73 0 0023.08-4.04M465.76 4644.7a8.43 8.43 0 0016.64-2.13M465.32 4643.39l17.93-.41M454.63 4578.37l2.82 12.33"/><path class="x" d="M294.92 4551.76c-15.21 4.85-30.04 11.04-44.75 17.22q-21.8 9.15-43.2 19.24a1010.55 1010.55 0 00-84.23 44.8q-5.87 3.48-11.7 7.03c-1.63 1-2.2 1.16-2.26 3.08-.06 2.3-.03 4.61.02 6.92q.17 7.17.94 14.3c.48 4.42.52 9.36 2.05 13.53a1.24 1.24 0 002.43-.33c-.04-2.8-.83-5.39-1.25-8.15-.47-3.15-.82-6.3-1.08-9.48a174 174 0 01-.52-17.78l-.64 1.1a1031.05 1031.05 0 01143.43-73.84c13.66-5.72 27.54-10.9 41.18-16.66.56-.24.16-1.16-.42-.98z"/><path class="x" d="M114.5 4645.08c-.38 8.83.88 17.84 2.7 26.47.18.9 1.57.52 1.38-.38a182.14 182.14 0 01-2.97-26.09.56.56 0 00-1.12 0z"/><path class="h" d="M476.7 4522.93c16.54 10.92 21.28 34.89 11.81 51.9-.8 1.46 1.45 2.76 2.23 1.3 9.73-18.16 4.6-43.26-13.32-54.43-.78-.49-1.48.73-.72 1.23z"/><path class="h" d="M488.65 4535.94a39.35 39.35 0 015.45 44.9c-.78 1.47 1.45 2.77 2.23 1.3a40.41 40.41 0 00-6.65-47.23c-.66-.67-1.65.34-1.03 1.03z"/><path class="y" d="M359.93 4547.54c-3.79-5.06-10.24-6-16.13-5.1-11.77 1.77-23.74 10.4-25.75 22.66-1.13 6.9.77 14.1 6.33 18.65 3 2.46 7.67 4.56 11.92 4.44 5.4.44 10.87-2.04 14.77-5.71 4.76-4.48 7.2-10.84 9.38-16.83 2.14-5.87 3.53-12.71-.52-18.11z"/><path class="z" d="M361.48 4551.16c-1.78-5.47-6.9-8.67-12.5-9.06-6.56-.46-12.96 3.3-18.49 6.35-.52.3-.06 1.05.47.8 5.17-2.49 10.58-4.98 16.46-4.32 5.74.64 10 3.77 10.94 9.63 1.81 11.28-3 21.4-10.78 29.33-.4.42.16 1.23.66.84a35 35 0 0010.72-14.5c2.36-5.66 4.5-13 2.52-19.07z"/><path class="y" d="M410.8 4554.06a3.8 3.8 0 00-.38-.8 14.84 14.84 0 00-1.96-12 18.3 18.3 0 00-6.24-5.92 6.14 6.14 0 00-3.85-2.2 11.75 11.75 0 00-1.69-.4 10.12 10.12 0 00-2.62-.09 21.7 21.7 0 00-3.59-.11c-1.97-.5-4.45.18-6.22.72a17.27 17.27 0 00-7.66 4.29 7.49 7.49 0 00-1.92 3.85 5.04 5.04 0 00-.33 3.68 4.96 4.96 0 001.03 1.91 9.35 9.35 0 00.34 1.07c1.75 4.46 6.12 7.9 10.25 10.4 1.1 3.99 4.8 6.25 9.12 5.61a2 2 0 00.76-.29c2.56.78 6.04.7 8.06-.95a11.9 11.9 0 002.84-1.34c2.16-1.42 5-4.58 4.06-7.44z"/><path class="z" d="M407.06 4540.85a.47.47 0 00-.33-.13c-2.4-4.47-6.29-7.84-11.45-8.68-6.36-1.02-12.66 1.54-18.13 4.54a.37.37 0 00.29.68c8.83-2.62 19.5-6.05 25.58 3.41a23.63 23.63 0 013.5 11.83c.14 5.27-2.44 11.32-8.82 10.36a.58.58 0 00-.31 1.12c4.68 1.58 9.14-1.68 11.12-5.83a13.9 13.9 0 002.17-7.52 12.76 12.76 0 00-3.62-9.78z"/><path class="x" d="M377.7 4606.26a32.67 32.67 0 01-12.14.73 85.09 85.09 0 01-11.66-3.12 94.5 94.5 0 00-11.97-3.14c-3.28-.53-7.19-1.06-10.31.29-.54.23-.2.96.27 1 2.18.17 4.34-.18 6.53.05a35.77 35.77 0 017.13 1.57c3.88 1.24 7.6 2.9 11.47 4.16 6.54 2.13 15.15 4.12 21.44.24a.98.98 0 00-.76-1.78z"/><path class="x" d="M338 4596.92c-5.76 1.13-10.04 6.85-11.69 12.1-.23.76.82 1.11 1.23.52a47.34 47.34 0 015.27-6.26c1.84-1.86 4.03-3.4 5.8-5.32a.63.63 0 00-.61-1.04z"/><path class="x" d="M333.92 4601.14c-2.19 1.77-2.57 5.57-2.51 8.18a19.21 19.21 0 002.45 8.98c3.28 5.81 9.4 9.43 15.92 10.42a23.03 23.03 0 0017.95-4.52c4.6-3.67 8.7-10.13 7.58-16.2a.56.56 0 00-1.08 0c-.97 5.7-2.53 10.63-7.15 14.5a20.86 20.86 0 01-17.13 4.21 18.17 18.17 0 01-15.49-17.39c-.1-2.57.93-5.17.69-7.68a.73.73 0 00-1.23-.5z"/><path class="x" d="M333.35 4608.95c-.23 4.25 5.23 4.51 7.25 1.64l-1.57-.67c-.56 3.99 4.93 3.53 7.37 4.48 2.7 1.06 7.92 4.51 10.16 1.08.36-.54-.37-1.32-.91-.92-2.16 1.6-5.79-.74-7.97-1.57a17.82 17.82 0 00-3.24-1.02c-1.17-.2-3.96-.02-3.72-1.82.12-.92-1.18-1.05-1.6-.43-1.5 2.16-3.99 1-4.63-.92a.58.58 0 00-1.13.15zM370.94 4624.12c-2.23 1.48-4.53 2.84-6.8 4.25-.67.42-.23 1.69.58 1.35 2.38-.98 4.83-1.83 7.25-2.7l-.55-.95a64.36 64.36 0 00-5.52 5.04c-.38.43.12 1.23.66.85a65.6 65.6 0 005.67-5.08.58.58 0 00-.56-.96c-2.43.83-4.88 1.68-7.35 2.38l.57 1.35c2.2-1.54 4.34-3.14 6.58-4.62.56-.37.03-1.28-.53-.9zM415.67 4561.76a35.69 35.69 0 005.5 5.34l.65-1.59c-1.06.08-2.13.14-3.2.2-.96.06-1.31 1.61-.24 1.8 3.54.59 7.09 1.16 10.63 1.77l-.22-1.64-4.94 2.6c-.74.4-.45 1.78.46 1.67l4.28-.55-.6-1.46-4.84 4.85a.89.89 0 00.38 1.47c1.6.54 3.19 1.05 4.79 1.55v-1.63l-3.2 1.02a.8.8 0 00.43 1.55l3.12-.63-1-.77a61.02 61.02 0 01-5.7 20.13c-3.02 6.27-7.18 11.47-11.52 16.84a.67.67 0 00.94.94c10.98-8.9 16.77-24.22 17.87-37.9a.8.8 0 00-1.01-.77c-1.04.22-2.1.41-3.14.6l.43 1.56 3.23-.94a.85.85 0 000-1.63c-1.59-.55-3.17-1.1-4.77-1.61l.4 1.47 4.8-4.9c.47-.48.16-1.54-.61-1.45l-4.29.47.45 1.67q2.49-1.28 4.95-2.6a.9.9 0 00-.22-1.63l-10.62-1.8-.24 1.78 3.2-.17c.75-.03 1.3-1.03.66-1.58a46.07 46.07 0 01-5.36-5.47c-.85-1.02-2.29.44-1.45 1.45zM401.78 4536.97c4.73 3.93 5.62 9.67 7.81 15.07a1 1 0 101.83-.77c-2.58-5.56-3.78-11.3-9.05-15.07-.45-.32-1.02.41-.6.77zM351.7 4525.51a7.49 7.49 0 00-.16-7.6c-.44-.77-1.89-.72-2.03.26-.27 1.8-.52 3.6-.76 5.4a1.15 1.15 0 002.22.6c1.4-3.86-2.6-5.7-5.68-6.3-5.4-1.06-10.83-2.01-16.25-3.02a1.41 1.41 0 00-1.71 1.71 8.78 8.78 0 003.7 5.44v-2.52c-7.32 4.2-17.38 2.1-22.8-4.15-1.18-1.36-3.44-.23-3.45 1.43-.05 6.8 1.75 13.38 6.91 18.08 1.85 1.68 4.56-.99 2.76-2.75-3.96-3.88-5.57-9.94-5.62-15.33l-3.46 1.43a21.48 21.48 0 0027.13 3.81 1.48 1.48 0 000-2.52 6.06 6.06 0 01-2.49-3.66l-1.71 1.71 10.58 1.7c2.15.33 11.19.64 9.87 4.34l2.26.3c.23-1.8.47-3.6.67-5.41l-1.89.78a5.02 5.02 0 01.64 5.53c-.37.84.78 1.58 1.27.74z"/><path class="x" d="M314.2 4533.38c-2.41-3.18-7.34-2.67-10.6-1.2-5.07 2.27-8.41 7.3-13.77 9-2.16.7-1.27 4.02.94 3.41 4.79-1.31 9.63-2.46 14.4-3.85l-1.2-2.81c-2.86 1.89-5.96 3.46-8.3 6a1 1 0 00.98 1.66c3.27-1.07 5.97-3.19 8.88-5a1.54 1.54 0 00-1.19-2.81c-4.86 1.03-9.67 2.3-14.51 3.4l.94 3.42c4.02-1.36 6.85-4.2 9.97-6.93 3.41-2.98 7.88-5.52 12.25-3.07.71.4 1.78-.47 1.22-1.21z"/><path class="x" d="M304.78 4538.57c-6.7 4.77-10.76 12-13.77 19.46-.95 2.37 3.26 3.65 3.9 1.07 1.83-7.38 6.1-13.5 10.81-19.31.5-.63-.16-1.78-.94-1.22z"/><path class="x" d="M303.35 4555.18c-7.77 1.01-15.86 3.94-22.94 7.23-6.87 3.2-13.19 7.5-17.86 13.5-8.84 11.36-12.27 27.38-6.96 41.03a2.16 2.16 0 004.12 0c.7-1.97 1.22-4 1.97-5.96l-3.3-.44c.44 5.1 2.23 9.59 6.18 13 1.1.95 3.31.41 3.17-1.31-.15-1.87-.5-3.7-.7-5.55l-2.8 1.15c8.22 9.56 22.71 11.6 32.73 3.6 1.03-.83-.3-2.42-1.38-1.79a28.87 28.87 0 01-15.16 3.21 19.46 19.46 0 01-13.86-7.33c-.88-1.1-2.9-.19-2.8 1.16.12 1.85.1 3.7.26 5.55l3.17-1.31a14.48 14.48 0 01-5.44-10.38c-.05-1.52-2.42-2.47-3.14-.85-.85 1.91-1.91 3.72-2.8 5.6l3.9.52c-3.95-12.8-2.2-27.46 6.34-38.15a47.75 47.75 0 0116.77-12.78c6.78-3.29 14.19-4.88 21-8 .8-.37.43-1.81-.46-1.7zM351.39 4525.4a43.4 43.4 0 0132.4-.81c1.34.5 1.96-1.68.6-2.16a42.86 42.86 0 00-33.48 1.82c-.63.32-.18 1.42.48 1.15z"/><path class="x" d="M292.95 4608.97c-4.49-7.65 1.31-16.3-.74-24.38-1.73-6.84-9.1-9.78-15.6-9.86a.7.7 0 00-.18 1.36c3.15 1.08 6.58 1.52 9.46 3.3 3.81 2.36 4.86 6.38 4.81 10.62-.07 6.55-2.75 13.6 1.25 19.54.4.6 1.37.06 1-.58z"/><path class="x" d="M289.93 4580.85c-2.8-4.08-7.97-1.14-10.67 1.52a16.85 16.85 0 00-4.94 13.74c.53 4.76 3.12 9.9 7.47 12.28 2.93 1.61 8.36 1.49 9.73-2.18.25-.67-.7-1.14-1.16-.67-2.46 2.5-6.83 1.73-9.16-.4a15.01 15.01 0 01-2.31-19.17c1.86-2.9 6.82-7.96 10.34-4.58.35.33 1-.11.7-.55zM413.6 4606.53c-3 4.2-6.1 8.36-8.95 12.65l1.65.7c.48-2.25.99-4.55 1.63-6.74a.55.55 0 00-1-.43c-1.68 2.65-3.49 5.27-4.96 8.03l.91-.37-.7-.22c-.44-.13-.92.42-.63.82l.42.58a.82.82 0 001.4 0c1.67-2.65 3.04-5.52 4.5-8.28l-1-.43a93 93 0 01-2.31 6.55c-.4 1.02 1.1 1.47 1.65.7 3-4.19 5.77-8.54 8.64-12.82.53-.78-.72-1.48-1.26-.73zM381.8 4659.81c-1.3-1.4-3.24-1.96-4.97-2.72l-5.94-2.58c-1.92-.83-3.6 1.8-1.69 2.88a22.32 22.32 0 016.67 5.76l1.6-2.74a14.42 14.42 0 00-12.94 1.84 1.75 1.75 0 00.88 3.24c1.77.11 3.56.15 5.33.28l-.39-2.89c-3.4.73-7.08 1.04-10.32 2.3-1.2.47-1.15 2.42.32 2.4 3.6-.08 7.25-1.22 10.79-1.86 1.8-.32 1.09-2.69-.4-2.89-1.63-.21-3.24-.52-4.87-.75l.42 3.17a11.37 11.37 0 0110.3-1.67 1.66 1.66 0 001.86-2.42 21.3 21.3 0 00-7.57-6.64l-1.29 3.04c2.03.74 4.06 1.5 6.1 2.23 1.75.65 3.6 1.6 5.5 1.47a.86.86 0 00.6-1.44zM389.39 4658.46c.7-1.9 1.12-3.95 2.01-5.77l-2.6-.7c.13 2.25.5 4.52.81 6.76.24 1.69 3.15 1.67 3.4 0a9.44 9.44 0 011.72-4.31c.9-1.22 2.46-1.93 3.19-3.24a1.42 1.42 0 00-1.22-2.11c-1.94-.07-3.63 1.8-4.71 3.21a12.12 12.12 0 00-2.38 5.51h3.4c-.44-2.06-.85-4.17-1.46-6.2a1.4 1.4 0 00-2.75.38c-.12 2.02-.75 4.01-1.06 6.02a.86.86 0 001.65.45zM384.5 4661.2a14.03 14.03 0 002.43-5.46c.1-.79-.96-1.02-1.45-.6a13.65 13.65 0 00-2.98 4.9 1.16 1.16 0 002 1.16zM304.66 4762.29c.42 11.1 3.7 22.2 10.62 31.02 6.28 8 16.88 15.06 27.47 14.46 1.26-.07 1.72-2.12.31-2.35-10.33-1.63-19.07-6.13-25.11-14.86-5.72-8.27-8.53-18.3-8.89-28.27-.1-2.82-4.5-2.83-4.4 0zM365.78 4667.22c-11.47 3.59-21.78 11.71-30.28 19.98-1.76 1.72 1 4.47 2.7 2.7a92.45 92.45 0 0113.52-11.9c4.73-3.35 9.78-6.17 14.75-9.16a.89.89 0 00-.69-1.62zM400.55 4653.2c7.2-2.2 13.9-4 21.53-3.41a36.58 36.58 0 0119.99 7.7c10.6 8.35 16.9 21.26 20.02 34.13a88.11 88.11 0 01-21.94 81.04 102.04 102.04 0 01-41.1 25.93 1.14 1.14 0 00.6 2.2c29.45-8.16 54.4-31.77 63.2-61.07a96.2 96.2 0 002.5-45.64c-2.68-13.8-8.83-27.88-19.36-37.53-12.22-11.22-31.97-15.26-46.78-6.5a1.74 1.74 0 001.34 3.16z"/><path class="x" d="M289.66 4783.43c4.13 5.06 10.13 9.1 15.69 12.43a96.8 96.8 0 0018.18 8.46 98.53 98.53 0 0039.44 5.16c7.37-.56 14.92-1.63 21.67-4.78 1.13-.53.26-2.01-.78-1.85-8.16 1.27-16.1 3.11-24.41 3.33a101.64 101.64 0 01-24.79-2.39 102.93 102.93 0 01-23.2-8.23 112.39 112.39 0 01-10.6-6.05c-3.55-2.26-6.8-4.96-10.32-7.22-.74-.48-1.37.54-.88 1.14zM339.85 4547.5c-6.01 1.43-12.19 6.86-14.99 12.24a1.07 1.07 0 001.68 1.3c2.27-2.07 4.46-4.3 6.92-6.13 2.4-1.78 5.1-3.01 7.54-4.68a1.5 1.5 0 00-1.15-2.73zM383.15 4537.97c4.4-.47 8.36-1.13 12.8-.65 1.01.1 1.37-1.44.51-1.88-4.2-2.17-9.83-2.7-14.03-.15-1.13.69-.77 2.84.72 2.68zM395.88 4551.06c-1.09 1.5-1.91 3.27-1.22 5.12a3.63 3.63 0 003.85 2.46 3.46 3.46 0 002.72-3.51 4.89 4.89 0 00-2.4-4 1 1 0 00-1.45 1.11c.08.43 1.24 2.68.45 2.95.15-.05.02.04-.05-.17a1.75 1.75 0 01-.15-.48 6.67 6.67 0 01.6-2.5c.5-1.47-1.56-2.1-2.36-1zM285.95 4629.47a104.64 104.64 0 00-31.4 26.55c-8.78 11.19-14.37 23.98-20.94 36.47a138.2 138.2 0 01-13.26 20c-1.08 1.4.94 2.93 2.25 2.24 1.61-.85 3.2-1.7 4.89-2.4l-1.25-2.12a13.96 13.96 0 00-3.46 16.47c.72 1.46 2.83.65 2.9-.78a8.32 8.32 0 013.26-6.3l-2.33-1.36c-2.68 6.86-1.81 18 5.63 21.75.85.43 1.98-.48 1.4-1.38-1.94-2.98-4.01-5.54-4.96-9.05a16.48 16.48 0 01.62-10.58c.6-1.44-1.4-2.1-2.33-1.35a11.86 11.86 0 00-4.4 8.27l3.06-.41c-1.93-4.64-1.36-9.94 2.42-13.48.87-.82-.03-2.62-1.24-2.13-1.8.74-3.63 1.29-5.48 1.85l1.6 2.74c6.44-5.7 10.8-14.04 14.69-21.57 4.1-7.94 7.74-16.13 12.35-23.8a116.25 116.25 0 0137.11-37.7 1.12 1.12 0 00-1.14-1.93z"/><path class="x" d="M230.6 4733.64a45.93 45.93 0 0013.2 17.81.77.77 0 10.94-1.2 46.17 46.17 0 01-13.57-16.84c-.15-.32-.7-.1-.57.24zM305.39 4681.42a29.17 29.17 0 00-22.77-2.17c-6.47 2.1-13.28 6.78-16.05 13.18-.29.65.53 1.5 1.08.84 4.32-5.14 8.63-9.66 15.12-12a30.06 30.06 0 0122.12 1c.57.24 1.07-.54.5-.85z"/><path class="x" d="M266.72 4693.73a10.1 10.1 0 002.56-9.94.76.76 0 00-1.45 0 17.27 17.27 0 01-5.9 7.35l1.26 1.25q1.2-1.8 2.41-3.57c.55-.8-.6-1.53-1.26-.97-2.52 2.13-5.71 4.16-7.62 6.88-.32.45.28.9.7.7 3-1.45 5.54-4.3 8.06-6.45l-1.26-.97q-1.3 1.74-2.61 3.46c-.55.72.53 1.77 1.25 1.25a18.49 18.49 0 006.43-8.53l-1.38.18a7.82 7.82 0 01-1.82 8.74.44.44 0 00.63.62z"/><path class="x" d="M270.65 4687.87c-7.18 4.66-8.2 14.07-5.81 21.65 3.23 10.25 11.01 18.32 14.1 28.67a.94.94 0 001.81-.5 10.54 10.54 0 00-3.2-6.1.83.83 0 00-1.38.8 32.38 32.38 0 01-2.09 18.64h1.88l-1.38-6.4a.82.82 0 00-1.49-.2c-.61 1.09-1.24 2.16-1.78 3.28a.7.7 0 001.2.7c.72-1.02 1.35-2.09 2-3.16l-1.5-.19q.53 3.25 1.08 6.49a.98.98 0 001.77.23 33.15 33.15 0 001.9-19.82l-1.37.8a6.96 6.96 0 012.52 5.2l1.85-.25c-1.83-8.99-8.09-16.06-12.04-24.12-3.86-7.88-5.56-18.86 2.39-24.94.43-.34.04-1.08-.45-.76zM285.49 4706.52a79.69 79.69 0 0118.69-3.49c5.55-.36 13.42-.77 14.09 6.58.93 10.34-9.97 18.74-18.69 21.67-.62.2-.57 1.32.17 1.23a23.18 23.18 0 0014.96-8.32c3.45-4.12 6.5-9.87 5.65-15.42-.92-5.9-6.8-7.18-11.97-7.14a77.2 77.2 0 00-23.18 3.9c-.62.2-.36 1.19.28.99z"/><path class="x" d="M313.79 4724.77c2.4 8.56-1.91 16.27-9.76 20.16-8.32 4.12-17.6 3.05-26.55 3.23-.68 0-.89 1.1-.17 1.22 9.87 1.69 21.22 1.9 29.94-3.74 6.67-4.31 11.76-13.64 7.78-21.4a.68.68 0 00-1.24.52zM301.27 4681.05c9.56 2.22 14.87 11.44 11.53 20.77-.46 1.3 1.62 1.87 2.07.57 3.47-9.97-2.8-20.96-13.47-22.31-.56-.07-.67.84-.13.97z"/><path class="x" d="M284.43 4628.87c19.67 11.34 25.64 35.75 26.58 56.76.06 1.34 2.13 1.35 2.1 0-.48-22.02-7.93-46.1-28.17-57.63a.5.5 0 00-.5.87zM319.95 4639.4c16.13 26.4 21.24 61.43 7.49 89.93a52.87 52.87 0 01-17.3 20.19c-1.06.75-.06 2.52 1.03 1.76a53.35 53.35 0 0016.15-17.15 78.71 78.71 0 008.08-21.7c3.46-15.54 2.24-32.5-2.26-47.72a97.72 97.72 0 00-11.99-26c-.49-.75-1.67-.08-1.2.7zM264.02 4780.48c-2.65 17.95-7.43 35.44-13.24 52.62-.5 1.52 1.5 2.43 2.55 1.48 1.38-1.25 2.8-2.42 4.23-3.61l-2.44-1.89a22.73 22.73 0 00-1.47 21.06c.62 1.37 2.71.62 2.72-.73.03-3.54-.02-7.08.17-10.62h-2.59a44.7 44.7 0 009.86 30.3c6.75 8.33 16.75 13.44 27.29 14.95 1.03.15 1.52-1.33.44-1.62-9.4-2.5-18.53-7.61-24.87-15.07a44.03 44.03 0 01-10.13-28.56 1.3 1.3 0 00-2.59 0c-.04 3.54-.3 7.08-.5 10.62l2.87-.4c-1.9-6.17-1.67-12.63 1.48-18.36a1.56 1.56 0 00-2.44-1.88c-1.39 1.23-2.75 2.47-4.18 3.66l2.55 1.48a215.01 215.01 0 008.17-26.4 153.74 153.74 0 004.61-26.7c.1-1.4-2.28-1.75-2.49-.33z"/><g><path class="x" d="M353.84 4807.91c-9.3 19.92-9.93 43.58-23.14 61.7l3.33.9c.12-2.16.25-4.32.48-6.48.19-1.71-2.26-2.09-3.05-.83-9.62 15.24-28.06 20.52-45.09 17.09-1.06-.21-1.9 1.36-.79 1.86 17.37 7.82 39.3-1.63 48.7-17.3l-3.05-.82c-.18 2.01-.44 4-.72 6.01-.2 1.54 1.68 3.26 2.99 1.73 7.13-8.35 10.39-19.3 13.06-29.75 2.85-11.14 4.87-22.6 9.24-33.29.45-1.11-1.45-1.91-1.96-.82z"/></g><g><path class="x" d="M450.39 4760.6a119 119 0 01-7.51 36.97 135.09 135.09 0 01-8.3 17.47 271.12 271.12 0 01-5.29 8.92c-1.88 3.09-4.32 5.99-5.96 9.2a1.1 1.1 0 001.72 1.31c2.7-2.51 4.8-5.95 6.98-8.91 2.04-2.8 3.92-5.72 5.7-8.69a112.26 112.26 0 0015.99-56.26c.06-2.14-3.23-2.13-3.33 0z"/></g><g><path class="x" d="M348.49 4824.56c2.48 19.99 18.71 37.08 38.66 40.75 14.74 2.72 31.54-2.89 39.58-16.03a27.96 27.96 0 003.8-11.33c.73-5.84.6-11.8 4.11-16.8.66-.94-.75-1.92-1.53-1.19-6.4 6.02-4.08 15.95-7.06 23.49-2.34 5.92-7.12 10.8-12.5 14.08-15 9.11-33.22 5.3-46.46-5.12a36.15 36.15 0 01-10.4-12.26 50.8 50.8 0 01-5.33-15.98c-.22-1.62-3.08-1.25-2.87.39z"/></g><g><path class="x" d="M430.46 4625.29c3.38 15.77 13.43 29.41 22.02 42.75.76 1.19 2.67.08 1.9-1.1-4.28-6.58-8.59-13.14-12.6-19.88-4.2-7.05-7.98-14.13-9.79-22.2-.22-1-1.74-.57-1.53.42z"/></g><g><path class="x" d="M484.5 4586.22c-8.4-3.68-19.83-.2-26.87 4.89-6.2 4.48-15.83 16.1-8.22 23.45a.75.75 0 001.16-.9c-4.82-8.62 3.1-17.8 10.23-22.22a33.05 33.05 0 0111.35-4.38c4.13-.77 8.01-.25 12.14-.07.4.02.6-.6.21-.77z"/></g><g><path class="x" d="M469.93 4603.3c-11.41-1.27-23.98 7.08-21.86 19.7 1.63 9.7 13.7 14.84 21.46 8.4.57-.48-.16-1.35-.78-1.01-7.65 4.2-18.08.79-18.9-8.74-.97-11.21 10.17-17.57 20.08-17.25.73.02.7-1.03 0-1.1z"/></g><g><path class="x" d="M482.26 4585.17c7.01 8.33 1.17 18.14-.35 27.3-.99 5.91.56 15.55 7.92 16.62.74.1 1.3-.86.54-1.3-9.1-5.13-6.53-15.11-4.29-23.45 1.73-6.42 3.12-15.52-3.1-20.1-.58-.43-1.12.45-.72.93z"/></g><g><path class="x" d="M490.17 4628.1q.43-.88.91-1.74l-1.33-.18c1.04 5.75-1.2 10.3-5.53 13.99-.51.43.14 1.1.66.86 5.63-2.5 7.6-9.64 6.27-15.24a.74.74 0 00-1.4 0q-.26.96-.57 1.9c-.19.58.71.98 1 .42z"/></g><g><path class="x" d="M457.27 4632.88c0 3.56 2.2 7.07 4.94 9.22a.94.94 0 101.14-1.47c-2.64-1.95-4.03-4.84-4.9-7.91a.6.6 0 00-1.18.16z"/></g><g><path class="x" d="M392.69 4831.07c7.15-.14 14.33-.87 21.47-1.36l-.24-1.78-16.47 4.47a.95.95 0 00.25 1.85c5.47.32 10.92.67 16.4.68.98 0 .93-1.4 0-1.5-5.46-.56-10.92-.8-16.4-1.06l.25 1.85q8.22-2.29 16.45-4.55c.96-.26.8-1.85-.24-1.77-7.14.55-14.36.88-21.47 1.8-.85.1-.92 1.4 0 1.37z"/></g><g><path class="x" d="M286.8 4846.22c4.29 1.38 8.9 1.94 13.23 3.27s8.54 3.08 12.86 4.48c.9.29 1.34-.97.62-1.46a43.72 43.72 0 00-12.8-5.52c-4.26-1.18-9.27-2.47-13.73-2.13a.7.7 0 00-.19 1.35z"/></g><g><path class="x" d="M299.41 4845.83a41.39 41.39 0 006.05 2.27.54.54 0 00.41-.98 42.29 42.29 0 00-6.15-2.4c-.72-.26-.98.84-.3 1.12z"/></g><g><path class="x" d="M284.51 4624.38c-5.69-.04-9.1 7.6-8.25 12.37.09.52.87.37.89-.12.1-2.92.67-5.66 2.7-7.88 1.46-1.58 3.32-2.35 4.97-3.63.3-.24.03-.74-.31-.74z"/></g><g><path class="aa" d="M313.59 4659.57a102.27 102.27 0 013.54 21.53 153.32 153.32 0 01-.74 21 .4.4 0 00.79.1c2.85-14.01 1.11-29.22-2.69-42.88a.47.47 0 00-.9.25z"/></g><g><path class="aa" d="M312.9 4654.45a74.96 74.96 0 00-18-25.8.28.28 0 00-.4.39 90.94 90.94 0 0117.82 25.75c.18.4.75.05.58-.34z"/></g><g><path class="x" d="M281.27 4626.64c3.85-2.31 7.76-1.57 11.41.67a.35.35 0 00.42-.55c-3.17-3.2-8.55-2.99-12.12-.61-.3.2-.03.68.3.49z"/></g><g><path class="x" d="M297.36 4610.94a18.73 18.73 0 01-4.17 13.24c-.58.73-.55 2.19.63 2.37 3.49.55 7.66-.24 9.86-3.25.63-.86-.56-1.8-1.38-1.36-2.59 1.38-4.69 2.47-7.73 1.88l.85 2.08a21.1 21.1 0 003-15.1c-.1-.6-1.1-.47-1.07.14z"/></g><g><path class="x" d="M301.82 4622.87a43.3 43.3 0 00-.16 6.98 1.07 1.07 0 001.98.53 34.4 34.4 0 002.44-5.07c.25-.68-.8-1.31-1.25-.73a34.5 34.5 0 00-3.02 4.73l1.98.54a43.37 43.37 0 00-.92-6.98c-.12-.49-.97-.55-1.05 0z"/></g><g><path class="x" d="M304.06 4625.81c2.6 7 9.39 12.2 16.6 13.83a1.1 1.1 0 00.84-2 3.63 3.63 0 01-1.58-3.1l-1.6.66c7.88 6.82 21.07 9.86 30.15 3.48.53-.37.23-1.35-.47-1.11-9.66 3.28-20.27 3.4-28.35-3.7a.95.95 0 00-1.6.67 5.9 5.9 0 002.11 4.82l1.07-1.84c-7.09-1.8-12.18-6.12-16.1-12.16-.34-.52-1.31-.2-1.07.45z"/></g><g><path class="x" d="M478.23 4575.86l3.05-2.53-2.03-1.18c-.22 1.14-.4 2.29-.58 3.44-.16 1.02.9 2.21 1.95 1.5 4.62-3.14 9.2 1.34 12.39 4.36 3.02 2.86 6.47 5.41 10.85 5.1l-.4-2.93-5.11 1.58c-1.15.35-1.6 2.16-.36 2.74 12.37 5.86 20 20.68 17.18 34.14-2.9 13.79-16.74 24.57-30.8 24.87a1.17 1.17 0 000 2.34 31.14 31.14 0 0017.49-3.9 35.45 35.45 0 0012.94-12.6c6.3-10.59 5.7-23.81-.64-34.23a33.98 33.98 0 00-14.65-13.2l-.36 2.74 5.1-1.6c1.55-.47 1.36-3.05-.4-2.92-5.78.4-9.25-5.22-13.54-8.13-3.23-2.2-7.7-3.14-11.03-.65l2 1.15c.13-1.16.26-2.31.35-3.47a1.23 1.23 0 00-2.07-.86l-2.77 2.82c-.93.95.45 2.25 1.43 1.43z"/></g><g><path class="x" d="M505.52 4640.5c-7.31 6.97-16 10.85-25.92 12.57-1.75.3-1.02 3.03.74 2.69 9.81-1.9 20.34-5.96 26.48-14.25.58-.78-.64-1.63-1.3-1z"/></g><g><path class="x" d="M429.83 4579.68a29.48 29.48 0 01-1.42-3.06l-.97.57c15.94 25.94 22.54 55.9 22.82 86.06a1.04 1.04 0 002.09 0c.75-15-1.79-30.78-5.83-45.2-4.07-14.54-9.46-28.92-18.1-41.43a.56.56 0 10-.9.69 28.22 28.22 0 011.94 2.59.21.21 0 00.37-.22z"/></g><g><path class="x" d="M420.64 4601.53a91.56 91.56 0 0113.16 32.74c.18.86 1.48.49 1.32-.37-2.13-11.42-5.17-24.17-12.3-33.64-.95-1.26-3.1-.1-2.18 1.27z"/></g><g><path class="aa" d="M425.77 4598.66c6.02 10.28 9.4 21.23 11.46 32.89a.37.37 0 00.72-.1c-.99-11.7-5.35-23.24-11.39-33.26a.46.46 0 00-.79.46z"/></g><g><path class="x" d="M428.14 4579.03c8.12 2.94 16.19 6.06 24.77 7.39a.95.95 0 10.25-1.88c-8.64-.9-16.57-3.74-24.75-6.5-.63-.22-.9.77-.27.99z"/></g><g><path class="x" d="M452.46 4747.75c-5.78 5.38-11.3 11.04-17.87 15.49a141.34 141.34 0 01-19.88 11.25 110.2 110.2 0 01-21.87 7.77 122.28 122.28 0 01-23.62 2.69.66.66 0 000 1.33 94.52 94.52 0 0024.25-1.75 109.43 109.43 0 0022.72-6.72 91.21 91.21 0 0020.3-12.1c6.33-5 12.6-10.33 17.2-17.01.52-.76-.6-1.54-1.23-.95z"/></g><g><path class="x" d="M477.66 4575.69a.16.16 0 000-.33.16.16 0 000 .33z"/></g><g><path class="x" d="M477.89 4574.12a4.44 4.44 0 01-3.47 1.57 6.25 6.25 0 00-3.19 1.06c-.79.52-.03 1.8.74 1.26a7.47 7.47 0 013.65-1.07 5.42 5.42 0 003.17-1.92c.55-.6-.34-1.5-.9-.9z"/></g><g><path class="h" d="M126.9 4664.15c-11.94 5.79-22.19 17.19-24.31 30.58-1.9 12.04 2.43 25.6 12.53 32.93 10.47 7.62 26.69 7.41 37.48.66 11.38-7.12 16.23-20.76 13-33.53-3.34-13.17-11.66-27.53-25.55-31.56a1.6 1.6 0 00-.85 3.08c11.43 3.18 18.18 13.79 22.16 24.18a40.52 40.52 0 013 17.97c-.55 6.36-4.25 11.9-8.91 16.1-9.6 8.67-25.06 9.46-36.12 3.1-9.8-5.62-15.84-17.8-13.35-29a49.58 49.58 0 017.91-18.53c3.94-5.49 8.93-9.73 14.4-13.61a1.38 1.38 0 00-1.39-2.37z"/></g><g><path class="h" d="M166.57 4703.93a39.1 39.1 0 0114.19 34.93 43.85 43.85 0 01-21.4 32.6c-11.75 6.96-26.44 9.05-39.48 4.65a39.25 39.25 0 01-25.28-27.4 41.41 41.41 0 0110.73-38.55c2.06-2.04-1.15-5.23-3.18-3.17-19.79 20.01-13.42 56.76 11.65 69.3 26.63 13.34 62.59-2.64 69.72-31.66a41.37 41.37 0 00-15.12-43.06c-1.36-1.02-3.14 1.27-1.83 2.36z"/></g><g><path class="h" d="M93.92 4719.75c-11.12 11.6-13.75 29.5-7.8 44.2a51.34 51.34 0 0035.01 30.09c29.4 7.62 64.38-9.65 69.3-41.14a46.89 46.89 0 00-1.93-22.92c-2.5-6.94-6.28-14.66-12.59-18.89-.67-.45-1.28.5-.81 1.05 4.38 5.15 8.83 10.08 10.92 16.68a49 49 0 012.2 19.08c-1.2 13.5-9.1 25.59-20.01 33.43a55.45 55.45 0 01-39.64 9.95c-14.8-2.01-28.47-10.2-36.08-23.19-8.85-15.1-7.44-33.18 3.13-47.04.75-.98-.86-2.17-1.7-1.3z"/></g><g><path class="h" d="M189.6 4677.88a22.29 22.29 0 0022.13-3.18c6.5-5.01 10.33-12.56 13.08-20.1 3.3-9.06 5.52-18.44 10.63-26.74 4.77-7.76 11.23-13.9 18.64-19.12.47-.33.06-1.07-.45-.78a56.62 56.62 0 00-17.2 15.86c-5 6.86-7.94 14.54-10.52 22.55-2.69 8.38-5.33 17.06-11.48 23.64-6.35 6.8-15.45 9.93-24.38 6.25-1-.4-1.43 1.21-.44 1.62z"/></g><g><path class="h" d="M129.59 4672.01c-.7-7.29-1.56-15.18 1.6-22.05 2.9-6.29 8.64-10.5 15.77-9.48 7.02 1 12.4 6.13 16.79 11.3s8.13 10.88 12.68 15.94c.72.81 1.9-.38 1.2-1.2-8.95-10.13-17.64-28.75-33.63-28.14-6.47.25-11.61 4.6-14.26 10.3-3.4 7.33-2.47 15.57-1.47 23.33.1.82 1.4.85 1.32 0z"/></g><g><path class="h" d="M179.85 4683.03c11.35 7.1 26.55 9.4 37.79.75 11.69-9 13.9-23.85 19.78-36.43.47-.99-1-1.86-1.47-.86-5.49 11.65-7.62 25.21-17.53 34.31-10.71 9.84-26.13 7.87-37.62.6-1.03-.65-1.98.99-.95 1.63z"/></g><g><path class="h" d="M140.54 4671.56c-1-4.96-2.45-10.58.03-15.35 2.14-4.13 6.69-6.57 11.02-4.03 3.56 2.08 5.54 6.1 7.75 9.4a89.39 89.39 0 007.82 9.8c.82.91 2.15-.43 1.35-1.35-3.91-4.47-7.04-9.29-10.52-14.06-2.37-3.25-5.54-6.55-9.87-6.58-4-.03-7.31 2.99-8.88 6.45-2.28 5.03-1 10.88.38 15.97a.47.47 0 00.92-.25z"/></g><g><path class="h" d="M128.3 4670.63c-1.4 2.75 1.65 4.78 4.06 5.11 2.83.4 6.7-.64 8.21-3.25a.44.44 0 00-.6-.6 15.73 15.73 0 01-4.8 2.27c-2.58.53-6.28.01-6.3-3.37a.3.3 0 00-.57-.16z"/></g><g><path class="h" d="M128.42 4666.99c-3.69 1.4-5.43 5.8-4.51 9.5 1.21 4.88 6.05 7.72 10.89 7.68 4.69-.04 9.51-2.76 10.64-7.56 1-4.25-1.88-8.03-5.9-9.21a.61.61 0 00-.33 1.19 6.25 6.25 0 014.07 8.53c-1.43 3.51-5.27 5.22-8.9 5.2-8.06-.07-12.87-9.72-5.73-14.78.26-.18.12-.69-.23-.55z"/></g><g><path class="h" d="M147.91 4669.15c5.18-2.35 11.17-.47 15.07 3.42a25.82 25.82 0 014.39 6.08c1.23 2.27 1.82 4.98 3.26 7.1.43.65 1.65.48 1.6-.42-.2-2.88-1.98-6.03-3.43-8.47a22.42 22.42 0 00-5.97-6.65c-4.4-3.22-10.38-4.27-15.38-1.85-.53.26-.06 1.03.46.79z"/></g><g><path class="h" d="M169.56 4681.43c-.28 1.2.25 2.25.48 3.44a19.38 19.38 0 01.27 5.3 18.5 18.5 0 01-4.06 10.11c-.92 1.15.72 2.78 1.63 1.63a20.71 20.71 0 004.4-10.62c.3-2.67.31-8.46-2.4-10a.22.22 0 00-.32.14z"/></g><g><path class="h" d="M163.98 4673.2c1.54.13 2.75-.63 4.14-1.25l5.09-2.25c3.54-1.58 7-3.27 10.5-4.94 6.97-3.33 14-6.58 20.9-10.03.51-.25.15-1.15-.38-.93-7.04 2.96-13.98 6.14-20.97 9.2-3.56 1.56-7.11 3.09-10.62 4.74-1.83.85-3.65 1.73-5.47 2.6-1.4.66-2.61 1.05-3.52 2.3-.18.25.07.55.32.57z"/></g><g><path class="h" d="M171.09 4688.53c1.56-.11 2.55-.91 3.89-1.73 1.68-1.03 3.36-2.07 5-3.17a969.31 969.31 0 0119.77-12.72c3.09-1.94 6.38-3.69 9.17-6.04.32-.27-.1-.68-.42-.54-3.6 1.56-6.89 3.94-10.22 6q-4.78 2.97-9.6 5.88a564.05 564.05 0 01-9.68 5.76 162.4 162.4 0 00-5.05 3.07c-1.3.83-2.52 1.37-3.31 2.71a.52.52 0 00.45.78z"/></g><g><path class="x" d="M203.61 4654.85a5.12 5.12 0 016.24 3.03c1.1 2.8-.13 5.3-2.5 6.9-.59.4-.03 1.34.55.95 2.76-1.89 4.33-4.99 2.88-8.3-1.17-2.7-4.64-4.64-7.43-3.22a.35.35 0 00.27.64z"/></g><g><path class="x" d="M203.63 4669.98a8.3 8.3 0 0010.04.22c3.34-2.6 3.92-7.2 3.16-11.1a16.73 16.73 0 00-7.07-11.03c-3.41-2.13-7.8-2.14-10.64.92-.51.55.31 1.38.84.83 5.98-6.28 13.28 3.3 14.66 8.77.79 3.08.78 6.86-1.5 9.34a6.41 6.41 0 01-8.36.59c-.85-.62-1.96.8-1.13 1.45z"/></g><g><path class="x" d="M201.15 4647.61c-3.83 1.58-4.32 6-4.62 9.55-.11 1.34 2.22 1.24 1.93-.26a9.64 9.64 0 013-8.73c.24-.22 0-.69-.32-.56z"/></g><g><path class="x" d="M200.87 4648.55c11.6-6.5 22.8-13.73 34.1-20.71.86-.53.07-1.9-.8-1.36-11.31 6.98-22.8 13.76-33.8 21.22a.5.5 0 00.5.85z"/></g><g><path class="x" d="M254 4601.38c-2.3 3.99-3.05 9.21-3.68 13.7a75.49 75.49 0 00-.6 14.4c.12 2.2.07 4.66.85 6.7a25.24 25.24 0 002.82 5.22 30.91 30.91 0 008.51 8.26c1.45.96 2.82-1.38 1.37-2.32a28.23 28.23 0 01-8.56-8.56 14.49 14.49 0 01-2.31-5.53 51.9 51.9 0 01-.52-6.6 82.42 82.42 0 01.48-12.24c.5-4.3 1.84-8.59 2.15-12.9a.28.28 0 00-.52-.14z"/></g><g><path class="x" d="M249.8 4617.72c-8.47 7.05-12.5 19.33-14.26 29.8a64.4 64.4 0 00-.65 17.63c.6 5.55 1.6 12.2 4.47 17.07a.95.95 0 001.74-.73c-.65-2.77-1.84-5.41-2.53-8.19a58.89 58.89 0 01-.59-25.97 60.97 60.97 0 015.2-14.93c2.38-4.76 5.56-8.85 8.47-13.26.78-1.18-.88-2.22-1.85-1.42z"/></g><g><path class="x" d="M247.03 4624.2a38.31 38.31 0 00.56 43.92c.94 1.3 3.12.06 2.18-1.27a38.72 38.72 0 01-1.89-42.16c.33-.55-.5-1.02-.85-.5z"/></g><g><path class="h" d="M442.38 4497.45c-1.9 8.18 8.5 12.5 14.93 9.25 7.46-3.77 4.54-14.47-3.52-14.78-1.3-.05-1.28 1.91 0 2a5.81 5.81 0 011.35 11.42c-5 1.6-12.49-1.33-11.38-7.52.16-.89-1.17-1.28-1.38-.38z"/></g><g><path class="h" d="M411.37 4534.7c6.6-3.05 13.27-5.94 19.85-9.02.68-.32.08-1.32-.6-1.01-6.61 3.02-13.33 5.8-19.94 8.86-.8.37-.1 1.54.7 1.17z"/></g><g><path class="h" d="M433.38 4537.49c-5.62 3.7-11.15 7.52-16.7 11.32-.7.48-.03 1.63.66 1.14 5.52-3.86 11-7.79 16.5-11.66.49-.34.04-1.14-.47-.8z"/></g><g><path class="h" d="M430.45 4525.82c3.27-.8 5.55 2.57 5.66 5.46a7.96 7.96 0 01-2.83 6.08.52.52 0 00.63.8 7.58 7.58 0 003.18-9.27c-1.03-2.72-3.97-5.18-6.93-3.74-.39.18-.11.77.28.67z"/></g><g><path class="h" d="M455.68 4496.48c-1.58-5.05-6.42-8.8-11.3-10.47a19.2 19.2 0 00-16.77 2.23c-5.61 3.6-9.82 9.3-13.18 14.95a65.33 65.33 0 00-7.98 20.72c-.23 1.13 1.5 1.63 1.75.48 2.67-11.92 8.13-24.55 17.6-32.7 4.51-3.88 10.22-5.93 16.14-4.56 5.72 1.32 9.65 4.96 12.69 9.8.34.53 1.26.2 1.05-.45z"/></g><g><path class="h" d="M455.47 4496.01c-.55 2.26-1.46 4.45-3.86 5.27-2.14.73-3.78-.04-5.81-.62a.64.64 0 00-.62 1.05c1.63 2.05 5.18 2.1 7.36 1.02 2.38-1.18 4.3-3.85 4-6.57-.07-.57-.92-.79-1.07-.15z"/></g><g><path class="h" d="M447.01 4501.5a8.87 8.87 0 00-7.71-6.12c-4.33-.5-8.46 1.94-11.24 5.07a37.27 37.27 0 00-7.18 13.12 77.21 77.21 0 00-4.01 17.08c-.08.92 1.28 1.01 1.55.21 1.41-4.23 1.97-8.8 3.17-13.1a47.49 47.49 0 014.82-12.07c2.19-3.59 5.06-7.18 9.3-8.37a8.5 8.5 0 0110.25 4.62c.27.6 1.23.17 1.05-.44z"/></g><g><path class="h" d="M421.8 4529.33c-1.26-5.6 1.65-11.02 7.35-12.51a12.96 12.96 0 0114.3 5.85c5.83 9.75-3 22.94-14.4 18.45-1.37-.54-1.96 1.66-.61 2.2a13.58 13.58 0 0016.71-5.56 15.57 15.57 0 00-.9-17.29 14.54 14.54 0 00-16.64-4.89 11.22 11.22 0 00-6.57 13.96.4.4 0 00.76-.21z"/></g><g><path class="h" d="M438.56 4495.88a26.62 26.62 0 00-10.65 9.17c-2.5 3.68-4.98 8.7-4.52 13.29.06.65 1.01.87 1.2.16 1.16-4.4 1.77-8.51 4.33-12.43a28.5 28.5 0 0110.18-9.26c.61-.34.08-1.22-.54-.93z"/></g><g><path class="aa" d="M366.93 4552.76a10.75 10.75 0 00-3.19 2.5c-.43.49.12 1.3.72.93a18.44 18.44 0 013.25-1.59 1 1 0 10-.78-1.84z"/></g><g><path class="aa" d="M388.4 4561.24c-4.67-6.02-13.54-12.6-21.46-8.46-1.02.53-.31 2.08.76 1.8 3.95-1 7.33-.91 11.02 1.05a25 25 0 017.88 7 1.14 1.14 0 101.8-1.38z"/></g><g><path class="x" d="M357.27 4587.49c1.54 6.9 5.8 13.23 12.52 16.01 5.84 2.42 13.02 1.14 18.06-2.54 5.39-3.94 8.26-10.55 8.71-17.08.56-8.09-3.27-16.04-7.99-22.4-.85-1.15-2.82-.04-1.96 1.14 3.95 5.4 7.41 12 7.7 18.8.27 6.18-2.01 12.7-6.7 16.85-4.54 4-11.74 5.5-17.34 2.96-5.83-2.64-9.41-8.3-10.78-14.35-.33-1.44-2.54-.83-2.22.6z"/></g><g><path class="aa" d="M356.06 4577.97a43.77 43.77 0 00.73 8.43c.28 1.45 2.5.84 2.22-.6a39.89 39.89 0 01-.69-7.83 1.13 1.13 0 00-2.26 0z"/></g><g><path class="x" d="M402.06 4552.55c-1.15-3.26-5.38-4.33-8.25-2.62-3.6 2.14-4.2 6.88-2.34 10.36 1.58 2.93 5.19 5.56 8.37 3.23 3.88-2.85 2.76-8.5.91-12.16-.17-.33-.63-.09-.57.24.55 2.9 1.97 6.22.5 9.07-2.08 4.03-6.26 2.33-7.86-1.05-1.22-2.6-.98-5.95 1.44-7.8 2.44-1.88 4.95-.68 6.8 1.32a.61.61 0 001-.59z"/></g><g><path class="x" d="M349.85 4573.68a6.65 6.65 0 00-8.7-6.15c-4.63 1.67-5.88 7.7-3.8 11.75 1.87 3.66 6.24 5.55 9.83 2.95a7.3 7.3 0 001-10.5c-.34-.37-.99.13-.71.55 1.65 2.52 1.8 6.33-.57 8.5-2.83 2.57-6.73 1-8.11-2.22-1.28-3-.62-7.4 2.58-8.96 3.67-1.8 6.1 1.43 7.38 4.37.24.55 1.11.26 1.1-.3z"/></g><g><path class="x" d="M346.28 4568.09a5.13 5.13 0 00-4.05 8.38 3.57 3.57 0 002.95 1.42 3.65 3.65 0 002.95-3.16 5.58 5.58 0 00-4.74-6.23"/><path class="x" d="M346.28 4567.8a5.54 5.54 0 00-5.73 4.86c-.28 2.62 1.63 6.03 4.63 5.78 2.52-.21 3.77-3.08 3.43-5.3-.38-2.53-2.54-5-5.22-4.97a.33.33 0 00-.1.65 6.3 6.3 0 013.75 2.72c.99 1.72.98 4.37-.98 5.42-2.7 1.46-4.55-1.98-4.36-4.22a4.89 4.89 0 014.58-4.37c.36-.03.37-.57 0-.57z"/></g><g><path class="x" d="M345.13 4584.42c-2.27-3.25-7.9-7-11.83-4.52a.6.6 0 00.14 1.09c1.77.63 3.56.5 5.37.92a13.49 13.49 0 015.61 3.06c.37.31 1.02-.1.71-.55z"/></g><g><path class="x" d="M109.77 4643.21a22.52 22.52 0 002.66 1.06 10.55 10.55 0 002.7.77.46.46 0 00.32-.78c-1.21-1.27-3.49-1.42-5.06-2.11-.71-.32-1.34.72-.62 1.06z"/></g><g><path class="x" d="M115.16 4645.43a1281.66 1281.66 0 01138.97-73.16c13.49-6.03 27.13-11.66 40.73-17.4.66-.29.19-1.44-.49-1.17-24.21 9.48-47.99 20.31-71.42 31.57q-35.5 17.06-69.86 36.37-19.5 10.97-38.59 22.66a.65.65 0 00.66 1.13z"/></g><g><path class="x" d="M171.37 4694.03l31.04 1.72c10.31.57 20.7 1.52 31.04 1.6a.87.87 0 000-1.74c-10.3-.88-20.72-1.03-31.04-1.55-10.35-.52-20.7-1.03-31.04-1.42-.9-.03-.9 1.34 0 1.4z"/></g><g><path class="x" d="M197.9 4630.64c6.56-3.12 13.05-6.42 19.54-9.7s13.07-6.4 19.35-10.05c.44-.25.06-.84-.38-.65-6.67 2.9-13.1 6.36-19.57 9.67s-12.96 6.58-19.37 10.01c-.47.26-.05.94.42.72z"/></g><g><path class="x" d="M265.02 4570.65c.08-.06.15-.12.22-.2a.52.52 0 000-.71l-.22-.2a.8.8 0 00-.86-.17.78.78 0 00-.48.72.8.8 0 001.34.56z"/></g><g><path class="x" d="M267.6 4566.88a25.38 25.38 0 00.45 5.42c.12.53.88.37.91-.12a25.47 25.47 0 00-.33-5.44c-.09-.6-1.03-.43-1.03.14z"/></g><g><path class="x" d="M118.88 4647.63a.82.82 0 00-1.29-1 .82.82 0 101.3 1z"/></g><g><path class="x" d="M200.58 4625.72a.82.82 0 10-1.3.17.83.83 0 001.3-.17z"/></g><g><path class="x" d="M199.3 4602.55a1.27 1.27 0 00.32-.03.4.4 0 00.3-.3 1.31 1.31 0 00.02-.31.64.64 0 10-.63.63z"/></g><g><path class="x" d="M192 4692.46a.74.74 0 000-1.5.74.74 0 000 1.5z"/></g><g><path class="x" d="M194.02 4604.73a.74.74 0 000-1.49.74.74 0 000 1.5z"/></g><g><path class="x" d="M491 4457.99c.35 12.78 1.42 25.6 2.27 38.36.08 1.14 1.86 1.15 1.79 0-.75-12.78-1.58-25.63-2.81-38.36-.08-.79-1.28-.82-1.25 0z"/></g><g><path class="x" d="M493.4 4496.15c-6.1 7.63-12.48 15.12-18.17 23.07-.55.77.7 1.73 1.32 1.01 6.36-7.33 12.12-15.2 18.07-22.86.67-.86-.52-2.09-1.22-1.22z"/></g><g><path class="x" d="M357.35 4523.5c16.72-9.63 33.43-19.3 50.64-28.03q26.23-13.29 53.42-24.58 15.14-6.3 30.49-12.11c.49-.18.29-.97-.22-.8-36.7 12.98-72.12 29.46-106.55 47.55a529.34 529.34 0 00-28.8 16.23 1 1 0 001.02 1.73z"/></g><g><path class="x" d="M375.6 4514.4c29.75-15.24 59.58-30.29 89.85-44.46q12.9-6.04 25.89-11.93c.65-.3.08-1.25-.56-.96q-45.7 20.62-90.33 43.46c-8.46 4.32-16.82 8.8-25.17 13.33-.36.2-.04.74.32.55z"/></g><g><path class="x" d="M453.87 4477.18c.4 5.15 1.29 10.33 2.06 15.44.1.64 1.09.37.98-.27-.84-5.05-1.17-10.28-2.38-15.26-.08-.36-.7-.3-.66.1z"/></g><g><path class="x" d="M490.9 4488.4c-6.22 5.18-13 9.7-19.15 14.96-.61.52.27 1.35.88.87 6.34-5 12.43-10.3 18.71-15.38.31-.25-.13-.7-.44-.44z"/></g><g><path class="x" d="M455.8 4477.05a.7.7 0 000-1.38.7.7 0 000 1.38z"/></g><g><path class="x" d="M490.6 4487.02a.31.31 0 000-.63.31.31 0 000 .63z"/></g><g><path class="x" d="M492.13 4495.58a.45.45 0 000-.9.45.45 0 000 .9z"/></g><g><path class="x" d="M477.8 4502.32c.35 3.4.86 6.78 1.38 10.16.04.27.5.21.48-.06-.27-3.4-.9-6.73-1.34-10.1-.04-.32-.55-.34-.51 0z"/></g><g><path class="x" d="M479.5 4501.54a.53.53 0 000-1.05.53.53 0 000 1.05z"/></g><g><path class="x" d="M477.21 4512.9l.05.1a.36.36 0 00.63 0l.05-.1a.42.42 0 10-.73 0z"/></g><g><path class="x" d="M275.57 4683.92c.37-6.88-3.52-15.26 3.71-19.91 3.16-2.03 21.48-6.38 19.06 1.82-.23.79.9 1.05 1.2.33 1.33-3.22-1.65-5.98-4.64-6.5-4.13-.7-9.7.23-13.58 1.72-3.37 1.28-6.34 3.68-7.46 7.2-1.57 4.97.38 10.3.5 15.34a.6.6 0 001.2 0z"/></g><g><path class="x" d="M282 4679.65c-1.04-5.19-1.34-11.05 5.35-11.95 2.01-.27 4.07-.26 6.1-.35a11.62 11.62 0 013.65.15c2.45.7 3.15 3.97.33 4.64a.71.71 0 00-.17 1.3 5.03 5.03 0 012.94 5.67.63.63 0 001.22.34 6.08 6.08 0 00-3.44-7.24l-.17 1.3a3.72 3.72 0 002.72-5.03c-1.59-3.46-6.66-2.53-9.62-2.4-3.38.17-7.35.19-9.52 3.22-2.25 3.13-1.46 7.22-.55 10.66.2.75 1.3.43 1.16-.31z"/></g><g><path class="x" d="M283.15 4674.42a29.6 29.6 0 0112.6-.96c.27.03.33-.41.06-.47a23.48 23.48 0 00-12.79.99c-.27.1-.16.53.13.44z"/></g><g><path class="x" d="M299.94 4766.66c-10.6-.43-21.15 0-31.75-.78-5-.38-11.2.05-15.5-2.74a20.06 20.06 0 01-8.96-13.6c-.2-1.12-1.86-.62-1.7.47a20.5 20.5 0 007.6 13.17c1.6 1.28 3.62 2.86 5.63 3.36 2.84.7 6.19.56 9.1.78 11.7.9 23.9 1.7 35.57.25a.46.46 0 000-.91z"/></g><g><path class="x" d="M243.03 4751.98q18.9 1.35 37.8 2.64l-.85-.85a15.52 15.52 0 1030.42-5.32.87.87 0 00-1.03-.59c-10.28 1.76-20.57 3.44-30.78 5.51-.52.1-.4 1 .12.93 10.4-1.38 20.75-3.13 31.1-4.81l-1.03-.6a13.82 13.82 0 11-27.1 4.88.88.88 0 00-.85-.85q-18.9-1.29-37.8-2.5c-1-.07-1 1.49 0 1.56z"/></g><g><path class="x" d="M306.3 4745.52a18.07 18.07 0 00.34 2.05c.12.62.13 1.26.7 1.62a.52.52 0 00.7-.18c.35-.53.1-1.11-.03-1.68a17.66 17.66 0 00-.52-1.97c-.2-.6-1.25-.55-1.18.16z"/></g><g><path class="x" d="M278.44 4749.4a15.73 15.73 0 0011.03 2.9c.63-.1.43-1.03-.15-1.06-3.79-.24-7.02-.8-10.34-2.76-.6-.36-1.1.53-.55.92z"/></g><g><path class="x" d="M257.9 4754.9a13.34 13.34 0 006.76 11.79.35.35 0 00.35-.6 14.35 14.35 0 01-6.4-11.2.35.35 0 00-.7 0z"/></g><g><path class="x" d="M264.45 4760.48c5.33.27 10.66.58 16 .59a.3.3 0 000-.6c-5.32-.37-10.66-.45-16-.57a.29.29 0 000 .58z"/></g><g><path class="x" d="M280.87 4763.05a.37.37 0 000-.73.37.37 0 000 .73z"/></g><g><path class="x" d="M278.78 4759.36a.43.43 0 000-.85.43.43 0 000 .85z"/></g><g><path class="x" d="M278.24 4664.34c-1.47-1.92.58-3.8 2.39-4.36 1.18-.36 2.44-.58 3.65-.83 2.36-.48 8.64-2.18 9.36 1.57.13.68 1.2.5 1.2-.16.03-5.38-8.83-3.01-11.77-2.39-2.04.43-4.79.8-6.09 2.66a3.16 3.16 0 00.35 4.21c.45.43 1.33-.16.91-.7z"/></g><g><path class="x" d="M460.56 4588.56c-4.4-3.43 1.01-7.42 4.45-8.3a22.13 22.13 0 015.06-.53 16.75 16.75 0 012.37.1l1.08.2a1.4 1.4 0 01.66 1.44 1 1 0 000 1.9c.78.28.96 1.74 1.15 2.5a.75.75 0 001.36.18 3.22 3.22 0 00-1.98-4.58v1.9c1.68-.6 1.97-3.13.81-4.42-1.87-2.07-7-1.02-9.28-.71-3.22.43-7.12 2-8.5 5.18a5.27 5.27 0 001.74 6.53c.81.57 1.87-.78 1.08-1.4z"/></g><g><path class="x" d="M471.53 4582.69a22.04 22.04 0 00-10.01 2.66c-.22.11-.07.48.17.4a72.87 72.87 0 019.9-2.62c.25-.05.19-.45-.07-.45z"/></g><g><path class="x" d="M471.88 4578.48a16.29 16.29 0 00-.96-3.5c-.97-1.86-3.47-1.77-5.31-1.77a20.52 20.52 0 00-8.28 1.74c-1.79.8-4.59 1.93-4.9 4.16-.31 2.26.72 5.1 1.1 7.3.44 2.58.94 5.16 1.38 7.74.13.75 1.28.43 1.15-.31-.66-3.84-1.4-8.39-2.1-12.47a5.69 5.69 0 01-.27-1.56c.51-2.92 5.12-4.28 7.58-4.86 1.98-.46 7.41-1.47 8.67.85a13.85 13.85 0 01.77 3 .61.61 0 001.17-.32z"/></g><g><path class="x" d="M454.93 4576.92c-.36-4.88 9.16-4.64 11.75-2.72.5.38 1.2-.36.86-.85-1.74-2.52-5.48-2-8.1-1.56-2.8.46-6.25 1.66-5.83 5.13.1.82 1.38.86 1.32 0z"/></g><g><path class="x" d="M461.07 4642.95a12.95 12.95 0 0013.8 11.75c7.19-.57 12.89-7.12 11.93-14.38-.13-1.03-1.7-1.11-1.68 0 .18 6.45-3.76 12.25-10.62 12.65a11.7 11.7 0 01-12.04-10.21c-.12-.78-1.48-.6-1.4.19z"/></g><g><path class="x" d="M485.5 4639.93c-7.83.5-15.68.74-23.5 1.4-1.12.1-1.14 1.86 0 1.78 7.83-.57 15.68-.98 23.5-1.67.95-.09.98-1.58 0-1.51z"/></g><g><path class="x" d="M463.57 4641.64c-1.55-.9-3.26-.14-4.93.2-2.3.5-4.54 1.12-6.8 1.72-.65.17-.55 1.26.15 1.2 2.13-.19 4.25-.34 6.36-.64 1.78-.26 4.12-.09 5.34-1.55a.6.6 0 00-.12-.93z"/></g><g><path class="x" d="M483.58 4648.61a35.24 35.24 0 01-15.82 8.91 54.97 54.97 0 01-19.78 1.97c-.82-.06-1.01 1.29-.2 1.43 7.01 1.21 14.41.33 21.24-1.53 5.36-1.46 13.31-4.3 15.89-9.75a.85.85 0 00-1.33-1.03z"/></g><g><path class="x" d="M466.7 4644.85c2.16 9.6 17.54 7.23 16.28-2.63a.37.37 0 00-.74 0c-.33 3.83-2.67 7.37-6.87 7.54-3.54.14-6.03-2.18-7.23-5.3a.74.74 0 00-1.43.4z"/></g><g><path class="x" d="M460.73 4648.08c-3.46.4-6.93.69-10.34 1.4a.45.45 0 00.12.87c3.42-.07 6.82-.56 10.22-.94.84-.09.85-1.42 0-1.33z"/></g><g><path class="x" d="M462.1 4650.45a.77.77 0 00.45-.14.4.4 0 00.14-.55.68.68 0 00-.31-.31.55.55 0 00-.8.32.55.55 0 00.53.68z"/></g><g><path class="x" d="M452.85 4649.42c-.94 4.24 1.16 9.2 5.68 10.3.54.13.9-.64.39-.9-3.5-1.89-5.74-4.93-4.83-9.07.18-.8-1.06-1.15-1.24-.34z"/></g><g><path class="x" d="M454.93 4651.8l-.12-.03a.23.23 0 00-.22.38l.08.08c.33.3.67-.33.26-.43z"/></g><g><path class="x" d="M460.7 4643.18a.64.64 0 000-1.29.64.64 0 000 1.29z"/></g><g><path class="x" d="M196.14 4602.75c-.1 7.82-.1 15.64-.11 23.45-.01 7.8-.25 15.66.13 23.46a.41.41 0 00.83 0c.35-7.8.09-15.66.05-23.46-.03-7.81-.05-15.63-.18-23.45a.36.36 0 00-.72 0z"/></g><g><path class="x" d="M196.07 4691.33a15.27 15.27 0 00.03 3.51.34.34 0 00.64 0 15.24 15.24 0 00.02-3.51.35.35 0 00-.69 0z"/></g><g><path class="x" d="M241.32 4608.69c2.86-1.31 5.73-2.6 8.56-3.98.37-.18.05-.7-.31-.54-2.9 1.25-5.75 2.58-8.61 3.89-.43.2-.06.82.37.63z"/></g><g><path class="x" d="M287.03 4756.58a8.93 8.93 0 008.5 7.05 9.06 9.06 0 008.5-6.78.23.23 0 00-.44-.13 8.26 8.26 0 01-8.06 6.08c-3.78-.1-6.53-3.06-7.5-6.49a.52.52 0 00-.99.27z"/></g><g><path class="x" d="M253.23 4766.5a60.95 60.95 0 0010.4 15.92c1 1.1 2.69-.57 1.64-1.64a63.88 63.88 0 01-10.9-14.95c-.4-.76-1.49-.09-1.14.67z"/></g><g><path class="x" d="M453.1 4586.58c-2.15-.77-4.05 3.35-4.45 4.93-.65 2.62-.28 5.8 1.92 7.58a.55.55 0 00.86-.65c-1.1-2.27-1.76-4.54-.98-7.03a7.87 7.87 0 011.76-3.06c.55-.6.97-.74 1.06-1.55a.23.23 0 00-.17-.22z"/></g><g><path class="x" d="M249.14 4763.5a.13.13 0 000-.27.13.13 0 000 .26z"/></g><g><path class="x" d="M227.98 4733.73c-3.52 16.41 12.32 27.63 26.18 31.56.78.22 1.07-.92.33-1.19-6.74-2.46-13.36-5.06-18.6-10.14-5.36-5.18-8.32-12.56-7.1-20 .09-.53-.7-.76-.8-.23z"/></g><g><path class="x" d="M365.38 4520.67c8.12-4.92 16.83-7.69 26.25-4.93a27.66 27.66 0 0111.33 6.5c3.42 3.26 4.61 7.3 5.84 11.7a1.26 1.26 0 002.43-.66c-1.32-4.7-2.67-9.01-6.28-12.49a29.96 29.96 0 00-12-6.97c-9.89-3.02-20.1-.38-28.24 5.7-.67.5-.08 1.61.67 1.16z"/></g><g><path class="aa" d="M391.7 4566.06c-2-7.11-11.15-7.93-16.69-4.6-8.21 4.95-10.3 15.01-15.68 22.28-5.15 6.94-13.94 10.44-22.48 9.99a25 25 0 01-11.67-3.52c-1.8-1.1-2.4-.73-4.4.08a48.56 48.56 0 00-5.74 2.76c-8.22 4.66-15.37 11.78-18 20.98-.22.72.93 1.25 1.24.52a41.21 41.21 0 0116.16-18.74 48.43 48.43 0 015.04-2.73 21.56 21.56 0 012.9-1.24c1.33-.4 1.78.15 2.96.77a26.98 26.98 0 009.15 2.83 29.73 29.73 0 0019.62-4.34c7.15-4.6 9.95-12.1 14-19.18 2.47-4.32 5.96-8.9 11-10.3 4.45-1.24 9.57.6 11.55 4.88.27.58 1.2.17 1.04-.44z"/><path class="aa" d="M390.88 4566.28c3.46 4.64 10.55 8.06 16.23 5.7 7.25-3 10.52-11.12 10.27-18.5a30.94 30.94 0 00-8.23-19.99c-4.87-5.18-11.35-8.53-17.99-10.87-2.15-.76-2.95-.4-5.2.23l-8.27 2.35-15.1 4.28c-9.15 2.6-18.49 4.86-27.46 8.05-7.11 2.53-14.2 6.02-19.1 11.94a27.07 27.07 0 00-5.26 10.12 27.82 27.82 0 00-.92 5.53 10.72 10.72 0 01-.26 3.33 14.88 14.88 0 01-1.58 2.29c-9.71 14.52-13.5 31.08-12.42 48.43a.92.92 0 001.84 0c-.2-13.98 1.4-27.61 8.04-40.12a85.58 85.58 0 014.75-7.82c.74-1.1 1.58-1.94 1.72-3.23a62.27 62.27 0 01.48-6.26c1.6-7.75 6.72-13.78 13.44-17.75 6.1-3.6 12.98-5.64 19.75-7.58l26.28-7.52 13.62-3.9c2.2-.63 3.63-1.07 5.84-.27 1.75.63 3.47 1.33 5.15 2.14 5.85 2.79 11.24 6.74 14.73 12.28 4.66 7.4 6.58 18.32 1.54 26-2.4 3.64-6.38 6.6-10.92 6.05a15.3 15.3 0 01-10.03-5.63c-.4-.53-1.34.17-.93.71z"/><path class="aa" d="M357.22 4575.45a44.9 44.9 0 005.32-16.24c.56-4.2.53-8.89-2.11-12.42-5.73-7.68-18.54-4.52-25.92-1.62a48.62 48.62 0 00-7 3.4c-1.96 1.16-4.9 2.65-6.34 4.5-1.3 1.67-1.94 4.57-2.51 6.56a32.73 32.73 0 00-1.32 8.47c-.14 8.92 4.68 18.3 13.8 20.76 10.9 2.94 21.27-4.02 26.5-13.17a.91.91 0 00-1.59-.92c-4.23 7.4-11.5 13.08-20.4 12.88-9.02-.2-15.33-7.69-16.43-16.23a30.43 30.43 0 011.77-13.9 11.8 11.8 0 011.94-3.88 17.06 17.06 0 013.24-2.36 47.27 47.27 0 015.47-3.14c6.86-3.35 18.11-7.1 25.25-2.58 4.42 2.81 4.75 8.37 4.26 13.07a47 47 0 01-4.7 16.38c-.25.5.5.94.77.44zM386.97 4560.3c-5.74-4.27-17.84-16.34-9.94-23.36 3.23-2.88 8.2-3.97 12.4-4.33a32.74 32.74 0 016.46.09c2.82.32 4.62.86 6.69 2.84 5.83 5.6 11.25 15.71 5.95 23.4-5.03 7.3-15.13 5.23-21.37 1.04-.75-.5-1.45.71-.7 1.21 5.69 3.82 13.18 5.76 19.45 2.04 6.6-3.92 7.18-12.33 4.47-18.86a28.55 28.55 0 00-6.64-9.4c-1.2-1.16-2.32-2.44-3.98-2.84a32.85 32.85 0 00-6.65-.84c-6.34-.17-16.52 1.28-19.28 8.09-1.62 4 .47 8.25 2.78 11.52a39.8 39.8 0 0010.03 9.98c.36.25.67-.33.33-.58z"/></g><g><path class="h" d="M428.48 4541.84c11.77 8.1 28.88 7.39 40.26-1.22a23.33 23.33 0 006.55-7.32c1.69-3.11 1.87-6.03 1.6-9.47-.61-7.69-1.37-15.52-5.53-22.24-3.77-6.08-10.81-10.86-18.25-9.64-.59.1-.44 1.05.14 1.04 9.14-.25 15.78 5.56 19.05 13.77a47.2 47.2 0 012.82 13.17c.42 4.54 1.06 8.83-1.28 12.98-4.26 7.56-12.43 10.85-20.46 12.65a32.73 32.73 0 01-24.49-4.42c-.44-.27-.83.4-.4.7z"/></g><circle class="a" cx="4" cy="4" r="4" transform="translate(67 4688)"/><circle class="b" cx="5" cy="5" r="5" transform="translate(54 4761)"/><circle class="a" cx="5.5" cy="5.5" r="5.5" transform="translate(43 4708)"/><circle class="a" cx="5.5" cy="5.5" r="5.5" transform="translate(552 4656)"/><circle class="a" cx="5.5" cy="5.5" r="5.5" transform="translate(223 4894)"/><circle class="a" cx="5.5" cy="5.5" r="5.5" transform="translate(234 4784)"/><circle class="a" cx="5.5" cy="5.5" r="5.5" transform="translate(18 5047)"/><circle class="a" cx="8" cy="8" r="8" transform="translate(213 4929)"/><circle class="a" cx="4" cy="4" r="4" transform="translate(248 4912)"/><circle class="a" cx="4" cy="4" r="4" transform="translate(505 5099)"/><circle class="a" cx="4" cy="4" r="4" transform="translate(90 4700)"/><circle class="a" cx="4" cy="4" r="4" transform="translate(525 4696)"/><circle class="a" cx="4" cy="4" r="4" transform="translate(511 4538)"/><circle class="a" cx="4" cy="4" r="4" transform="translate(513 4520)"/></g></svg>