<svg xmlns="http://www.w3.org/2000/svg" viewBox="0 0 869.959 869.958"><path d="M146.838 484.584c10.271 10.395 23.804 15.6 37.347 15.6 13.329 0 26.667-5.046 36.897-15.155 20.625-20.379 20.825-53.62.445-74.245l-41.688-42.191h423.78c88.963 0 161.34 72.376 161.34 161.339v4.32c0 43.096-16.782 83.61-47.255 114.084-20.503 20.502-20.503 53.744 0 74.246 10.251 10.251 23.688 15.377 37.123 15.377 13.435 0 26.872-5.125 37.123-15.377 50.305-50.306 78.009-117.188 78.009-188.331v-4.32c0-71.142-27.704-138.026-78.009-188.331-50.306-50.305-117.189-78.009-188.331-78.009h-424.99l42.25-41.747c20.625-20.379 20.825-53.62.445-74.245-20.376-20.624-53.618-20.825-74.244-.445L15.601 277.068a52.498 52.498 0 0 0-.446 74.245l131.683 133.271z"/></svg>