<svg xmlns="http://www.w3.org/2000/svg" xmlns:xlink="http://www.w3.org/1999/xlink" width="126" height="131" xmlns:v="https://vecta.io/nano"><defs><path id="A" d="M0 0h126v131H0z"/></defs><clipPath id="B"><use xlink:href="#A"/></clipPath><path clip-path="url(#B)" fill="#80ee98" d="M25.042 130.072c-6.078-1.875-12.3-7.949-14.402-14.023-1.125-3-2.772-16.246-10.125-55.426-1.398-7.449 2.625-11.851 7.352-14.324 1.199-.602 6.824-2.25 12.523-3.602l10.277-2.476 1.723-9.598c2.027-11.25 4.426-16.574 9.902-21.676C54.367-2.303 72.214-2.377 84.14 8.799c5.625 5.25 8.027 10.5 10.051 21.824l1.726 9.598 10.274 2.476c11.625 2.774 13.801 3.75 16.648 7.051 4.051 4.875 4.051 5.848-.972 35.774-2.551 14.925-5.176 28.726-5.926 30.675-1.574 4.352-6.411 11.306-10.949 12.524-8.492 2.279-3.528 1.652-40.575 1.801-20.625.074-31.667.478-39.375-.45h0zm87.223-37.273l3.227-18.902-4.352-.375c-5.551-.524-10.051-2.7-14.398-7.051-3.075-3.223-6.983-9.678-6.227-10.422.344-.339 6.376.208 8.657.583 1.178.194.57 1.589 3.195 3.991 7.5 6.973 15.675 5.848 15.675-2.25 0-4.051-3.675-5.699-19.875-9-13.8-2.777-22.953-3.527-38.25-3.226l-14.027.226.375-3.601c.152-1.95.527-3.825.824-4.125.903-.825 25.875-1.051 33.153-.301 3.675.453 6.75.676 6.898.527.449-.449-2.25-14.25-3.301-16.801-2.547-6.148-7.047-9.976-14.472-12.449-10.278-3.375-22.352 2.324-26.625 12.676-.676 1.574-2.403 9.973-3.825 18.598-2.925 17.402-3.967 20.235-9.375 25.875-4.001 4.172-8.625 6.3-14.101 6.75l-4.352.375 3.153 18.527c3.375 19.574 3.898 21.598 6.675 25.273 3.75 4.875 2.848 4.801 43.2 4.575l36.449-.149c6.517-1.706 8.25-8.851 11.699-29.324zm-93.375-28.5c3.676-1.5 6.75-4.5 8.477-8.176 1.125-2.476 1.949-7.199 1.273-7.125-.148 0-4.125 1.051-8.848 2.25-9.152 2.324-11.25 3.676-11.25 7.274 0 2.742.819 6.033.94 6.673.313 1.656 6.635.303 9.408-.896h0zm0 0"/></svg>