<svg xmlns="http://www.w3.org/2000/svg" xmlns:xlink="http://www.w3.org/1999/xlink" width="210.995" height="206.644" viewBox="0 0 210.995 206.644"><defs><style>.a{fill:none;stroke:#3b59b2;stroke-linecap:round;stroke-miterlimit:10;stroke-width:31px;}.b{fill:url(#a);}.c{fill:#fff;}.d{filter:url(#b);}</style><linearGradient id="a" x1="0.858" y1="0.942" x2="0.089" y2="0.209" gradientUnits="objectBoundingBox"><stop offset="0" stop-color="#30aef2"/><stop offset="1" stop-color="#557cf2"/></linearGradient><filter id="b" x="25.327" y="25.067" width="170" height="170" filterUnits="userSpaceOnUse"><feOffset dx="2" dy="4" input="SourceAlpha"/><feGaussianBlur stdDeviation="7" result="c"/><feFlood flood-color="#081e60" flood-opacity="0.431"/><feComposite operator="in" in2="c"/><feComposite in="SourceGraphic"/></filter></defs><g transform="translate(-1400.884 -2521.151)"><path class="a" d="M111.147,0A71.292,71.292,0,1,1,0,59.114" transform="matrix(-0.966, 0.259, -0.259, -0.966, 1591.338, 2666.094)"/><g class="d" transform="matrix(1, 0, 0, 1, 1400.88, 2521.15)"><circle class="b" cx="64" cy="64" r="64" transform="translate(44.33 42.07)"/></g><g transform="translate(1477 2603)"><path class="c" d="M36.937,67.517c-3.089,0-6.179-1.472-9.162-4.363L10.3,45.911a17.981,17.981,0,0,1,0-25.6,18.432,18.432,0,0,1,25.888,0l.746.736.746-.736a18.435,18.435,0,0,1,26.047.158,16.553,16.553,0,0,1,4.261,7.1,2.422,2.422,0,0,1-1.6,3,2.467,2.467,0,0,1-3.036-1.577,13.187,13.187,0,0,0-3.143-5.2,13.6,13.6,0,0,0-9.641-4.048,13.74,13.74,0,0,0-9.535,3.89l-4.1,4.153-4.155-4.1a13.42,13.42,0,0,0-9.535-3.89,13.74,13.74,0,0,0-9.535,3.89,13.234,13.234,0,0,0,0,18.872L31.184,59.789c4,3.943,7.511,3.943,11.506,0L59.895,42.862a14.567,14.567,0,0,0,1.651-1.945c.213-.263.32-.526.533-.841a2.452,2.452,0,0,1,3.3-.841,2.384,2.384,0,0,1,.852,3.259,7.21,7.21,0,0,1-.692,1.051A17.277,17.277,0,0,1,63.3,46.174L46.152,63.154c-2.983,2.944-6.126,4.363-9.215,4.363Zm20.4,0a2.372,2.372,0,0,1-2.4-2.366v-3a2.4,2.4,0,0,1,4.794,0v3A2.372,2.372,0,0,1,57.338,67.517Zm9.215-.053a2.372,2.372,0,0,1-2.4-2.366V56.845a2.4,2.4,0,0,1,4.794,0V65.1a2.372,2.372,0,0,1-2.4,2.366Z" transform="translate(-4.95 -15)"/><path class="c" d="M25.761,47.25a2.583,2.583,0,0,1-1.7-.683,8.488,8.488,0,0,1,0-12.144,8.827,8.827,0,0,1,12.358,0,2.389,2.389,0,0,1,0,3.417,2.466,2.466,0,0,1-3.462,0,3.811,3.811,0,0,0-2.717-1.1,3.811,3.811,0,0,0-2.717,6.519,2.389,2.389,0,0,1,0,3.417,3.053,3.053,0,0,1-1.758.578Z" transform="translate(-12.684 -23.016)"/><path class="c" d="M110.459,60.831H101.3a2.366,2.366,0,1,1,0-4.731h9.162a2.366,2.366,0,1,1,0,4.731Z" transform="translate(-48.856 -34.494)"/><path class="c" d="M118.5,69.821a2.372,2.372,0,0,1-2.4-2.366V58.466a2.4,2.4,0,0,1,4.794,0v8.989A2.372,2.372,0,0,1,118.5,69.821Z" transform="translate(-56.894 -34.494)"/></g></g></svg>