<svg xmlns="http://www.w3.org/2000/svg" xmlns:xlink="http://www.w3.org/1999/xlink" width="240.258" height="239.348" viewBox="0 0 240.258 239.348"><defs><style>.a{fill:none;stroke:#3b59b2;stroke-linecap:round;stroke-miterlimit:10;stroke-width:31px;}.b{fill:url(#a);}.c{fill:#fff;}.d{filter:url(#b);}</style><linearGradient id="a" x1="0.131" y1="0.291" x2="0.923" y2="0.898" gradientUnits="objectBoundingBox"><stop offset="0" stop-color="#30aef2"/><stop offset="1" stop-color="#557cf2"/></linearGradient><filter id="b" x="34.458" y="35.616" width="170" height="170" filterUnits="userSpaceOnUse"><feOffset dx="2" dy="4" input="SourceAlpha"/><feGaussianBlur stdDeviation="7" result="c"/><feFlood flood-color="#081e60" flood-opacity="0.431"/><feComposite operator="in" in2="c"/><feComposite in="SourceGraphic"/></filter></defs><g transform="translate(-837.977 -2500.552)"><path class="a" d="M111.147,0A71.292,71.292,0,1,1,0,59.114" transform="matrix(0.777, -0.629, 0.629, 0.777, 863.566, 2616.758)"/><g class="d" transform="matrix(1, 0, 0, 1, 837.98, 2500.55)"><circle class="b" cx="64" cy="64" r="64" transform="translate(53.46 52.62)"/></g><g transform="translate(924 2586)"><path class="c" d="M43.606,63.335h-22.5a2.817,2.817,0,0,1-2.818-2.818V46.426H4.151a2.817,2.817,0,0,1-2.818-2.818V21.062a2.817,2.817,0,0,1,2.818-2.818H18.293V4.153a2.817,2.817,0,0,1,2.818-2.818h22.5a2.817,2.817,0,0,1,2.818,2.818V18.244H60.515a2.817,2.817,0,0,1,2.818,2.818V43.608a2.817,2.817,0,0,1-2.818,2.818H46.424V60.517A2.815,2.815,0,0,1,43.606,63.335ZM23.93,57.7H40.789V43.606a2.817,2.817,0,0,1,2.818-2.818H57.7V23.879H43.606a2.817,2.817,0,0,1-2.818-2.818V6.97H23.93V21.062a2.817,2.817,0,0,1-2.818,2.818H6.97V40.789H21.113a2.817,2.817,0,0,1,2.818,2.818Z" transform="translate(-1.333 -1.335)"/><path class="c" d="M18.97,5.335,13.333,13.79H24.605Z" transform="translate(12.031 3.12)"/><path class="c" d="M6.667,18.97l8.455,5.637V13.335Z" transform="translate(4.607 12.029)"/><path class="c" d="M18.969,31.123l5.637-8.455H13.334Z" transform="translate(12.032 22.423)"/><path class="c" d="M29.788,18.971l-8.455-5.637V24.606Z" transform="translate(20.94 12.028)"/></g></g></svg>