<svg id="Capa_1" enable-background="new 0 0 60 59" height="512" viewBox="0 0 60 59" width="512" xmlns="http://www.w3.org/2000/svg"><path id="Shape" d="m8 50h44v7c0 .552-.448 1-1 1h-42c-.552 0-1-.448-1-1z" fill="#cf976a"/><g fill="#a56a43"><path id="Shape_1_" d="m22 53c-.552 0-1-.448-1-1v-2c0-.552.448-1 1-1s1 .448 1 1v2c0 .552-.448 1-1 1z"/><path id="Shape_2_" d="m18 53c-.552 0-1-.448-1-1v-2c0-.552.448-1 1-1s1 .448 1 1v2c0 .552-.448 1-1 1z"/><path id="Shape_3_" d="m14 53c-.552 0-1-.448-1-1v-2c0-.552.448-1 1-1s1 .448 1 1v2c0 .552-.448 1-1 1z"/><path id="Shape_4_" d="m26 54c-.552 0-1-.448-1-1v-3c0-.552.448-1 1-1s1 .448 1 1v3c0 .552-.448 1-1 1z"/><path id="Shape_5_" d="m38 53c-.552 0-1-.448-1-1v-2c0-.552.448-1 1-1s1 .448 1 1v2c0 .552-.448 1-1 1z"/><path id="Shape_6_" d="m42 53c-.552 0-1-.448-1-1v-2c0-.552.448-1 1-1s1 .448 1 1v2c0 .552-.448 1-1 1z"/><path id="Shape_7_" d="m46 53c-.552 0-1-.448-1-1v-2c0-.552.448-1 1-1s1 .448 1 1v2c0 .552-.448 1-1 1z"/><path id="Shape_8_" d="m34 54c-.552 0-1-.448-1-1v-3c0-.552.448-1 1-1s1 .448 1 1v3c0 .552-.448 1-1 1z"/><path id="Shape_9_" d="m30 54c-.552 0-1-.448-1-1v-3c0-.552.448-1 1-1s1 .448 1 1v3c0 .552-.448 1-1 1z"/></g><path id="Shape_10_" d="m53 3v46c-.002.552-.448.998-1 1h-44c-.552-.002-.998-.448-1-1v-46c-.001-.796.315-1.56.878-2.123s1.326-.878 2.122-.877h40c.796-.001 1.56.315 2.122.878s.879 1.326.878 2.122z" fill="#f9eab0"/><path id="Rectangle-path" d="m13 4h34c1.105 0 2 .895 2 2v26c0 1.105-.895 2-2 2h-34c-1.105 0-2-.895-2-2v-26c0-1.105.895-2 2-2z" fill="#71c285"/><path id="Shape_11_" d="m46 4c-29 7-30 30-30 30h-3c-1.103-.003-1.997-.897-2-2v-26c.003-1.103.897-1.997 2-2z" fill="#7ed09e"/><path id="Shape_13_" d="m31 41c-.002.552-.448.998-1 1h-23v-2h23c.552.002.998.448 1 1z" fill="#cbb292"/><path id="Shape_14_" d="m53 40v2h-4c-.552 0-1-.448-1-1s.448-1 1-1z" fill="#cbb292"/><path id="Shape_15_" d="m2 59h-1c-.552 0-1-.448-1-1s.448-1 1-1h1c.552 0 1 .448 1 1s-.448 1-1 1z" fill="#3f5c6c"/><path id="Shape_16_" d="m59 59h-53c-.552 0-1-.448-1-1s.448-1 1-1h53c.552 0 1 .448 1 1s-.448 1-1 1z" fill="#3f5c6c"/><circle id="Oval" cx="22" cy="10" fill="#2c2f38" r="3"/><circle id="Oval_1_" cx="21" cy="9" fill="#fff" r="1"/><circle id="Oval_2_" cx="38" cy="10" fill="#2c2f38" r="3"/><circle id="Oval_3_" cx="37" cy="9" fill="#fff" r="1"/><path id="Rectangle-path_1_" d="m31 39h17c.552 0 1 .448 1 1v2c0 .552-.448 1-1 1h-17c-.552 0-1-.448-1-1v-2c0-.552.448-1 1-1z" fill="#5f5346"/><path id="Shape_17_" d="m38 19.667c0 5.16-3.587 9.333-8 9.333s-8-4.173-8-9.333c0-.899.112-1.795.333-2.667h15.333c.222.872.334 1.767.334 2.667z" fill="#2c3e50"/><path id="Shape_18_" d="m35.1 26.85c-1.341 1.375-3.18 2.15-5.1 2.15s-3.759-.775-5.1-2.15c1.09-1.771 3.02-2.85 5.1-2.85s4.01 1.079 5.1 2.85z" fill="#cc4b4c"/><path id="Shape_19_" d="m38 19.67c0 .11 0 .22-.01.33h-15.98c-.01-.11-.01-.22-.01-.33 0-.9.111-1.797.33-2.67h15.34c.219.873.33 1.77.33 2.67z" fill="#fff"/><path id="Shape_20_" d="m47 35h-34c-1.656-.002-2.998-1.344-3-3v-26c.002-1.656 1.344-2.998 3-3h34c1.656.002 2.998 1.344 3 3v26c-.002 1.656-1.344 2.998-3 3zm-34-30c-.552 0-1 .448-1 1v26c0 .552.448 1 1 1h34c.552 0 1-.448 1-1v-26c0-.552-.448-1-1-1z" fill="#cbb292"/><circle cx="12" cy="45.006" fill="#e64c3c" r="1"/></svg>