<?xml version="1.0" encoding="UTF-8"?>
<!DOCTYPE svg  PUBLIC '-//W3C//DTD SVG 1.1//EN'  'http://www.w3.org/Graphics/SVG/1.1/DTD/svg11.dtd'>
<svg enable-background="new 0 0 126 127" version="1.1" viewBox="0 0 126 127" xml:space="preserve" xmlns="http://www.w3.org/2000/svg" xmlns:xlink="http://www.w3.org/1999/xlink">
		<defs>
			<rect id="b" y="-1.75" width="126" height="131"/>
		</defs>
		<clipPath id="a">
			<use overflow="visible" xlink:href="#b"/>
		</clipPath>
		<path d="m26.839 122.31c-5.828-1.702-11.794-7.216-13.809-12.731-1.079-2.724-2.658-14.749-9.708-50.318-1.34-6.763 2.517-10.759 7.049-13.004 1.15-0.547 6.543-2.043 12.008-3.27l9.854-2.248 1.652-8.713c1.944-10.213 4.244-15.047 9.494-19.678 11.578-10.213 28.69-10.28 40.126-0.134 5.393 4.766 7.697 9.532 9.637 19.813l1.655 8.713 9.851 2.248c11.147 2.518 13.233 3.404 15.963 6.401 3.884 4.426 3.884 5.309-0.932 32.477-2.446 13.55-4.963 26.079-5.682 27.848-1.509 3.951-6.147 10.264-10.498 11.37-8.143 2.069-3.383 1.5-38.905 1.635-19.777 0.067-30.365 0.434-37.755-0.409zm83.633-33.838l3.094-17.16-4.173-0.34c-5.323-0.476-9.637-2.451-13.805-6.401-2.948-2.926-6.696-8.786-5.971-9.462 0.33-0.307 6.113 0.189 8.3 0.53 1.13 0.176 0.547 1.442 3.064 3.623 7.191 6.33 15.03 5.309 15.03-2.043 0-3.678-3.524-5.174-19.057-8.171-13.232-2.521-22.008-3.202-36.676-2.929l-13.45 0.205 0.36-3.269c0.146-1.77 0.505-3.472 0.79-3.745 0.866-0.749 24.81-0.954 31.788-0.273 3.524 0.411 6.472 0.614 6.614 0.478 0.431-0.408-2.157-12.937-3.165-15.253-2.442-5.581-6.757-9.057-13.876-11.302-9.855-3.064-21.432 2.11-25.529 11.508-0.648 1.429-2.304 9.054-3.668 16.884-2.805 15.798-3.803 18.37-8.989 23.49-3.837 3.788-8.27 5.719-13.521 6.128l-4.173 0.34 3.023 16.82c3.236 17.77 3.738 19.608 6.4 22.944 3.596 4.426 2.731 4.359 41.422 4.153 0 0 33.864 0.134 34.949-0.135 6.25-1.547 7.912-8.033 11.219-26.62zm-89.532-25.873c3.525-1.362 6.472-4.085 8.128-7.423 1.079-2.248 1.869-6.536 1.221-6.468-0.142 0-3.955 0.954-8.484 2.043-8.775 2.11-10.787 3.337-10.787 6.604 0 2.489 0.785 5.477 0.901 6.058 0.299 1.503 6.362 0.275 9.021-0.814z" clip-path="url(#a)" fill="#25D366" stroke="#25D366" stroke-miterlimit="10" stroke-width="4"/>
</svg>
