<?xml version="1.0" encoding="utf-8"?>
<!-- Generator: Adobe Illustrator 17.0.0, SVG Export Plug-In . SVG Version: 6.00 Build 0)  -->
<!DOCTYPE svg PUBLIC "-//W3C//DTD SVG 1.1//EN" "http://www.w3.org/Graphics/SVG/1.1/DTD/svg11.dtd">
<svg version="1.1" id="Camada_1" xmlns="http://www.w3.org/2000/svg" xmlns:xlink="http://www.w3.org/1999/xlink" x="0px" y="0px"
	 width="126px" height="131px" viewBox="0 0 126 131" enable-background="new 0 0 126 131" xml:space="preserve">
<g>
	<g>
		<defs>
			<rect id="SVGID_1_" width="126" height="131"/>
		</defs>
		<clipPath id="SVGID_2_">
			<use xlink:href="#SVGID_1_"  overflow="visible"/>
		</clipPath>
		<path clip-path="url(#SVGID_2_)" fill="#557CF2" stroke="#557CF2" stroke-width="4" stroke-miterlimit="10" d="M29.879,119.814
			c-5.303-1.64-10.733-6.952-12.567-12.264c-0.982-2.624-2.419-14.208-8.835-48.473c-1.22-6.515,2.291-10.364,6.415-12.527
			c1.046-0.526,5.954-1.968,10.927-3.15l8.967-2.165l1.503-8.394c1.769-9.839,3.862-14.495,8.64-18.957
			C55.467,4.044,71.04,3.98,81.447,13.754c4.908,4.591,7.004,9.183,8.77,19.086l1.506,8.394l8.965,2.165
			c10.144,2.426,12.042,3.28,14.527,6.167c3.535,4.263,3.535,5.114-0.848,31.287c-2.226,13.053-4.516,25.123-5.171,26.827
			c-1.373,3.806-5.594,9.888-9.554,10.953c-7.41,1.993-3.078,1.445-35.405,1.575C46.24,120.273,36.605,120.626,29.879,119.814
			L29.879,119.814z M105.988,87.217l2.816-16.531l-3.797-0.328c-4.844-0.458-8.77-2.361-12.563-6.167
			c-2.683-2.819-6.093-8.464-5.434-9.115c0.3-0.296,5.563,0.182,7.554,0.51c1.028,0.169,0.498,1.389,2.788,3.49
			c6.544,6.098,13.678,5.114,13.678-1.968c0-3.543-3.207-4.984-17.342-7.871c-12.042-2.429-20.028-3.085-33.376-2.821l-12.24,0.198
			l0.327-3.149c0.133-1.705,0.46-3.345,0.719-3.608c0.788-0.721,22.578-0.919,28.928-0.263c3.207,0.396,5.89,0.591,6.019,0.461
			c0.392-0.393-1.963-12.462-2.88-14.694c-2.222-5.377-6.149-8.725-12.628-10.887c-8.968-2.952-19.504,2.032-23.232,11.086
			c-0.59,1.377-2.097,8.722-3.338,16.265c-2.552,15.219-3.461,17.697-8.18,22.629c-3.491,3.649-7.526,5.51-12.304,5.903
			l-3.797,0.328l2.751,16.203c2.945,17.119,3.401,18.889,5.824,22.103c3.272,4.263,2.485,4.199,37.695,4.001
			c0,0,30.817,0.129,31.804-0.13C101.466,111.37,102.978,105.122,105.988,87.217z M24.511,62.292c3.208-1.312,5.89-3.936,7.397-7.15
			c0.982-2.165,1.701-6.296,1.111-6.231c-0.129,0-3.599,0.919-7.721,1.968c-7.986,2.032-9.816,3.215-9.816,6.362
			c0,2.398,0.714,5.276,0.82,5.836C16.574,64.524,22.092,63.34,24.511,62.292L24.511,62.292z M24.511,62.292"/>
	</g>
</g>
</svg>
