<svg xmlns="http://www.w3.org/2000/svg" viewBox="0 0 24 24"><path d="M11.894 24a.5.5 0 0 1-.491-.598l.707-3.536a.491.491 0 0 1 .137-.255l7.778-7.778a1.501 1.501 0 0 1 2.121 0l1.414 1.414a1.501 1.501 0 0 1 0 2.121l-7.778 7.778a.497.497 0 0 1-.256.137l-3.535.707a.457.457 0 0 1-.097.01zm1.168-3.789l-.53 2.652 2.651-.53 7.671-7.671a.5.5 0 0 0 0-.707l-1.414-1.414a.5.5 0 0 0-.707 0zm2.367 2.582h.01zM13.5 15h-10a.5.5 0 0 1 0-1h10a.5.5 0 0 1 0 1zM11.5 18h-8a.5.5 0 0 1 0-1h8a.5.5 0 0 1 0 1zM8.5 7c-1.103 0-2-.897-2-2s.897-2 2-2 2 .897 2 2-.897 2-2 2zm0-3a1.001 1.001 0 0 0 0 2 1.001 1.001 0 0 0 0-2zM12 12a.5.5 0 0 1-.5-.5v-1c0-.827-.673-1.5-1.5-1.5H7c-.827 0-1.5.673-1.5 1.5v1a.5.5 0 0 1-1 0v-1C4.5 9.122 5.621 8 7 8h3c1.379 0 2.5 1.122 2.5 2.5v1a.5.5 0 0 1-.5.5z"/><path d="M9.5 21h-7A2.503 2.503 0 0 1 0 18.5v-16C0 1.122 1.121 0 2.5 0h12C15.879 0 17 1.122 17 2.5v9a.5.5 0 0 1-1 0v-9c0-.827-.673-1.5-1.5-1.5h-12C1.673 1 1 1.673 1 2.5v16c0 .827.673 1.5 1.5 1.5h7a.5.5 0 0 1 0 1z"/></svg>